<?xml version="1.0" encoding="UTF-8"?>
<svg xmlns="http://www.w3.org/2000/svg"
    viewBox="0 0 1867.59 1397.41"
    width="100%" height="100%"
    preserveAspectRatio="xMidYMid meet">
<g style="stroke: none;">
  <path d="M1866.13,124.09c-.12-4-1.43-4.64-5.15-3.16-1.22.49-2.38,1.19-3.5,1.9-12.93,8.22-25.62,16.82-38.79,24.62-29.37,17.4-58.91,34.5-88.48,51.55-19.76,11.39-39.61,22.64-59.57,33.66-25.78,14.23-51.06,29.4-78.25,41-13.16,5.61-25.98,12.03-38.93,18.15-16.78,7.93-32.37,17.95-46.83,29.43-11.57,9.19-22.31,19.54-32.62,30.15-7.85,8.09-14.87,17.09-18.22,28.34-.4,1.37-2.67,2.88-4.25,3.1-9.73,1.34-19.49,2.54-29.27,3.38-23.71,2.04-47.44,3.84-71.16,5.79-3.62.3-5.61-1.29-7.64-4.27-5.23-7.69-10.85-15.14-16.66-22.41-2-2.5-2.82-4.31-.5-6.85,1.23-1.35,2.24-2.9,3.32-4.38,11.41-15.56,23.51-30.67,34.05-46.8,15.9-24.34,28.39-50.52,36.34-78.58,7.64-26.99,12.4-54.31,10.81-82.72-1.53-27.43-7.02-53.84-16.9-79.25-5.53-14.23-12.49-27.96-19.67-41.45-4.75-8.93-10.66-17.35-20-22.5-8.47-4.68-19.74-3.33-27.03,2.94-5.91,5.08-8.51,11.73-10.29,18.94-1.71,6.95-3,14.03-5.25,20.8-7.79,23.48-18.25,45.66-31.69,66.55-17.8,27.67-38.47,52.54-64.34,73.14-17.42,13.87-36.2,25.46-57.31,31.84-27.7,8.36-55.9,15.24-84.16,21.51-34.38,7.63-68.48,15.85-100.62,30.61-15.78,7.25-31.23,15.12-42.37,29.16-.62.79-.95,1.8-1.26,2.41-6.3-5.14-11.49-9.8-17.1-13.89-17.64-12.87-37.49-21.4-57.62-29.55-22.27-9.02-45.67-13.33-68.95-18.22-11.72-2.46-23.67-3.83-35.39-6.28-10.74-2.25-21.4-5.01-31.95-8.06-12.94-3.74-26.02-7.26-38.52-12.21-23.45-9.29-42.87-24.71-60.41-42.55-18.42-18.73-33.66-39.92-47.44-62.22-11.74-19-20.05-39.4-25.75-60.96-2.68-10.14-5.37-20.3-8.79-30.2-5.66-16.4-24.05-21.71-37.07-10.22-6.63,5.84-12.03,13.33-16.99,20.74-12.2,18.25-21.07,38.21-27.57,59.12-3.06,9.83-5.69,19.93-7.05,30.11-2.74,20.49-3.11,41.1-1.59,61.81,2.06,28.18,7.81,55.42,19.58,81.1,12.45,27.18,27.93,52.66,46.45,76.2,6.87,8.74,13.93,17.34,21.04,26.18-8.11,8.14-13.72,17.55-18.63,27.4-1.38,2.77-3.6,3.13-6.24,3.02-9.32-.37-18.66-.5-27.96-1.11-23.92-1.57-47.82-3.37-71.74-5.01-3.47-.24-5.19-2.42-6.92-5.02-4.52-6.79-8.99-13.63-13.91-20.13-12.55-16.57-27.52-30.75-44.07-43.26-15.85-11.99-32.62-22.41-50.86-30.49-19.33-8.56-38.82-16.88-57.62-26.51-19.1-9.78-37.53-20.9-56.11-31.67-26.94-15.61-53.8-31.36-80.6-47.21-18.49-10.94-36.96-21.93-55.18-33.31-12.83-8.01-25.21-16.74-37.86-25.04-1.27-.84-3.38-1.67-4.45-1.16-1.03.5-1.64,2.72-1.73,4.22-1.26,20.47-1.59,40.95,1.16,61.34,2.4,17.86,6.12,35.47,12.46,52.35,10.87,28.93,27.92,54.07,48.77,76.66,8.81,9.54,18.18,18.56,27.53,27.58,3.02,2.91,4.17,5.32,1.3,8.91-1.54,1.92-3.07,4.09-3.8,6.41-3.2,10.12-6.5,20.24-9,30.55-2.56,10.59-2.96,21.5-1.03,32.25,5.14,28.57,16.33,54.13,38.37,73.94,14.87,13.36,29.69,26.86,48.81,34.16,2.96,1.13,3.5,2.82,2.36,5.83-4.48,11.84-10.8,22.06-22.53,28.1-5.58,2.87-7.1,7.8-6.72,13.86,1.26,20.15,10.13,37.18,22.15,52.6,15.03,19.3,32.64,36.12,53.81,48.61,11.86,7,24.34,13.02,36.86,18.79,6.51,3,13.72,4.51,21.37,6.93-1.94,1.29-3.23,2.27-4.63,3.06-12.04,6.77-24.05,13.58-36.17,20.21-6.94,3.79-7.64,4.63-4.52,12.09,2.24,5.34,4.82,10.71,8.2,15.37,7.43,10.22,14.76,20.67,23.42,29.81,9.9,10.47,20.84,20.05,32.01,29.19,8.99,7.36,18.83,13.73,28.57,20.1,18.24,11.93,36.31,24.17,55.12,35.13,22.25,12.97,46.61,21.4,71.09,29.02,19.39,6.03,39.31,10.16,59.58,12.32,1.78.19,4.03,1.65,4.96,3.19,3.37,5.54,5.87,11.61,9.4,17.03,9.64,14.78,19.03,29.77,29.64,43.83,11.82,15.67,25.49,29.81,39.8,43.33,24.15,22.83,49.43,44.11,78.63,60.33,2.59,1.44,5.87,2.76,7.14,5.06.88,1.6-1.13,4.8-1.83,7.29-.14.48-.24.98-.28,1.47-.69,8.91-1.77,17.81-1.96,26.73-.3,14.21,0,28.42,9.63,41.46h-.06c-2.44.39-3.69.69-4.96.78-9.47.65-18.99.88-28.4,1.98-11.04,1.29-22.02,2.8-31.42,9.97-14.5,11.06-23.56,25.49-28.24,42.9-.61,2.25-.55,4.75-1.54,6.78-.82,1.68-2.49,3.6-4.18,4.11-9.72,2.92-19.55,5.46-29.34,8.14-12.19,3.34-24.49,6.37-36.55,10.14-12.18,3.81-20.14,12.32-21.34,25.13-1.2,12.78.98,25.67,8.55,36.24,1.46,2.04,2.86,3.82,4.27,5.35.99.12,1.71.31,2.04.57-.24.15-.58.33-.99.53-.35-.35-.7-.71-1.05-1.1-2.88-.32-8.09.08-12.99,1.78-3.92.79-10.39,4.45-14.21,5.61-7.55,2.3-11.82,7.5-13.33,15.3-2.48,12.79-1.78,25.58-.18,38.32,1.08,8.62,6.18,14.44,14.56,17.38,10.01,3.5,20.09,2.26,30.15.73,22.78-3.47,44.91-9.53,66.68-17.02,9.92-3.41,19.94-6.5,29.89-9.79,2.99-.99,4.78-.44,6.3,2.72,3.79,7.84,10.42,12.18,19.06,12.45,18.83.58,37.67.68,56.34-2.4,3.79-.63,6.59.25,9.57,2.7,4.21,3.47,8.61,7.15,13.57,9.18,26.57,10.87,52.56,10.52,77.39-5.37,5.74-3.68,6.76-3.45,12.07.31,18.55,13.12,38.59,16.22,60.22,8.94,10.67-3.59,19.07-10.74,27.97-17.17,2.41-1.74,5.67-3.16,8.57-3.23,19.82-.49,39.65-.61,59.47-.77,2.15-.01,4.41.11,6.42.78,1.93.64,4.17,1.67,5.27,3.24,8.48,12.02,20.83,17.32,34.56,19.85,14.45,2.66,28.57-.09,42.3-4.52,4.97-1.6,9.77-4.28,14.03-7.32,3.51-2.5,6.01-2.24,9.46-.22,5.72,3.35,11.54,6.72,17.7,9.09,18.18,6.98,36.2,3.84,53.62-2.76,6.35-2.4,11.67-7.45,17.61-11.05,1.82-1.1,4.16-2.02,6.22-1.93,15.79.66,31.56,1.8,47.35,2.35,13.93.49,26.8-2.5,37.02-13.04.89-.92,3.41-1.01,4.85-.52,6.92,2.34,13.7,5.12,20.59,7.55,22.02,7.75,44.42,14.15,67.42,18.2,11.21,1.97,22.57,2.66,33.65-.89,9.98-3.2,15.78-11.85,16.05-22.18.22-8.21-2.13-15.78-4.64-23.38-4.13-12.5-9.25-24.17-24.05-27.84.73-1.31,1.11-2.21,1.68-2.98,5.56-7.56,9.01-15.79,9.33-25.36.7-20.77-4.93-34.75-26.04-41.01-11.33-3.36-22.83-6.15-34.11-9.65-9.84-3.06-19.53-6.63-29.2-10.23-5.06-1.88-8.02-5.3-9.54-11.05-2.07-7.8-5.19-15.52-9.13-22.56-10.25-18.36-26.13-29.18-47.18-31.13-11.74-1.09-23.62-.72-35.44-1.03-1.73-.05-3.46-.18-5.67-.29,2.49-4.63,4.76-8.47,6.67-12.5,5.47-11.56,4.53-23.72,2.65-35.8-1.64-10.48-3.92-20.85-5.85-30.95,7.21-3.81,14.8-6.78,21.18-11.41,15.89-11.54,31.84-23.12,46.62-36.01,19.2-16.74,36.59-35.35,52.62-55.27,16.77-20.84,31.99-42.57,43.7-66.66,1.21-2.48,2.83-3.54,5.52-3.15,1.15.16,2.33.26,3.48.19,19.23-1.16,37.93-5.57,56.27-10.86,18.2-5.25,35.99-12.02,53.67-18.89,18.19-7.07,35.27-16.49,51.54-27.31,11.08-7.37,21.86-15.26,33.3-22.02,21.78-12.87,42.66-26.9,59.02-46.4,10.35-12.33,20.08-25.31,28.77-38.85,6.36-9.92,5.05-11.14-5.36-16.45-12.58-6.42-24.99-13.18-37.48-19.78-1.95-1.03-3.93-1.96-5.9-2.94,1.8-1.41,3.36-1.79,4.92-2.21,6.26-1.7,12.67-2.98,18.74-5.21,18.99-6.97,36.75-16.45,53.3-28.07,23.64-16.59,42.67-37.56,57.97-61.99,4.89-7.82,9.09-15.97,10.5-25.17,2.37-15.46.81-17.81-12.99-25.22-10.35-5.56-18.61-13.37-23.11-24.61-1.26-3.17-.68-5.08,2.48-6.92,7.15-4.16,14.45-8.27,20.92-13.39,10.56-8.36,20.9-17.09,30.63-26.4,16.99-16.24,28.29-36.25,34.63-58.71,2.72-9.64,4.22-20.07,3.83-30.04-.7-17.9-4.61-35.31-14.17-50.98-.58-.95-.19-3.33.64-4.14,5.82-5.68,11.93-11.08,17.85-16.67,18.76-17.69,35.76-36.93,47.68-59.93,14.25-27.49,23.13-56.84,24.48-87.85.81-18.56-.64-37.23-1.22-55.85ZM1441.65,415.12c-8.85,12.38-12.51,27.2-17.06,41.77-3.45,11.04-8.19,21.71-12.8,32.35-4.12,9.52-9.88,18.07-17.17,25.51-.56.57-1.18,1.07-2.76,2.5-5.52-31.93-13.34-62.3-25.81-90.65,25.17-3.82,50.48-7.67,75.6-11.48ZM1310.49,565.4c-3.23,21.89-9.96,42.39-19.87,61.99-6.8,13.44-15.45,25.58-25.21,37.06-17.26,20.31-37.48,36.98-60.86,49.54-20.94,11.24-43.24,18.77-66.89,22.55-16.03,2.56-32.01,4.05-48.21,4.01-14.69-.04-28.76-3.18-42.62-7.56-16.87-5.32-33.26-11.81-48.6-20.71-1.31-.76-2.21-2.22-3.3-3.35,1.07-.94,2.19-1.83,3.19-2.83,3.63-3.62,7.62-6.96,10.74-10.97,9.09-11.7,15.54-24.79,19.39-39.14,1.54-5.74,2.53-6.17,7.28-2.36,10.57,8.47,21.7,15.89,34.18,21.4,11.63,5.14,23.87,7.53,36.3,8.61,48.18,4.19,87.91-13.11,120.49-48.21,14.29-15.39,22.88-33.67,28.58-53.66,5.52-19.36,5.86-39.15,2.27-58.43-5.27-28.32-18.67-52.95-40.45-72.43-6.08-5.43-12.49-10.49-18.81-15.66-1.28-1.05-2.78-1.82-4.17-2.71.32-.63.63-1.27.95-1.91h.01c1.27-.71,2.46-1.65,3.82-2.05,14.78-4.34,26.59-13.62,38.2-23.11,3-2.45,5.3-2.71,7.79-.34,9.39,8.93,19.46,17.31,27.75,27.18,14.93,17.77,25.35,38.38,32.05,60.54,7.15,23.64,9.65,47.74,6,72.55ZM933.48,785.09c-.46.98-.92,1.96-1.39,2.94-1.2,2.5-2.57,4.91-4.42,8.42-1.99-2.94-3.66-4.77-4.62-6.93-.49-1.1-.98-2.21-1.48-3.31-8.5-19.1-17.15-38.14-25.15-57.45-5.85-14.13-11.21-28.52-15.77-43.11-3.91-12.51-6.36-25.47-9.49-38.23-.47-1.93-.85-3.97-1.76-5.7-1.82-3.48-1.24-6.56.36-9.97,4.4-9.33,8.78-18.69,12.66-28.25,2.68-6.6,4.62-13.52,6.7-20.35,1.38-4.51,2.92-5.22,6.44-1.76,9.13,8.99,17.98,18.27,27.05,27.31,2.16,2.15,4.76,3.85,7.15,5.76l2.86.31c.2-2.03,1.07-3.67,2.6-5.28,7.35-7.71,14.66-15.46,21.94-23.24,1.81-1.93,3.36-4.1,5.17-6.04.85-.91,2.03-1.53,3.05-2.28.77,1.14,1.81,2.18,2.27,3.43,4.04,11.09,7.45,22.44,12.12,33.25,3.13,7.25,8.09,13.7,12,20.64.85,1.51,1.42,3.78.95,5.34-2.33,7.62-5.38,15.03-7.58,22.68-10.17,35.35-24.71,68.86-41.89,101.32-3.53,6.69-6.56,13.64-9.77,20.5ZM744.69,739.77c-10.44-.88-20.91-1.85-31.25-3.52-15.35-2.48-29.96-7.61-44.14-13.98-17.88-8.03-34.31-18.42-49.61-30.57-15.24-12.11-27.66-26.83-38.97-42.64-18.85-26.34-30.02-55.54-33.46-87.65-2.43-22.6-.24-44.79,6.27-66.68,4.54-15.27,10.26-29.93,18.41-43.58,8.08-13.54,18.19-25.45,29.93-35.96,3.85-3.44,7.88-6.67,11.89-9.92,1.65-1.34,3.31-2.04,5.24-.06,11.13,11.44,25.34,17.5,40.06,22.64,2.04.71,4.06,1.5,6.07,2.29.45.18.83.54,2.05,1.37v.03c-6.52,4.71-12.29,8.86-18.04,13.05-20.66,15.07-35.71,34.59-43.9,58.73-7.03,20.72-8.98,42.27-5.4,64.05,5.47,33.23,21.4,60.44,46.94,82.38,15.43,13.25,32.68,22.97,52,28.92,23.16,7.14,46.59,6.82,70.1,1.46,20.33-4.63,38.37-14.04,55.2-26.04,2.14-1.53,4.09-3.33,6.78-5.54.74,2.18,1.55,3.89,1.91,5.7,3.15,15.6,8.86,30.05,19.45,42.17,2.92,3.35,6.21,6.42,9.62,9.28,2.63,2.2,1.95,3.28-.6,4.67-17.74,9.7-36.2,17.75-55.73,23-19.88,5.34-40.17,8.14-60.82,6.4ZM520.85,256.32c1.96.8,4.17,1.26,5.84,2.46,18.84,13.65,39.64,23.9,60.25,34.37,32.96,16.73,66.19,32.94,99.4,49.18,21.09,10.31,42.32,20.33,63.53,30.4,6.77,3.21,13.75,5.98,20.47,9.27,17.19,8.42,34.41,16.78,51.38,25.62,23.38,12.17,44.07,28.09,62.4,46.97,15.6,16.07,28.63,34.18,40.54,53.11.84,1.34,1.82,2.6,2.99,4.25,6.63-9.14,12.44-18.07,19.22-26.21,10.41-12.51,21.03-24.91,32.4-36.53,15.19-15.52,32.7-28.22,51.83-38.6,11.12-6.03,22.03-12.48,33.36-18.09,21.33-10.54,42.94-20.51,64.35-30.88,25.15-12.19,50.28-24.44,75.31-36.87,28.63-14.21,57.19-28.56,85.7-43.03,14.97-7.6,29.74-15.57,45.5-22.87-1.43,1.92-2.62,4.11-4.34,5.73-25.14,23.78-52.52,44.57-82.75,61.54-24.39,13.69-48.33,28.2-73.07,41.21-33.14,17.43-66.83,33.8-100.33,50.55-29.6,14.81-57.86,31.54-81.85,54.77-15.4,14.92-28.3,31.87-40.74,49.18-7.96,11.08-15.4,22.53-23.08,33.82-2.23,3.28-3.79,2.96-6.18-.66-12.55-19.01-24.46-38.5-37.99-56.8-21.88-29.6-49.27-53.22-82.33-69.78-22.76-11.4-45.95-21.96-68.65-33.48-25.66-13.02-51.24-26.26-76.39-40.23-21.08-11.71-41.69-24.3-62.13-37.1-10.99-6.87-21.51-14.58-31.69-22.63-13.94-11.02-27.37-22.71-40.98-34.15-1.06-.89-1.84-2.12-2.74-3.19.26-.44.51-.88.77-1.33ZM1036.95,555.93c.2,14.33,5.88,26.86,13.18,38.77,14.03,22.88,34.48,36.91,60.71,41.56,16.94,3,33.23-.54,49.04-7.82,27.65-12.73,43.81-34.38,49.6-63.47,5.17-25.97-1.58-49.92-17.13-71.19-3.69-5.05-8.34-9.64-13.3-13.45-10.29-7.88-20.65-15.83-33.49-19.44-1.89-.53-3.63-1.66-5.41-2.55-.27-.13-.42-.49-1.02-1.23,3.45-1.7,6.76-3.39,10.11-4.98,4.06-1.93,8.21-3.68,12.22-5.71,5.72-2.88,11.45-3.16,17.37-.75,14.93,6.08,27.68,15.36,38.41,27.22,10.71,11.83,19.01,25.27,23.72,40.68,5.54,18.13,7.37,36.43,3.27,55.2-7.57,34.58-26.31,61.21-55.61,80.96-21.54,14.52-45.05,22.16-70.91,21.51-20.67-.52-39.76-6.57-57.32-18.04-18.74-12.24-32.17-28.74-39.64-49.36-7.59-20.95-5.69-41.28,9.84-58.94,2.54-2.89,4.16-6.59,6.34-10.13,0,7.36-.08,14.26.02,21.16ZM1080.25,519.83c.17-18.47,19.27-37.22,37.96-36.75,21.07.53,37.88,17.96,37.38,38.83-.51,21.53-17.4,38.65-38.44,38.4-20.69-.24-37.11-18.25-36.9-40.48ZM776.55,521.9c1.31,18.29-17.53,38.43-37.25,38.22-21.02-.22-37.52-16.82-37.96-41.26-.32-17.9,17.54-35.02,36.55-35.53,24.58-.65,39.71,21.69,38.65,38.57h.01ZM693.63,469.04c-25.44,13.82-41.04,35.18-46.48,63.44-3.04,15.8-.67,31.42,5.07,46.58,9.1,24.04,26.36,40.08,49.17,50.52,20.64,9.45,41.59,10.36,62.95,1.53,10.76-4.45,20.69-9.83,29.24-17.78,11.19-10.4,19.61-22.72,24.51-37.12,2.93-8.62,4.66-17.67,6.58-26.59.46-2.12-.37-4.56-.81-6.82-.3-1.52-.94-2.98-1.48-4.6.99-.11,1.49-.28,1.57-.16,6.76,9.85,14.37,19.35,16.77,31.4,1.01,5.1,1.11,10.61.43,15.77-3.44,26.14-16.33,46.59-37.34,62.53-18.13,13.76-38.55,20.85-60.81,23.05-6.88.68-13.99,0-20.91-.81-23.71-2.79-43.86-13.23-62.33-28.17-17.41-14.08-30.6-31.13-39.38-51.41-10.78-24.89-12.14-50.45-3.58-76.52,10.27-31.24,31.15-52.84,59.62-68.06,7.24-3.87,13.65-3.84,20.44.86,5.69,3.93,11.82,7.25,18.63,11.37-7.96,3.98-15.02,7.27-21.86,10.99ZM421.7,418.92c24.4,2.38,49.23,4.8,73.71,7.19-13.71,30-23.38,61.41-24,95.22l-1.68.39c-3.84-5.05-7.89-9.97-11.49-15.18-15.43-22.31-25.87-46.73-31.3-73.36-1-4.9-3.46-9.51-5.25-14.25h.01Z"/>
  <path d="M509.44,1313.29c-.24.15-.58.33-.99.53-.35-.35-.7-.71-1.05-1.1.99.12,1.71.31,2.04.57Z"/>
</g>
</svg>
