<svg xmlns="http://www.w3.org/2000/svg" xmlns:xlink="http://www.w3.org/1999/xlink"
    height="100%"
    viewBox="100 40 510 510"
    preserveAspectRatio="xMidYMid meet">
  <path d="M558.72,113.15c10.03,4.28,18.8,10.23,26.48,17.67,15.86,15.38,24.64,34.26,27.33,56.13,1.3,10.56,.84,20.98-1.09,31.43-2.78,15.04-12.52,22.76-27.23,25.34-5.34,.94-10.82,1.01-16.18,1.46,.56,3.03,1.36,6.14,1.67,9.31,1.75,17.53-9.53,32.88-26.91,36.75-15.2,3.38-29.13-.37-42.44-7.56-.85-.46-1.72-.89-2.59-1.32-.14-.07-.32-.04-.2-.03,2.36,7.05,5.04,14.12,7.04,21.37,1.58,5.7,2.47,11.6,3.35,17.46,.27,1.78,.95,2.69,2.35,3.6,14.31,9.31,27.55,19.87,37.77,33.74,7.18,9.76,12.75,20.34,14.18,32.57,.44,3.82,.2,7.81-.38,11.63-.69,4.52-4.72,7.84-9.16,8.74-1.18,.24-2.51,1.02-3.24,1.96-4.61,6.02-8.55,7.45-15.68,5.5-.48-.13-1.12-.1-1.57,.11-9.45,4.45-16.25,2.84-22.63-5.5-2.37-3.1-4.44-6.43-6.92-9.43-1.57-1.91-3.64-3.4-5.65-5.23-2.39,4.79-4.62,9.09-6.65,13.48-.29,.63,.17,1.8,.61,2.53,6.03,10.26,10.37,21.09,11.96,32.98,2.12,15.93,.02,31.07-7.99,45.19-.32,.57-.58,1.18-.91,1.85,12.39,2.5,22.27,8.47,28.82,19.31,6.06,10.03,5.54,21.8-1.44,30.33-3.96,4.84-9.15,7.47-15.51,7.48-21.39,.01-42.78,.04-64.17,.02-12.38-.01-21.64-8.89-21.5-21.27,.07-6.49,1.38-12.96,2.02-19.45,.49-4.95,.91-9.91,1.18-14.87,.19-3.62-1.19-6.72-4.04-8.99-4.11-3.28-8.25-6.54-12.53-9.6-.95-.68-2.57-.82-3.78-.63-3.54,.57-7.06,1.35-10.54,2.23-.93,.23-1.91,.93-2.52,1.7-3.78,4.81-7.47,9.69-11.26,14.65,.29,.1,1.05,.35,1.81,.59,13.37,4.29,23.62,11.96,27.5,26.14,3.49,12.78-3.74,25.92-15.91,29.06-2.61,.67-5.4,.83-8.11,.84-25,.09-50.01-.21-75.01,.24-16.49,.3-25.05-11.84-25.36-25.27-.36-15.23,2.2-30.07,5.54-44.84,.34-1.5,.79-3.11,.58-4.59-.46-3.2-2.46-4.89-5.74-5.67-22.3-5.3-43-14.28-61.52-27.87-34.05-24.98-55.56-58.42-66.02-99.14-3.87-15.05-6.06-30.38-6.47-45.93-.15-5.63,1.78-8.84,5.56-9.75,3.63-.87,6.67,1.12,9.11,6.15,7.88,16.18,16.61,31.87,28.47,45.49,4.96,5.69,10.59,10.97,16.61,15.53,13.67,10.37,29.04,4.96,38.9-3.34,5.33-4.49,8.93-10.23,11.6-16.63,9.93-23.9,23.92-45.08,42.82-62.86,12.91-12.14,27.12-22.24,44.37-27.41,.96-.29,2.14-.93,2.56-1.74,3.15-6.14,6.59-12.2,8.98-18.64,1.09-2.93,.52-6.78-.18-10.02-7.41-34.01-5.07-67.09,9.96-98.71,8.67-18.24,21.71-32.9,40.09-41.94,5.36-2.63,9.72-6.28,14.33-9.81,12.35-9.46,26.05-11.67,40.83-6.95,1.76,.56,2.95,.41,4.55-.52,16.36-9.51,33.16-11.33,50.3-2.15,7.19,3.85,12.3,9.78,15.76,17.16,.41,.88,1.12,1.95,1.95,2.26,17.89,6.64,25.44,19.32,22.1,37.66Zm-177.48,423.67c1.6,0,2.95,.02,4.31,0,4.63-.09,7.83-3.06,7.71-7.65-.06-2.15-.56-4.5-1.56-6.39-3.4-6.44-9.22-9.89-16.02-11.74-8.69-2.36-17.42-1.37-26.07,.35-8.34,1.66-16.63,3.55-25.52,5.46,1.24-.88,2.01-1.45,2.8-1.98,7.04-4.73,14.17-9.32,21.09-14.21,10.07-7.12,20-14.56,26.76-25.09,13.44-20.93,13.98-43.05,4.68-65.64-3.21-7.8-7.86-14.51-15.18-19.5-7.89-5.37-12.81-13.18-14.44-22.86-1.32-7.82-.11-15.35,2.26-22.74,4.93-15.38,13.15-29.04,22.42-42.12,2.84-4.01,5.84-7.9,8.76-11.85,.43,1.26,.35,2.21,.27,3.16-.87,10.69-4.13,20.75-8.02,30.65-3.38,8.59-7.3,17.02-9.92,25.84-4.12,13.85,.27,24.26,12.43,32.14,.98,.64,1.96,1.27,2.95,1.9,9.13,5.91,15.84,13.76,19.4,24.15,.33,.95,.84,1.84,1.4,3.03,5.76-4.8,6.58-10.67,5.24-17.57,7.96,2.72,10.91,8.61,11.84,17,1.37-1.89,2.43-2.89,2.93-4.12,2.77-6.87,.61-13.29-2.42-19.89,4.01,.38,7.05,1.91,9.41,4.4,2.27,2.4,4.06,5.24,6.56,8.54-.52-3.44-.67-6.27-1.39-8.95-4.88-18.25-16.57-30.45-33.78-37.68-1.07-.45-2.18-.84-3.21-1.38-5.64-2.99-6.27-9.04-1.38-13.15,1.04-.87,2.23-1.57,3.34-2.37,12.51-8.99,18.46-21.27,18.33-36.58-.01-1.63-.29-3.26-.44-4.89,4.48,5.28,6.72,11.37,7.45,17.91,1.26,11.28-1.81,21.38-9.52,30.07,12.83,7.23,22.25,17.3,28.51,30.19,4.65,9.57,7.74,19.56,6.31,30.44-.91,6.87-5.74,12.37-11.19,13.02-1.35,.16-2.93,.88-3.82,1.88-5.31,5.95-13.1,8.86-20.77,5.06-.4-.2-.96-.42-1.33-.29-3.9,1.44-7.78,2.95-11.88,4.52,1.33,11.05,.56,22.62-2.55,34.28,1.25-.29,2.18-.47,3.1-.73,10.95-3.03,21.3-7.47,31.01-13.35,23.83-14.44,41.86-33.93,51.65-60.36,8.09-21.85,10.18-44.53,8.46-67.62-.68-9.16-3.87-17.34-9.71-24.59-6.86-8.52-15.14-15.47-23.49-22.36-13.11-10.82-24.91-22.81-33.31-37.74-3.2-5.68-5.84-11.68-9-18.07,7.94,7.24,15.04,14.23,22.68,20.57,13.04,10.83,27.39,19.63,43.37,25.49,2.61,.96,5.8,1.4,8.49,.89,4.31-.82,7.95-.36,11.68,1.96,7.49,4.65,15.49,8.25,24.31,9.48,8.78,1.23,16.73-.54,22.86-7.48,1.19-1.34,1.95-3.07,3.13-4.98-10.91,.6-17.66-.44-27.84-4.57-23.14-9.38-42.98-23.97-61.81-39.99-9.81-8.35-19.16-17.23-28.63-25.97-2.59-2.39-5.31-3.5-8.77-2.41-4.26,1.34-8.55,2.58-12.78,3.99-2.76,.92-5.44,2.07-8.63,3.29,2.96-11.42,8.96-19.36,20-22.71,8.27-2.51,13.78-.47,18.9,6.42,1.25,1.69,2.86,3.22,4.57,4.45,4.51,3.23,9.06,6.44,13.78,9.34,24.97,15.33,52,25.36,80.69,30.98,10.26,2.01,20.65,3.42,31.11,2.34,5.05-.52,10.08-1.99,14.92-3.62,3.87-1.3,5.89-4.7,6.65-8.65,2.68-14.02,2.21-27.9-1.71-41.68-9.6-33.69-41.61-53.75-71.27-52.62-4.42,.17-8.82,.88-13.65,1.38,8.76-8.69,18.5-14.61,30.99-14.59,2.78,0,3.64-1.09,3.73-3.55,.24-6.44-4.72-12.82-11.59-14.24-2.96-.61-6.1-.38-9.18-.54-.83-23.17-25.85-28.94-41.77-19.86,7.03,10.1,7.77,24.13,6.53,30.76-.46-.67-.83-1.21-1.2-1.75-5.11-7.31-10.82-14.08-17.97-19.51-7-5.32-14.59-8.63-23.64-6.73-7.36,1.54-13.22,5.56-18.06,11.17-6.07,7.03-10.01,15.29-13.43,23.81-1.91,4.77-3.68,9.6-5.52,14.4l-.87-.03-2.6-24.75c-7.96,6.33-14.43,13.99-19.1,22.98-14.35,27.62-17.75,56.76-11.37,87.1,1.64,7.78,3.26,15.5,.89,23.37-.53,1.76-.34,2.93,.85,4.42,5.94,7.48,5.7,17.65-.38,24.76-6.13,7.16-15.48,8.81-24.09,4.28-.8-.42-1.95-.97-2.63-.7-4.98,2-9.88,4.19-14.97,6.39,6.72,8.84,4.68,18.2-1.08,23.36-3,2.69-6.55,4.14-10.64,4.11-5.44-.04-9.7-2.44-13.11-6.97-3.87,4.67-7.52,9.06-11.15,13.44,7.45,7,8.82,13.99,4.26,20.26-2,2.75-4.71,4.39-7.94,5.07-3.95,.83-7.44-.47-10.86-3.33-2.74,5.92-5.47,11.48-7.92,17.16-3.64,8.43-8.34,16.11-15.24,22.24-2.73,2.43-5.79,4.49-8.72,6.74,3.56,4.8,4.02,9.86,.87,14.99-2.46,4-7.55,6.16-12.24,4.98-6.83-1.71-9.07-7-9.36-13.28-1.95-.59-2.82-.02-3.35,1.8-1.46,5.01-5.81,7.74-10.38,6.75-4.79-1.03-7.62-5.33-6.81-10.63,.24-1.55-.33-2.07-1.55-2.9-4.64-3.16-9.54-6.14-13.57-9.99-10.9-10.42-18.59-23.23-25.57-36.47-1.1-2.08-2.15-4.19-3.22-6.29,13.92,74.18,61.01,117.86,108.9,130.91-9.85-26.68-3.74-50.52,12.72-73,.19,.68,.32,.89,.27,1.04-.27,.83-.6,1.64-.9,2.46-9.33,25.72-7,50.13,8.26,73.07,2.43,3.65,4.93,7.26,7.47,10.83,2.37,3.32,3.58,6.95,2.87,11-1.04,5.94-2.28,11.85-3.33,17.79-1.93,10.96-3.51,21.97-2.67,33.15,.38,5.06,3.84,8.08,8.88,8.08,17.97-.02,35.94-.05,53.91-.06,5,0,6.46-1.11,6.3-6.2-.09-2.78-1.32-5.57-2.32-8.24-.48-1.28-1.63-2.31-2.53-3.52,11.39-2.13,19.43,5.99,17.59,17.97Zm118.19-.57c1.67,0,3.12,0,4.57,0,5.67,0,8.47-3.47,7.23-9.08-1.65-7.46-6.91-11.8-13.4-14.8-9.92-4.58-20.35-3.61-30.73-2.17-4.73,.66-9.4,1.69-14.1,2.55,13.7-9.96,27.3-19.79,32.67-37.01,5.29-16.94,2.67-32.84-5.74-48.48-14.97,19.54-33.77,33.33-55.96,43.13,1.1,1.4,2.03,2.51,2.89,3.67,3.43,4.69,7.92,8.95,8.31,15.13,.29,4.64-.41,9.33-.59,14-.33,8.18-.8,16.36-.82,24.55-.01,5.24,3.82,8.52,9.08,8.52,12.4,0,24.8-.01,37.19-.02,4.63,0,5.6-1.07,5.88-5.72,.29-4.95-2.12-8.71-5.23-12.29,11.58-2.06,18.54,4.59,18.75,18Zm9.03-193.89c-.23,3.34-.18,6.17-.66,8.91-1.75,10.15-3.7,20.26-5.49,30.41-.13,.74,.19,2.03,.73,2.36,7.5,4.63,12.92,11.18,17.58,18.5,.57,.9,1.36,1.67,2.27,2.77,2.01-6.28,1.41-11.99-.11-17.9,7.49,2.95,11.29,8.72,13.9,16.22,3.35-8.23,1.33-15.51-1.61-23.05,5.66,2.55,9.34,6.56,12.07,11.58-5.4-22.16-20.19-36.97-38.68-49.8Zm14.9-103.9c-3.03,2.86-5.59,5.29-8.27,7.83,3.24,2,6.29,3.88,9.97,6.16-.62-5.1-1.14-9.38-1.7-13.98Zm-43.1-27.46c-3.16,2.31-6.04,4.42-9.12,6.68,2.98,2.27,5.77,4.4,9.12,6.95v-13.63Zm31.88,18.27c1.32-2.8,2.25-4.78,3.33-7.07-2.12-.54-3.95-1-6.21-1.57,.98,2.95,1.79,5.36,2.88,8.63Zm25.28,5.81c1.22-2.63,2.13-4.6,3.17-6.83-2.14-.34-3.91-.62-5.97-.95,.92,2.55,1.7,4.73,2.8,7.78Z"/>
  <path d="M447.09,149.52c-14.76,.02-27.43-12.9-27.3-27.81,.13-15.41,12.31-27.89,27.2-27.9,15.03-.01,27.15,12.39,27.15,27.79,0,15.39-12.13,27.91-27.05,27.92Zm.73-28.25c.02-4.39-3.17-7.77-7.32-7.78-4.34,0-7.5,3.16-7.54,7.55-.04,4.19,3.47,7.8,7.5,7.71,4.11-.09,7.35-3.37,7.36-7.49Z"/>
  <path d="M542,193.38c-1.81-.49-5.24-1.19-8.49-2.39-3.21-1.18-4.49-3.66-3.7-6.99,.48-2.02,1.38-4.08,2.6-5.75,2.53-3.47,6.29-3.89,9.24-.74,2.66,2.85,5.22,6.08,6.77,9.61,1.71,3.9-.53,6.34-6.42,6.25Z"/>
  <path d="M580.21,180.53c-.05,1.38-.66,2.87-2.96,2.96-2.5,.09-6.19-4.22-6.1-7.22,.06-1.94,1.2-3.11,3.08-3.28,2.56-.23,5.93,3.79,5.99,7.54Z"/>
</svg>
