<?xml version="1.0" encoding="iso-8859-1"?>
<svg version="1.1" xmlns="http://www.w3.org/2000/svg" xmlns:xlink="http://www.w3.org/1999/xlink"
	 viewBox="100 40 590 530"
         width="100%" height="100%"
         preserveAspectRatio="xMidYMid meet">

<g style="stroke: none;">
<path d="M308.952,144.792c3.181,0.458,6.417,0.372,9.621,0.125c5.01-0.385,10.029-1.171,14.738-2.925
	c14.892-5.548,25.041-20.778,26.585-36.595c0.218-2.233,0.285-4.49,0.017-6.717c-1.8-14.971-18.135-25.809-32.358-26.151
	c-13.578-0.326-25.017,8.395-33.737,18.036c-2.19,2.422-4.218,5.007-5.84,7.841c-4.963,8.672-5.755,19.695-1.746,28.847
	C290.239,136.404,299.062,143.369,308.952,144.792z M350.498,117.91c-2.222,4.346-5.346,8.191-8.706,11.704
	c-3.857,4.032-8.781,8.017-14.328,7.422c5.266-6.224,10.532-12.448,15.797-18.671c2.267-2.68,4.735-5.274,6.706-8.183
	c0.948-1.399,1.8-3.726,3.31-4.504C354.763,108.97,352.008,114.957,350.498,117.91z M344.486,88.032
	c0.39-0.154,0.829,0.007,1.21,0.182c4.427,2.037,7.696,6.407,8.4,11.228c-5.319,5.203-9.757,10.952-14.759,16.493
	c-6.512,7.283-13.498,14.315-19.701,21.798c-0.305,0.367-0.615,0.74-1.009,1.009c-0.73,0.497-1.655,0.582-2.535,0.652
	c-0.969,0.077-1.945,0.153-2.91,0.045c-3.71-0.416-6.781-2.374-9.538-4.705c-0.004-0.003,0.001-0.017,0.015-0.039
	c0.447-0.754,10.023-11.901,10.834-12.844c6.458-7.509,13.08-14.878,19.86-22.097c3.26-3.471,6.706-7.09,9.437-11.04
	C343.977,88.441,344.18,88.153,344.486,88.032z M336.826,83.382c0.341-0.477,0.613-0.994,0.63-1.57
	c-0.016,0.565,4.495,1.956,4.543,3.638c0.047,1.648-4.531,5.196-5.679,6.365c-4.113,4.186-8.39,8.211-12.39,12.508
	c-5.859,6.294-11.567,12.728-17.117,19.296c-1.303,1.542-2.6,3.094-4.036,4.514c-0.901,0.891-1.966,1.775-3.233,1.823
	c-1.266,0.048-2.596-1.216-2.129-2.394c0.751-1.894,3.539-4.038,4.906-5.572c1.75-1.964,3.512-3.918,5.282-5.864
	c3.501-3.85,7.318-7.527,10.626-11.54c5.832-7.074,12.304-13.551,18.135-20.613C336.521,83.782,336.68,83.586,336.826,83.382z
	 M291.524,108.759c0.685-5.333,2.748-10.319,5.945-14.629c5.04-6.794,14.015-14.674,23.304-16.555
	c4.176-0.846,8.416-0.479,12.39,1.745c-12.85,15.279-29.371,27.597-39.674,44.698c0.32-0.531-1.788-6.063-1.931-7.09
	C291.179,114.223,291.176,111.467,291.524,108.759z M439.77,128.348c3.181,0.458,6.417,0.372,9.621,0.125
	c5.01-0.385,10.029-1.171,14.738-2.925c14.892-5.548,25.041-20.778,26.585-36.595c0.218-2.233,0.285-4.49,0.017-6.717
	c-1.8-14.971-18.135-25.809-32.359-26.151c-13.578-0.326-25.016,8.395-33.737,18.036c-2.19,2.421-4.218,5.007-5.84,7.84
	c-4.963,8.672-5.755,19.695-1.746,28.847C421.058,119.96,429.881,126.925,439.77,128.348z M481.316,101.467
	c-2.222,4.346-5.346,8.191-8.706,11.704c-3.857,4.032-8.781,8.017-14.328,7.422c5.266-6.224,10.532-12.448,15.797-18.671
	c2.267-2.68,4.735-5.274,6.706-8.183c0.948-1.399,1.8-3.726,3.31-4.504C485.581,92.527,482.826,98.513,481.316,101.467z
	 M475.305,71.589c0.39-0.154,0.829,0.006,1.21,0.182c4.427,2.037,7.696,6.407,8.4,11.228c-5.319,5.203-9.757,10.952-14.759,16.493
	c-6.512,7.283-13.498,14.315-19.702,21.797c-0.305,0.367-0.615,0.74-1.009,1.009c-0.73,0.497-1.655,0.582-2.535,0.652
	c-0.969,0.077-1.945,0.153-2.911,0.045c-3.71-0.417-6.781-2.374-9.538-4.706c-0.004-0.003,0.001-0.016,0.015-0.039
	c0.447-0.754,10.023-11.901,10.834-12.844c6.458-7.509,13.08-14.878,19.86-22.097c3.26-3.471,6.706-7.09,9.437-11.04
	C474.795,71.997,474.998,71.71,475.305,71.589z M467.644,66.938c0.341-0.477,0.613-0.994,0.63-1.571
	c-0.016,0.565,4.495,1.956,4.543,3.638c0.047,1.648-4.531,5.196-5.679,6.365c-4.113,4.186-8.39,8.211-12.39,12.508
	c-5.859,6.294-11.567,12.728-17.117,19.296c-1.303,1.542-2.6,3.094-4.036,4.514c-0.901,0.891-1.966,1.775-3.232,1.823
	c-1.266,0.048-2.596-1.216-2.129-2.394c0.751-1.894,3.539-4.038,4.906-5.572c1.75-1.964,3.512-3.918,5.282-5.864
	c3.501-3.85,7.318-7.527,10.626-11.54c5.832-7.074,12.304-13.551,18.135-20.613C467.34,67.338,467.498,67.142,467.644,66.938z
	 M422.342,92.315c0.685-5.333,2.748-10.319,5.945-14.629c5.04-6.794,14.015-14.674,23.304-16.555
	c4.176-0.846,8.416-0.479,12.39,1.745c-12.85,15.279-29.371,27.597-39.674,44.697c0.32-0.531-1.788-6.063-1.931-7.09
	C421.997,97.779,421.994,95.023,422.342,92.315z M415.435,158.881c-8.299,2.686-15.855,7.629-21.641,14.157
	c-3.885-3.497-8.473-5.558-13.504-6.783c-2.178-0.53-9.052-1.954-6.436-5.899c3.216-4.849,16.63,2.121,19.413,4.339
	c3.315-2.711,6.059-5.988,10.166-7.655C407.426,155.421,412.521,155.707,415.435,158.881z M681.282,339.97
	c-1.841-3.728-3.934-7.346-6.121-10.88c-4.148-6.704-8.94-12.794-13.791-18.984c-1.659-2.117-2.751-4.913-4.515-6.851
	c-3.143-3.455-3.843-2.749-3.757-7.991c0.248-15.09-0.334-30.255-2.001-45.258c-3.329-29.967-11.628-59.472-27.488-85.308
	c-4.761-7.756-10.09-15.165-15.939-22.138c-5.394-6.431-9.02-13.512-14.925-19.698c0.61-3.399,4.501-16.169,1.336-19.137
	c0.919,0.857,1.839,1.714,2.758,2.57c2.155-11.093,4.001-23.682-2.726-32.762c-2.971-4.01-7.291-6.787-11.643-9.229
	c-16.206-9.092-36.013-14.758-53.321-7.996c-4.491,1.755-8.618,4.29-12.496,7.134c-1.378,1.01-5.402,3.17-7.651,5.235
	c-1.807-2.634-3.778-5.1-5.948-7.136c-5.036-4.724-12.64-8.165-18.961-10.986c-12.536-5.594-26.774-6.815-40.098-3.548
	c-8.927,2.189-17.051,7.701-24.139,13.591c-3.341-0.79-6.927-0.524-10.102,0.785c0.294-2.627,1.112-5.195,2.393-7.508
	c0.545-0.984-0.179-2.284-1.201-2.753c-1.022-0.469-2.207-0.339-3.32-0.181c-9.494,1.348-18.792,4.065-27.518,8.041
	c0.079-1.965,1.085-3.873,2.662-5.047c-2.981,2.221-10.388,2.523-14.097,4.037c-3.455,1.41-10.487,3.742-12.707,6.898
	c-0.508,0.723-0.968,1.434-1.087,2.136c-0.424-0.196-0.839-0.413-1.265-0.604c-12.536-5.594-26.774-6.815-40.098-3.548
	c-9.48,2.324-18.069,8.39-25.456,14.683c-6.362,5.42-12.137,12.039-15.608,19.711c-1.437,3.177-2.107,6.826-3.32,10.144
	c-0.124,0.34-0.216,0.69-0.331,1.033c-0.844-0.824-2.202-1.404-4.416-1.716c-6.67-0.943-13.683,1.287-19.478,4.466
	c-5.382,2.958-10.302,6.938-14.028,11.844c-2.347,3.091-10.077,15.273-1.739,11.907c0.687,0.708,0.626,1.896,0.14,2.754
	c-0.486,0.858-1.301,1.47-2.075,2.08c-5.13,4.041-9.399,9.051-13.63,14.025c-8.023,9.429-14.33,18.309-19.906,29.406
	c-2.877,5.725-5.448,11.604-7.698,17.604c-1.398,3.727-6.218,12.736-5.332,16.634c-1.448-6.371-1.051-12.784-2.415-19.024
	l-2.052-9.25c0,0-2.312-8.052-4.696-15.9c-2.367-7.853-4.841-15.491-4.792-14.783c-4.604-12.673-9.239-20.322-6.491,1.156
	c1.293,12.732,4.069,30.603,4.069,30.603l2.371,10.71c3.953,18.104,7.649,36.275,11.222,54.484
	c-3.961-16.736-8.09-33.432-12.391-50.084l-2.386-9.162c0,0-2.65-7.935-5.248-15.71c-2.626-7.761-5.321-15.314-5.251-14.609
	c-4.954-12.516-9.801-20.063-6.454,1.348c1.663,12.701,5.085,30.48,5.085,30.48l2.767,10.623
	c6.513,25.248,12.637,50.597,18.357,76.037c-10.413-22.94-21.245-45.691-32.511-68.224l-4.258-8.463c0,0-4.217-7.236-8.445-14.258
	c-4.209-7.034-8.456-13.84-8.236-13.167c-7.515-11.176-13.861-17.504-6.019,2.692c4.336,12.049,11.416,28.701,11.416,28.701
	l4.93,9.802c14.642,29.312,28.556,58.986,41.746,88.978c0.784,1.808,1.567,3.616,2.35,5.424c0.85,1.963,3.941,6.267,3.066,8.345
	c-2.585-0.53-3.134-4.759-4.24-6.701c-1.908-3.352-3.782-6.723-5.654-10.095c-3.727-6.715-7.444-13.438-11.372-20.038
	l-18.803-31.728l-4.806-8.113c0,0-4.686-6.895-9.28-13.653c-1.119-1.642-2.232-3.276-3.267-4.796
	c-0.898-1.422-1.75-2.972-2.479-4.234c-1.46-2.561-2.46-4.181-2.358-3.827c-1.852-2.919-3.789-5.541-5.739-7.339
	c-1.891-1.835-3.932-2.665-4.751-2.479c-0.831,0.221-0.456,0.965,0.431,2.654c0.897,1.703,2.202,4.751,3.982,9.729
	c1.017,2.99,1.966,6.253,3.421,9.808c0.414,0.971,0.755,1.673,1.126,2.483c0.367,0.785,0.731,1.562,1.088,2.327
	c0.727,1.527,1.429,3.004,2.088,4.389c2.661,5.536,4.71,9.592,4.71,9.592l5.614,9.486l18.81,31.776
	c6.185,10.397,11.908,21.267,18.103,32.055c3.183,5.534,6.48,11.056,10.051,16.469c-4.477,5.585-7.711,12.132-8.716,19.184
	c-1.413,9.918,2.097,20.765,10.07,26.832c2.848,2.167,5.839,2.934,9.213,3.891c-2.174,5.291-2.12,11.456,0.145,16.709
	c2.265,5.252,6.713,9.523,12.053,11.573c1.961,0.753,4.323,1.169,6.05-0.027c-2.122,1.47,5.565,9.878,6.665,10.685
	c3.952,2.897,9.748,4.453,14.634,4.961c0.677,0.07,1.355,0.103,2.034,0.119c-1.404,1.089-2.232,2.818-2.611,4.171
	c-0.164,0.447-0.133,0.547-0.052,0.825l5.787,18.873l15.375,50.14l2.769,9.03c0,0,11.672,31.291,11.511,29.883
	c5.268,12.354,10.309,19.816,6.415-1.527c-1.988-12.671-6.13-30.343-6.13-30.343l-3.221-10.522l-11.25-36.777
	c0.49,0.518,0.98,1.037,1.476,1.548c7.133,15.155,13.407,30.851,19.736,46.624l3.537,8.779c0,0,3.59,7.571,7.28,14.932
	c1.85,3.677,3.732,7.296,5.12,9.907c1.426,2.6,2.343,4.199,2.256,3.852c3.397,5.849,6.817,10.339,8.3,10.859
	c1.554,0.495,1.199-2.965-2.139-13.207c-3.634-12.201-9.239-29.359-9.239-29.359l-4.105-10.182
	c-3.152-7.861-6.309-15.762-9.591-23.643c0.982,0.734,1.976,1.45,2.971,2.165c5.577,9.117,11.149,18.287,16.911,27.39
	c1.694,2.68,3.389,5.359,5.144,8.014c0,0,1.256,1.691,3.128,4.21c1.925,2.484,4.483,5.784,7.015,9.052
	c5.161,6.47,10.513,12.55,10.195,11.905c2.28,2.504,4.578,4.613,6.434,6.157c1.861,1.542,3.319,2.494,4.116,2.567
	c1.628,0.123,0.471-3.167-5.062-12.375c-6.308-11.194-15.045-26.699-15.045-26.699c-1.999-3.03-3.965-6.09-5.901-9.178
	c-1.433-2.265-2.853-4.544-4.27-6.826c1.326,0.723,2.674,1.412,4.015,2.112c1.904,2.388,4.346,5.393,6.861,8.321
	c2.638,3.197,5.491,6.2,7.493,8.405c2.057,2.171,3.437,3.438,3.242,3.135c1.24,1.177,2.443,2.28,3.574,3.273
	c1.169,0.962,2.283,1.801,3.271,2.506c1.983,1.408,3.511,2.248,4.309,2.258c1.298,0-1.411-3.904-1.615-4.206
	c-0.506-0.749-3.172-5.593-3.505-5.732c12.513,5.224,24.923,10.186,37.72,14.586c5.635,1.937,11.361,3.611,17.159,4.987
	c11.612,2.756,23.503,4.302,35.436,4.552c22.784,0.478,45.636-3.501,66.966-11.508c10.394-3.901,19.799-9.285,29.69-14.196
	c9.463-4.699,13.879-3.054,21.681,3.821c8.056,7.099,18.325,7.135,25.037-1.939c3.514-4.751,5.078-10.647,6.183-16.453
	c11.655,0.781,23.844-3.149,31.849-11.657c8.005-8.507,11.128-21.732,6.5-32.457c-1.389-3.218-3.388-6.128-5.375-9.015
	c-0.929-1.35-2.393-2.576-3.717-3.868c3.218,0.805,7.156-0.055,10.444-1.22c18.198-6.448,34.618-16.988,50.853-27.436
	c6.559-4.221,13.164-8.478,18.791-13.88C687.338,392.817,692.59,362.867,681.282,339.97z M593.091,147.864
	c5.38,5.446,9.739,12.596,13.688,19.108c8.324,13.727,14.58,28.655,19.154,44.024c7.112,23.898,10.23,48.815,11.825,73.697
	c0.068,1.062,0.176,2.159,0.117,3.223c-0.049,0.893-0.386,1.582,0.166,2.412c-0.565-0.849-2.882-1.355-3.798-1.717
	c-1.419-0.56-2.81-1.198-4.227-1.769c-1.608-0.648-3.227-1.265-4.858-1.852c-0.783-0.282-1.568-0.556-2.356-0.824
	c-0.628-0.213-1.835-0.358-2.285-0.868c-0.674-0.764-0.07-2.399-0.121-3.3c-0.098-1.745-0.181-3.507-0.355-5.247
	c-0.222-2.944-0.504-5.884-0.846-8.816c-0.684-5.865-1.608-11.702-2.768-17.492c-2.623-13.092-6.456-25.943-11.456-38.325
	c-6.48-16.044-16.921-30.065-28.507-42.831c-1.877-2.068-4.11-3.692-6.002-5.697c-2.132-2.259-4.523-4.289-7.072-6.061
	c-2.445-1.7-3.403-4.743-4.916-7.266c-1.899-3.167-3.86-6.298-5.943-9.347c4.817,2.997,10.834,3.979,16.481,3.139
	c4.276-0.636,8.339-2.244,12.076-4.441c0.01,0.028-0.003,0.07,0.024,0.082C584.483,139.15,591.869,146.628,593.091,147.864z
	 M598.798,424.746c0.033-6.392-0.315-15.413-0.315-15.413l-0.614-6.082c-0.297-3.137-0.565-6.278-0.827-9.42
	c1.273-0.339,2.543-0.692,3.818-1.023c5.088-1.336,10.199-2.583,15.319-3.79l-0.004,5.46c0,0,0.249,4.185,0.599,8.279
	c0.32,4.094,0.755,8.093,0.797,7.74c0.45,3.112,1.014,5.66,1.572,6.435c-6.437,4.601-13.266,8.647-20.399,12.071
	C598.816,427.962,598.84,426.583,598.798,424.746z M567.696,417.443c-0.083-5.454-0.568-12.77-0.711-14.838
	c8.036-2.548,16.114-4.967,24.239-7.213l0.606,7.003l0.674,6.783c0,0,0.719,4.129,1.424,8.178c0.749,4.039,1.561,7.975,1.582,7.619
	c0.486,1.963,0.998,3.688,1.47,4.867c-1.451,0.671-2.909,1.328-4.382,1.948c-5.848,2.46-11.705,6.098-16.968,0.934
	c-2.996-2.94-5.558-6.673-7.955-10.485C567.761,421.164,567.778,419.614,567.696,417.443z M556.061,372.159
	c0.636-0.168,1.27-0.342,1.905-0.511c0.424,8.609,1.287,17.199,2.374,25.702l0.143,1.083c-2.825,0.915-5.645,1.843-8.456,2.801
	c-0.123,0.067-0.326,0.315-0.366,0.378c-0.075,0.12-0.132,0.232-0.195,0.348c-1.05-0.641-2.125-1.246-3.199-1.843
	c-4.048-2.248-8.096-4.496-12.144-6.744c-1.671-0.928-3.362-1.87-4.75-3.184c-2.897-2.742-2.072-3.942,1.034-5.444
	c2.951-1.427,5.709-3.213,8.263-5.265c1.881-1.512,3.654-3.153,5.348-4.879c0.026,0.009,0.053,0.02,0.078,0.028
	c0.22,0.091,0.271,0.078,0.411,0.043L556.061,372.159z M552.678,366.895c1.704-2.191,3.337-4.435,4.914-6.7
	c0.051,0.922,0.086,1.861,0.103,2.824c0.01,0.841,0.059,1.681,0.079,2.522c-1.079,0.286-2.156,0.582-3.235,0.867L552.678,366.895z
	 M561.443,404.384c0.321,1.551,0.761,3.674,1.201,5.798c0.51,2.368,1.029,4.691,1.372,6.13c-0.599-0.97-1.198-1.925-1.797-2.843
	c-1.708-2.615-3.468-5.238-5.629-7.476C558.206,405.451,559.823,404.912,561.443,404.384z M586.192,319l0.456,7.397
	c-2.981,0.889-5.951,1.81-8.901,2.795c-1.162,0.392-2.32,0.797-3.478,1.201c2.615-5.845,5.035-11.78,7.392-17.711
	c0.544-1.37,1.14-2.808,2.314-3.699c0.531-0.403,1.285-0.659,2.007-0.658c-0.103,0.146-0.196,0.291-0.273,0.429
	c-0.132,0.198-0.129,0.25-0.122,0.395L586.192,319z M579.642,334.833c2.449-0.82,4.911-1.601,7.381-2.353l1.524,24.717
	c-8.281,2.288-16.571,4.542-24.87,6.761c-0.006-0.352-0.028-0.703-0.032-1.055c-0.071-3.122-0.166-6.522-1.207-9.996
	c3.024-4.805,5.743-9.786,8.245-14.881C573.647,336.9,576.639,335.849,579.642,334.833z M563.864,370.066
	c8.362-2.234,16.713-4.504,25.056-6.808l0.207,3.366c0.482,7.578,0.99,15.162,1.589,22.747c-8.21,2.253-16.371,4.678-24.491,7.236
	l-0.001-0.009C565.1,387.755,564.249,378.925,563.864,370.066z M596.557,387.812c-0.534-6.907-1.012-13.824-1.45-20.751
	l-0.333-5.416c1.07-0.298,2.142-0.586,3.212-0.885l18.746-5.306c-0.021,0.987-0.039,1.973-0.06,2.959l-0.387,19.727l-0.051,4.767
	c-5.423,1.262-10.833,2.58-16.221,3.983C598.859,387.188,597.71,387.507,596.557,387.812z M616.858,349.246l-19.758,5.593
	c-0.899,0.251-1.8,0.493-2.699,0.744l-1.525-24.81c4.957-1.388,9.952-2.644,14.983-3.734c1.518-0.347,3.047-0.642,4.572-0.958
	c0,0,2.034-0.542,4.622-1.184C617.104,332.991,617.013,341.113,616.858,349.246z M612.039,320.109
	c-1.815,0.378-3.637,0.722-5.445,1.134c-4.728,1.022-9.425,2.183-14.09,3.463l-0.373-6.072l-0.282-4.613
	c2.858-3.59,4.963-7.764,6.211-12.182c6.197,2.444,12.379,5.038,18.327,8.034c0.39,3.015,0.553,6.107,0.62,9.253
	c0.002,0.148,0.001,0.298,0.003,0.446C614.133,319.847,612.039,320.109,612.039,320.109z M303.622,199.18
	c1.859,5.464,5.103,10.424,9.261,14.415c2.121,2.036,4.487,3.549,6.874,5.226c0.983,0.69,1.812,1.227,2.883,1.795
	c0.861,0.456,2.868,2.396,3.68,2.48c-7.682-0.795-14.883-3.42-22.754-2.063c-1.391,0.24-2.766,0.569-4.129,0.941
	c-3.949-13.364-6.084-27.263-6.283-41.197c-0.021-1.474-0.056-2.962-0.17-4.435c0.755-0.457,1.393-0.851,1.797-1.087
	c3.284-1.916,7.008-3.284,10.827-4.036C301.335,179.795,300.532,190.095,303.622,199.18z M327.235,199.41
	c5.372,5.885,13.986,11.114,22.085,9.56c4.217-0.809,8.286-2.442,11.935-4.696c1.028-0.635,9.011-7.993,9.058-7.978
	c13.791,4.264,29.367,2.57,42.182-4.156c1.271,1.95,1.584,4.263-0.329,6.147c-2.894,2.849-10.132,0.404-13.692,0.631
	c-2.252,0.143-4.325,0.363-6.09,0.603c-14.673,1.992-29.126,5.58-43.033,10.662c-12.826,4.687-23.556,10.991-33.921-1.995
	c-4.438-5.559-6.588-12.652-7.383-19.721c-0.656-5.84-0.452-11.729-0.212-17.608c1.792-0.235,3.589-0.346,5.36-0.291
	c1.59,0.049,12.424-0.312,13.157,0.955c0.719,1.241-2.202,4.601-2.72,5.855c-1.025,2.481-1.533,5.176-1.564,7.857
	C322.008,190.373,323.746,195.586,327.235,199.41z M413.284,216.481c-5.746-4.304-13.02-7.473-20.233-7.971
	c6.322-1.162,12.646-1.821,19.081-1.48c5.313,0.282,11.31,1.619,13.948,6.239c-4.061,1.941-7.774,4.607-10.911,7.835
	C416.311,219.633,414.775,217.598,413.284,216.481z M294.493,223.635c-2.863,1.149-5.609,2.586-8.183,4.281
	c-1.77-5.022-2.404-32.736-1.702-47.743c0.56-0.075,1.186-0.246,1.854-0.487C288.076,194.504,290.763,209.203,294.493,223.635z
	 M285.019,237.481c9.56-5.728,21.479-9.584,32.641-7.198c9.754,2.085,12.118,10.856,19.218,17.223
	c7.823,7.015,18.52,12.044,27.458,17.624c1.574,0.982,3.245,1.39,4.961,1.38c-0.137,0.635-0.192,1.308-0.202,1.933
	c0,6.346-0.286,12.125,1.781,18.179c0.227,0.664,0.456,1.347,0.432,2.048c-0.03,0.86-0.437,1.656-0.855,2.407
	c-4.287,7.688-10.699,13.887-17.534,19.317c-6.195,4.921-12.245,10.675-19.999,12.696c-5.714,1.489-11.742,1.483-17.585,0.626
	c-19.997-2.935-46.652-20.221-48.595-42.329c-0.447-5.082,0.438-10.192,1.682-15.14C270.982,256.069,275.575,243.14,285.019,237.481
	z M352.221,317.971c4.289-3.079,9.08-6.894,11.807-11.479c2.762-4.645,6.585-8.539,9.17-13.377
	c-0.365,0.683,0.821,4.827,0.784,5.964c-0.073,2.273-0.098,4.417,0.129,6.743c0.525,5.377,1.221,10.752,2.552,15.996
	c1.851,7.291,4.996,14.393,10.093,19.926c-5.479-15.946-7.318-33.343-8.849-50.014c3.363,3.834,6.863,7.761,10.836,10.927
	c2.916,2.324,6.087,4.238,9.645,5.403c2.783,0.912,5.7,1.323,8.6,1.731c6.208,0.873,12.45,1.748,18.717,1.587
	c-1.911,0.05-6.334,20.982-6.935,23.14c-0.985,3.536-2.001,7.14-4.048,10.187c-2.328,3.463-5.85,5.972-9.591,7.819
	c-10.778,5.319-22.435,5.236-33.323,0.318c-5.196-2.347-9.998-5.493-14.575-8.87c-4.744-3.5-9.749-6.855-14.077-10.859
	c-2.086-1.93-3.997-4.038-5.788-6.244C342.579,324.521,347.479,321.374,352.221,317.971z M409.585,301.478
	c-19.033-5.417-30.978-17.427-37.664-35.29c7.366-1.71,15.073-9.759,19.258-13.865c10.972-10.765,22.938-20.114,35.087-29.721
	c3.977-3.145,7.689-7.835,7.126-13.289c-0.279-2.703-2.224-4.896-4.074-6.887c-4.051-4.361-8.102-8.721-12.153-13.082
	c5.662-3.748,10.609-8.553,14.327-14.38c0.133,4.102-0.589,8.882,0.412,13.01c0.825,3.401,3.079,6.248,5.273,8.975
	c4.214,5.238,13.412,8.028,20.812,7.303c-4.569,1.431-9.192,2.913-13.8,3.729c-1.6,0.283-3.238,0.446-4.794,0.937
	c-0.965,0.304-2.833,0.594-3.634,1.143c-0.482,0.331-0.729,1.075-0.342,1.513c6.417,0.389,12.759,0.056,19.172,0.863
	c6.666,0.838,13.23,2.321,19.778,3.792c9.536,2.142,23.638,7.199,29.674,15.368c6.99,9.46,9.045,27.264,7.912,38.556
	c-1.775,17.68-12.494,31.251-29.934,34.04c-11.667,1.865-23.551,1.773-35.364,1.499
	C434.189,305.402,421.581,304.892,409.585,301.478z M472.889,154.658c6.637-0.235,13.274-0.47,19.91-0.706
	c2.747,7.151,0.875,15.294-1.596,22.598c-2.509,7.414-6.318,14.875-12.682,19.738c-3.935,3.007-8.754,4.529-13.537,5.882
	c5.567-2.876,9.779-8.24,11.138-14.265C478.615,176.857,477.464,165.019,472.889,154.658z M497.466,218.613
	c0.692-1.277-18.518-7.949-20.316-8.461c-3.683-1.049-7.489-1.893-11.333-2.474c3.952-1.32,7.956-2.498,11.798-4.108
	c3.933-1.648,8.483-3.743,10.675-7.569c1.993-3.476,4.225-6.985,5.982-10.602c4.154-8.549,5.601-18.438,3.82-27.793
	c-0.259-1.358-0.633-2.763-1.55-3.787c3.529-0.125,7.059-0.25,10.588-0.375c0.299,10.693,0.635,21.414-0.382,32.076
	C505.653,197.003,502.961,208.472,497.466,218.613z M505.705,146.367c-0.107,0.016-0.302,0.08-0.523,0.158
	c2.116-1.59,4.091-3.37,5.843-5.344c6.013-6.779,9.086-14.675,10.807-23.196c3.617,5.991,9.638,10.405,14.222,15.529
	c7.323,8.186,13.19,17.65,17.469,27.757c4.624,10.921,7.179,22.604,9.576,34.163c-1.77-8.535-11.077-19.695-17.322-25.465
	c-7.18-6.634-14.849-14.076-23.314-19.178c-3.429-2.067-6.822-3.717-10.72-4.286C509.884,146.234,507.569,146.082,505.705,146.367z
	 M540.662,60.756c7.282-1.504,14.935-1.96,22.095,0.048c9.731,2.729,17.754,9.802,23.753,17.935
	c4.237,5.745,7.713,13.335,4.741,19.824c-1.241-0.318-2.483-0.635-3.724-0.953c0.367,4.227,0.676,8.494,0.135,12.702
	c-1.099,8.537-5.856,16.542-12.83,21.587c-6.636,4.801-15.184,6.818-23.28,5.604c-6.065-8.634-13.101-16.375-22.553-22.216
	c-1.736-1.073-4.208-2.625-6.178-3.422c0.235-2.031,0.325-4.009,0.289-5.955c0.589,0.287,1.306,0.142,1.96,0.013
	c5.599-1.099,11.442,1.082,15.971,4.552c4.53,3.47,7.975,8.131,11.358,12.727c1.586-6.077-1.517-12.61-6.191-16.806
	c-4.674-4.195-10.694-6.514-16.588-8.684c4.913-7.108,14.656-10.455,22.9-7.866c3.44,1.08,10.622,6.626,14.243,5.44
	c5.347-1.751-0.033-7.855-2.726-9.573c-8.123-5.182-18.539-7.426-27.591-4.124c-7.092,2.587-12.827,9.063-14.242,16.317
	c-0.64-3.162-1.588-6.309-2.837-9.53c-1.031-2.659-2.201-5.264-3.491-7.801c-1.223-2.406-2.573-4.965-4.06-7.488
	C520.488,67.124,530.349,62.886,540.662,60.756z M503.897,80.687c0.015-1.097-0.033-2.196-0.115-3.293
	c6.932,8.554,10.123,15.389,11.306,27.09c1.714,16.953-4.655,30.955-16.464,41.27c-1.444-0.065-2.891-0.081-4.313-0.045
	c-18.13,0.45-36.427,4.549-51.99,13.858c-17.21,10.293-31.889,27.115-51.841,29.121c-14.281,1.436-28.224-5.337-39.561-14.138
	c-5.231-4.061-10.245-8.67-16.454-10.973c-5.378-1.994-11.262-2.099-16.991-1.815c-7.023,0.349-14.113,1.272-20.62,3.938
	c-1.031,0.422-2.351,1.027-3.76,1.752c-5.898-7.543-10.411-16.224-13.102-25.391c3.382,5.283,8.261,9.716,13.795,12.71
	c9.99,5.403,21.793,6.63,33.11,5.67c6.038-0.512,11.101-2.174,16.536-4.933c5.707-2.897,11.345-6.216,15.595-11.002
	c0.743-0.837,1.449-1.714,2.122-2.626c4.494-6.087,7.516-13.688,10.139-20.592c2.583-6.802,3.769-15.472,3.869-22.77
	c0.041-2.95-0.246-5.923-0.992-8.781c-0.123-0.47-0.265-0.945-0.422-1.422c10.993,11.437,18.192,27.519,11.067,42.571
	c-3.324,7.021-5.881,15.022-10.73,21.252c-6.438,8.272-15.735,13.764-24.977,18.71c6.637-2.457,13.363-4.96,19.119-9.077
	c3.784-2.707,6.819-6.045,9.499-9.667c7.193-2.064,14.518-3.666,21.923-4.74c4.498-0.652,9.129-1.093,13.558-0.142
	c3.552,4.699,5.819,5.233,11.681,6.042c-6.378-7.711-11.275-16.722-14.191-26.284c3.196,4.071,7.291,7.503,11.835,9.961
	c9.99,5.403,21.793,6.63,33.11,5.67c6.038-0.512,11.101-2.174,16.536-4.933c5.707-2.897,11.345-6.216,15.595-11.002
	c0.743-0.837,1.449-1.714,2.122-2.626c4.494-6.087,7.516-13.688,10.139-20.592C502.611,96.655,503.796,87.985,503.897,80.687z
	 M392.763,107.161c1.442-0.396,2.903-0.712,4.38-0.942c0.119,4.936,1.141,9.826,2.583,14.554c2.061,6.756,4.985,13.244,8.644,19.286
	c-6.79,0.068-13.626,0.261-20.287,1.652c-2.338,0.488-3.57,0.807-4.608,1.545c1.059-1.793,2.101-3.596,3.149-5.384
	c4.215-7.187,6.755-15.456,6.901-23.809C393.567,111.703,393.263,109.409,392.763,107.161z M419.472,73.007
	c5.051-5.838,10.995-10.984,17.844-14.545c11.329-5.891,24.979-6.15,37.173-3.121c8.124,2.018,15.676,7.649,21.921,13.853
	c0.945,3.296,1.116,6.788,0.306,10.147c-1.285,5.329-1.219,11.025-2.411,16.445c-1.25,5.686-3.143,11.245-5.872,16.396
	c-6.272,11.836-17.643,19.488-31.034,21.15c-12.383,1.537-25.024-1.758-36.091-7.524c-3.495-1.821-6.884-3.902-9.815-6.536
	c-1.161-1.043-2.224-2.184-3.243-3.366c-0.602-4.485-0.755-9.027-0.402-13.557C408.708,91.332,412.211,81.4,419.472,73.007z
	 M361.435,67.367c4.274-2.355,8.98-3.9,13.83-4.473c0.594,3.088-0.093,6.403-1.863,9.002c8.404-6.015,17.932-10.453,27.943-13.017
	c-0.974,4.186-1.992,8.362-3.055,12.526c3.652-3.337,9.001-4.642,13.804-3.513c-3.705,4.039-6.918,8.551-9.161,13.51
	c-1.437,3.177-2.107,6.826-3.32,10.144c-1.053,2.883-1.765,5.873-2.153,8.908c-2.159,0.229-4.306,0.561-6.433,0.996
	c-1.356-3.591-3.082-7.073-4.804-10.48c-2.869-5.675-9.515-10.478-14.581-14.17c-4.009-2.922-8.262-5.516-12.671-7.8
	C359.825,68.497,360.656,67.796,361.435,67.367z M277.369,118.196c0.859-11.017,4.362-20.949,11.623-29.342
	c5.051-5.838,10.995-10.984,17.844-14.545c17.224-8.956,41.098-5.163,56.833,5.493c0.289,0.196,0.576,0.402,0.864,0.605
	c3.353,4.868,4.829,11.014,3.443,16.766c-1.285,5.329-1.219,11.025-2.411,16.445c-1.25,5.686-3.143,11.245-5.872,16.396
	c-6.272,11.836-17.643,19.488-31.034,21.15c-12.383,1.537-25.024-1.758-36.091-7.524c-3.495-1.821-6.884-3.902-9.815-6.536
	c-1.854-1.666-3.491-3.551-5.003-5.536C277.167,127.143,277.021,122.664,277.369,118.196z M238.74,131.036
	c5.991-9.915,17.017-14.756,28.187-14.371c-0.162,1.373-0.275,2.752-0.287,4.14c-0.043,5.363,1.04,10.685,2.605,15.815
	c2.788,9.141,7.143,17.795,12.792,25.503c-4.989,6.377-8.07,14.237-8.652,22.315c-5.974-0.922-12.065-1.882-17.446-4.635
	c-4.35-2.226-9.309-6.431-10.365-11.477c-0.974-4.654,0.058-8.785-2.559-13.361c-1.893-3.31-5.019-5.868-6.465-9.396
	C234.622,140.866,236.111,135.387,238.74,131.036z M191.502,234.972c3.239-15.29,8.865-30.062,16.537-43.676
	c3.769-6.688,8.032-13.097,12.749-19.153c2.47-3.171,10.573-16.443,14.802-10.819c2.836,3.772,3.488,10.794,5.041,15.238
	c0.341,0.975,0.686,1.975,0.67,3.007c-0.024,1.637-0.94,3.109-1.809,4.496c-13.531,20.296-22.5,44.475-27.652,68.203
	c-3.087,14.218-5.398,28.817-4.641,43.41c0.232,4.469,0.62,8.789,1.568,13.115c0.743,3.391,2.606,7.347-0.67,10.274
	c-0.884,0.79-2.016,1.232-3.118,1.669c-0.974,0.387-1.943,0.789-2.911,1.196c0.064-0.145,0.128-0.289,0.187-0.422
	c0.213-0.426,0.194-0.529,0.144-0.814l-3.649-19.402c-3.171-16.845-6.375-33.697-9.696-50.536
	C189.602,245.459,190.398,240.185,191.502,234.972z M207.863,415.838c0.217-0.572,0.497-1.163,0.4-1.767
	c-0.255-1.585-2.465-1.656-4.068-1.568c-5.101,0.279-10.264-2.311-13.089-6.568c-2.825-4.256-3.207-10.02-0.968-14.612
	c2.827-5.798-5.294-7.922-8.345-12.37c-3.312-4.827-4.911-10.884-4.426-16.715c0.845-10.163,7.228-19.315,15.514-25.26
	c6.873-4.931,19.019-11.385,27.706-9.47c7.677,1.692,17.129,5.615,17.766,14.616c0.314,4.436-1.814,8.968-5.428,11.559
	c2.011,2.587,5.538,3.29,8.57,4.533c7.931,3.252,13.501,11.573,13.483,20.145c-0.004,1.704-0.204,3.439,0.212,5.091
	c0.922,3.659,4.654,6.146,5.415,9.842c0.476,2.313-0.305,4.679-1.076,6.911c-1.204,3.488-2.408,6.975-3.612,10.463
	c-0.956,2.77-1.684,5.663-3.675,7.9c-1.108,1.245-2.418,2.292-3.721,3.332c-0.63,0.503-1.263,1.008-1.962,1.408
	c-1.253,0.716-2.699,0.919-3.951,1.59C235.06,428.945,200.853,434.272,207.863,415.838z M251.859,425.834
	c-0.01-0.015-0.02-0.03-0.03-0.045c-0.061-0.092-0.205-0.137-0.283-0.059c0.567-0.394,1.135-0.788,1.745-1.11
	c4.091-2.16,6.926-6.093,8.664-10.325c4.703-11.45,3.42-21.626,2.35-33.441c5.445,0.417,13.647,9.734,17.727,13.472
	c5.12,4.691,9.695,10.055,13.627,15.777c2.151,3.131,3.196,6.563,4.971,9.758c0.014,0.025,5.231,7.858,5.545,5.269
	c0.882-7.28,0.039-14.764-2.44-21.665c3.02-2.196,6.08-4.415,9.546-5.805c2.218-0.889,8.597-2.964,9.995,0.088
	c1.034,2.258-4.245,7.45-5.453,9.243c-4.18,6.202-7.879,12.757-10.719,19.685c-2.791,6.808-4.768,13.947-5.655,21.259
	c-0.708,5.836,1.957,15.403,0.723,20.947c-6.14-3.711-11.424-7.462-13.489-8.968c-0.804-0.587-1.602-1.181-2.395-1.783
	c-6.337-4.81-12.309-10.083-18.057-15.578c-2.877-2.751-5.7-5.558-8.491-8.397c-1.395-1.419-2.782-2.846-4.164-4.277
	C254.329,428.59,252.834,427.301,251.859,425.834z M281.377,488.723c-3.896-6.382-7.813-12.777-11.808-19.147
	c4.613,6.616,9.098,13.392,13.615,20.214C282.577,489.442,281.98,489.077,281.377,488.723z M501.709,510.078
	c-29.311,20.531-67.475,25.066-102.895,19.958c-31.69-4.571-61.773-16.161-91.213-28.304c-1.079-0.445-2.147-0.912-3.218-1.374
	c-0.833-1.406-1.337-2.258-1.337-2.258c-2.047-3-4.097-5.995-6.111-9.047c-5.674-8.517-11.309-17.193-17.253-25.753
	c2.936,2.44,5.94,4.799,9.058,6.999c17.162,12.111,37.396,20.255,57.164,27.064c7.467,2.572,15.09,4.892,22.951,5.65
	c11.768,1.134,23.387,3.534,35.182,4.417c10.552,0.789,19.881-1.909,30.355-2.477c3.262-0.177,6.58-0.365,9.649-1.487
	c0.391-0.143,0.795-0.328,1.084-0.614c4.692,3.098,9.582,5.896,14.667,8.296c3.79,1.789,7.722,3.39,11.864,4.028
	c12.172,1.873,21.565-4.621,32.146-9.11C504.565,507.534,503.064,509.128,501.709,510.078z M347.119,461.154
	c2.535-4.95,5.442-9.69,8.855-14.094c10.544-13.602,24.223-21.105,41.169-22.539c5.971-0.505,12.2-1.622,18.028-0.205
	c6.034,1.467,11.919,3.545,17.545,6.173c7.087,3.31,13.766,7.494,19.829,12.437c2.95,2.405,5.5,5.7,8.514,7.969
	c-4.023,0.897-7.834,2.839-10.123,6.202c-0.925,1.359-1.571,2.901-2.579,4.2c-4.309,5.557-12.895,4.597-19.304,7.492
	c-5.343,2.414-9.042,7.584-10.998,13.111c-1.863,5.268-2.343,10.903-2.745,16.483c-2.019,0.094-4.001,0.148-5.912,0.102
	c-12.838-0.307-25.648-1.737-38.238-4.265c-7.096-1.425-26.185-3.21-31.043-8.858C335.636,480.153,344.527,466.217,347.119,461.154z
	 M522.825,508.422c-3.754-2.329-7.245-4.92-11.16-7.031c-5.738-3.094-11.955-4.658-17.101-9.023c-0.813-0.69-1.684-1.455-2.748-1.52
	c-1.73-0.105-2.998,1.71-3.276,3.421c-0.678,4.17,3.581,7.224,6.436,9.477c-6.499,0.312-12.914,1.362-19.404,1.808
	c-6.557,0.45-13.524-0.178-18.95-3.886c-3.136-2.143-5.636-5.236-9.09-6.816c-3.454-1.58-8.542-0.741-9.597,2.908
	c0.391,0.302,0.803,0.578,1.198,0.875c-6.777-1.449-14.329-0.784-21.51-0.37c0.523-0.597,0.954-1.361,1.264-2.065
	c2.626-5.967,6.054-11.705,10.918-16.046c4.864-4.341,11.31-7.176,17.814-6.731c2.984-6.344,7.785-11.821,13.683-15.61
	c1.917-1.232,3.994-2.304,6.247-2.646c3.77-0.572,9.466,0.023,13.266,0.401c0.33,0.033,0.677,0.08,0.943,0.279
	c0.824,0.613,0.242,1.89,0.212,2.916c-0.047,1.582,1.504,2.842,3.072,3.051c1.569,0.209,3.126-0.352,4.609-0.905
	c5.601-2.087,10.854-4.142,16.683-5.112c2.981-0.496,5.883-1.62,8.921-1.834c2.228-0.137,5.566,0.61,7.435,1.6
	c-1.263,0.869-2.458,2.045-2.864,3.589c-2.294,8.714-3.866,17.772-2.832,26.723c0.442,3.832,1.394,7.623,2.907,11.175
	c1.405,3.299,4.615,6.281,5.586,9.615C526.678,510.766,525.678,510.192,522.825,508.422z M590.621,482.989
	c-2.672,8.169-11.494,12.524-19.758,14.887c-9.367,2.679-19.134,3.953-28.874,3.766c-17.043-0.326-15.486-29.21-12.007-40.073
	c1.639-5.116,2.939-8.258,7.924-10.137c3.76-1.417,13.625-5.094,17.482-3.242c-11.615-5.575-25.234-4.813-37.927-2.612
	c-12.694,2.201-25.323,5.729-38.198,5.294c-2.132-0.072-4.265-0.251-6.397-0.4c-5.513-10.619-20.042-20.113-30.15-25.466
	c-12.08-6.397-25.66-9.763-39.347-9.309c-18.821,0.624-37.768,7.773-51.805,20.453c-8.353,7.545-15.058,17-19.419,27.379
	c-1.419,3.377-0.892,9.784-2.625,12.474c-3.588,5.568-16.707-0.691-27.298-7.087c5.378-16.113,10.815-32.265,18.32-47.501
	c2.998-6.086,7.237-14.694,13.563-18.01c5.748-3.013,12.965,1.783,19.201,2.93c10.805,1.987,22.534,1.497,31.994-4.09
	c-14.174-0.415-28.313-2.028-42.216-4.816c-7.895-1.583-15.904-3.627-22.561-8.157c-4.709-3.205-9.48-7.181-12.868-11.761
	c-1.508-2.038-2.846-3.917-4.641-5.75c-1.489-1.522-6.333-4.707-6.832-6.702c0.348,1.438,0.696,2.876,1.044,4.314
	c-14.136-13.041-28.134-26.782-37.155-43.767c-9.021-16.985-12.476-37.925-4.786-55.554c-4.547,0.366-8.998,1.862-12.843,4.316
	c4.815-20.7,21.196-38.226,41.398-44.707c-0.195,0.148-0.398,0.283-0.591,0.434c-15.189,11.9-22.943,28.639-23.065,48.011
	c-0.125,19.998,10.442,35.931,28.193,44.326c10.187,4.818,21.109,8.94,32.37,8.53c0.074-0.003,0.146-0.011,0.219-0.014
	c0.987,0.827,1.951,1.735,2.671,2.213c1.682,1.117,3.272,2.287,4.93,3.4c4.187,2.808,8.845,5.056,13.279,7.444
	c23.009,12.391,47.158,28.328,72.168,9.849c2.346-1.733,4.53-3.697,7.02-5.217c7.798-4.763,17.537-4.646,26.289-7.274
	c6.717-2.017,12.821-5.65,18.762-9.378c12.157-7.63,23.278-16.894,35.376-24.509c4.526-2.849,8.286-3.963,11.699-8.431
	c3.945-5.164,6.688-11.273,8.702-17.42c4.297-13.119,5.656-28.004-0.507-40.357c-2.547-5.106-6.276-9.558-10.496-13.398
	c-2.073-1.886-4.496-3.291-6.756-4.969c1.466-5.499,2.933-10.998,4.399-16.497c1.33-4.989,2.664-9.995,3.335-15.115
	c0.312-2.38-0.121-5.235,0.204-7.39c1.242-8.232,1.952-16.544,2.125-24.867c0.034-1.612,0.023-3.261-0.303-4.829
	c6.295,3.389,12.257,7.395,17.746,11.975c11.575,9.658,20.047,24.639,28,37.284c6.802,10.815-2.182,8.34-10.187,9.053
	c-4.069,0.363-8.109,1.054-12.068,2.064c-3.114,0.795-8.571,4.162-11.576,3.981c5.635,0.339,11.244,1.017,16.841,1.745
	c9.978,1.299,20.036,2.791,29.41,6.449c9.374,3.658,18.123,9.703,23.275,18.346c0.538,0.903,0.997,2.168,0.245,2.904
	c-0.375,0.367-0.933,0.454-1.449,0.554c-3.758,0.731-7.134,3.23-8.931,6.611c1.451-0.77,2.806,1.179,3.274,2.754
	c2.255,7.587,3.493,15.473,3.705,23.385c0.115,4.31,0.336,9.241-0.803,13.398c-0.339,1.236-0.808,2.545-1.869,3.262
	c-1.111,0.751-2.564,0.656-3.904,0.626c-13.693-0.302-17.487,18.655-21.444,28.806c-5.49,14.083-13.918,27.014-24.588,37.721
	c-1.047-4.992-3.348-9.716-6.633-13.618c-9.499,14.995-23.518,27.086-39.747,34.279c0.183-3.545,0.365-7.09,0.548-10.635
	c-17.128,12.11-35.564,22.37-54.883,30.543c15.178-0.261,30.235-5.413,42.391-14.505c-1.081,1.613-2.162,3.227-3.243,4.84
	c6.834-0.303,13.621-1.619,20.073-3.892c1.369-0.482,2.964-0.89,4.233-1.596c0.932-0.519,1.515-1.214,2.621-1.496
	c2.262-0.578,4.799,0.328,6.863,1.199c11.004,4.644,27.57,11.465,34.506,21.374c8.151,11.645,19.134,20.845,28.086,31.82
	c4.87,5.971,9.106,12.458,12.614,19.317C590.174,469.021,592.811,476.295,590.621,482.989z M665.255,402.896
	c-6.47,8.95-15.264,15.964-24.458,22.084c-16.676,11.1-35.064,19.609-54.304,25.189c-0.482-0.889-0.748-1.849-0.641-2.924
	c0.444-4.457,4.707-7.435,8.693-9.479c4.989-2.558,10.275-4.689,14.635-8.214c5.376-4.346,11.817-7.002,17.761-10.433
	c12.604-7.275,23.278-19.392,29.998-32.217c5.551-10.593,7.254-25.13,4.123-36.68c-3.414-12.595-11.9-23.384-22.116-31.503
	c-10.216-8.119-22.134-13.804-34.174-18.834c-1.398-0.584-2.862-1.171-4.373-1.06c-0.607,0.045-1.217,0.246-1.746,0.56
	c0.888-4.281,0.995-8.721,0.218-13.025c1.824-0.076,3.652-0.043,5.472,0.089c4.402,1.994,9.227,3.168,13.867,4.638
	c22.482,7.123,42.507,23.085,52.352,44.515S679.071,383.783,665.255,402.896z M622.11,389.226l0.015-1.588
	c2.434-0.553,4.869-1.102,7.309-1.628l6.26-1.314c0,0,4.016-1.064,7.956-2.109c0.519-0.134,1.036-0.267,1.543-0.398
	c0.173,2.296,0.305,3.933,0.347,3.705c0.171,1.658,0.379,3.173,0.615,4.346c-4.536,6.869-10.266,12.939-16.47,18.375
	c-3.083,2.701-6.301,5.246-9.616,7.657c0.298-0.973,0.572-2.763,0.797-5.675c0.67-6.355,1.244-15.367,1.244-15.367L622.11,389.226z
	 M643.003,340.335c0.042,0.673,0.069,1.346,0.109,2.018c-4.469,0.858-8.363,1.72-8.363,1.72l-11.918,3.452
	c0.147-7.995,0.226-16.004,0.16-24.041c2.862-0.657,5.129-1.147,4.858-1.155c2.431-0.588,4.539-1.215,5.645-1.763
	c0.33,0.26,0.676,0.498,1.002,0.764c3.005,2.449,5.826,5.181,8.381,8.134c-0.176,0.226-0.326,0.456-0.442,0.669
	c-0.129,0.199-0.125,0.251-0.116,0.395L643.003,340.335z M627.603,319.042c-1.457-0.013-3.052,0.037-4.645,0.115
	c-0.001-0.053,0-0.107-0.001-0.16c-0.04-1.883-0.117-3.787-0.252-5.703c3.073,1.781,6.047,3.718,8.899,5.834
	C630.591,319.059,629.299,319.024,627.603,319.042z M622.71,353.736l12.958-3.753c0,0,3.885-1.401,7.704-2.803
	c0.32,6.033,0.593,12.069,0.761,18.108l0.116,4.702c0,0,0.297,3.797,0.603,7.698c-4.973,0.434-9.584,1.041-9.584,1.041l-5.929,1.231
	l-7.157,1.584l0.022-2.309l0.391-20.02C622.635,357.389,622.672,355.562,622.71,353.736z M650.729,377.3
	c-0.316,0.012-0.643,0.027-0.971,0.043c0.294-3.729,0.436-6.699,0.436-6.699l-0.131-5.523c-0.183-6.71-0.486-13.416-0.854-20.118
	c1.011-0.39,1.619-0.641,1.469-0.627c0.464-0.194,0.907-0.387,1.338-0.578c1.807,4.183,3.028,8.593,3.472,13.162
	c0.665,6.847-0.45,13.752-2.764,20.251C652.121,377.231,651.466,377.258,650.729,377.3z M651.448,380.474
	c-0.772,1.804-1.61,3.581-2.555,5.293c-0.007,0.012-0.015,0.024-0.021,0.036c0.212-1.488,0.397-3.106,0.557-4.721
	c1.137-0.306,1.834-0.508,1.678-0.507C651.223,380.541,651.333,380.507,651.448,380.474z M649.94,341.163
	c-0.302,0.045-0.614,0.094-0.927,0.144c-0.027-0.448-0.044-0.897-0.071-1.345l-0.169-2.438c0.695,1.147,1.339,2.32,1.943,3.512
	C650.453,341.079,650.221,341.114,649.94,341.163z"/>
</g>
</svg>
