<?xml version="1.0" encoding="UTF-8"?>
<svg xmlns="http://www.w3.org/2000/svg"
     viewBox="0 0 748 340"
     preserveAspectRatio="xMidYMid meet"
     height="100%">
  <g transform="scale(1, 2)" style="stroke: none;">
    <path d="M19.33,40.28v7.06c0,2.78,2.53,5.3,5.31,5.3h58.7c0,.7,0,14.04-.13,13.97-.09-.06-43.08-.03-67.28-.01-8.34,0-15.93-7.58-15.93-15.91v-14.44c0-8.33,7.58-15.91,15.91-15.91H95.11c8.33,0,15.91,7.58,15.91,15.91v50.71h-19.61c.18,0,.07-33.39,.02-46.71-.01-2.77-2.53-5.28-5.29-5.28H24.64c-2.78,0-5.31,2.53-5.31,5.3h0Z"/>
    <path d="M608.11,45.75v-5.47c0-2.78-2.53-5.3-5.31-5.3h-41.31c-2.78,0-5.31,2.53-5.31,5.3v26.33h-19.33c-.11-.05-.09-17.02-.05-30.41,.02-8.31,7.57-15.87,15.87-15.87,16.42,0,41.83-.01,58.24,0,8.3,0,15.86,7.53,15.9,15.84,.03,4.85,.06,9.07,.06,9.58h-18.78Z"/>
    <path d="M478.5,52.65h25.29c2.78,0,5.3-2.52,5.3-5.3v-8.25h17.12v11.6c0,8.33-7.58,15.91-15.92,15.91h-41.36c-8.33,0-15.91-7.58-15.91-15.91V26.47h-8.29V14.72h8.29V4.64h20.16V14.72h35.9v11.74h-35.9v20.88c0,2.78,2.53,5.3,5.3,5.3h0Z"/>
    <path d="M392.7,26.47v20.88c0,2.78,2.53,5.3,5.3,5.3h25.29c2.78,0,5.3-2.52,5.3-5.3v-8.25h17.12v11.6c0,8.33-7.58,15.91-15.91,15.91h-41.36c-8.33,0-15.91-7.58-15.91-15.91V26.47h-8.28V14.72h8.28V4.64h20.16V14.72h35.9v11.74h-35.9Z"/>
    <path d="M339.13,66.62v-26.33c0-2.78-2.53-5.3-5.31-5.3h-66.16c-2.78,0-5.3,2.53-5.3,5.3v7.06c0,2.78,2.53,5.3,5.3,5.3h63.46v13.97c-.23,.04-47,.02-72.47,0-8.33,0-15.9-7.58-15.9-15.91v-14.46c0-8.33,7.58-15.91,15.91-15.91h84.16c8.33,0,15.91,7.58,15.91,15.91v30.36h-19.61Z"/>
    <path d="M143.94,52.65c14.04,0,51.32,.02,65.27,0,2.78,0,5.31-2.54,5.3-5.32-.02-8.86,.07-25.81,.07-27h19.33v30.36c0,8.33-7.58,15.91-15.91,15.91h-82.23c-8.33,0-15.91-7.58-15.91-15.91V20.34c-.14,.25,17.83,.01,18.78,0v27.01c0,2.78,2.53,5.3,5.3,5.3h0Z"/>
    <g>
      <path d="M661.69,52.65h-1.88c-2.78,0-5.31-2.52-5.31-5.3v-6.91c0-2.8,2.56-5.33,5.36-5.3,9.99,.09,31.91,.02,48.12-.05l14.69-14.69c-21.57,.03-52.61,.08-71.26,.05-8.34-.01-15.96,7.53-15.96,15.87v14.39c0,7.23,5.71,13.89,12.66,15.52l13.58-13.58Z"/>
      <path d="M732.97,20.61l-14.42,14.42c1.29,0,2.48-.01,3.52-.02,2.79-.02,5.33,2.52,5.33,5.3v7.04c0,2.78-2.53,5.3-5.3,5.3h-49.89l-13.97,13.97h72.31c8.33,0,15.91-7.58,15.91-15.91v-14.42c0-7.51-6.17-14.4-13.49-15.68Z"/>
    </g>
  
    <g transform="translate(-840, 100)">
      <path d="M939.88,46.68v-7.06c0-2.78-2.53-5.3-5.31-5.3h-58.7c0-.7,0-14.04,.13-13.97,.09,.06,43.08,.03,67.28,.01,8.34,0,15.93,7.58,15.93,15.91v14.44c0,8.33-7.58,15.91-15.91,15.91h-79.19c-8.33,0-15.91-7.58-15.91-15.91V0h19.61c-.18,0-.07,33.39-.02,46.71,.01,2.77,2.53,5.28,5.29,5.28h61.5c2.78,0,5.31-2.53,5.31-5.3h0Z"/>
      <g>
        <path d="M995.22,52.65h-1.88c-2.78,0-5.31-2.52-5.31-5.3v-6.91c0-2.8,2.56-5.33,5.36-5.3,9.99,.09,31.91,.02,48.12-.05l14.69-14.69c-21.57,.03-52.61,.08-71.26,.05-8.34-.01-15.96,7.53-15.96,15.87v14.39c0,7.23,5.71,13.89,12.66,15.52l13.58-13.58Z"/>
        <path d="M1066.5,20.61l-14.42,14.42c1.29,0,2.48-.01,3.52-.02,2.79-.02,5.33,2.52,5.33,5.3v7.04c0,2.78-2.53,5.3-5.3,5.3h-49.89l-13.97,13.97h72.31c8.33,0,15.91-7.58,15.91-15.91v-14.42c0-7.51-6.17-14.4-13.49-15.68Z"/>
      </g>
      <polygon points="1085.78 66.62 1119.44 66.62 1135.99 54.81 1152.53 66.62 1186.19 66.62 1152.82 42.8 1184.24 20.38 1150.58 20.38 1135.99 30.79 1121.39 20.38 1087.73 20.38 1119.15 42.8 1085.78 66.62"/>
    </g>
  </g>
</svg>
