<svg version="1.1" xmlns="http://www.w3.org/2000/svg" xmlns:xlink="http://www.w3.org/1999/xlink"
         viewBox="7 10 42 35"
         width="100%" height="100%"
         preserveAspectRatio="xMidYMid meet">
  <g style="stroke: none;">
    <path d="m 25.834329,31.400933 -0.297704,-0.297704 -0.295612,-0.297704 -0.299795,-0.294217 -0.239836,-0.239837 h -3.76487 l 0.660944,0.660944 h 2.329339 l 0.297704,0.297703 0.297704,0.297704 0.297703,0.297703 0.297704,0.297704 0.297703,0.297704 0.595408,0.595407 1.30376,1.303063 h 1.197786 l 1.076474,-1.076474 0.718811,-0.718811 1.437622,-1.437622 0.718812,-0.718812 0.09691,-0.09621 h -1.439713 l -0.09343,0.09273 -1.437622,1.437622 -0.723692,0.718812 -0.777376,0.779466 H 27.733497 L 26.72744,32.294741 26.132033,31.696544 Z m 2.076954,0.63933 0.237743,-0.238442 0.717418,-0.718812 0.815722,-0.815024 h -3.543161 l 0.116432,0.116432 1.190814,1.190815 z m 16.676979,-1.464117 -8.84117,8.82374 -1.128763,-1.128764 -3.1604,3.1604 h -2.287507 l -2.402545,2.403241 -5.786744,-5.79023 H 18.64761 L 10.871063,30.267985 H 9.4341378 l 8.7923652,8.793063 h 2.330036 l 6.211338,6.211338 2.823653,-2.82435 h 2.287507 l 2.739292,-2.739292 1.128066,1.128067 9.744041,-9.728005 a 2.9707611,2.9707611 0 0 1 -0.902174,-0.536145 z m -26.528389,-0.308161 2.693973,2.693973 h 2.325853 l 0.297704,0.297704 0.297703,0.297704 0.297704,0.297703 0.595407,0.595407 1.882435,1.882435 h 2.915683 l 1.661423,-1.655845 0.718811,-0.718811 0.718811,-0.718812 0.718812,-0.71881 0.718811,-0.718812 0.715326,-0.718812 0.71881,0.718812 0.413439,0.413438 1.952155,-1.947274 h -3.706306 l -0.09691,0.09621 -0.718812,0.71881 -0.71881,0.718812 -0.718812,0.718812 -0.715325,0.71881 -0.718812,0.718812 -1.374176,1.374178 H 26.891278 L 25.287722,33.728875 24.692315,33.133469 24.394611,32.835765 24.096907,32.538062 23.799204,32.240358 23.5015,31.942654 h -2.327243 l -1.677459,-1.677457 z m -5.75049,0 6.762821,6.762822 h 2.330036 l 0.297704,0.297704 5.071419,5.071419 1.683734,-1.684431 0.297704,-0.297704 h 2.287507 l 2.859209,-2.864786 0.718812,-0.718812 0.71881,0.718812 0.41065,0.410649 7.707525,-7.695673 h -1.439016 l -6.267812,6.258051 -0.411347,-0.411347 -0.71881,-0.718812 -0.718812,0.718812 -0.718812,0.718811 -2.564991,2.564992 h -2.287507 l -0.298401,0.297704 -0.297006,0.297006 -0.964923,0.966317 -4.352607,-4.352608 -0.298401,-0.297704 -0.297704,-0.297704 h -2.329338 l -5.743519,-5.743518 z m 2.875245,0 4.727003,4.727003 h 2.33143 l 0.297704,0.297704 0.297703,0.297703 0.297704,0.297704 3.634494,3.633796 0.246112,-0.246807 0.297703,-0.297704 0.297704,-0.297704 0.297703,-0.297703 h 2.287507 l 2.267288,-2.267288 0.718812,-0.718812 0.718811,-0.718811 0.718811,-0.718811 0.718811,0.718811 0.412044,0.412044 4.827401,-4.821125 h -1.440412 l -3.389081,3.384199 -0.412741,-0.412741 -0.71881,-0.71881 -0.718812,0.71881 -0.718812,0.718812 -0.71881,0.718811 -0.718812,0.718811 -1.970281,1.969585 h -2.28681 l -0.298401,0.297704 -0.297704,0.297704 -0.122707,0.123403 -2.915682,-2.914985 -0.297704,-0.297703 -0.297703,-0.297704 -0.297007,-0.297704 -0.297703,-0.297703 h -2.329339 l -3.710489,-3.710489 z m 4.589655,-7.506035 -1.496884,1.496885 A 1.5338358,1.5338358 0 1 1 17.46586,23.631356 l 1.887315,-1.887315 h 5.973594 A 1.5066452,1.5066452 0 0 1 25.68722,21.16955 v 0 a 1.5338358,1.5338358 0 1 1 -0.360451,1.591006 z m 6.480457,-0.508257 a 0.51453221,0.51453221 0 0 0 0.879167,0.36324 0.51453221,0.51453221 0 0 0 0,-0.727177 0.51453221,0.51453221 0 0 0 -0.727178,0 v 0 a 0.50895463,0.50895463 0 0 0 -0.152686,0.363937 z m -8.902523,2.47087 a 0.51453221,0.51453221 0 1 0 0,0.727875 0.51313782,0.51313782 0 0 0 0,-0.727875 z m 2.678635,0.363937 a 1.5303498,1.5303498 0 0 1 2.97355,-0.508257 h 7.835113 a 1.5296527,1.5296527 0 0 1 2.525251,-0.574491 v 0 a 1.5338358,1.5338358 0 1 1 -2.525251,1.591006 H 23.004402 A 1.5303498,1.5303498 0 0 1 20.030852,25.0885 Z m 11.887228,0.363938 a 0.51468535,0.51468535 0 0 0 0.727875,-0.727875 v 0 A 0.51468535,0.51468535 0 1 0 31.91808,25.452438 Z M 21.047367,25.0885 a 0.51453221,0.51453221 0 1 0 0.514532,-0.514532 0.51522941,0.51522941 0 0 0 -0.514532,0.511744 z m 14.175432,0.508258 V 22.194431 H 30.564121 L 27.42673,19.05704 a 1.5275611,1.5275611 0 0 1 -1.742996,-0.297007 v 0 a 1.5338358,1.5338358 0 1 1 2.461807,-0.421805 l 2.836899,2.836899 h 5.254085 v 3.399539 h 1.040219 a 1.5338358,1.5338358 0 0 1 2.52595,-0.574492 v 0 a 1.5338358,1.5338358 0 1 1 -2.52595,1.591006 z m 2.986099,-0.511046 a 0.51453221,0.51453221 0 0 0 0.87847,0.363937 0.51453221,0.51453221 0 0 0 -0.728572,-0.725086 0.51034902,0.51034902 0 0 0 -0.149898,0.361149 z M 27.132512,17.316136 a 0.51453221,0.51453221 0 1 0 -0.727177,0.727875 v 0 a 0.51522941,0.51522941 0 0 0 0.727874,0 0.51592661,0.51592661 0 0 0 -6.97e-4,-0.727875 z M 47.61201,29.402065 v 0 A 1.5268638,1.5268638 0 0 1 45.087455,28.827573 H 8.0000008 l 0.880561,-0.874983 9.3424562,-9.342454 h 2.330036 l 6.211337,-6.211338 2.823653,2.823652 h 2.287506 l 2.742779,2.739291 1.128066,-1.128066 6.891106,6.874373 a 1.5387163,1.5387163 0 1 1 -0.719509,0.717417 l -6.1709,-6.155562 -1.128763,1.129461 -3.1604,-3.161096 h -2.287507 l -2.402545,-2.405334 -5.786744,5.79023 H 18.64761 l -8.187197,8.187895 h 34.627042 a 1.5136171,1.5136171 0 0 1 0.359057,-0.574491 1.5338358,1.5338358 0 0 1 2.165498,2.165497 z m -4.830886,-4.316353 a 0.51453221,0.51453221 0 1 0 0.51732,-0.514532 0.51522941,0.51522941 0 0 0 -0.51732,0.514532 z m 4.113468,2.869667 a 0.51453221,0.51453221 0 1 0 0,0.727875 0.51313782,0.51313782 0 0 0 -0.0014,-0.727875 z M 34.218834,12.261449 a 1.5338358,1.5338358 0 1 1 1.533835,1.533836 1.5338358,1.5338358 0 0 1 -1.533835,-1.533836 z m 1.016515,0 a 0.51453221,0.51453221 0 1 0 0.514531,-0.514532 0.51522941,0.51522941 0 0 0 -0.514531,0.514532 z" />
  </g>
</svg>
