<svg xmlns="http://www.w3.org/2000/svg" xmlns:xlink="http://www.w3.org/1999/xlink"
    height="100%"
    viewBox="0 0 1615 921"
    preserveAspectRatio="xMidYMid meet">

  <g>
    <g>
      <path d="M773.76,143.49c5.28-8.57-.88-19.6-10.95-19.6h-71.88l46.44,78.65,36.38-59.05Z"/>
      <path d="M1265.31,123.89h-218.54c-20.95,0-40.39,10.86-51.38,28.69l-158.65,257.57-150.99-255.72c-11.18-18.93-31.52-30.54-53.51-30.54h-223.48l166.31,275.7,33.93,56.25,51.17,84.82,21.35,35.4,12.5,20.73.1.16c1.46,2.42,4.05,3.94,6.88,4.03,82.91,2.53,171.39,2.78,265.7.34,2.81-.07,5.4-1.56,6.87-3.95l78.34-127.14,213.4-346.33Z"/>
      <path d="M640.19,77.28l-15.7-26.58c-18.55-31.42-52.32-50.7-88.81-50.7h-201.66l46.62,77.28h259.55Z"/>
      <path d="M1341.65,0h-194.23c-36.07,0-69.56,18.7-88.47,49.41l-17.16,27.86h252.25L1341.65,0Z"/>
      <path d="M546.65,391.2l-48.36-80.17-35.49,57.62-39.77,64.56-31.17,50.6-32.6-55.21-55.81-94.51-109.71-185.81c-8.92-15.11-25.17-24.39-42.72-24.39H0l109.31,181.21,71.13,117.91,83.09,137.75,8.64,14.33,23.66,39.23c11.08,18.43,24.65,34.7,41.7,45.77,14.46,9.38,31.41,15.03,51.5,15.03,37.37,0,63.62-19.96,83.17-44.75,4.09-5.19,7.9-10.58,11.44-16.05l15.24-24.74,22.56-36.61,62.05-100.7-.28-.47-36.56-60.61Z"/>
      <path d="M1613.76,374.16c-1.36-17.99-4.34-35.28-8.78-51.78-31.81-118.03-139.43-198.49-279.56-198.49h-21.52c-11.15,0-21.48,5.83-27.24,15.38l-73.2,121.28c-2.58,4.27.5,9.71,5.48,9.71h116.47c63.24,0,114.92,35.2,134.09,87.94,5.19,14.29,8.01,29.86,8.01,46.37,0,3.27-.11,6.49-.31,9.67-4.66,73.7-62.66,122.16-141.78,122.16h-172.24v-171.89c0-6.33-8.31-8.68-11.63-3.29l-62.33,101.16-71.77,116.47c-2.32,3.76-3.55,8.09-3.55,12.51v86.75h321.51c104.27,0,191.37-47.51,241.91-122.28,7.41-10.96,14.03-22.5,19.8-34.56,17.74-37.07,27.5-79.06,27.5-124.13,0-7.78-.3-15.44-.87-22.99Z"/>
      <path d="M966.49,620.82h-267.97c-2.48,0-4.49,2.01-4.49,4.49v70.91c0,2.48,2.01,4.49,4.49,4.49h19.17c18.72,0,36.64,7.61,49.63,21.09l53.32,55.29c2.16,2.24,5.15,3.51,8.27,3.51h8.02c3.12,0,6.1-1.27,8.27-3.51l53.31-55.32c12.99-13.48,30.92-21.1,49.64-21.1h18.35c2.48,0,4.49-2.01,4.49-4.49v-70.87c0-2.48-2.01-4.49-4.49-4.49Z"/>
    </g>
    <path d="M1567.47,916.83c-452.02,3.09-975.87,3.91-1426.43,4.76-16.57-.36-34.03-3.74-46.94-15.38-15.44-14.01-17.03-38.47-7.47-56.52,11.43-20.53,36.83-26.81,58.55-26.11,154.71.17,452.77.67,607.78,0,17.43-.28,35.49-.47,52.41-3.99,9.38-2.34,17.67-4.77,21.32-13.54,1.13-2.76,1.7-6.13,2.31-9.81.34-2.01,2.24-3.37,4.25-3.04,1.6.27,2.79,1.52,3.04,3.04.62,3.67,1.13,7.72.6,12.15-1.45,14.04-14.61,22.84-26.77,27.05-18.52,6.5-37.7,7.77-56.97,8.13-51.57.44-200.08.33-253.98.4-88.83-.06-266.01-.1-354.83-.54-5.23-.19-10.59.2-15.71,1.14-15.85,2.83-28.05,11.26-28.1,28.6-.79,17.39,12.38,24.89,27.97,27.59,5.47.94,11.19,1.35,16.76,1.1,452.98.5,970.42,1.7,1422.2,4.64,2.85.02,5.14,2.34,5.12,5.19-.02,2.82-2.31,5.1-5.12,5.12h0Z"/>
  </g>
</svg>
