<svg xmlns="http://www.w3.org/2000/svg"
     xmlns:xlink="http://www.w3.org/1999/xlink"
     height="100%"
     viewBox="10 45 190 100"
     preserveAspectRatio="xMidYMid meet">

  <g transform="matrix(0.04282078,0,0,0.04282078,11.411512,40.06387)"
     style="fill-opacity:1;fill-rule:nonzero">
    <path d="m 898,113 c 14.48,6.98 42.29,27.33 55,37.92 52.24,43.53 88.23,92.6 93.09,162.08 0,0 0.91,10 0.91,10 0.31,26.73 -4.13,55 -13.81,80 -2.7,6.98 -5.94,14.43 -9.5,21 0,0 -7.69,14 -7.69,14 0,0 -2,0 -2,0 -22.53,-42.11 -68.32,-87.16 -114,-103 29.43,29.43 57.28,57.58 73,97 3.85,9.67 5.97,17.77 7.88,28 0.65,4.5 1.85,8.63 0,13 -14.16,-19.43 -35.5,-36.26 -57.88,-45.4 -6.58,-2.68 -15.92,-7.01 -23,-6.6 11.45,4.86 27.88,20.6 36.15,30 22.29,25.31 37.81,55.61 43.42,89 2.7,16.12 2.43,25.04 2.43,41 -3.42,-2.62 -7.4,-15.34 -9.42,-20 -4.93,-11.32 -14,-27.9 -21.01,-38 -30.61,-44.11 -70.23,-76.59 -120.57,-95.58 -16.62,-6.26 -35.32,-10.57 -53,-12.38 0,0 -8,0 -8,0 0,0 -13,-1.03 -13,-1.03 0,0 -9,0.9 -9,0.9 -34.08,2.34 -68.23,11.4 -100,23.89 -110.21,43.3 -202.38,125.74 -274.42,218.2 -17.63,22.62 -34.02,46.41 -48.78,71 -6.52,10.87 -15.9,26.62 -20.8,38 0,0 17.61,-22 17.61,-22 0,0 26.56,-31 26.56,-31 29.33,-32.42 63.32,-60.87 101.83,-81.69 35.41,-19.15 73.78,-31.59 114,-34.4 0,0 12,-0.91 12,-0.91 24.74,-0.04 49.39,2.48 73,10.35 40.06,13.36 76.49,43.14 106,72.65 53.59,53.59 90.01,113.03 115.95,184 11.46,31.36 21.24,72.82 25.2,106 0,0 2.94,32 2.94,32 0,0 0.91,12 0.91,12 0,0 0,38 0,38 0,0 -0.91,12 -0.91,12 0,0 -6.17,53 -6.17,53 -1.17,6.91 -5.73,23.31 -4.92,29 1.54,-6.54 13.08,-29.43 16.74,-37 0,0 29.95,-65 29.95,-65 29.74,-64.93 56.22,-131.97 77.97,-200 16.18,-50.63 28.6,-102.57 37.26,-155 0,0 6.91,-52 6.91,-52 0.63,-6.53 0.9,-20.68 3.17,-26 0,0 1.83,18 1.83,18 4.83,48.31 14.02,95.91 25.8,143 24.7,98.8 66.18,203.12 108.07,296 0,0 36.3,80 36.3,80 0,0 -4.58,-23 -4.58,-23 0,0 -6.51,-53 -6.51,-53 0,0 -0.91,-12 -0.91,-12 0,0 0,-47 0,-47 0,0 0.91,-12 0.91,-12 2.26,-32.81 7.64,-65.21 16.24,-97 22.28,-82.36 68.51,-163.66 128.85,-224 32.68,-32.68 70.85,-62.69 116,-75.57 21.17,-6.04 41.16,-7.46 63,-7.43 0,0 12,0.91 12,0.91 44.22,3.23 86.92,18.73 125,41.1 23.36,13.72 44.22,30.48 64,48.9 0,0 13.96,13.09 13.96,13.09 0,0 30.62,34 30.62,34 0,0 20.42,25 20.42,25 -4.85,-10.88 -17.63,-31.38 -24.32,-42 -14.79,-23.46 -30.75,-46.33 -48.08,-68 -18.74,-23.43 -38.38,-45.78 -59.6,-67 0,0 -50,-46.73 -50,-46.73 0,0 -45,-35.13 -45,-35.13 -49.69,-35.61 -104.9,-65.29 -165,-78.56 -15.64,-3.46 -40.25,-7.75 -56,-7.58 0,0 -10,1.04 -10,1.04 0,0 -8,0 -8,0 -20.9,2.12 -42.53,7.62 -62,15.41 -46.46,18.58 -88.42,53.14 -116.33,94.55 -7.7,11.42 -14.61,23.48 -20.36,36 -2.45,5.34 -5.91,16.06 -9.31,20 0,-15.59 -0.67,-27.43 2.45,-43 9.56,-47.82 38.52,-91.66 80.55,-117 -19.08,1.72 -48.89,18.47 -63,31.17 0,0 -21,21.83 -21,21.83 0.45,-9.71 3.59,-21.76 6.67,-31 15.15,-45.5 44.31,-74.98 77.33,-108 -8.89,2.08 -22.12,8.98 -30,13.81 -23.26,14.25 -40.6,31.12 -57.74,52.19 0,0 -17.59,24 -17.59,24 -3.27,4.88 -5.34,10.23 -10.67,13 0,0 -9.75,-18 -9.75,-18 -7.14,-14.28 -13.73,-33.36 -17.04,-49 -8.53,-40.28 -5.14,-86.36 12.1,-124 16.06,-35.07 40.63,-64.12 69.69,-89.13 13.28,-11.43 27.43,-21.82 42,-31.54 5.75,-3.83 14.66,-10.31 21,-12.33 0,0 -27.33,38 -27.33,38 -16.34,24.36 -33.28,57.59 -40.79,86 -2.47,9.37 -5.84,23.51 -6.71,33 -0.45,4.85 0.22,10.21 5.85,11.53 5.58,1.31 13.64,-3.57 17.98,-6.68 0,0 36,-27.22 36,-27.22 30.68,-23.02 58.89,-43.61 92,-63.23 9.78,-5.8 37.02,-21.06 47,-23.4 -6.64,9.39 -21.53,24.01 -29.91,33 -15.28,16.4 -30.5,34.5 -41.66,54 -4.22,7.36 -7.71,15.12 -10.83,23 -1.34,3.39 -3.42,7.46 -0.99,10.86 3.95,5.5 10.79,2.49 15.39,0 0,0 38,-20.1 38,-20.1 35.64,-17.53 72.84,-33.18 111,-44.34 0,0 36,-9.21 36,-9.21 0,0 26,-5.21 26,-5.21 -2.98,4.44 -17.54,9.54 -23,12.25 0,0 -54,30.17 -54,30.17 -33.12,20.63 -71.07,50.46 -97.96,78.58 0,0 -25.04,28 -25.04,28 0,0 17,-12.58 17,-12.58 14.16,-10.02 29.23,-18.87 45,-26.11 40.65,-18.66 83.64,-27.36 128,-30.4 0,0 12,-0.91 12,-0.91 0,0 36,0 36,0 0,0 12,0.91 12,0.91 23.18,1.59 46.11,3.66 69,8.09 7.03,1.36 25.51,4.2 31,7 0,0 -20,1 -20,1 0,0 -10,0.91 -10,0.91 0,0 -34,2.93 -34,2.93 -46.14,4.93 -92.26,14.9 -136,30.47 -22.73,8.09 -61.31,23.88 -81,36.69 0,0 33,-6.58 33,-6.58 0,0 64,-8.59 64,-8.59 0,0 25,-1.83 25,-1.83 0,0 13,-1 13,-1 0,0 19,0 19,0 0,0 15,-0.91 15,-0.91 0,0 10,0.91 10,0.91 0,0 20,0 20,0 0,0 12,0.91 12,0.91 0,0 22,1.26 22,1.26 26.73,2.55 53.64,6.01 80,11.28 0,0 34,7.43 34,7.43 0,0 21,5.12 21,5.12 0,0 0,2 0,2 0,0 -43,0 -43,0 0,0 -13,0.96 -13,0.96 -31.39,1.37 -62.49,6.04 -93,13.67 -18.36,4.59 -47.83,14.17 -64,23.37 0,0 53,-4 53,-4 0,0 17,-1 17,-1 0,0 47,0 47,0 0,0 20,1 20,1 0,0 10,0.91 10,0.91 0,0 32,2.93 32,2.93 31.38,3.35 65.64,10.09 96,18.74 19.37,5.52 38.29,11.72 57,19.22 6.58,2.64 20.94,8.17 26,12.2 0,0 -28,-4.75 -28,-4.75 -17.25,-2.88 -40.71,-6.05 -58,-6.25 0,0 -15,-1 -15,-1 -35.57,-0.06 -80.5,1.77 -114,14.05 -17.73,6.5 -17.84,10.59 -28,15.95 12.99,12.27 19.5,7.02 35,7 0,0 27,0 27,0 0,0 12,1 12,1 0,0 8,0 8,0 36.89,2.61 79.39,10.52 114,23.58 0,0 27,11.11 27,11.11 5.35,2.45 10.75,4.07 15,8.31 0,0 -24,-4.39 -24,-4.39 0,0 -46,-5.65 -46,-5.65 0,0 -9,0 -9,0 0,0 -11,-0.92 -11,-0.92 0,0 -15,0.96 -15,0.96 -18.45,0.09 -51.29,7.23 -68,15 0,0 21,1.84 21,1.84 32.47,3.47 58.95,8.8 90,19.16 0,0 27,10.7 27,10.7 5.06,2.28 8.96,3.26 13,7.3 0,0 -18,-1.83 -18,-1.83 0,0 -20,-1.17 -20,-1.17 0,0 -13,-0.95 -13,-0.95 0,0 -13,0 -13,0 0,0 -10,0.95 -10,0.95 0,0 -19,1.17 -19,1.17 0,0 -24,2.83 -24,2.83 0,0 13.84,15 13.84,15 2.06,2.3 4.43,5.57 7.17,6.98 2.87,1.47 8.66,0.98 11.99,1.02 0,0 10,0.96 10,0.96 0,0 13,0 13,0 0,0 10,0.95 10,0.95 38.85,2.67 77.48,9.13 115,19.8 0,0 38,11.96 38,11.96 4.64,1.54 13.06,3.49 16,7.33 -14.92,-1.97 -29.96,-2 -45,-2 0,0 -16,0 -16,0 0,0 -12,0.91 -12,0.91 -32.37,2.26 -64.54,10.21 -92,28.09 0,0 13,1 13,1 0,0 9,0 9,0 0,0 15,1 15,1 0,0 22,1 22,1 0,0 16,1 16,1 0,0 12,0.91 12,0.91 0,0 37,2.92 37,2.92 0,0 43,5.92 43,5.92 0,0 22,5.25 22,5.25 0,0 -26,1 -26,1 0,0 -10,0.91 -10,0.91 -21.56,1.58 -42.87,5.32 -64,9.88 -10.2,2.2 -37.41,8.56 -46,12.21 0,0 27,-2 27,-2 0,0 36,0 36,0 0,0 18,1 18,1 0,0 11,0.91 11,0.91 0,0 30,2.94 30,2.94 0,0 31,4.4 31,4.4 0,0 17,3.75 17,3.75 0,0 -26,3.15 -26,3.15 0,0 -48,6.12 -48,6.12 0,0 -62,9.15 -62,9.15 0,0 -32,5 -32,5 0,0 -17,2.58 -17,2.58 5.04,7.75 12.62,21.2 15,30 0,0 24,-2.09 24,-2.09 0,0 12,-0.91 12,-0.91 0,0 20,0 20,0 0,0 16,1 16,1 0,0 34,2.95 34,2.95 0,0 26,3.64 26,3.64 0,0 12,3.41 12,3.41 0,0 -30,4.87 -30,4.87 -23.49,3.27 -47.01,5.94 -70,12.01 -8.22,2.17 -16.22,5.16 -24,8.54 -3.4,1.48 -8.74,4.49 -12,5.19 0,0 -19,1.68 -19,1.68 -11.88,1.48 -43.59,8.29 -54,12.71 0,0 15,-1 15,-1 0,0 43,0 43,0 0,0 12,0.91 12,0.91 38.68,2.66 76.58,9.81 114,19.94 0,0 41,12.15 41,12.15 5.65,1.86 15.38,4.69 20,8 0,0 -11,0.91 -11,0.91 0,0 -75,7.93 -75,7.93 0,0 -66,6.25 -66,6.25 0,0 -12,0.91 -12,0.91 0,0 -23,0.96 -23,0.96 0,0 -14,0 -14,0 0,0 -11,-0.96 -11,-0.96 0,0 -17,-1 -17,-1 2.78,4.44 7.75,12.23 12.04,15.01 4.15,2.69 10.14,3.35 14.96,4.41 0,0 24,7 24,7 28.24,10.53 54.33,24.82 78,43.58 6.1,4.83 19.49,14.73 23,21 0,0 -18,-8.14 -18,-8.14 0,0 -36,-14.81 -36,-14.81 -25.65,-9.4 -45.28,-14.18 -72,-19.05 1.04,3.69 7.12,19.12 9.5,21.3 1.95,1.8 14.08,6.06 17.5,7.56 12.35,5.42 24.36,11.31 36,18.15 32.22,18.93 62.09,42.23 87.17,69.99 6.57,7.28 15.97,16.67 20.83,25 -5.39,-2.1 -18.31,-11.56 -24,-15.33 -11.73,-7.78 -24.41,-15.11 -37,-21.4 -17.52,-8.76 -36.29,-16.43 -55,-22.25 0,0 -33,-9.02 -33,-9.02 0.66,3.64 2.07,14.05 3.93,16.61 2.06,2.83 12.43,7.23 16.07,9.25 0,0 35,21.17 35,21.17 29.14,19.87 56.56,42.74 80.17,68.97 7.05,7.84 16.02,17.33 21.83,26 -5.63,-1.87 -9.27,-5.41 -14,-8.85 0,0 -22,-15.1 -22,-15.1 -24.92,-15.81 -50.54,-30.66 -78,-41.65 0,0 -23,-8.4 -23,-8.4 -4.58,-1.53 -8.12,-3.27 -13,-3 7.98,3.7 26.64,21.21 34,27.83 24.43,21.99 46.76,46.39 65.86,73.17 5.66,7.94 18.61,26.32 21.14,35 -6.47,-4.64 -12.19,-11.4 -18,-16.96 0,0 -23,-19.83 -23,-19.83 -18.1,-14.28 -37.06,-27.21 -57,-38.79 0,0 -22.99,-12.42 -22.99,-12.42 -0.11,4.64 -2.06,13.07 0,16.91 1.78,3.28 13.36,11.2 16.99,14.09 10.35,8.25 31.32,26.97 36,39 0,0 -22,-14.67 -22,-14.67 0,0 -35,-21.33 -35,-21.33 -0.24,5.21 -2.89,12.72 -1.26,17 1.56,4.09 8.78,9.42 12.26,12.42 6.24,5.39 10.46,10.35 15.73,16.58 11.05,13.07 17.93,24.82 25.52,40 3.29,6.58 7.45,14.79 8.75,22 0,0 -19,-16.73 -19,-16.73 -12.75,-10.87 -39.98,-30.76 -55,-37.27 -1.01,2.06 -4.7,7.6 -4.36,9.42 0.31,1.69 5.03,6.92 6.36,8.58 5.1,6.4 9.91,13.02 14.19,20 12.36,20.17 22.3,45.8 27.01,69 1.17,5.79 4.7,18.8 2.8,24 -23.49,-35.96 -32.62,-51.62 -64,-83 -5.58,12.96 -20.1,36.23 -28.42,48 0,0 -9.46,13 -9.46,13 -1.04,1.36 -4.25,5.06 -4.45,6.58 -0.31,2.44 3.74,5.82 5.33,7.42 0,0 18.83,19 18.83,19 18.87,20.85 44.74,52.37 56.17,78 -7,-2.74 -23.81,-17.03 -31,-22.37 -17.81,-13.23 -36.14,-25.45 -56,-35.38 -4.91,-2.46 -18,-9.5 -23,-9 -3.74,0.38 -9.22,3.59 -9.41,7.75 -0.16,3.39 9.4,15.56 11.83,19 0,0 17.92,27 17.92,27 3.62,5.57 8.84,12.75 10.66,19 0,0 -56,-17.85 -56,-17.85 -9,-2.43 -21.94,-4.72 -31,-2.15 6.81,3.07 15.16,11.36 21,16.42 23.51,20.38 45.4,51.74 48,83.58 -5.78,-4.34 -16.73,-19.4 -23.04,-26 -16.56,-17.32 -33.8,-31.45 -55.96,-41 0,0 12.54,13 12.54,13 15.37,18.75 23.04,42.52 27.46,66 -4.65,-2.54 -12.48,-12.47 -17,-17 -15.37,-15.39 -31.77,-29.77 -52,-38.42 -5.91,-2.53 -13.52,-6.42 -20,-5.58 7.37,3.15 16.9,12.35 23,17.83 15.33,13.8 28.5,30.22 38.72,48.17 3.92,6.88 8.82,15.18 10.28,23 -9.03,-6.38 -14.25,-12.69 -22,-19.91 -13.69,-12.76 -28.18,-24.93 -45,-33.34 -8.65,-4.32 -22.26,-9.74 -32,-8.75 7.65,2.97 17.61,12.11 24,17.58 22.39,19.18 44.3,50.27 56,77.42 0,0 -16,-11.13 -16,-11.13 0,0 -24,-17.87 -24,-17.87 0,0 -7.69,13 -7.69,13 0,0 -15.07,31 -15.07,31 -2.47,5.02 -6.85,16.18 -11.24,19 0.97,-5.42 3.17,-26.53 2,-31 0,0 -11.69,23 -11.69,23 0,0 -12.31,20 -12.31,20 0,0 -8,-37 -8,-37 0,0 -22.19,32 -22.19,32 0,0 -22.81,39 -22.81,39 0,0 0,-16 0,-16 0.05,-10.73 2.9,-26.79 0,-37 -2,6.33 -6.7,12.93 -9.73,19 0,0 -6.84,15 -6.84,15 -8.94,20.88 -15.05,43.75 -19.43,66 0,0 -5.91,42 -5.91,42 -0.4,5.47 -0.49,18.98 -3.09,23 -7.19,-21.58 -12.96,-44.09 -13,-67 0,0 0,-37 0,-37 0.07,-5.93 1.6,-8.19 0,-14 0,0 -4.85,17 -4.85,17 0,0 -3.72,19 -3.72,19 0,0 -2.34,31 -2.34,31 0,0 0.91,11 0.91,11 0.11,23.16 5.93,45.23 9,68 -7.05,-5.55 -11.32,-16.02 -15.24,-24 -7.56,-15.37 -13.12,-34.4 -17.61,-51 0,0 -6.15,-23 -6.15,-23 0,0 0,18 0,18 0,0 0.91,12 0.91,12 1.59,22.74 5.4,45.01 11.51,67 0,0 7,22 7,22 0,0 8.58,23 8.58,23 -6.88,-5.37 -17.94,-21.34 -23.42,-29 -13.27,-18.57 -25.15,-37.81 -35.8,-58 0,0 -13.78,-29 -13.78,-29 -4.25,8.7 -19.51,30.52 -27,36 0,0 6.8,-32 6.8,-32 1.09,-5.5 2.64,-11.5 1.2,-17 -4.45,8.65 -8.3,10.99 -12.31,22 -5.54,15.23 -8.57,43.4 -9.78,60 0,0 -1.91,37 -1.91,37 0,0 -1,17 -1,17 0,0 0,21 0,21 0,0 1,16 1,16 0,0 0,21 0,21 0,0 1.91,26 1.91,26 0,0 4.92,61 4.92,61 5.66,56.59 13.19,113.11 23.97,169 0,0 14.08,67 14.08,67 0,0 9.12,39 9.12,39 0,0 -25,-21.79 -25,-21.79 -21.98,-17.33 -45.49,-29.54 -74,-29.21 -22.78,0.27 -41.34,15.41 -59,28 -31.19,22.23 -60.02,48.02 -88,74.09 -20.87,19.44 -35.34,37.21 -64,45.33 -6.39,1.81 -14.37,3.5 -21,3.58 -17.56,0.2 -28.11,0.34 -45,-6.06 -23.8,-9.03 -33.56,-21.7 -51,-38.94 0,0 -21,-19.96 -21,-19.96 -31.5,-30.13 -64.96,-58.71 -98,-87.17 -33.37,-28.73 -62.03,-58.78 -107,-68.21 -9.28,-1.94 -15.73,-1.67 -25,-1.66 -12.14,0.02 -16.91,2.5 -28,5 4.61,-5.44 13.91,-10.46 20,-14.72 13.73,-9.59 31.54,-23.53 39.69,-38.28 4.98,-9.01 7.2,-19.08 9.68,-29 0,0 9.43,-44 9.43,-44 6.06,-31.6 9.84,-63.91 11.24,-96 0,0 1,-11 1,-11 0,0 0,-15 0,-15 0,0 0.96,-12 0.96,-12 0,0 0,-33 0,-33 0,0 -1,-15 -1,-15 0,0 0,-12 0,-12 0,0 -1,-18 -1,-18 0,0 -1.83,-23 -1.83,-23 -2.19,-22.93 -4.18,-47.62 -16.05,-68 0,0 -7.12,-10 -7.12,-10 0,18.12 4.73,31.62 8,49 -4.64,-2.54 -7.24,-6.83 -10.37,-11 -4.46,-5.93 -12.53,-16.67 -15.63,-23 0,0 -2,0 -2,0 -2.03,8.65 -9.31,22.02 -13.7,30 -10.66,19.43 -22.75,38.18 -35.93,56 -5.04,6.82 -16.86,24.4 -22.37,29 0,0 11.98,-35 11.98,-35 6.38,-20.62 13.99,-58.69 14.02,-80 0.01,-7.99 2.51,-18.35 -1,-25 -0.58,6.9 -4.82,21.98 -6.98,29 -4.86,15.8 -9.33,29.1 -16.77,44 -3.69,7.38 -8.23,17.42 -14.25,23 0,0 6.58,-34 6.58,-34 4.1,-26.41 5.09,-53.54 0.83,-80 -1.47,-9.13 -3.84,-21.59 -7.41,-30 0,31.17 1.37,59.17 -5.42,90 -1.49,6.73 -5.4,25.12 -10.58,29 0,-42.04 -6.68,-84.55 -21.58,-124 -5.16,-13.67 -13.91,-33.35 -22.42,-45 0,0 2,38 2,38 0,0 -1,17 -1,17 -9.68,-22.48 -28.72,-51.87 -44,-71 0,0 -5.6,17 -5.6,17 0,0 -4.4,17 -4.4,17 0,0 -24,-43 -24,-43 0,0 3,31 3,31 -4.7,-2.96 -6.83,-9.18 -9.25,-14 0,0 -15.53,-31 -15.53,-31 -1.78,-3.37 -7.25,-14.61 -11.26,-14.56 -2.55,0.03 -8.69,4.94 -10.96,6.56 -7.77,5.54 -19.09,14.93 -27,19 1.38,-7.36 9.66,-20.24 13.81,-27 16.86,-27.46 40.52,-50.21 67.19,-68 -27.31,2.22 -54.18,20.3 -74,38.17 0,0 -28,25.83 -28,25.83 1.42,-7.58 8.89,-20.16 13,-27 12,-19.96 27.92,-37.58 46,-52.2 0,0 17,-12.8 17,-12.8 -25.56,5.16 -48.39,20.24 -67,38.04 0,0 -25,25.96 -25,25.96 0.17,-7.77 2.27,-15.64 4.67,-23 7.3,-22.4 18.95,-41.91 37.33,-57 -20.36,8.15 -38.57,21.37 -53.83,37.09 0,0 -27.17,29.91 -27.17,29.91 2.56,-31.31 23.69,-61.12 46,-81.91 0,0 24,-20.09 24,-20.09 -34.29,0 -56.33,12.44 -88,23 1.56,-6.54 6.06,-12.33 9.58,-18 0,0 20.44,-32 20.44,-32 2.59,-3.75 12.38,-15.69 11.25,-19.89 -1.03,-3.82 -6.03,-4.23 -9.27,-4.01 -6.57,0.44 -16.97,6.11 -23,9.15 -19.55,9.84 -38.33,22.01 -56,34.9 0,0 -31,22.85 -31,22.85 2.29,-7.24 13.1,-24.15 17.67,-31 20.75,-31.12 37.34,-47.01 63.33,-73 -9.24,-8.09 -25.81,-33.68 -32.6,-45 -3.46,-5.77 -10.53,-17.06 -12.4,-23 -18.91,18.91 -30.91,31.91 -46.28,54 0,0 -11.87,19 -11.87,19 -2.21,3.86 -4.04,8.56 -7.85,11 0,0 4.42,-25 4.42,-25 4.07,-18.44 10.18,-38.2 18.84,-55 4.19,-8.12 10.82,-18.81 16.4,-26 0,0 10.88,-13.42 10.88,-13.42 0.71,-1.95 -1.28,-8.66 -1.54,-11.58 -6.83,1.95 -13.94,6.65 -20,10.42 -13.82,8.61 -26.65,18.58 -39,29.16 -5.92,5.07 -10.24,10.47 -17,14.42 5.03,-18.64 23.67,-48.08 36.08,-63 5.2,-6.25 9.73,-11.23 15.92,-16.58 2.6,-2.24 9.61,-7.63 10.81,-10.46 1.42,-3.36 -1.09,-14.99 -1.81,-18.96 0,0 -30,19 -30,19 0,0 -25,17 -25,17 2.62,-6.69 8,-11.98 13,-17 0,0 24,-22.08 24,-22.08 4.96,-4.14 11.3,-10.28 17,-12.92 0,0 -3,-17 -3,-17 -29.98,17.06 -51.41,28.38 -79,50.45 0,0 -27,23.59 -27,23.59 -4.15,3.97 -9.17,10.48 -14,12.96 5.39,-12.09 18.51,-31.2 26.63,-42 30.28,-40.32 57.08,-62.65 94.37,-95 -32.61,7.36 -75.02,29.07 -103,47.34 0,0 -25,16.8 -25,16.8 0,0 -21,14.86 -21,14.86 3.73,-8.73 21.71,-26.71 29,-34 26.14,-26.14 46.13,-43.75 77,-64.33 0,0 31,-18.9 31,-18.9 3.63,-1.97 14.08,-7.13 16.16,-9.98 2.42,-3.31 3.67,-12.38 4.84,-16.79 0,0 -30,8.34 -30,8.34 -20.21,6.46 -41.15,15.19 -60,24.92 -13.16,6.79 -25.69,14.54 -38,22.74 0,0 -21,14 -21,14 3.29,-7.1 21.73,-26.72 28,-33 23.24,-23.28 54.26,-48 83,-64.14 0,0 32,-16.44 32,-16.44 4.93,-2.14 16.28,-6.2 19.67,-9.64 3.62,-3.66 7.95,-14.66 9.33,-19.78 -27.86,2.26 -68.02,16.21 -94,27.01 0,0 -33,14.99 -33,14.99 5.18,-7.18 18.59,-17.31 26,-22.87 22.72,-17.04 44.56,-29.54 71,-39.93 0,0 28,-9.05 28,-9.05 4.53,-1.22 13.36,-2.9 16.99,-5.15 4.66,-2.91 8.58,-9.57 12.01,-14 0,0 -11,1 -11,1 0,0 -20,1 -20,1 0,0 -39,-1 -39,-1 0,0 -10,-0.91 -10,-0.91 0,0 -90,-8.81 -90,-8.81 0,0 -39,-4.19 -39,-4.19 0,0 -25,-3.09 -25,-3.09 40.28,-16.02 91.03,-29.15 134,-35.13 0,0 38,-3.96 38,-3.96 0,0 12,-0.91 12,-0.91 0,0 46,0 46,0 5.31,0.03 8.93,1.33 14,0 -10.21,-0.92 -39.38,-11.77 -59,-12 -2.89,-0.03 -9.29,0.47 -11.59,-1.02 -3.1,-2.01 -2.18,-5.3 -8.41,-7.27 0,0 -42,-9.5 -42,-9.5 0,0 -54,-9.94 -54,-9.94 -6.63,-0.98 -27.16,-3.2 -32,-5.27 0,0 32,-5.13 32,-5.13 0,0 43,-3.96 43,-3.96 0,0 12,-0.91 12,-0.91 0,0 26,0 26,0 0,0 32,3 32,3 0,0 14,-29 14,-29 0,0 -51,-7.92 -51,-7.92 0,0 -93,-13.36 -93,-13.36 0,0 -47,-4.72 -47,-4.72 0,0 0,-2 0,-2 0,0 39,-5.72 39,-5.72 21.74,-2.86 44.08,-5.25 66,-5.28 0,0 17,-1 17,-1 0,0 40,1 40,1 5.5,0.07 7.65,1.4 13,0 0,0 -36,-8.12 -36,-8.12 0,0 -59,-10.73 -59,-10.73 0,0 -35,-3.15 -35,-3.15 -6.48,-0.01 -14.04,0.75 -20,-2 0,0 34,-5.73 34,-5.73 23.15,-3.41 64.18,-8.01 87,-8.27 0,0 14,-1 14,-1 0,0 38,-2 38,-2 3.67,-0.02 18.95,-1.13 22,-2 0,0 -30,-13.31 -30,-13.31 -22.1,-7.87 -41.77,-11.31 -65,-13.65 0,0 -9,0 -9,0 0,0 -10,-1.04 -10,-1.04 0,0 -22,0 -22,0 0,0 -21,1 -21,1 -4.27,0.02 -9.38,1.33 -13,0 9.18,-4.7 27.66,-10.04 38,-13.34 34.89,-11.15 76.55,-19.85 113,-23.49 0,0 29,-2.17 29,-2.17 0,0 22,-0.72 22,-0.72 5.04,-0.58 10.19,0.85 15,-1.25 6.8,-2.97 15.17,-14.12 20,-20.03 0,0 -37,-5.83 -37,-5.83 0,0 -39,-1.17 -39,-1.17 0,0 -42,4 -42,4 2.53,-3.93 6.83,-5.06 11,-6.85 0,0 25,-9.84 25,-9.84 26.05,-9.3 52.63,-15.11 80,-18.89 0,0 23,-2.33 23,-2.33 5.64,-0.39 8.19,0.56 14,-1.09 -40.38,-14 -57.95,-15.07 -100,-15 -10.57,0.02 -39.14,3.57 -50,5.61 -5.91,1.11 -19.92,5.25 -25,3.39 0,0 19,-9.14 19,-9.14 0,0 40,-14.84 40,-14.84 31.11,-9.66 63.59,-14.88 96,-17.11 0,0 10,-0.95 10,-0.95 0,0 13,0 13,0 0,0 12,-0.96 12,-0.96 0,0 13,0 13,0 6.72,0.01 22.24,2.13 28,0.69 2.82,-0.71 7.96,-4.39 7.96,-7.6 0,-4.01 -11.57,-10.15 -14.96,-11.84 -16.33,-8.17 -37.95,-11.61 -56,-14.12 -40.34,-5.61 -76.63,-5 -117,-0.96 0,0 -36,5.25 -36,5.25 -5.13,0.93 -14.19,3.6 -19,2.58 16.64,-9.22 44.52,-18.65 63,-24.67 36.42,-11.87 76.91,-20.42 115,-24.49 0,0 32,-2.93 32,-2.93 0,0 10,-0.91 10,-0.91 0,0 22,-1 22,-1 0,0 39,0 39,0 0,0 16,1 16,1 0,0 37,2.17 37,2.17 6.6,0.63 17.9,2.47 24,1.83 0,0 -39,-14.65 -39,-14.65 -23.38,-7.79 -56.52,-15.23 -81,-18.2 0,0 -32,-3.24 -32,-3.24 0,0 -10,-0.91 -10,-0.91 0,0 -19,-1 -19,-1 0,0 -22,0 -22,0 -4.28,0 -8.97,0.6 -13,-1 10.35,-4.4 49.17,-12.21 62,-14.61 32.01,-5.99 64.51,-10.01 97,-11.43 0,0 13,-1.08 13,-1.08 0,0 20,0 20,0 0,0 12,0 12,0 0,0 31,0 31,0 0,0 19,1.12 19,1.12 0,0 10,0.91 10,0.91 21.37,1.47 42.84,3.67 64,7.17 0,0 29,5.12 29,5.12 5.76,1.15 13.29,3.35 19,2.8 -6.47,-1.85 -12.02,-5.74 -18,-8.75 0,0 -31,-14.24 -31,-14.24 -33.86,-13.97 -67.17,-24.18 -103,-31.8 -29.01,-6.17 -58.5,-10.19 -88,-13.04 0,0 -19,-1.26 -19,-1.26 0,0 -11,-0.91 -11,-0.91 -4.75,-0.02 -12.67,-0.26 -17,-2 0,0 22,-4.39 22,-4.39 0,0 49,-7.44 49,-7.44 0,0 29,-2.26 29,-2.26 0,0 12,-0.91 12,-0.91 0,0 41,0 41,0 0,0 24,1.83 24,1.83 38.8,3.88 72.96,11.18 109,26.6 17.84,7.63 35.1,17.13 51,28.29 0,0 18,13.28 18,13.28 0,0 -32,-33.96 -32,-33.96 -27.6,-26.4 -57.9,-49.68 -90,-70.35 0,0 -56,-31.66 -56,-31.66 -6.89,-3.73 -18.75,-7.79 -24,-13.03 52.11,9.81 98.64,24.5 147,46.3 0,0 47,22.95 47,22.95 13.72,6.9 19.73,12.42 36,13.75 -1.83,-39.95 -38.19,-73.39 -63.17,-101 -7.09,-7.84 -15.12,-15.01 -20.83,-24 11.48,3.27 41.74,20.44 53,27.2 35.17,21.1 68.72,44.71 101,70.01 8.22,6.45 22.54,18.94 32,21.75 6.89,2.04 14.56,2.49 13.83,-6.96 -2.8,-36.15 -23.04,-82.73 -42.52,-113 0,0 -19.18,-28 -19.18,-28 -3.95,-5.26 -11.65,-14.51 -14.13,-20 z m 2,221 c 0,0 -1,0 -1,0 0,0 1,1 1,1 z m 321,0 c 0,0 -1,0 -1,0 0,0 1,1 1,1 z m 68,19 c 0,0 -1,0 -1,0 0,0 1,1 1,1 z m -1,1 c 0,0 -1,0 -1,0 0,0 1,1 1,1 z m 69,17 c 0,0 -1,0 -1,0 0,0 1,1 1,1 z m -136,49 c 0,0 -1,0 -1,0 0,0 1,1 1,1 z m 591,339 c 0,0 -1,0 -1,0 0,0 1,1 1,1 z m 1,2 c 0,0 -1,0 -1,0 0,0 1,1 1,1 z m -1510,7 c 0,0 -1,0 -1,0 0,0 1,1 1,1 z m 1486,20 c -2.7,-5.71 -7.25,-8.87 -12,-12.87 -1.83,-1.54 -4.49,-3.97 -7,-4.06 -2.36,-0.09 -5.98,2.48 -8,3.74 -7.47,4.62 -16.14,10.02 -20,18.19 z m -1412,5 c -7.71,-13.2 -25.09,-26.71 -38.9,-12.9 -2.64,2.64 -3.59,4.6 -5.1,7.9 z m 192,-6.72 c 0,0 -11,0.89 -11,0.89 0,0 -22,3.28 -22,3.28 -25.84,5.17 -50.82,14.32 -74,26.86 -104.62,56.58 -161.36,175.52 -160,291.69 0,0 0.96,11 0.96,11 5.03,115.6 74.01,226.55 181.04,273.86 26.99,11.93 53.53,19.07 83,21.23 0,0 10,0.91 10,0.91 28.71,0.33 51.36,-1.99 79,-10.28 10.8,-3.24 22.73,-7.22 32,-13.76 9.33,-6.6 16.65,-16.53 24.16,-24.96 0,0 35.97,-41 35.97,-41 0,0 37.27,-45 37.27,-45 0,0 18.67,-24 18.67,-24 8.01,-13.16 17.67,-38.93 22.21,-54 8.19,-27.18 12.87,-54.74 14.81,-83 0,0 0.91,-12 0.91,-12 0,0 0,-33 0,-33 0,0 -0.91,-12 -0.91,-12 -2.07,-30.09 -5.84,-57.19 -15.44,-86 C 805.72,917.24 765.49,862.33 713,827.33 693.98,814.65 675.73,805.25 654,798 629.5,789.83 594.74,783.89 569,786.28 Z m 957,-0.14 c 0,0 -13,1.14 -13,1.14 -11.82,1.41 -23.44,3.3 -35,6.19 -22.58,5.65 -48.28,17.67 -68,29.95 -63.02,39.25 -107.53,108.21 -125.37,179.58 -4.35,17.38 -9.6,45.34 -9.63,63 0,0 0,33 0,33 0.02,15.67 3.5,31.53 5.73,47 4.5,31.24 10.34,62.09 23.58,91 13.39,29.25 25.47,39.16 44.69,63 0,0 34.28,41 34.28,41 0,0 12.42,13 12.42,13 0,0 8.56,11 8.56,11 9.26,11.39 20.21,22.16 32.74,29.94 9.97,6.18 19.88,8.77 31,11.92 15.5,4.39 36.96,8.95 53,9.14 28.84,0.33 50.02,-1.44 78,-9.43 45.84,-13.07 91.43,-40.71 123.91,-75.57 19.55,-20.98 27.92,-34.86 42.1,-59 22.68,-38.6 36.36,-72.68 43.74,-117 1.59,-9.54 4.14,-25.65 4.25,-35 0,0 1,-17 1,-17 0,0 0,-12 0,-12 0,0 -0.96,-13 -0.96,-13 -3.1,-71.24 -29.02,-142.71 -77.21,-196 -18.25,-20.18 -30.84,-28.73 -51.83,-44.47 -42.52,-31.89 -80.99,-46.99 -134,-50.62 0,0 -12,-0.77 -12,-0.77 z m -940,96.07 c 0,0 23,0 23,0 5.51,-0.2 18.74,1.05 24,2.29 33.91,8.02 66.29,36.74 81.63,67.5 3.9,7.82 6.64,16.54 8.74,25 1.58,6.34 3.55,17.58 3.63,24 0.58,50.12 -26.88,95.05 -72,117.24 -15.34,7.55 -36.92,11.96 -54,11.76 -14.96,-0.18 -31.22,-4.3 -45,-10.01 -12.78,-5.3 -27.96,-15.62 -38,-25.08 -9.63,-9.07 -20.51,-24.72 -25.85,-36.91 -6.57,-15.01 -10.1,-28.68 -11.24,-45 -0.24,-3.44 -0.98,-5.4 -0.73,-9 0.8,-11.15 2.15,-22.2 5.25,-33 9.41,-32.87 34.02,-62.46 64.57,-77.73 11.36,-5.68 23.54,-8.8 36,-11.06 z M 1602,919 c 7.23,3.95 16.25,19.48 20.22,27 16.04,30.4 20.65,64.08 9.78,97 -6.26,18.95 -16.66,37.82 -31.09,51.83 -34.01,33.02 -84.53,43.93 -128.91,27.11 -37.89,-14.37 -65.6,-45.67 -75.37,-84.94 -1.81,-7.25 -3.54,-16.55 -3.63,-24 -0.27,-23 1.76,-41.98 12.27,-63 19.4,-38.79 61.68,-67.93 105.73,-68 0,0 10,0 10,0 4.59,0.06 10.54,0.9 15,2 -1.69,7.43 -4.07,10.86 -2.53,19 2.59,13.74 17.67,27.69 28.53,35.58 4.63,3.36 8.42,6.33 14,7.98 14.27,4.2 30.97,-7.68 26,-27.56 z m -194,493 c 0,0 -29.83,-33 -29.83,-33 0,0 -58,-64 -58,-64 0,0 -167,-188 -167,-188 0,0 -30.34,-34 -30.34,-34 0,0 -23.44,-26 -23.44,-26 0,0 -7.15,-11 -7.15,-11 -6.98,-9.39 -18.98,-19.55 -31.24,-19.96 -16.29,-0.54 -17.18,12.42 -25.04,19.67 0,0 -11.96,10.3 -11.96,10.3 0,0 -23.17,24.99 -23.17,24.99 0,0 -30,33 -30,33 0,0 -170.99,190 -170.99,190 0,0 -57.12,64 -57.12,64 0,0 -27.72,32 -27.72,32 0,0 16,0 16,0 0,0 12,0.91 12,0.91 30.7,2.15 61.38,11.44 87,28.84 30.12,20.45 44.99,47.9 63.2,78.25 0,0 72.38,127 72.38,127 0,0 39,70 39,70 0,0 17.09,29 17.09,29 7.43,11.2 21.33,27.96 36.33,27.74 3.36,-0.05 15.08,-1.39 18,-2.57 2.37,-0.95 5.84,-3.37 8,-4.89 14.69,-10.33 17.27,-18.4 26.2,-33.28 0,0 37.66,-66 37.66,-66 0,0 73.72,-132 73.72,-132 14.58,-25.43 28.01,-52.63 48.46,-74 24.82,-25.94 57.67,-41.22 92.96,-46.27 5.99,-0.86 11.94,-1.72 18,-1.73 8.99,-0.01 18.13,-0.59 27,1 z M 939,1215 c 1.01,4.01 -1.38,8.25 -2.81,12 0,0 -7.47,22 -7.47,22 0,0 -22.14,86 -22.14,86 -2.97,10.42 -6,29.11 -20.58,27.66 -16.97,-1.68 -17.88,-17.47 -18.82,-30.66 -0.25,-3.55 0.48,-5.58 0.73,-9 2.64,-36.04 28.24,-68.67 54.09,-92.17 z m 243,0 c 7.55,3.57 18.8,15.8 25,22 21.67,21.67 41.79,47.3 48,78 3.14,15.53 5.04,45.63 -17,47.8 -12.14,1.2 -15.65,-10.75 -18.67,-19.8 0,0 -3.91,-12 -3.91,-12 0,0 -23.42,-91 -23.42,-91 z m -467,195 c 0,0 -1,0 -1,0 0,0 1,1 1,1 z m 883,105 c 0,0 -15,-7.75 -15,-7.75 0,0 -31,-14.94 -31,-14.94 -29.69,-13.64 -61.28,-25.75 -93,-33.68 -15.74,-3.94 -32.72,-7.6 -49,-7.63 0,0 -15,0 -15,0 -23.74,0.28 -52.7,8.62 -73,20.8 -8.65,5.19 -16.81,11.12 -24,18.21 -18.35,18.13 -44.09,60.88 -59.67,83.99 0,0 -96.62,139 -96.62,139 0,0 -23.99,34 -23.99,34 -10.4,14.85 -13.2,20.26 -28.72,30.98 -3.44,2.37 -6.93,4.91 -11,6.08 -4.03,1.16 -8.81,0.99 -13,0.94 -15.09,-0.18 -31.25,-6.33 -41.96,-17.04 -5.38,-5.38 -14.14,-18.24 -19.17,-24.96 0,0 -69.89,-98 -69.89,-98 0,0 -42.96,-62 -42.96,-62 0,0 -30.6,-45 -30.6,-45 -14.16,-20.02 -24.41,-39.62 -44.42,-55.11 -23.02,-17.83 -57.58,-31.84 -87,-31.89 0,0 -20,0 -20,0 -10.12,0.02 -20.05,2.26 -30,3.92 -30.08,5.02 -64.99,16.72 -93,28.8 0,0 -41,19.03 -41,19.03 -5.59,2.8 -16.54,7.7 -21,11.25 0,0 32,-5.58 32,-5.58 0,0 54,-9.34 54,-9.34 21.91,-3.62 43.9,-5.66 66,-7.17 0,0 12,-0.91 12,-0.91 0,0 38,0 38,0 24.62,0.29 50.4,11.75 69,27.44 13.27,11.19 22.25,25.44 32.02,39.56 0,0 29.69,42 29.69,42 0,0 104,143 104,143 0,0 25.92,35 25.92,35 0,0 17.46,23 17.46,23 14.65,15.8 32.48,24.78 53.91,26.83 5.7,0.55 10.41,0.03 16,-0.91 40.67,-6.85 63.84,-47.19 85.86,-77.92 0,0 111.12,-155 111.12,-155 0,0 23.67,-34 23.67,-34 13.89,-20.84 25.5,-38.65 47.35,-52.56 20.45,-13.02 32.81,-13.94 56,-15.53 0,0 12,-0.91 12,-0.91 0,0 23,0 23,0 0,0 14,1 14,1 21.5,0.25 63.13,6.51 85,10.61 0,0 46,9.39 46,9.39 4.95,1.02 15.6,4.24 20,3 z M 448,1454 c 0,0 -1,0 -1,0 0,0 1,1 1,1 z m 1176,17 c 0,0 -1,0 -1,0 0,0 1,1 1,1 z m -436,18 c 0,0 1,0 1,0 0,0 -1,1 -1,1 z m 412,27 c 0,0 -1,0 -1,0 0,0 1,1 1,1 z m -440,11 c 0,0 1,0 1,0 0,0 -1,1 -1,1 z" />
    <path d="m 1654.78,2243.3 c 0,37.13 18.55,55.7 55.66,55.7 0,0 670.75,0 670.75,0 37.11,0 55.67,-18.57 55.67,-55.7 0,-37.14 -18.56,-55.71 -55.67,-55.71 0,0 -615.08,0 -615.08,0 0,0 0,-111.25 0,-111.25 0,0 503.75,0 503.75,0 37.11,0 55.67,-18.72 55.67,-56.17 0,-37.44 -18.56,-56.17 -55.67,-56.17 0,0 -503.75,0 -503.75,0 0,0 0,-111.66 0,-111.66 0,0 615.08,0 615.08,0 37.11,0 55.67,-18.72 55.67,-56.17 0,-37.44 -18.56,-56.17 -55.67,-56.17 0,0 -670.75,0 -670.75,0 -37.11,0 -55.66,18.57 -55.66,55.72 z m 1655.3,-448.55 c -0.63,-19.2 -10.06,-34.68 -28.31,-46.44 -18.25,-11.76 -39.73,-10.83 -64.47,2.8 0,0 -297.8,200.55 -297.8,200.55 0,0 -300.59,-200.55 -300.59,-200.55 -22.27,-11.76 -42.68,-10.68 -61.24,3.25 -18.55,13.93 -27.83,27.7 -27.83,41.31 0,0 0,446.63 0,446.63 -0.61,37.13 17.63,55.7 54.74,55.7 37.11,0 55.97,-18.57 56.59,-55.7 0,0 0,-343.57 0,-343.57 0,0 223.6,151.33 223.6,151.33 20.4,17.96 38.49,26.94 54.26,26.94 15.77,0 34.48,-9.02 56.13,-27.06 0,0 223.59,-152.14 223.59,-152.14 0,0 0.92,345.34 0.92,345.34 0,35.91 18.4,53.86 55.21,53.86 36.8,0 55.2,-17.95 55.2,-53.86 z m 94.7,0.97 c 0,0 0,278.56 0,278.56 0,149.81 74.52,224.72 223.58,224.72 0,0 334.91,0 334.91,0 149.06,0 223.59,-75.21 223.59,-225.64 0,0 0,-275.78 0,-275.78 0,-38.38 -18.56,-57.58 -55.67,-57.58 -37.11,0 -55.66,18.88 -55.66,56.64 0,0 0,277.66 0,277.66 0.61,75.53 -36.49,113.29 -111.33,113.29 0,0 -335.84,0 -335.84,0 -74.84,0 -112.25,-37.76 -112.25,-113.29 0,0 0,-278.58 0,-278.58 -0.63,-37.15 -19.34,-55.72 -56.14,-55.72 -36.79,0 -55.19,18.57 -55.19,55.72 z" />
  </g>
</svg>
