<?xml version="1.0" encoding="UTF-8"?>
<svg xmlns="http://www.w3.org/2000/svg"
     viewBox="0 0 504.45 386.53"
     width="100%" height="100%"
     preserveAspectRatio="xMidYMid meet">

  <path d="M134.72,135.96c2.47-13.8,6.3-27,11.94-39.79-9.03-7.08-17.91-14.04-26.96-21.13-12.78,15.37-21.97,32.22-27.96,51.24,14.1,4.65,28.18,7.32,42.98,9.68ZM502.98,253.37c3.14,6.17.15,14.45-8.45,16.15-9.38,1.86-18.71,3.98-28.05,5.99-1.33.29-2.66.6-4.4,1v4.02c0,18.25-.02,36.5-.03,54.75,0,1,.02,2-.02,3-.27,6.22-2.74,9.48-8.84,10.78-8.87,1.9-17.8,3.54-26.73,5.21-8.92,1.66-17.86,3.23-26.8,4.82-12.12,2.16-24.25,4.32-36.38,6.46-12.24,2.17-24.49,4.33-36.74,6.48-13.35,2.35-26.71,4.68-40.06,7.04-9.07,1.6-18.12,3.28-27.19,4.85-5.15.89-10.31,2.03-15.5,2.33-3.53.2-7.17-.67-10.7-1.38-26.11-5.3-52.19-10.71-78.29-16.05-25.1-5.14-50.22-10.22-75.32-15.35-9.74-1.99-19.48-4-29.22-6.05-4.29-.9-7.26-3.24-7.82-7.88-.24-1.97-.46-3.96-.46-5.95.02-20.62.1-41.25.15-61.87,0-.36-.12-.71-.24-1.38h.02l-.02-.02v.02c-3.8-.75-7.67-1.53-11.54-2.27-6.96-1.32-13.91-2.62-20.88-3.89-4.9-.89-8.27-3.46-9.11-8.55-.25-1.51-.08-3.27.47-4.7,1.53-3.94,3.33-7.79,5.1-11.64,11.43-24.93,22.89-49.86,34.34-74.78.42-.91.87-1.8,1.31-2.69,1.96-3.98,5.12-6.24,9.52-6.96,5.75-.94,11.48-2.06,17.31-3.12.82-4.62,1.59-9.02,2.38-13.41,2.89-16.1,8.71-31.17,16.31-45.56,10.5-19.89,24.42-36.96,41.91-51.21,23.18-18.9,49.62-30.8,78.6-37.22C223.49.82,239.66-.26,255.92.47c4.83.22,9.65.9,14.46,1.54,11.45,1.53,22.71,4.28,33.59,8.18,10.21,3.66,20.17,7.9,29.54,13.41,1.67.98,3.3,1.48,5.27,1.49,16.34.06,31.76,3.9,46.28,11.45,13.9,7.23,25.23,17.33,33.97,30.3,6.32,9.38,11.05,19.52,13.36,30.65,1.73,8.33,2.51,16.7,1.47,25.26-.8,6.59-2.12,13-4.18,19.28-.24.72-.22,1.73.11,2.4,1.21,2.45,2.6,4.8,3.94,7.22,6.44,1.04,12.8,2.14,19.19,3.08,4.96.73,8.01,3.65,9.96,8.04,3.8,8.54,7.63,17.07,11.42,25.62,7.61,17.21,15.21,34.42,22.8,51.64,1.96,4.45,3.68,9.02,5.88,13.34ZM483.97,253.83c-.79-1.97-1.36-3.48-2.01-4.96-7.54-17.12-15.09-34.24-22.66-51.35-3.38-7.64-6.92-15.21-10.22-22.89-1.11-2.57-2.74-3.68-5.46-3.37-.84.1-1.7.09-2.78.14.24,2.29.49,4.37.68,6.44.62,6.87-.35,13.42-4.1,19.36-7.19,11.4-21.19,14.41-32.22,6.7-2.72-1.9-5.19-4.33-7.24-6.95-2.67-3.42-4.8-7.26-7.13-10.88v.03c-18.17,7.66-37.4,8.69-55.83,11.2-.36,5.27-.19,10.43-1.16,15.36-2.51,12.81-13.12,21.74-25.45,21.67-8.94-.06-16.38-3.84-22.56-10.2-5.44-5.61-9.5-12.19-13.22-19-1-1.82-2.15-3.56-3.05-5.03-3.35.47-6.2.79-9.01,1.27-2.74.47-5.45,1.09-8.61,1.73,13.04,30.47,25.97,60.39,39.19,90.49,32.54-6.65,64.62-13.11,96.65-19.78,32-6.67,64.08-12.95,96.19-19.98ZM425.51,184.24c1.01-3.7.57-7.47-.08-11.13-.85-4.74-2-9.45-4.59-13.54-5.14,5.77-10.18,11.42-15.66,17.57h-.02c1.8,3.08,3.68,6.72,6.02,10.03,1.08,1.53,2.96,2.66,4.69,3.55,2.91,1.5,6.38.45,8.1-2.35.75-1.23,1.15-2.71,1.54-4.13ZM415.68,127.96c1.95-8.24,2.11-16.53.3-24.82-2.74-12.56-8.29-23.71-16.82-33.35-14.19-16.05-32.17-24.79-53.23-27.47-7.96-1.01-15.91-.6-23.83.62-12.3,1.9-23.94,5.79-34.67,12.08-21.27,12.47-36.3,30.51-46.04,53.01-4.85,11.21-8.31,22.91-10.17,35.01-1.06,6.89-2.19,13.79-2.63,20.73-.45,7.2-.1,14.45-.1,22.49h.02c10.77-.12,21.16.94,31.64-1.54-1-1.48-1.92-2.66-2.65-3.95-1.81-3.2-1.65-6.05.36-8.34,1.98-2.25,5.48-3.16,8.5-1.74,2.21,1.04,4.37,2.42,6.18,4.05,5.44,4.93,8.98,11.26,12.54,17.59,3.11,5.53,6.3,11.04,9.76,16.35,2.51,3.84,6.19,6.47,10.58,7.97,6.25,2.14,11.23-.54,12.94-6.88.92-3.43.91-6.86.31-10.37-1.04-6.04-3.74-11.32-7-16.38-.88-1.36-1.85-2.69-2.53-4.15-2.26-4.86.68-9.2,6.03-9.06,2.99.08,5.16,1.79,7.06,3.77,1.97,2.05,3.63,4.39,5.48,6.67,1.57,0,3.2.15,4.8-.02,8.66-.94,17.34-1.82,25.97-2.97,7.66-1.02,15.23-2.71,22.19-6.12,18.27-8.96,30.27-23.17,35.01-43.18ZM304.42,29.3c-.47-.42-.63-.67-.84-.74-7.94-2.42-15.88-4.87-23.86-7.16-.89-.25-2.27.12-3.03.71-6.67,5.2-13.24,10.51-20.12,16.01,2.15,1.61,3.95,2.93,5.71,4.28,1.87,1.44,3.71,2.91,5.88,4.63,10.77-8.54,23.21-13.58,36.26-17.73ZM258.72,18.48c-.09-.25-.19-.49-.28-.74-17.66-.9-35.16-.14-52.54,4.76,1.36,4.12,2.83,7.97,4.73,11.38,3.27-.54,6.1-.93,8.89-1.48,7.02-1.39,14.05-1.54,21.05-.08,1.41.29,2.31.07,3.33-.87,1.92-1.76,4-3.36,5.96-5.08,2.97-2.6,5.9-5.25,8.85-7.88h.01ZM255.79,57.71c-.22-.41-.29-.68-.46-.84-.91-.85-1.88-1.65-2.77-2.52-6-5.86-13.27-8.83-21.56-8.88-12.66-.08-24.28,3.45-34.81,10.61-13.75,9.36-23.64,22.01-31.49,36.44-.57,1.06-.89,2.25-1.48,3.77h0c1.63.01,2.86.04,4.09.01,10.58-.35,21.12-1.15,31.58-2.82,11.07-1.77,21.84-4.57,32.4-8.33,2.11-.75,3.59-1.88,4.8-3.78,5.25-8.25,11.28-15.86,18.64-22.36.43-.38.74-.91,1.06-1.3ZM214.65,135.78c3.62-11.49,7.04-22.34,10.53-33.43-22.44,6.4-45.24,9.26-68.34,7.91-3.38,9.19-6.34,17.94-7.37,27.71,22.38,1.08,44.18,1.1,65.18-2.19ZM212.82,150.76v-.02c-42.6,5.88-84.37,2.32-125.62-10.86-1.13,7.37-2.25,14.26-1.99,21.42,21.32,3.64,42.2,7.42,63.15,10.72,20.93,3.29,41.74,7.37,62.83,9.97.55-10.51,1.07-20.55,1.63-31.23ZM192.49,281.87c11.84-26.22,23.52-52.07,35.42-78.41-57.55-10.43-114.95-19.67-172.48-30.14-11.47,24.93-22.79,49.55-34.39,74.75h.01c29.11,5.77,57.55,11.44,85.99,17.05,28.42,5.6,56.85,11.15,85.45,16.75ZM196.03,39.55c-1.96-4.05-3.78-7.8-5.55-11.45-17.36,3.93-51.87,24.98-59.85,36.59,7.49,5.85,15.01,11.71,22.91,17.88,10.48-18.39,23.8-33.1,42.49-43.02Z"/>
  <path d="M392.15,91.64c8.82.33,15.2,7.58,15,16.45-.21,9.62-6.73,15.9-16.55,16.17h0c-8.37-.18-15.22-7.44-15.02-15.91.24-10.22,6.94-17.06,16.57-16.71Z"/>
  <path d="M364.52,121.31c.32,1.28.3,2.76.03,4.07-1.36,6.45-7.69,11.42-14.36,11.42h-.02c-8.59.49-15.6-8.47-14.71-14.59.45-3.09,2.09-4.66,4.96-4.01.96.22,1.93,1.05,2.56,1.86.89,1.17,1.43,2.6,2.19,3.87,2.53,4.26,7.71,4.16,10.11-.21.59-1.08.98-2.28,1.54-3.38.85-1.67,2.03-2.78,4.14-2.43,1.99.34,3.12,1.65,3.56,3.4Z"/>
  <path d="M301.56,91.8c10.16-.27,16.12,9.28,15.25,17.78-.66,6.45-6.02,15.09-17.22,14.7-8.67-.3-15.14-8.55-14.8-16.26.43-9.88,7.66-16.73,16.77-16.22Z"/>
  <path d="M41.91,270.34h-.02v-.02l.02.02Z"/>
</svg>
