<svg xmlns="http://www.w3.org/2000/svg" xmlns:xlink="http://www.w3.org/1999/xlink"
    height="100%"
    viewBox="0 0 1128 792"
    preserveAspectRatio="xMidYMid meet">
<g transform="translate(0,792) scale(0.1,-0.1)" stroke="none">
<path d="M7720 7850 c-14 -4 -52 -13 -85 -20 -81 -17 -154 -40 -161 -51 -3 -5
-12 -9 -20 -9 -8 0 -27 -8 -42 -19 -15 -10 -81 -50 -147 -89 -124 -73 -213
-151 -369 -322 -38 -41 -125 -134 -195 -205 -69 -72 -164 -171 -210 -220 -46
-50 -161 -169 -255 -265 -94 -96 -195 -201 -224 -232 -51 -55 -55 -58 -102
-58 l-49 0 -3 -42 c-3 -38 -6 -43 -28 -44 -73 -2 -91 -5 -86 -13 6 -8 -54 -81
-67 -81 -4 0 -7 7 -7 15 0 8 -5 15 -10 15 -6 0 -14 8 -17 18 -4 9 -45 57 -91
106 -47 50 -91 105 -98 123 -8 18 -19 33 -24 33 -5 0 -101 91 -214 203 -112
111 -244 239 -293 284 -84 77 -237 231 -417 420 -56 59 -108 100 -189 150
-237 147 -346 190 -625 244 -96 18 -260 -3 -307 -41 -5 -4 -25 -11 -42 -15
-18 -3 -33 -11 -33 -16 0 -14 38 -11 71 7 16 8 38 13 47 10 9 -3 58 -10 107
-16 156 -18 314 -52 405 -87 56 -22 97 -41 255 -121 76 -39 165 -101 220 -153
33 -32 78 -73 100 -91 22 -18 55 -51 75 -73 89 -101 331 -334 459 -441 50 -42
110 -102 256 -258 72 -76 156 -164 188 -195 113 -108 146 -171 114 -215 -13
-17 -16 -16 -48 24 -19 23 -60 70 -91 104 -51 54 -57 66 -58 104 l0 42 -52 0
-53 -1 -155 159 c-85 86 -218 211 -295 277 -77 66 -239 217 -360 336 -311 307
-376 356 -580 441 -221 93 -319 116 -506 119 -95 1 -96 1 -142 -34 -25 -19
-68 -42 -96 -52 -27 -9 -55 -23 -61 -31 -7 -7 -18 -14 -26 -14 -7 0 -34 -11
-60 -25 -26 -14 -53 -25 -60 -25 -13 0 -34 -30 -34 -49 0 -6 7 -11 15 -11 8 0
15 -4 15 -10 0 -13 -54 -40 -80 -40 -11 0 -20 -4 -20 -10 0 -5 -24 -16 -52
-25 -53 -16 -106 -50 -95 -61 3 -4 42 -3 87 1 64 6 86 12 102 29 l21 21 -6
-22 c-7 -30 5 -32 143 -31 198 1 585 -90 765 -180 85 -42 141 -88 119 -96 -8
-3 -25 4 -37 15 -32 30 -112 69 -142 69 -14 0 -51 8 -82 19 -62 20 -196 46
-315 62 -221 28 -265 31 -438 26 -260 -8 -327 -31 -436 -150 -106 -117 -159
-256 -181 -472 -13 -131 12 -377 50 -495 42 -126 132 -294 196 -365 14 -16 34
-40 42 -53 26 -36 488 -513 572 -590 38 -35 44 -50 27 -80 -13 -23 -60 -131
-60 -138 0 -2 -18 -44 -41 -92 -79 -168 -99 -212 -99 -217 0 -4 -12 -32 -26
-63 -14 -31 -29 -66 -34 -77 -5 -11 -22 -49 -38 -85 -35 -76 -64 -142 -93
-207 -11 -27 -31 -70 -43 -98 -13 -27 -31 -69 -42 -92 -10 -24 -21 -43 -24
-43 -3 0 -14 19 -24 43 -10 23 -24 56 -31 72 -7 17 -29 65 -49 108 -20 44 -36
81 -36 84 0 3 -9 24 -19 47 -26 55 -74 162 -96 211 -9 22 -26 60 -37 85 -11
25 -24 54 -28 65 -10 24 -63 141 -96 212 -13 28 -24 54 -24 57 0 3 -14 36 -31
73 -17 38 -37 82 -44 98 -48 110 -69 156 -89 200 -13 28 -33 73 -44 100 -11
28 -37 86 -57 130 -39 86 -43 95 -75 170 -12 28 -30 68 -40 90 -10 22 -25 56
-33 75 -8 19 -27 62 -42 95 -41 90 -51 114 -89 203 -20 46 -52 119 -72 162
l-37 80 -804 0 -803 0 0 -146 c0 -113 3 -149 14 -160 12 -11 59 -14 245 -14
l231 0 0 -1610 0 -1610 -231 0 c-186 0 -233 -3 -245 -14 -11 -11 -14 -47 -14
-160 l0 -146 680 0 680 0 0 148 c0 102 -4 152 -12 160 -9 9 -78 12 -250 12
l-238 0 0 1445 c0 957 3 1445 10 1445 6 0 10 -7 10 -16 0 -9 6 -28 14 -42 26
-50 116 -249 116 -257 0 -2 14 -34 31 -72 16 -37 34 -77 39 -88 4 -11 21 -49
37 -85 16 -36 42 -94 58 -130 16 -36 42 -94 58 -130 16 -36 32 -74 37 -85 4
-11 20 -47 35 -80 15 -33 33 -73 40 -90 7 -16 23 -51 34 -77 48 -109 63 -144
71 -163 5 -11 21 -49 38 -85 36 -81 89 -201 114 -260 20 -46 27 -62 73 -165
15 -33 33 -75 41 -92 8 -18 20 -48 28 -65 8 -18 26 -60 41 -93 15 -33 30 -69
35 -80 8 -20 56 -126 90 -200 10 -22 30 -68 44 -102 35 -83 75 -175 85 -193 7
-13 56 -15 333 -18 369 -3 337 -10 378 88 12 30 35 82 50 115 15 33 37 83 49
110 12 28 26 59 31 70 17 39 62 141 77 175 33 75 42 97 67 150 43 94 76 170
76 176 0 2 13 32 29 67 30 64 73 159 96 212 7 17 25 56 39 87 14 31 26 59 26
62 0 2 16 40 36 83 64 140 77 168 85 188 29 73 60 135 66 134 5 0 23 -19 41
-42 19 -23 112 -121 208 -218 l174 -176 0 -59 c0 -71 -8 -84 -116 -190 -45
-43 -119 -122 -164 -174 -97 -110 -335 -354 -604 -619 -197 -193 -353 -367
-382 -423 -9 -18 -20 -35 -23 -38 -13 -10 -88 -166 -114 -235 -62 -170 -72
-234 -72 -455 1 -156 5 -223 18 -281 22 -100 21 -98 77 -214 70 -144 110 -199
245 -337 120 -122 149 -146 275 -232 36 -25 98 -68 138 -95 40 -28 77 -51 82
-51 5 0 24 -9 42 -20 64 -37 192 -61 357 -65 129 -3 156 -2 169 11 9 10 27 14
44 12 16 -3 33 1 39 9 6 7 31 13 55 13 23 0 46 5 49 10 3 6 24 10 46 10 21 0
39 5 39 10 0 6 6 10 13 10 25 0 113 50 142 80 16 16 34 30 39 30 6 1 27 14 46
30 19 17 40 30 47 30 7 0 13 4 13 8 0 5 11 14 25 20 47 22 150 110 266 228
129 134 284 281 348 334 59 49 158 151 231 240 72 88 367 390 380 390 5 0 18
14 30 30 27 38 40 38 81 -1 19 -18 59 -50 89 -73 30 -22 79 -65 108 -96 41
-43 55 -52 62 -41 7 12 19 6 64 -28 53 -41 331 -312 387 -376 14 -17 61 -63
105 -104 43 -41 130 -123 192 -183 62 -59 120 -108 128 -108 9 0 14 4 12 9 -5
15 -176 199 -335 361 -83 85 -173 180 -199 210 -26 30 -90 100 -143 155 -53
55 -100 107 -106 116 -5 10 -32 42 -60 72 -27 30 -66 74 -85 97 -19 23 -56 63
-82 90 -27 26 -48 51 -48 54 0 14 21 4 47 -23 102 -107 137 -140 213 -201 47
-38 126 -113 175 -167 146 -159 359 -377 530 -543 88 -85 240 -234 337 -331
198 -197 273 -250 418 -294 30 -9 66 -22 79 -28 15 -8 78 -12 170 -12 174 0
171 -1 273 135 34 47 66 87 71 88 4 2 14 17 22 33 15 27 14 29 -7 33 -13 3
-90 7 -173 9 -82 3 -175 10 -205 17 -63 14 -330 148 -428 215 -42 28 -166 139
-237 210 -82 82 -330 346 -376 401 -79 93 -252 287 -329 369 -59 63 -71 80
-57 83 10 2 29 1 43 -2 29 -8 194 -172 369 -366 353 -395 576 -608 717 -684
29 -16 78 -42 108 -59 30 -16 60 -33 65 -37 6 -4 19 -10 30 -13 11 -3 52 -14
90 -25 101 -29 199 -42 314 -42 114 0 105 7 101 -90 -1 -34 -13 -83 -33 -129
-17 -41 -31 -88 -32 -105 -2 -50 -20 -71 -85 -100 -33 -15 -60 -31 -60 -37 0
-12 17 -12 25 1 3 6 16 10 28 10 11 0 36 14 54 32 28 27 34 29 49 17 13 -11
18 -11 21 -1 3 6 17 12 32 12 15 0 36 9 46 20 10 11 23 20 30 20 6 0 22 11 35
25 13 14 29 25 35 25 7 0 20 9 30 20 10 11 23 20 30 20 6 0 24 13 40 30 16 16
34 30 40 30 6 0 33 23 60 51 28 28 58 54 67 58 24 9 278 261 278 275 0 7 16
27 35 46 19 18 32 37 29 41 -2 4 4 14 13 21 26 19 73 164 73 224 0 41 9 69 43
135 l42 84 0 191 c0 127 -4 199 -12 215 -7 13 -14 43 -17 67 -13 96 -19 122
-27 128 -5 3 -9 16 -9 29 0 13 -4 27 -10 30 -5 3 -10 14 -10 23 0 29 -94 203
-149 277 -29 38 -95 114 -147 169 -107 112 -104 100 -53 213 16 37 34 77 39
88 5 11 21 47 35 80 15 33 34 76 42 95 25 57 40 90 82 182 23 48 41 90 41 93
0 3 14 36 31 73 16 37 34 76 39 87 4 11 17 40 28 65 11 25 30 68 42 95 12 28
35 77 51 111 16 33 29 63 29 67 0 6 16 42 82 187 11 25 24 54 29 65 4 11 22
52 40 90 17 39 47 106 66 149 38 89 50 116 86 196 14 30 35 78 47 105 33 76
45 103 84 188 20 43 36 84 36 92 0 7 7 18 15 25 8 7 15 19 15 26 0 8 4 22 10
32 10 18 47 103 69 160 8 17 18 32 23 32 6 0 7 -7 4 -16 -3 -9 -6 -661 -6
-1450 l0 -1434 -238 0 c-172 0 -241 -3 -250 -12 -8 -8 -12 -58 -12 -160 0
-145 0 -148 23 -153 12 -3 463 -4 1002 -3 l980 3 3 149 c2 101 -1 153 -9 162
-9 11 -59 14 -250 14 l-239 0 0 1610 0 1610 238 0 c172 0 241 3 250 12 8 8 12
58 12 160 l0 148 -804 0 -804 0 -32 -67 c-17 -38 -35 -77 -40 -88 -5 -11 -20
-47 -35 -80 -15 -33 -34 -76 -42 -95 -9 -19 -26 -57 -39 -85 -44 -97 -84 -186
-84 -191 0 -3 -11 -29 -24 -57 -33 -70 -79 -173 -101 -222 -9 -22 -26 -60 -37
-85 -11 -25 -24 -54 -28 -65 -5 -11 -22 -49 -38 -85 -17 -36 -40 -87 -52 -115
-25 -58 -47 -107 -84 -187 -14 -31 -26 -59 -26 -63 0 -5 -32 -75 -86 -190 -13
-28 -24 -54 -24 -57 0 -4 -19 -47 -41 -95 -23 -49 -45 -97 -49 -108 -5 -11
-21 -49 -38 -85 -16 -36 -44 -99 -62 -140 -18 -41 -42 -93 -52 -115 -10 -22
-33 -73 -49 -112 -31 -74 -45 -88 -55 -55 -9 28 -44 113 -71 172 -23 50 -33
73 -78 175 -7 17 -29 64 -49 106 -19 42 -44 98 -54 125 -11 27 -32 76 -46 109
-15 33 -31 69 -36 80 -5 11 -25 55 -44 97 -20 42 -36 79 -36 83 0 4 -16 39
-35 79 -19 40 -35 76 -35 81 0 4 -18 45 -40 91 -22 46 -42 95 -46 109 -3 14
-10 28 -15 31 -5 3 -7 9 -4 14 3 4 -2 13 -10 20 -8 7 -15 18 -15 24 0 7 -9 29
-20 51 -25 50 -25 59 3 88 12 13 58 64 102 113 86 96 123 133 261 263 184 174
208 198 268 273 85 106 216 303 216 325 0 2 14 33 30 68 17 36 33 88 36 117 3
29 9 77 14 107 6 30 10 75 10 100 0 43 1 44 17 28 22 -21 32 -201 14 -236 -9
-16 -9 -21 0 -21 8 0 9 -21 5 -72 -4 -40 -7 -85 -7 -100 0 -14 -6 -32 -14 -38
-8 -7 -15 -24 -15 -39 0 -30 -116 -221 -165 -272 -8 -9 -15 -22 -15 -31 0 -8
-19 -35 -41 -59 -98 -104 -94 -100 -79 -109 8 -5 22 -4 34 2 36 19 165 158
222 238 68 98 83 111 91 82 6 -25 33 -30 33 -7 0 8 7 15 15 15 8 0 15 8 15 17
0 13 3 14 11 6 8 -8 7 -17 -5 -34 -9 -13 -16 -31 -16 -40 0 -22 -100 -179
-166 -262 -30 -37 -52 -72 -49 -78 4 -5 -5 -25 -20 -45 -22 -29 -24 -35 -10
-40 19 -8 103 63 179 149 105 120 115 132 148 185 18 29 50 72 71 95 21 24 36
49 33 59 -2 11 1 15 10 11 14 -5 19 -25 8 -36 -3 -3 -7 -26 -9 -51 -1 -26 -7
-52 -13 -59 -5 -6 -23 -44 -40 -84 -17 -39 -47 -97 -66 -127 -20 -31 -31 -56
-26 -56 5 0 19 18 30 40 11 22 24 40 28 40 5 0 19 22 33 50 13 27 27 50 32 50
4 0 7 7 7 15 0 8 9 30 20 50 11 20 20 42 20 49 0 13 14 44 34 75 5 8 10 30 12
49 2 18 7 39 12 46 5 6 10 31 11 56 2 25 7 48 13 51 6 4 5 15 -4 29 -10 18
-10 24 0 27 15 6 17 109 2 118 -5 3 -10 46 -10 95 0 49 -4 92 -10 95 -5 3 -10
28 -10 55 0 27 -4 51 -9 55 -6 3 -40 60 -77 128 -36 67 -73 130 -82 140 -8 9
-20 25 -26 36 -29 49 -68 103 -96 131 -16 17 -30 38 -30 48 0 34 -238 249
-351 317 -163 98 -297 165 -331 165 -13 0 -67 9 -121 20 -103 21 -326 27 -377
10z m460 -89 c39 -6 28 -8 -85 -20 -71 -7 -170 -16 -220 -20 -49 -5 -110 -16
-134 -25 -24 -9 -59 -16 -78 -16 -19 0 -41 -6 -48 -14 -8 -7 -32 -16 -55 -20
-44 -7 -100 -42 -100 -62 0 -6 -8 -18 -19 -25 -110 -81 -345 -287 -501 -439
-64 -63 -140 -137 -169 -163 -28 -27 -51 -53 -51 -58 0 -5 -6 -9 -12 -9 -20
-1 -136 -152 -137 -178 -1 -21 43 11 130 91 41 38 91 81 111 95 20 15 42 36
48 47 6 11 26 30 43 43 40 26 58 44 116 111 25 28 53 51 63 51 10 0 24 11 30
25 6 13 19 27 28 30 9 3 32 19 51 36 70 63 182 154 200 164 10 5 24 22 30 37
6 15 15 26 19 23 11 -7 1 -46 -16 -66 -17 -19 -6 -33 13 -18 7 6 13 7 13 3 0
-5 -23 -27 -51 -49 -51 -40 -165 -134 -266 -221 -28 -24 -56 -44 -62 -44 -6 0
-11 -4 -11 -10 0 -5 -11 -10 -25 -10 -14 0 -25 -4 -25 -10 0 -5 -9 -10 -19
-10 -11 0 -23 -9 -26 -21 -4 -11 -15 -23 -24 -27 -29 -11 -141 -114 -141 -130
0 -13 -35 -49 -317 -322 -188 -182 -172 -171 -255 -168 l-71 3 95 85 c104 93
114 102 173 145 66 48 95 78 95 97 0 24 -17 23 -30 -2 -12 -22 -50 -46 -50
-31 0 5 20 29 44 53 42 42 116 140 116 155 1 18 90 142 135 188 17 16 42 46
56 65 15 19 68 78 118 130 50 52 91 98 91 102 0 4 9 8 20 8 13 0 18 5 14 15
-4 9 11 33 40 62 57 58 69 52 17 -8 -62 -69 -35 -65 41 7 84 79 204 162 298
206 178 84 231 99 382 107 70 4 130 10 134 14 9 9 175 8 234 -2z m170 -100 c0
-17 -20 -23 -83 -27 -61 -3 -62 -3 -29 11 18 8 39 12 47 9 7 -3 22 -1 32 5 23
13 33 14 33 2z m-260 -30 c49 -2 59 -5 40 -11 -35 -11 -238 -12 -244 -1 -11
17 27 19 204 12z m-4850 -71 c0 -5 -5 -10 -11 -10 -5 0 -7 5 -4 10 3 6 8 10
11 10 2 0 4 -4 4 -10z m273 -9 c133 -3 465 -98 492 -141 3 -5 36 -30 73 -55
221 -149 290 -207 529 -448 89 -89 217 -211 284 -272 68 -60 158 -146 201
-190 l77 -80 -56 -3 c-51 -3 -59 0 -82 25 -15 15 -57 55 -96 88 -38 33 -93 83
-123 110 -29 28 -65 57 -78 65 -13 8 -24 18 -24 22 0 12 -78 88 -90 88 -5 0
-10 10 -10 23 0 13 -13 32 -32 47 -18 14 -66 61 -108 105 -123 131 -182 187
-250 240 -35 28 -84 68 -109 90 -25 23 -57 48 -71 58 -14 9 -44 30 -68 47 -23
16 -48 30 -55 30 -7 0 -17 4 -23 8 -5 5 -29 15 -54 22 -25 8 -64 23 -88 33
-59 25 -213 63 -292 72 -36 3 -74 9 -85 12 -18 6 -18 7 5 13 14 4 36 3 50 0
14 -4 51 -8 83 -9z m4927 -40 c0 -5 -39 -12 -87 -15 -49 -4 -108 -9 -132 -11
-70 -8 -37 9 42 21 91 14 177 17 177 5z m-5352 -48 c-3 -25 -7 -27 -55 -30
-72 -4 -71 16 2 43 49 19 57 17 53 -13z m76 -14 c21 -10 23 -15 15 -30 -5 -11
-20 -19 -32 -19 -13 0 -28 -5 -35 -12 -17 -17 -16 25 0 52 15 23 19 24 52 9z
m241 -38 c22 -5 65 -14 95 -21 30 -6 78 -16 105 -22 28 -6 104 -34 170 -61
212 -87 217 -90 355 -190 34 -25 363 -351 549 -544 7 -8 20 -12 28 -9 8 3 11
1 8 -4 -3 -6 2 -10 12 -10 10 0 61 -43 113 -95 l95 -95 -44 0 c-41 0 -47 4
-114 75 -50 54 -73 72 -79 63 -6 -10 -14 -7 -35 13 -38 35 -243 242 -388 391
-156 161 -257 233 -495 353 -150 77 -344 136 -491 152 -32 3 -56 10 -53 15 6
10 104 3 169 -11z m5016 -56 c0 -5 -20 -13 -43 -17 -44 -7 -120 -22 -173 -33
-16 -4 -25 -3 -19 2 6 4 13 16 17 26 4 12 15 18 29 16 13 -1 30 1 38 4 14 6
108 14 138 13 7 -1 13 -5 13 -11z m-851 -71 c0 -17 -26 -47 -59 -68 -32 -21
-178 -142 -216 -179 -7 -7 -16 -23 -19 -35 -4 -12 -11 -22 -15 -22 -5 0 -19
-10 -33 -22 -13 -13 -38 -34 -55 -48 -83 -68 -178 -154 -269 -245 -104 -102
-207 -201 -282 -268 -40 -36 -46 -38 -98 -35 l-56 3 118 106 c66 58 178 161
249 230 136 129 189 176 290 256 33 26 86 72 117 102 32 30 74 65 93 79 19 14
35 29 35 34 0 4 7 8 16 8 9 0 26 9 38 20 56 52 146 104 146 84z m414 -36 c-22
-10 -44 -18 -51 -18 -50 -1 -377 -197 -478 -287 -68 -59 -123 -101 -142 -107
-12 -4 -25 -18 -30 -31 -8 -24 -117 -117 -172 -147 -25 -14 -31 -23 -31 -50 0
-29 -6 -36 -53 -63 -28 -16 -57 -29 -64 -29 -6 1 -14 -12 -17 -28 -3 -17 -27
-52 -53 -79 -45 -46 -51 -49 -98 -49 l-50 1 35 30 c81 69 169 155 170 164 0
17 256 255 273 255 12 0 77 65 77 77 0 7 3 13 8 13 4 0 40 26 80 58 40 32 90
67 110 77 20 11 72 45 115 77 43 32 117 76 165 99 48 22 96 44 107 50 36 17
109 26 124 15 11 -8 5 -14 -25 -28z m-334 24 c0 -4 -13 -16 -30 -25 -33 -20
-39 -13 -13 15 16 18 43 25 43 10z m830 -77 c14 -16 14 -16 -55 -34 -22 -6
-64 -11 -92 -11 -68 0 -127 -14 -235 -56 -48 -19 -96 -34 -106 -34 -10 0 -22
-4 -28 -8 -5 -4 -26 -14 -48 -21 -21 -7 -54 -24 -73 -37 -20 -13 -40 -24 -45
-24 -9 0 -50 -29 -117 -85 -63 -52 -129 -114 -301 -281 -248 -244 -249 -244
-300 -244 l-42 0 34 28 c18 15 35 31 37 37 2 5 22 25 45 45 103 90 236 219
345 333 44 46 186 167 197 167 4 0 21 10 38 23 17 13 65 40 106 62 41 21 86
45 100 52 14 7 41 16 60 19 19 4 37 11 40 15 3 4 23 9 45 10 22 2 47 6 55 10
29 15 109 29 162 29 29 0 59 4 66 9 23 14 99 12 112 -4z m-5597 -172 c8 -140
30 -245 78 -365 41 -103 88 -183 138 -235 48 -51 37 -52 -15 -3 -79 76 -149
180 -193 284 l-41 99 0 141 c0 139 5 186 20 186 4 0 10 -48 13 -107z m202 -68
c19 -74 41 -154 49 -177 9 -24 22 -62 31 -85 17 -48 93 -195 105 -203 13 -8
71 -112 68 -121 -5 -14 -20 2 -94 96 -89 115 -125 174 -156 261 -45 123 -47
137 -53 269 -8 159 2 152 50 -40z m5505 145 c0 -5 -4 -10 -10 -10 -5 0 -10 5
-10 10 0 6 5 10 10 10 6 0 10 -4 10 -10z m-5868 -128 c-4 -134 13 -254 43
-313 8 -15 15 -33 15 -39 0 -46 147 -239 172 -224 14 9 131 -98 380 -347 219
-219 227 -229 216 -254 -6 -14 -14 -25 -17 -25 -7 0 -329 322 -450 450 -69 73
-81 90 -61 90 5 0 7 7 4 15 -8 19 -22 19 -26 1 -2 -11 -15 -4 -45 22 -23 20
-63 54 -88 76 -82 68 -132 150 -171 276 -19 62 -19 306 0 351 12 27 25 49 30
49 1 0 0 -58 -2 -128z m526 96 c7 -18 24 -74 37 -125 49 -185 142 -399 182
-418 22 -11 51 -41 118 -120 22 -26 51 -60 65 -75 82 -89 89 -101 77 -128 -6
-15 -14 -31 -19 -36 -10 -13 -62 42 -123 129 -27 39 -52 72 -55 75 -4 3 -39
49 -79 103 -123 167 -217 390 -228 545 -6 87 3 106 25 50z m5271 -20 c-1 -51
-1 -52 -10 -18 -7 32 -4 70 7 70 2 0 4 -24 3 -52z m-139 13 c0 -10 -7 -24 -15
-31 -8 -7 -15 -19 -15 -27 0 -8 -5 -11 -10 -8 -13 8 -2 77 13 87 15 9 27 0 27
-21z m-4927 -93 c-1 -43 2 -75 9 -79 6 -4 8 -13 6 -20 -6 -18 -31 30 -48 93
-14 54 -9 78 18 78 16 0 17 -8 15 -72z m4827 8 c0 -17 -27 -30 -56 -27 -11 1
-32 -9 -47 -23 -21 -20 -23 -25 -11 -30 9 -3 20 -4 25 0 5 3 9 -2 9 -10 0 -9
-44 -59 -98 -113 -55 -54 -120 -129 -147 -168 -64 -94 -83 -118 -133 -175 -24
-26 -39 -51 -33 -54 17 -11 231 221 286 309 28 45 74 85 97 85 12 0 30 8 40
17 11 10 2 -12 -20 -47 -21 -36 -50 -90 -65 -121 -14 -31 -33 -62 -42 -69 -8
-7 -15 -20 -15 -29 -1 -9 -23 -41 -51 -71 -28 -30 -64 -75 -82 -100 -17 -25
-44 -58 -59 -73 -33 -33 -35 -47 -9 -47 23 0 91 53 154 119 27 28 55 51 64 51
18 0 301 277 309 303 10 32 29 12 26 -27 -8 -79 -95 -193 -342 -445 -41 -42
-99 -102 -128 -133 -29 -32 -56 -58 -60 -58 -4 0 -34 -27 -66 -59 -85 -86 -64
-97 24 -12 41 39 76 71 77 71 2 0 11 7 21 16 9 8 44 36 78 62 34 26 68 54 77
62 9 8 58 53 109 100 51 47 114 109 138 138 115 137 139 163 143 160 2 -2 11
3 20 11 26 21 49 -2 36 -37 -38 -104 -142 -237 -379 -484 -41 -42 -86 -91 -99
-108 -13 -16 -29 -30 -36 -30 -14 0 -41 -57 -32 -66 3 -3 40 27 83 68 99 95
129 122 199 183 117 102 203 193 283 300 114 152 130 169 149 153 14 -11 15
-10 10 7 -6 16 -2 20 18 21 20 2 25 -3 25 -21 0 -13 -5 -27 -10 -30 -6 -4 -23
-32 -39 -64 -16 -31 -36 -63 -45 -70 -9 -8 -16 -21 -16 -31 0 -10 -7 -23 -15
-30 -8 -7 -15 -17 -15 -22 0 -13 -48 -75 -90 -118 -19 -19 -74 -80 -122 -135
-47 -55 -115 -128 -150 -161 -34 -34 -85 -88 -113 -120 -27 -33 -69 -78 -92
-101 -23 -23 -48 -51 -55 -62 -26 -37 -138 -151 -148 -151 -5 0 -10 6 -10 13
0 8 -11 36 -25 63 -14 27 -25 56 -25 64 0 8 -20 55 -45 104 -25 48 -45 94 -45
100 0 7 -16 41 -35 76 -19 36 -35 75 -35 86 0 12 18 41 40 65 35 39 50 69 35
69 -16 0 -55 -35 -55 -49 0 -9 -9 -22 -20 -29 -17 -11 -21 -10 -27 5 -4 10 -9
20 -12 23 -5 4 -76 175 -96 231 -4 10 11 27 50 53 30 21 55 42 55 47 0 5 25
27 55 50 30 23 55 45 55 49 0 11 -49 30 -79 30 -15 0 -43 -11 -62 -25 -19 -13
-48 -30 -64 -38 -17 -8 -46 -35 -65 -60 l-35 -46 -70 0 -70 0 25 20 c106 86
264 240 297 291 14 21 28 38 32 38 3 0 35 27 71 61 42 39 100 78 165 112 128
66 181 84 269 95 112 15 146 14 146 -2z m-5720 -30 c-25 -66 -3 -281 49 -491
38 -150 121 -321 214 -440 59 -75 312 -342 481 -507 56 -55 77 -81 72 -93 -3
-9 -6 -21 -6 -26 0 -28 -42 8 -187 159 -88 92 -200 208 -248 257 -90 93 -180
200 -228 272 -31 45 -106 227 -107 256 0 10 -4 27 -10 37 -5 10 -17 56 -25
102 -9 45 -20 105 -26 132 -19 80 -15 299 6 342 19 41 31 41 15 0z m1076 -14
c-9 -9 -37 8 -31 18 5 8 11 7 21 -1 8 -6 12 -14 10 -17z m4714 5 c0 -19 -83
-126 -97 -127 -7 0 -13 2 -13 5 0 12 57 91 80 112 30 27 30 27 30 10z m-4584
-95 c38 -41 95 -99 128 -130 32 -32 94 -100 137 -152 44 -52 102 -117 129
-145 l50 -50 -60 -3 c-45 -2 -64 1 -82 15 -42 33 -373 368 -397 401 -21 31
-22 34 -7 51 9 10 16 28 16 40 0 18 -4 21 -20 16 -15 -5 -20 -2 -20 12 0 11 5
24 12 31 15 15 28 5 114 -86z m4754 66 c0 -7 -5 -20 -10 -28 -8 -12 -10 -9
-10 13 0 15 5 27 10 27 6 0 10 -6 10 -12z m-6063 -170 c-3 -7 -5 -2 -5 12 0
14 2 19 5 13 2 -7 2 -19 0 -25z m1120 -16 c25 -16 86 -68 102 -86 9 -11 68
-73 131 -138 63 -66 117 -124 118 -129 2 -5 -23 -9 -55 -9 -68 1 -77 7 -168
120 -79 98 -115 156 -115 183 0 12 -9 28 -20 35 -11 7 -20 17 -20 22 0 12 10
13 27 2z m-1127 -84 c1 -63 14 -206 28 -308 5 -30 19 -86 31 -125 66 -205 140
-302 526 -693 143 -144 261 -268 262 -275 2 -7 -5 -22 -15 -35 l-17 -22 -145
147 c-137 140 -325 339 -437 464 -177 198 -263 437 -263 734 0 72 3 140 6 153
12 42 24 22 24 -40z m2245 -268 c3 -5 -3 -10 -15 -10 -12 0 -18 5 -15 10 3 6
10 10 15 10 5 0 12 -4 15 -10z m-1874 -77 c96 -128 204 -245 438 -478 185
-183 201 -202 196 -227 -4 -16 -9 -28 -12 -28 -8 0 -333 331 -429 436 -104
115 -244 312 -244 343 0 19 6 13 51 -46z m491 -41 c7 -11 24 -25 37 -31 25
-14 100 -68 141 -103 137 -116 156 -137 131 -152 -8 -6 -54 33 -210 180 -42
39 -83 75 -91 80 -8 5 -26 22 -40 38 -24 27 -24 28 -3 17 12 -6 28 -19 35 -29z
m2174 -213 c31 -44 63 -83 70 -86 20 -7 17 -27 -7 -49 -17 -16 -22 -16 -29 -4
-6 8 -10 18 -10 21 0 4 -24 31 -54 60 -51 51 -53 56 -49 97 3 23 9 42 14 42 5
0 34 -36 65 -81z m192 24 c-41 -60 -72 -87 -76 -68 -6 27 29 82 61 97 49 24
50 21 15 -29z m-614 -75 c85 -88 170 -182 191 -212 38 -55 55 -68 81 -62 38
10 28 -12 -16 -34 -42 -21 -60 -20 -60 5 0 8 -74 88 -165 178 -91 89 -165 166
-165 170 0 4 19 7 42 7 36 0 47 -6 92 -52z m232 -2 c32 -29 73 -76 89 -104 17
-30 38 -52 50 -54 11 -2 21 -10 23 -19 2 -13 -12 -25 -62 -48 -5 -2 -6 10 -3
28 6 27 4 31 -14 31 -11 0 -26 6 -32 13 -7 7 -54 56 -106 110 l-95 97 45 0
c41 0 52 -5 105 -54z m974 46 c0 -4 -11 -23 -25 -42 -77 -105 -86 -110 -102
-57 -6 20 -6 46 0 70 l9 37 59 0 c33 0 59 -4 59 -8z m-429 -25 c-10 -9 -11 -8
-5 6 3 10 9 15 12 12 3 -3 0 -11 -7 -18z m503 -165 c-4 -27 -11 -39 -19 -36
-7 3 -16 1 -20 -5 -10 -17 -25 -13 -25 7 0 24 52 93 63 83 4 -4 5 -26 1 -49z
m-1354 -28 c25 -27 63 -72 85 -99 49 -60 85 -94 107 -100 32 -11 28 -35 -14
-81 -22 -24 -43 -42 -46 -39 -3 2 0 10 5 17 6 7 14 27 18 45 6 30 4 33 -32 49
-21 10 -42 18 -46 18 -11 1 -87 78 -87 87 0 4 -13 21 -30 39 -26 28 -30 40
-30 87 0 44 2 52 13 41 6 -7 32 -36 57 -64z m510 22 c0 -3 -4 -8 -10 -11 -5
-3 -10 -1 -10 4 0 6 5 11 10 11 6 0 10 -2 10 -4z m220 -103 c-1 -5 -12 -21
-26 -38 -27 -31 -28 -28 -5 18 13 25 31 37 31 20z m512 -25 c-7 -7 -12 -8 -12
-2 0 14 12 26 19 19 2 -3 -1 -11 -7 -17z m-2335 -20 c-3 -8 -6 -5 -6 6 -1 11
2 17 5 13 3 -3 4 -12 1 -19z m1102 -174 c5 -5 13 -20 20 -31 6 -12 20 -25 31
-28 28 -9 18 -36 -31 -85 -44 -43 -45 -43 -24 7 8 19 15 38 15 40 0 3 -20 24
-44 47 -43 40 -54 71 -47 131 1 8 50 -41 80 -81z m1806 26 c29 -57 31 -73 11
-89 -11 -9 -22 -9 -50 3 -33 14 -36 18 -36 57 0 40 21 79 41 79 5 0 20 -22 34
-50z m-2965 -23 c30 -24 60 -70 60 -93 0 -13 -2 -24 -5 -24 -13 0 -95 86 -95
100 0 30 16 37 40 17z m3008 -99 c-4 -27 -28 -36 -28 -10 0 20 8 32 22 32 5 0
8 -10 6 -22z m34 -64 c11 -25 16 -50 11 -54 -15 -15 -41 15 -43 50 -4 66 4 67
32 4z m-3006 -156 c16 -23 24 -46 22 -65 l-3 -28 -50 50 c-27 28 -69 73 -91
100 -35 42 -40 54 -32 74 9 24 10 24 69 -35 33 -32 71 -75 85 -96z m2204 122
c0 -5 -9 -14 -21 -20 -19 -11 -20 -10 -9 9 11 22 30 29 30 11z m-1140 -27 c0
-5 -4 -15 -10 -23 -11 -18 -25 -7 -17 15 6 15 27 21 27 8z m1828 -85 c2 -9 -4
-18 -13 -21 -11 -5 -15 0 -15 19 0 28 23 29 28 2z m177 2 c10 -11 14 -20 10
-20 -4 0 -1 -8 8 -17 8 -10 19 -30 22 -45 6 -24 4 -28 -14 -28 -13 0 -46 -26
-87 -70 -37 -38 -71 -67 -77 -63 -5 3 -7 2 -4 -4 3 -5 -7 -25 -22 -44 -27 -31
-29 -32 -35 -12 -4 11 -7 46 -8 78 -2 58 11 81 40 70 8 -3 16 4 19 16 3 12 11
18 19 15 8 -3 14 1 14 10 0 8 16 30 35 48 23 22 35 43 35 60 0 31 20 34 45 6z
m-3228 -132 c32 -40 81 -97 109 -128 62 -66 74 -88 74 -132 l0 -33 -48 51
c-119 129 -219 240 -225 251 -8 13 11 63 24 63 4 0 34 -32 66 -72z m2623 -8
c0 -5 -5 -10 -11 -10 -5 0 -7 5 -4 10 3 6 8 10 11 10 2 0 4 -4 4 -10z m700
-62 c26 -55 26 -61 -12 -91 -18 -14 -94 -85 -168 -158 l-135 -133 -3 44 c-3
43 -2 45 82 129 92 93 124 129 176 204 18 26 35 47 36 47 2 0 13 -19 24 -42z
m-3318 -219 c21 -24 60 -68 87 -97 78 -82 91 -102 91 -138 0 -19 -4 -34 -8
-34 -9 0 -192 184 -278 279 -27 30 -57 63 -67 74 -10 10 -17 21 -14 25 2 4 9
21 16 38 l12 32 62 -68 c34 -37 79 -87 99 -111z m3401 27 c15 -44 15 -44 -16
-81 -44 -53 -76 -85 -87 -85 -6 0 -10 -4 -10 -9 0 -18 -142 -171 -159 -171 -6
0 -15 -9 -21 -20 -6 -11 -15 -18 -21 -15 -5 4 -9 1 -9 -4 0 -6 -15 -27 -34
-47 l-33 -35 -7 32 c-3 17 -6 50 -6 72 0 38 6 47 83 122 135 131 298 285 302
285 2 0 10 -20 18 -44z m-843 -126 c0 -5 -4 -10 -10 -10 -5 0 -10 5 -10 10 0
6 5 10 10 10 6 0 10 -4 10 -10z m-50 -27 c0 -15 -48 -68 -55 -61 -4 4 3 20 16
37 23 29 39 39 39 24z m974 -25 c9 -17 16 -37 16 -44 0 -13 -477 -484 -491
-484 -5 0 -9 24 -9 54 l0 55 107 98 c59 54 164 155 233 225 69 69 126 127 127
127 1 1 9 -13 17 -31z m-854 -57 c0 -45 -4 -52 -49 -97 -54 -54 -129 -118
-196 -169 -15 -11 -48 -38 -73 -60 -26 -23 -61 -52 -78 -66 -17 -14 -29 -30
-26 -37 2 -7 -3 -12 -11 -12 -8 0 -22 -11 -31 -25 -9 -14 -23 -25 -31 -25 -7
0 -22 -10 -32 -23 -17 -21 -66 -57 -78 -57 -10 0 -5 17 13 36 10 10 29 39 42
64 17 31 38 51 66 65 22 11 51 37 64 57 31 49 391 396 413 398 4 0 7 -22 7
-49z m952 -177 c2 -20 -10 -36 -52 -72 -30 -26 -100 -89 -154 -142 -145 -139
-157 -150 -163 -150 -3 0 -44 -37 -90 -82 -107 -106 -110 -107 -119 -63 -9 49
2 83 39 119 119 115 340 321 356 332 11 8 47 43 82 79 l62 65 19 -30 c10 -17
19 -42 20 -56z m-984 -138 c-18 -16 -46 -41 -63 -55 -16 -15 -67 -55 -112 -90
-45 -34 -85 -71 -88 -80 -3 -10 -30 -35 -60 -56 -30 -20 -55 -41 -55 -45 0 -3
-11 -13 -25 -20 -14 -7 -25 -19 -25 -26 0 -6 -7 -14 -15 -18 -8 -3 -15 -15
-15 -26 0 -14 -7 -20 -22 -20 -17 0 -28 -11 -41 -40 -12 -26 -27 -42 -43 -46
-13 -3 -24 -11 -24 -17 0 -14 -397 -407 -411 -407 -6 0 -27 -18 -46 -40 -26
-28 -42 -39 -54 -35 -13 5 -32 -8 -64 -42 -24 -26 -45 -53 -45 -60 0 -6 -12
-21 -26 -32 -17 -13 -23 -25 -18 -33 14 -21 4 -72 -19 -95 -27 -30 -39 -29
-31 2 8 33 -15 33 -46 0 -19 -20 -26 -22 -43 -14 -17 10 -19 18 -13 62 7 62
27 91 85 124 31 17 52 22 72 18 25 -6 33 0 81 59 29 36 60 66 69 66 18 0 101
78 95 89 -13 21 278 322 543 561 46 41 111 104 145 139 65 68 171 158 276 235
l65 48 3 -38 c3 -33 -1 -43 -30 -68z m-668 15 c0 -6 -4 -13 -10 -16 -5 -3 -10
-17 -10 -30 0 -18 -10 -30 -38 -44 -21 -11 -43 -30 -49 -43 -6 -13 -36 -44
-67 -68 -31 -25 -93 -80 -137 -122 -44 -43 -85 -78 -90 -78 -14 0 -11 27 6 44
8 8 15 18 15 22 0 4 51 56 113 116 109 105 160 144 178 132 5 -3 9 1 9 8 0 7
14 30 31 51 30 36 49 47 49 28z m1730 -40 c0 -9 7 -29 15 -45 19 -35 19 -56 2
-56 -8 0 -24 -11 -37 -25 -13 -14 -30 -25 -38 -25 -10 0 -6 8 12 25 14 13 26
27 26 30 0 12 -21 3 -44 -20 -14 -14 -28 -25 -32 -25 -17 0 -319 -241 -380
-304 -41 -41 -144 -138 -166 -155 -16 -12 -18 -10 -18 17 0 27 24 54 173 200
94 94 206 199 247 233 41 35 77 66 80 69 3 3 32 27 65 55 33 27 62 54 63 58 6
12 32 -14 32 -32z m-1030 -155 l0 -54 -152 -128 c-144 -120 -476 -440 -751
-724 -134 -138 -177 -187 -177 -202 0 -24 -82 -127 -113 -142 -41 -19 -237
-24 -237 -6 0 17 72 84 113 105 20 11 37 23 37 27 0 5 7 8 15 8 8 0 15 4 15 9
0 5 11 16 25 25 21 14 32 15 65 6 53 -14 84 3 76 42 -6 29 4 43 114 162 76 81
238 238 287 278 23 18 62 57 88 85 26 29 145 146 264 260 304 291 315 301 324
302 4 1 7 -23 7 -53z m-600 -5 c0 -8 -33 -39 -123 -114 -21 -18 -62 -56 -92
-84 -29 -29 -57 -53 -62 -53 -4 -1 -37 -28 -73 -60 -35 -33 -71 -60 -78 -60
-9 0 -13 -7 -9 -19 3 -14 1 -18 -9 -14 -8 3 -14 11 -14 17 0 20 284 296 305
296 6 0 20 9 30 20 10 11 24 20 30 20 7 0 15 6 18 14 3 8 18 21 34 29 34 18
43 20 43 8z m-1852 -152 c1 -91 -9 -112 -95 -182 -37 -30 -84 -72 -103 -92
l-35 -37 34 20 c19 11 64 47 100 79 90 81 91 81 91 37 0 -29 -7 -43 -37 -71
-21 -19 -51 -40 -68 -47 -16 -8 -46 -27 -65 -45 -19 -17 -38 -31 -41 -31 -3 0
-18 -11 -33 -25 -15 -14 -35 -25 -45 -25 -20 0 -285 -259 -517 -505 -217 -231
-230 -246 -245 -290 -7 -22 -21 -48 -31 -58 -10 -10 -18 -24 -18 -32 0 -7 -9
-16 -19 -20 -11 -3 -27 -22 -36 -43 -10 -20 -24 -41 -31 -45 -21 -12 -17 -35
7 -42 16 -5 31 3 64 37 48 49 113 123 165 187 67 83 233 276 284 329 192 201
345 348 521 498 44 38 82 72 83 76 4 8 56 38 67 38 3 0 5 -19 5 -42 -1 -60
-30 -118 -78 -153 -31 -23 -40 -36 -40 -58 1 -16 -7 -34 -18 -42 -22 -17 -44
-19 -44 -5 0 13 -445 -420 -499 -486 -65 -78 -137 -160 -148 -167 -7 -4 -13
-14 -13 -22 0 -8 -10 -20 -22 -26 -13 -7 -32 -24 -43 -38 -11 -14 -42 -46 -68
-71 -73 -67 -157 -205 -157 -256 0 -8 -9 -34 -21 -57 -24 -50 -47 -136 -63
-234 -6 -39 -14 -75 -18 -79 -12 -11 -9 234 3 286 6 25 13 61 16 80 3 19 9 37
12 40 14 10 43 101 37 115 -3 9 -19 15 -39 15 -27 0 -40 -7 -60 -33 -32 -43
-57 -102 -57 -138 0 -15 -4 -31 -10 -34 -5 -3 -10 -28 -10 -55 0 -27 -4 -70
-10 -97 -5 -26 -12 -88 -16 -137 -9 -125 -25 -89 -31 68 -11 252 51 567 126
643 30 30 67 81 91 125 21 38 679 705 737 748 50 36 273 257 273 270 0 5 -9 6
-20 3 -11 -3 -20 -1 -20 3 0 9 190 193 201 194 3 0 6 -32 7 -71z m1812 51 c-6
-11 -14 -20 -19 -20 -4 0 -22 -13 -41 -30 -18 -16 -36 -27 -39 -24 -6 6 87 94
101 94 5 0 4 -9 -2 -20z m1620 -42 c0 -6 -7 -5 -15 2 -8 7 -15 17 -15 22 0 6
7 5 15 -2 8 -7 15 -17 15 -22z m-1032 -206 c-29 -30 -77 -78 -107 -106 -30
-28 -61 -59 -70 -68 -9 -10 -38 -39 -64 -65 -112 -110 -334 -334 -359 -363
-15 -16 -30 -30 -32 -30 -9 0 -76 -73 -76 -82 0 -13 -28 -9 -33 5 -4 10 -7 10
-18 0 -11 -11 -10 -13 4 -13 23 0 21 -12 -5 -37 -13 -11 -30 -30 -38 -42 -8
-13 -27 -36 -42 -52 -16 -16 -28 -35 -28 -43 0 -22 -16 -28 -44 -15 l-25 12
24 19 c14 11 25 26 25 34 0 20 -38 17 -44 -3 -12 -35 -68 -63 -129 -63 -31 0
-57 4 -57 9 0 9 82 74 136 107 52 31 392 357 621 594 139 144 278 277 323 310
18 14 45 35 59 47 l26 21 3 -60 3 -61 -53 -55z m-1078 117 c0 -5 -7 -9 -15 -9
-15 0 -20 12 -9 23 8 8 24 -1 24 -14z m2360 -150 c50 -51 120 -169 120 -200 0
-6 -23 17 -50 52 -28 35 -58 73 -68 84 -10 11 -25 31 -34 45 -8 14 -48 58 -87
98 -39 41 -71 78 -71 84 0 13 118 -88 190 -163z m-630 49 c-26 -35 -39 -60
-36 -73 4 -14 -6 -32 -29 -57 -19 -20 -35 -41 -35 -47 0 -6 -4 -11 -8 -11 -5
0 -28 -18 -52 -40 -24 -22 -47 -37 -51 -33 -5 5 -9 25 -11 47 -2 40 -3 39 153
183 13 12 42 40 64 62 53 54 56 36 5 -31z m225 14 c-7 -8 -35 7 -35 18 0 6 7
6 20 -2 10 -7 17 -14 15 -16z m-3595 -50 c0 -4 -10 -13 -22 -21 -64 -40 -71
-41 -34 -7 38 35 56 44 56 28z m3738 -61 c38 -32 124 -119 192 -192 68 -74
160 -172 204 -219 145 -151 300 -323 389 -430 48 -58 119 -141 157 -185 149
-173 192 -232 244 -340 87 -178 136 -357 156 -560 13 -141 13 -231 -1 -295
-15 -72 -29 -62 -22 18 8 103 -13 324 -42 437 -86 335 -222 553 -567 910 -47
50 -104 112 -125 139 -21 27 -64 77 -95 111 -31 35 -76 89 -100 122 -24 33
-60 76 -80 95 -33 34 -130 145 -226 261 -24 29 -57 68 -75 87 -78 85 -90 100
-84 100 4 0 37 -27 75 -59z m-1958 -11 c0 -5 -2 -10 -4 -10 -3 0 -8 5 -11 10
-3 6 -1 10 4 10 6 0 11 -4 11 -10z m990 -54 l0 -54 -82 -79 c-46 -44 -135
-129 -198 -189 -63 -60 -140 -134 -170 -164 -31 -30 -130 -128 -220 -217 -91
-88 -186 -184 -212 -213 l-48 -52 0 60 c0 59 1 61 30 67 17 4 30 11 30 17 0 6
173 184 384 397 211 212 404 407 427 434 24 26 47 47 51 47 4 0 8 -24 8 -54z
m-1105 34 c3 -5 -1 -10 -10 -10 -9 0 -13 5 -10 10 3 6 8 10 10 10 2 0 7 -4 10
-10z m1645 -110 c0 -5 -4 -10 -10 -10 -5 0 -10 5 -10 10 0 6 5 10 10 10 6 0
10 -4 10 -10z m-1690 -49 c0 -12 -256 -251 -269 -251 -6 0 -11 19 -11 46 0 38
6 54 38 93 50 64 112 118 112 98 0 -8 -19 -32 -42 -53 -54 -48 -99 -134 -70
-134 13 0 97 73 161 143 60 63 81 79 81 58z m2227 -212 c103 -104 190 -195
192 -202 2 -7 20 -31 40 -54 20 -22 70 -81 111 -129 41 -49 141 -157 223 -242
119 -123 287 -326 287 -346 0 -2 19 -35 42 -72 111 -182 174 -386 184 -597 7
-133 6 -138 -12 -135 -26 4 -32 23 -33 92 -2 174 -91 468 -190 626 -44 72
-244 314 -342 415 -106 110 -196 210 -319 355 -58 68 -134 156 -170 196 -36
39 -87 99 -115 133 -27 34 -56 68 -62 76 -7 7 -13 18 -13 23 0 6 -3 12 -7 14
-5 2 -19 18 -31 36 l-24 34 25 -17 c14 -9 110 -102 214 -206z m-439 141 c8 0
13 -2 10 -5 -5 -5 147 -158 330 -331 46 -44 100 -97 120 -119 20 -21 71 -73
112 -115 41 -42 102 -107 135 -146 33 -38 78 -89 100 -115 22 -25 51 -58 64
-75 13 -16 49 -56 80 -89 171 -184 283 -364 331 -535 40 -143 65 -380 41 -394
-4 -3 -14 22 -21 57 -37 191 -91 381 -130 458 -46 89 -239 347 -351 468 -35
38 -98 109 -139 157 -71 83 -159 178 -350 379 -139 148 -193 208 -230 255 -41
52 -42 53 -97 112 -23 25 -39 49 -35 52 4 4 8 2 10 -3 2 -6 11 -11 20 -11z
m-645 -114 c-4 -8 -66 -74 -137 -147 -108 -112 -181 -182 -346 -333 -8 -8 -37
-37 -65 -66 -27 -29 -76 -72 -107 -97 -62 -49 -72 -67 -62 -107 9 -39 33 -32
96 27 128 119 130 120 126 40 -2 -46 -8 -64 -28 -85 -14 -16 -35 -28 -47 -28
-14 0 -32 -14 -50 -40 -15 -22 -33 -40 -39 -40 -6 0 -17 -11 -24 -25 -7 -14
-19 -25 -26 -25 -6 0 -24 -17 -40 -37 -15 -21 -32 -40 -37 -42 -4 -2 -12 -14
-17 -27 -6 -14 -17 -23 -27 -22 -35 3 -53 -2 -53 -14 0 -7 -26 -35 -57 -63
-31 -27 -91 -83 -132 -123 -42 -41 -132 -124 -201 -185 -152 -136 -340 -325
-340 -342 0 -15 -114 -125 -130 -125 -6 0 -8 -4 -5 -10 5 -9 -13 -28 -123
-128 -14 -12 -33 -22 -43 -22 -11 0 -19 -4 -19 -10 0 -5 -8 -10 -18 -10 -20 0
-133 -65 -144 -83 -4 -6 -9 -9 -12 -7 -4 5 359 368 480 481 27 25 92 96 144
159 52 63 119 140 149 173 41 44 51 61 41 67 -7 5 -10 15 -6 26 4 10 1 21 -5
25 -8 4 2 10 24 14 23 5 39 14 42 26 4 10 13 19 22 19 9 0 13 6 10 14 -3 8 3
23 14 34 10 12 19 27 19 35 0 8 8 23 18 33 25 28 179 134 185 128 7 -7 -12
-64 -27 -82 -11 -14 -13 -16 -86 -97 -28 -31 -33 -41 -15 -25 49 40 109 102
135 140 14 19 44 52 67 74 23 21 54 58 69 81 15 24 38 48 51 54 17 8 23 17 19
27 -3 9 -6 20 -6 25 0 21 -26 6 -79 -44 -31 -29 -76 -69 -101 -89 -116 -96
-132 -108 -138 -108 -12 0 -162 -130 -201 -174 -14 -16 -57 -61 -96 -101 -38
-39 -91 -94 -116 -121 -25 -27 -88 -87 -139 -134 -52 -47 -112 -103 -135 -125
-97 -95 -218 -198 -325 -276 -145 -105 -170 -120 -170 -101 0 7 11 21 95 114
17 18 57 56 90 83 33 28 100 89 150 137 49 48 130 122 180 165 115 99 214 193
279 263 202 215 470 466 505 471 19 3 27 13 34 39 5 19 18 41 30 49 12 8 36
29 52 45 17 16 47 34 67 41 47 13 120 78 368 322 246 242 293 287 361 345 l54
47 3 -44 c2 -25 -1 -51 -5 -59z m-2443 27 c0 -20 -110 -130 -166 -165 -61 -39
-457 -422 -580 -561 -61 -69 -67 -77 -62 -82 8 -8 38 6 38 17 0 10 51 57 63
58 15 0 4 -16 -51 -76 -29 -33 -58 -66 -65 -74 -15 -18 -67 -99 -67 -105 0 -2
-22 -37 -49 -78 -28 -41 -56 -90 -64 -108 -8 -19 -21 -40 -30 -47 -9 -7 -25
-46 -37 -85 -11 -40 -26 -89 -32 -109 -6 -21 -14 -38 -18 -38 -26 0 -16 269
13 345 8 22 18 52 21 68 4 16 13 27 22 27 12 0 15 -6 9 -22 -12 -41 -16 -100
-5 -93 5 3 10 13 10 21 0 8 11 32 25 54 14 22 25 43 25 46 0 4 18 33 40 65 22
32 40 66 40 76 0 9 10 27 21 39 21 23 36 45 61 94 15 29 15 28 117 146 44 50
96 106 117 125 21 19 47 43 59 54 36 33 111 98 146 127 19 16 78 64 133 109
110 90 244 189 257 189 5 0 9 -8 9 -17z m2450 -150 c0 -9 -5 -45 -11 -80 -9
-50 -17 -67 -38 -82 -15 -11 -37 -39 -49 -63 -12 -23 -34 -58 -50 -76 -27 -33
-28 -33 -104 -30 l-78 3 108 110 c59 61 130 138 157 172 52 65 65 75 65 46z
m-2450 -34 c0 -52 -12 -74 -72 -129 -26 -25 -48 -51 -48 -58 0 -6 -4 -12 -8
-12 -5 0 -31 -22 -58 -50 l-49 -50 -67 0 c-38 0 -68 2 -68 4 0 3 19 24 43 48
23 24 51 54 62 68 23 29 246 220 258 220 4 0 7 -18 7 -41z m3326 -246 c138
-136 273 -275 300 -308 26 -33 85 -98 130 -145 135 -140 224 -251 287 -360 70
-121 207 -415 207 -444 0 -8 4 -17 9 -20 4 -3 11 -49 14 -103 3 -54 9 -107 12
-118 3 -11 1 -27 -4 -35 -24 -37 -412 58 -561 138 -149 79 -313 210 -401 319
-30 36 -67 80 -83 97 -16 17 -50 56 -74 86 -25 30 -97 111 -162 180 -64 69
-152 166 -195 215 -44 50 -86 95 -95 102 -12 10 -5 12 39 13 l53 0 227 -232
c125 -128 288 -298 363 -378 181 -194 236 -243 358 -322 83 -53 115 -67 240
-105 174 -53 212 -63 238 -63 21 0 23 4 20 43 -3 37 -6 43 -27 45 -41 3 -161
42 -261 84 -240 100 -316 159 -578 453 -64 72 -164 180 -222 240 -58 61 -129
139 -158 173 l-54 62 65 0 64 0 64 -72 c35 -40 127 -140 204 -222 191 -205
195 -209 277 -307 40 -47 91 -99 113 -116 45 -35 148 -89 243 -127 35 -14 95
-44 134 -66 38 -22 76 -40 83 -40 7 0 15 -6 18 -12 3 -10 8 -10 16 -2 15 14 4
63 -15 71 -8 3 -14 14 -14 24 0 10 -6 19 -14 19 -8 0 -39 13 -70 29 -31 17
-113 49 -184 71 -139 46 -180 71 -252 157 -25 30 -55 64 -66 76 -12 12 -53 65
-92 117 -39 53 -81 107 -95 120 -13 14 -73 81 -131 150 l-108 125 64 5 c60 5
63 6 69 35 3 17 4 42 1 58 -2 15 -2 27 1 27 6 0 92 -98 177 -201 37 -45 175
-186 211 -216 6 -4 56 -55 112 -113 56 -58 122 -122 146 -143 24 -21 65 -68
92 -105 26 -37 62 -86 79 -109 29 -41 50 -55 50 -33 0 11 -93 172 -122 210
-10 14 -39 56 -64 93 -51 78 -140 192 -224 287 -31 36 -106 121 -167 190 -60
69 -125 143 -144 164 -19 22 -60 69 -93 105 -32 36 -75 86 -94 111 -20 25 -63
75 -97 111 -82 91 -145 166 -145 173 0 18 57 -34 286 -261z m-2101 209 c1 -42
-19 -35 -23 7 -3 24 0 32 10 29 7 -3 13 -19 13 -36z m3553 -39 c143 -150 240
-311 307 -507 38 -113 65 -234 64 -296 0 -28 -5 -18 -23 45 -37 128 -55 175
-97 259 -81 160 -178 308 -292 444 -53 65 -57 72 -46 96 7 14 14 26 17 26 3 0
34 -30 70 -67z m-444 -70 c35 -38 75 -81 88 -98 12 -16 27 -35 33 -41 138
-146 330 -442 383 -594 45 -127 52 -154 52 -186 0 -17 4 -34 9 -39 27 -31 43
-424 21 -521 -15 -61 -51 -156 -58 -150 -2 3 3 28 12 56 34 104 31 424 -6 580
-18 76 -58 201 -89 275 -16 39 -29 74 -29 78 0 25 -151 228 -287 388 -87 101
-176 207 -198 234 -75 92 -72 85 -32 85 31 0 44 -9 101 -67z m247 29 c68 -72
180 -219 219 -290 8 -15 30 -49 49 -75 61 -89 147 -291 171 -401 5 -22 16 -75
26 -116 25 -113 26 -479 1 -535 l-17 -40 5 50 c21 214 18 267 -30 505 -21 105
-49 193 -107 335 -44 108 -234 383 -357 515 l-83 90 43 0 c38 0 49 -6 80 -38z
m-4631 -52 c0 -5 -5 -10 -11 -10 -5 0 -7 5 -4 10 3 6 8 10 11 10 2 0 4 -4 4
-10z m3135 -88 l39 -44 -28 4 c-22 2 -38 16 -63 52 -18 26 -33 52 -33 58 0 13
38 -18 85 -70z m-3107 56 c-2 -6 -10 -14 -16 -16 -7 -2 -10 2 -6 12 7 18 28
22 22 4z m2412 -28 c0 -20 -29 -35 -42 -22 -10 10 20 54 33 47 5 -4 9 -14 9
-25z m-3577 -7 c-7 -20 -54 -72 -65 -73 -15 0 -8 16 23 53 32 39 53 49 42 20z
m1187 -33 c0 -28 -3 -30 -35 -30 -42 0 -44 11 -9 39 36 28 44 26 44 -9z m-516
-321 c-9 -10 -14 -25 -11 -33 4 -9 1 -13 -7 -10 -16 6 -135 -112 -205 -205
-91 -120 -101 -135 -101 -151 0 -9 -4 -20 -9 -26 -8 -8 -34 -99 -64 -221 -8
-31 -15 -43 -29 -43 -18 0 -18 -1 -23 -113 -1 -15 -7 -33 -13 -39 -19 -19 -16
175 3 212 11 22 14 46 9 99 -8 82 0 121 24 121 11 0 35 31 67 83 27 45 55 88
62 95 7 7 13 19 13 26 0 7 12 23 26 37 14 13 35 39 47 59 19 32 110 142 191
229 l31 35 3 -68 c2 -53 -1 -73 -14 -87z m612 -39 l143 0 -22 -23 c-12 -13
-27 -20 -32 -16 -12 9 -158 -97 -182 -131 -15 -21 -15 -24 2 -36 10 -8 15 -20
11 -29 -3 -9 0 -24 6 -35 10 -16 8 -23 -15 -44 -15 -14 -27 -32 -27 -39 0 -8
-8 -25 -19 -38 -16 -20 -21 -21 -35 -10 -14 12 -16 11 -16 -8 0 -12 6 -21 15
-21 12 0 14 -7 9 -27 -6 -25 -4 -24 22 12 16 22 35 52 43 67 7 15 75 89 150
166 75 77 150 155 168 174 27 31 38 36 90 40 32 3 66 2 76 -1 16 -6 12 -13
-28 -52 -26 -24 -61 -60 -79 -79 -17 -19 -83 -89 -147 -155 -64 -66 -138 -145
-165 -175 -27 -30 -61 -67 -74 -81 -39 -40 -115 -129 -118 -140 -4 -10 6 -11
30 -1 9 4 108 97 221 207 112 111 217 209 233 220 16 10 44 33 63 52 19 18 40
33 48 33 7 0 13 4 13 10 0 16 61 80 91 96 33 17 43 18 34 4 -14 -23 17 -7 49
25 33 33 39 35 102 35 l67 0 -47 -42 c-26 -24 -106 -100 -179 -170 -72 -71
-137 -128 -144 -128 -7 0 -16 -6 -20 -13 -4 -8 -29 -26 -55 -41 -25 -15 -48
-33 -51 -40 -3 -7 -17 -16 -31 -20 -22 -5 -100 -63 -211 -155 -11 -9 -49 -40
-85 -70 -36 -29 -78 -69 -93 -87 -16 -19 -35 -34 -43 -34 -14 0 -25 32 -21 64
3 25 -68 52 -90 34 -8 -6 -37 -11 -64 -9 -62 3 -99 33 -99 80 0 33 30 111 42
111 5 0 8 7 8 15 0 30 81 134 197 252 95 97 111 120 89 129 -15 6 -72 -20 -78
-35 -1 -5 -48 -56 -103 -113 -55 -57 -118 -130 -139 -163 -22 -33 -42 -62 -46
-65 -3 -3 -15 -21 -27 -40 -11 -19 -49 -83 -84 -141 -35 -58 -79 -138 -98
-177 -38 -78 -56 -89 -66 -42 -6 29 9 128 25 159 4 9 16 42 26 74 25 78 69
143 227 337 7 8 36 51 66 95 29 44 76 105 105 135 29 30 58 65 64 77 14 25 47
33 111 27 24 -2 108 -4 187 -4z m-417 -17 c-28 -38 -107 -106 -162 -143 -33
-21 -54 -40 -49 -44 6 -3 17 -3 25 0 8 3 17 1 20 -3 5 -8 -9 -32 -115 -192
-46 -70 -86 -152 -128 -261 -18 -47 -39 -99 -46 -117 -8 -17 -14 -36 -14 -42
0 -12 -18 -47 -37 -71 -6 -8 -15 -30 -20 -49 -11 -41 -30 -52 -35 -19 -6 47
11 226 31 309 22 96 35 130 66 174 11 16 25 37 30 46 6 9 36 56 68 104 32 48
61 93 64 101 3 8 11 14 18 14 8 0 28 26 46 58 18 31 55 78 82 105 48 45 51 47
109 47 56 0 59 -1 47 -17z m971 14 c0 -2 -10 -12 -21 -23 -22 -19 -22 -19 -8
4 12 19 29 30 29 19z m344 -59 c-32 -35 -94 -94 -136 -132 -43 -38 -78 -75
-78 -83 0 -10 -6 -13 -17 -9 -12 5 -43 -21 -117 -96 -56 -57 -132 -130 -170
-163 -38 -33 -74 -64 -80 -70 -56 -50 -185 -154 -203 -163 -12 -7 -27 -18 -35
-24 -46 -44 -193 -128 -224 -128 -34 0 -17 49 33 95 40 37 128 113 173 150 25
20 76 64 113 98 38 34 81 69 95 77 57 33 118 73 137 91 11 10 58 51 105 92 47
41 144 131 215 200 l130 127 59 0 59 0 -59 -62z m285 5 c-34 -32 -70 -61 -80
-65 -11 -4 -19 -16 -19 -27 0 -21 -54 -81 -73 -81 -7 0 -37 -34 -67 -75 -30
-41 -60 -75 -67 -75 -7 0 -34 -22 -60 -50 -26 -27 -52 -50 -58 -50 -6 0 -16
-9 -23 -20 -7 -11 -16 -20 -21 -20 -4 0 -28 -19 -53 -42 -24 -24 -62 -57 -84
-74 -21 -18 -67 -56 -102 -85 -35 -30 -80 -67 -100 -82 -20 -15 -61 -51 -91
-81 -31 -29 -69 -61 -86 -72 -16 -10 -34 -23 -40 -27 -54 -44 -173 -127 -182
-127 -19 0 -25 19 -11 35 32 39 41 45 58 45 10 0 25 8 32 18 7 9 25 23 40 31
15 8 30 22 33 32 3 10 12 19 20 21 21 5 278 252 266 256 -18 6 -13 23 15 48
35 33 50 30 25 -5 -31 -43 -26 -46 19 -11 25 20 40 40 40 54 0 37 482 526 519
526 5 0 14 14 21 30 l12 30 90 0 89 0 -62 -57z m1132 -80 c84 -69 252 -238
312 -314 23 -30 72 -83 107 -119 36 -36 124 -126 196 -200 193 -200 279 -277
405 -362 181 -122 354 -203 496 -233 17 -3 36 -12 42 -19 6 -7 25 -13 43 -14
78 -4 133 -17 133 -32 0 -12 -18 -16 -85 -18 -47 -2 -101 1 -120 7 -19 5 -48
13 -64 16 -23 5 -27 9 -16 15 8 5 25 7 36 4 12 -3 25 -1 28 5 8 13 -62 15 -81
3 -19 -12 -82 -2 -77 12 3 8 -16 16 -54 24 -32 7 -78 22 -103 33 -24 12 -66
30 -94 39 -27 10 -49 23 -47 29 1 6 -5 11 -14 11 -16 0 -143 79 -178 112 -27
25 -39 22 -25 -4 20 -38 110 -127 158 -157 25 -15 62 -38 81 -50 l35 -23 -44
7 c-41 5 -140 63 -150 87 -1 5 -18 26 -37 46 -19 20 -34 41 -34 45 0 5 -26 36
-58 70 -124 132 -241 259 -342 372 -58 65 -125 139 -149 164 -24 25 -96 109
-161 186 -65 77 -153 175 -194 218 -42 44 -76 83 -76 87 0 10 30 19 48 14 7
-2 44 -29 83 -61z m-1562 -710 c-10 -17 -84 -78 -118 -97 -9 -5 11 18 44 52
58 59 99 84 74 45z m3751 -242 c-1 -9 -7 -29 -15 -46 l-13 -30 -1 52 c-1 43 2
51 14 47 8 -4 15 -14 15 -23z"/>
<path d="M7812 6207 c-6 -7 -7 -18 -3 -26 7 -10 10 -8 16 8 8 27 2 36 -13 18z"/>
<path d="M7760 6175 c-16 -19 -5 -54 12 -37 14 14 21 52 9 52 -5 0 -14 -7 -21
-15z"/>
<path d="M7735 5880 c-3 -5 -2 -10 4 -10 5 0 13 5 16 10 3 6 2 10 -4 10 -5 0
-13 -4 -16 -10z"/>
<path d="M7960 5840 c0 -6 7 -10 15 -10 8 0 15 2 15 4 0 2 -7 6 -15 10 -8 3
-15 1 -15 -4z"/>
<path d="M7930 5804 c0 -8 5 -12 10 -9 6 3 10 10 10 16 0 5 -4 9 -10 9 -5 0
-10 -7 -10 -16z"/>
<path d="M5026 3064 c-4 -10 -1 -14 6 -12 15 5 23 28 10 28 -5 0 -13 -7 -16
-16z"/>
<path d="M5158 2072 c-36 -27 -65 -62 -51 -62 10 1 40 27 72 63 31 34 26 34
-21 -1z"/>
<path d="M2930 1893 c0 -4 5 -15 10 -23 8 -13 10 -13 10 2 0 9 -4 20 -10 23
-5 3 -10 3 -10 -2z"/>
<path d="M4439 2358 c-12 -23 -12 -23 10 -4 23 21 26 26 11 26 -5 0 -15 -10
-21 -22z"/>
<path d="M4914 2265 c-35 -36 -64 -70 -64 -76 0 -13 117 98 131 124 18 32 -3
17 -67 -48z"/>
<path d="M4530 1925 c-7 -8 -8 -15 -2 -15 5 0 15 7 22 15 7 8 8 15 2 15 -5 0
-15 -7 -22 -15z"/>
<path d="M3840 7821 c0 -8 14 -12 116 -27 62 -9 65 12 4 25 -62 13 -120 14
-120 2z"/>
<path d="M5250 6776 c0 -9 5 -16 10 -16 6 0 10 4 10 9 0 6 -4 13 -10 16 -5 3
-10 -1 -10 -9z"/>
<path d="M5290 6742 c0 -12 19 -26 26 -19 2 2 -2 10 -11 17 -9 8 -15 8 -15 2z"/>
<path d="M5340 6690 c0 -5 5 -10 11 -10 5 0 7 5 4 10 -3 6 -8 10 -11 10 -2 0
-4 -4 -4 -10z"/>
<path d="M8851 6444 c0 -11 3 -14 6 -6 3 7 2 16 -1 19 -3 4 -6 -2 -5 -13z"/>
<path d="M5570 6401 c0 -16 129 -123 140 -116 15 9 -6 35 -60 77 -49 37 -80
52 -80 39z"/>
<path d="M8470 5845 c-19 -19 -31 -35 -27 -35 21 0 87 42 87 55 0 24 -23 17
-60 -20z"/>
<path d="M8657 5753 c-4 -3 -7 -11 -7 -17 0 -6 5 -5 12 2 6 6 9 14 7 17 -3 3
-9 2 -12 -2z"/>
<path d="M8870 5685 c-7 -9 -8 -15 -2 -15 5 0 12 7 16 15 3 8 4 15 2 15 -2 0
-9 -7 -16 -15z"/>
<path d="M7917 785 c-32 -7 -61 -16 -65 -20 -4 -5 1 -5 11 -2 10 4 40 7 67 7
33 0 50 5 54 15 3 8 2 15 -2 14 -4 -1 -33 -7 -65 -14z"/>
<path d="M7798 753 c6 -2 18 -2 25 0 6 3 1 5 -13 5 -14 0 -19 -2 -12 -5z"/>
</g>
</svg>
