<?xml version="1.0" encoding="UTF-8" standalone="no"?>
<!-- Generator: Adobe Illustrator 21.0.0, SVG Export Plug-In . SVG Version: 6.00 Build 0)  -->

<svg
   xmlns:dc="http://purl.org/dc/elements/1.1/"
   xmlns:cc="http://creativecommons.org/ns#"
   xmlns:rdf="http://www.w3.org/1999/02/22-rdf-syntax-ns#"
   xmlns:svg="http://www.w3.org/2000/svg"
   xmlns="http://www.w3.org/2000/svg"
   xmlns:sodipodi="http://sodipodi.sourceforge.net/DTD/sodipodi-0.dtd"
   xmlns:inkscape="http://www.inkscape.org/namespaces/inkscape"
   version="1.1"
   id="Capa_1"
   x="0px"
   y="0px"
   viewBox="0 0 512 512"
   style="enable-background:new 0 0 512 512;"
   xml:space="preserve"
   width="512"
   height="512"
   sodipodi:docname="logo.svg"
   inkscape:export-filename="C:\Users\cubie\OneDrive\3D Druck\programms\MainSail\mainsail\public\img\icons\favicon-16x16.png"
   inkscape:export-xdpi="3"
   inkscape:export-ydpi="3"
   inkscape:version="0.92.4 (5da689c313, 2019-01-14)"><metadata
   id="metadata95"><rdf:RDF><cc:Work
       rdf:about=""><dc:format>image/svg+xml</dc:format><dc:type
         rdf:resource="http://purl.org/dc/dcmitype/StillImage" /></cc:Work></rdf:RDF></metadata><defs
   id="defs93" /><sodipodi:namedview
   pagecolor="#ffffff"
   bordercolor="#666666"
   borderopacity="1"
   objecttolerance="10"
   gridtolerance="10"
   guidetolerance="10"
   inkscape:pageopacity="0"
   inkscape:pageshadow="2"
   inkscape:window-width="1920"
   inkscape:window-height="986"
   id="namedview91"
   showgrid="false"
   inkscape:zoom="0.4609375"
   inkscape:cx="256"
   inkscape:cy="256"
   inkscape:window-x="-11"
   inkscape:window-y="-11"
   inkscape:window-maximized="1"
   inkscape:current-layer="Capa_1" />
<g
   id="g88"
   inkscape:export-xdpi="36.75"
   inkscape:export-ydpi="36.75">
	<g
   id="g40">
		<g
   id="g38">
			<g
   id="g36">
				<g
   id="g34">
					<g
   id="g32">
						<g
   id="g30">
							<g
   id="g28">
								<g
   id="g26">
									<g
   id="g24">
										<g
   id="g22">
											<g
   id="g20">
												<g
   id="g18">
													<g
   id="g16">
														<g
   id="g14">
															<g
   id="g12">
																<g
   id="g10">
																	<g
   id="g8">
																		<g
   id="g6">
																			<g
   id="g4">
																				<circle
   style="fill:#8799B3;"
   cx="256"
   cy="256"
   r="256"
   id="circle2" />
																			</g>
																		</g>
																	</g>
																</g>
															</g>
														</g>
													</g>
												</g>
											</g>
										</g>
									</g>
								</g>
							</g>
						</g>
					</g>
				</g>
			</g>
		</g>
	</g>
	<path
   style="fill:#5B6D7F;"
   d="M512,256c0-0.964-0.026-1.922-0.036-2.884L369.848,111c0,0-225.246,92.995-221.359,96.616   c0.322,0.345,81.655,81.678,82,82c0.008,0.008,0.023,20.759,0.023,20.759s41.456,45.153,41.615,45.313H133.656   C133,356,118,395,118.155,394.845c0.179,0.191,61.591,61.607,116.223,116.238C241.508,511.679,248.716,512,256,512   C397.385,512,512,397.385,512,256z"
   id="path42" />
	<g
   id="g86">
		<path
   style="fill:#FF728B;"
   d="M401,401H133.656C121.164,401,111,390.836,111,378.344s10.164-22.656,22.656-22.656h244.688    c3.123,0,5.664-2.541,5.664-5.664s-2.541-5.664-5.664-5.664H270.16c-12.492,0-22.656-10.164-22.656-22.656v-19.824h16.992v19.824    c0,3.123,2.541,5.664,5.664,5.664h108.184c12.492,0,22.656,10.164,22.656,22.656s-10.164,22.656-22.656,22.656H133.656    c-3.123,0-5.664,2.541-5.664,5.664s2.541,5.664,5.664,5.664H401V401z"
   id="path44" />
		<g
   id="g50">
			<rect
   x="256"
   y="384.008"
   style="fill:#EA348B;"
   width="145"
   height="16.992"
   id="rect46" />
			<path
   style="fill:#EA348B;"
   d="M378.344,327.367H270.16c-3.123,0-5.664-2.541-5.664-5.664v-19.824H256v37.491     c3.882,3.118,8.805,4.989,14.16,4.989h108.184c3.123,0,5.664,2.541,5.664,5.664s-2.541,5.664-5.664,5.664H256v16.992h122.344     c12.492,0,22.656-10.164,22.656-22.656S390.836,327.367,378.344,327.367z"
   id="path48" />
		</g>
		<path
   style="fill:#466288;"
   d="M281.488,310.375h-50.977v-50.977h50.977V310.375z"
   id="path52" />
		<rect
   x="256"
   y="259.398"
   style="fill:#243145;"
   width="25.488"
   height="50.977"
   id="rect54" />
		<path
   style="fill:#243145;"
   d="M270.16,276.391h-28.32c-17.177,0-31.152-13.975-31.152-31.152v-19.824h90.625v19.824    C301.313,262.416,287.338,276.391,270.16,276.391z"
   id="path56" />
		<path
   style="fill:#121924;"
   d="M256,276.391h14.16c17.177,0,31.152-13.975,31.152-31.152v-19.824H256V276.391z"
   id="path58" />
		<path
   style="fill:#DAE0E7;"
   d="M350.023,212.953H161.977c-10.931,0-19.824-8.893-19.824-19.824V111h227.695v82.129    C369.848,204.06,360.954,212.953,350.023,212.953z"
   id="path60" />
		<path
   style="fill:#BEC8D6;"
   d="M256,111v101.953h94.023c10.931,0,19.824-8.893,19.824-19.824V111H256z"
   id="path62" />
		<path
   style="fill:#466288;"
   d="M306.977,242.406H205.023c-10.931,0-19.824-8.893-19.824-19.824v-65.137h141.602v65.137    C326.801,233.513,317.908,242.406,306.977,242.406z"
   id="path64" />
		<path
   style="fill:#243145;"
   d="M256,157.445v84.961h50.977c10.931,0,19.824-8.893,19.824-19.824v-65.137H256z"
   id="path66" />
		<circle
   style="fill:#3897FF;"
   cx="284.32"
   cy="199.926"
   r="8.496"
   id="circle68" />
		<g
   id="g76">
			<rect
   x="247.504"
   y="111"
   style="fill:#A3B1C4;"
   width="16.992"
   height="29.453"
   id="rect70" />
			<rect
   x="213.52"
   y="111"
   style="fill:#A3B1C4;"
   width="16.992"
   height="29.453"
   id="rect72" />
			<rect
   x="179.535"
   y="111"
   style="fill:#A3B1C4;"
   width="16.992"
   height="29.453"
   id="rect74" />
		</g>
		<g
   id="g84">
			<rect
   x="281.488"
   y="111"
   style="fill:#8799B3;"
   width="16.992"
   height="29.453"
   id="rect78" />
			<rect
   x="315.473"
   y="111"
   style="fill:#8799B3;"
   width="16.992"
   height="29.453"
   id="rect80" />
			<rect
   x="256"
   y="111"
   style="fill:#8799B3;"
   width="8.496"
   height="29.453"
   id="rect82" />
		</g>
	</g>
</g>















</svg>