<?xml version="1.0" encoding="UTF-8"?>
<svg width="16" height="16" fill="none" version="1.1" viewBox="0 0 16 16" xmlns="http://www.w3.org/2000/svg"><path class="cls-1" d="m9.2411 1.0308a.90423.90423 0 00-.09715.14352.71122.71122 0 01-.08832.13469.76405.76405 0 00-.08832.13248.69069.69069 0 01-.07949.11924.92241.92241 0 00-.07728.11482.9138.9138 0 01-.13027.18989.39392.39392 0 00-.0552.08391 3.9975 3.9975 0 01-.24068.36653.5964.5964 0 00-.0552.08832.88907.88907 0 01-.0552.08832c-.01546.01325-.27159.39524-.28925.43057a2.5009 2.5009 0 01-.1656.24509.88792.88792 0 00-.06624.10378c-.02429.04416-.05078.0817-.05962.0817-.01104 0-.01766.01546-.01766.03312 0 .01767-.0088.03312-.02208.03312a.021784.021784 0 00-.02208.01987c0 .01546-.39082.61604-.41953.64254a.76017.76017 0 00-.08611.14352.21433.21433 0 01-.0552.07507.092211.092211 0 00-.03533.05078.17286.17286 0 01-.04416.06624.16667.16667 0 00-.04416.07728c0 .01546-.0088.02871-.01766.02871-.01987 0-.08832.1104-.08832.14132a.041564.041564 0 01-.02208.03312c-.03091.01987-.18106.24068-.18106.26717a.02006.02006 0 01-.01767.02208c-.0088 0-.03533.03754-.05962.0817a.88791.88791 0 01-.06624.10378 1.2079 1.2079 0 00-.09715.14352 1.3047 1.3047 0 01-.09715.14573c-.02208.02429-.12144.17223-.22522.34004-.09274.14794-.28925.43498-.3025.4394a.017424.017424 0 00-.0044.0287c.0066.01105.0022.01987-.0066.01987-.01104 0-.03754.03533-.05962.07728-.02429.04195-.05078.07728-.06182.07728-.01105 0-.01546.0088-.0066.01987a.028289.028289 0 01-.0088.03533c-.03091.01766-.15677.20756-.15677.23405a.019789.019789 0 01-.01987.01987c-.01104 0-.0287.01987-.03533.04416a.19727.19727 0 01-.03974.07066 1.4846 1.4846 0 00-.10378.15015c-.04195.06624-.0817.12586-.08832.13248-.0066.0066-.04637.06624-.08832.13248a.7894.7894 0 01-.09274.12806.041497.041497 0 00-.01766.03754.041497.041497 0 01-.01766.03754.69037.69037 0 00-.09274.12806c-.04195.06624-.08391.13028-.09495.14352-.0088.01105-.08832.13248-.17664.26717-.33341.51226-.37316.57188-.39303.57851a.034023.034023 0 00-.01987.0287c0 .02429-.1921.32016-.2473.38199a.15037.15037 0 00-.03974.07286.049837.049837 0 01-.03313.04196c-.01766.0088-.02871.02208-.02208.03091.0044.0088-.0088.03312-.03312.0552a.1275.1275 0 00-.04416.07066.027147.027147 0 01-.02429.02871.012177.012177 0 00-.01105.01987.018592.018592 0 01-.0044.02871c-.01105.0022-.10819.14131-.21639.30471-.10819.1634-.20314.3025-.21197.30471a.031827.031827 0 00-.01766.0287.61327.61327 0 01-.07728.13027.55743.55743 0 00-.07728.13248.021809.021809 0 01-.01767.02208c-.01104 0-.03312.0265-.05079.05962a.46019.46019 0 01-.04195.07286c-.0066.0066-.05299.07507-.10598.15456-.05078.07949-.10819.16339-.12365.18768-.09936.13911-.18989.28263-.18989.30029a.020388.020388 0 01-.02208.01987c-.01104 0-.02208.01546-.02208.03312s-.0088.03312-.02208.03312c-.01105 0-.02208.01546-.02208.03312s-.0088.03312-.02208.03312c-.01104 0-.02208.01325-.02208.03091a.047875.047875 0 01-.01545.03974.47797.47797 0 00-.11703.17223.022127.022127 0 01-.02208.02208c-.01104 0-.02208.01546-.02208.03312s-.0088.03312-.02208.03312a.023745.023745 0 00-.02208.02208c0 .02429-.07507.13911-.12586.19431a.10617.10617 0 00-.0287.06182c0 .01766-.0088.03091-.01766.03091-.01104 0-.03754.03533-.06183.07728-.02208.04195-.04858.07728-.05741.07728a.018034.018034 0 00-.01766.01987 1.772 1.772 0 01-.14352.23405 1.6281 1.6281 0 00-.14352.23405.019467.019467 0 01-.01766.01987c-.01104 0-.03312.0265-.05078.05962a.31022.31022 0 01-.04416.07287 1.3771 1.3771 0 00-.15235.24509.020389.020389 0 01-.02208.01987c-.01105 0-.03533.03533-.05299.07728s-.04416.07728-.05741.07728-.01987.0088-.01325.01767c.0066.01104-.01546.04637-.04858.0817s-.05741.06845-.05299.07066a1.358 1.358 0 01-.12807.20535c-.01325.01325-.13911.20093-.15456.23184-.03091.06403-.58513.88322-.60059.88984a.036489.036489 0 00-.01766.0287 1.5134 1.5134 0 01-.12144.19872c-.06845.09936-.11923.18548-.11261.18989.01105.01104 3.2061.03754 3.5152.03091.03091-.0022.05741-.02429.07507-.06845.01546-.03754.03533-.06624.04637-.06624a.021784.021784 0 00.01987-.02208.47797.47797 0 01.11703-.17223.041375.041375 0 00.01546-.03533c0-.02429.01987-.05299.10819-.15898.01104-.01546.01546-.03312.0088-.03974-.0088-.0066-.0022-.01325.01104-.01325a.030189.030189 0 00.0265-.03312.070728.070728 0 01.03533-.05079c.01987-.01104.03533-.0287.03533-.03974a1.1528 1.1528 0 01.12807-.20756.66369.66369 0 00.05299-.08832.88877.88877 0 01.0552-.08832 1.0397 1.0397 0 00.11261-.1634 2.5726 2.5726 0 01.14352-.2208 1.5398 1.5398 0 00.14352-.23184.031825.031825 0 01.01766-.02871.67267.67267 0 00.11482-.16119.10351.10351 0 01.02429-.03974c.01105-.01546.07287-.10598.1369-.20314.06182-.09715.11702-.18106.12586-.18768a.52117.52117 0 00.04195-.07066.45731.45731 0 01.07287-.10378.2209.2209 0 00.03974-.0552c0-.01987.42615-.66241.44823-.67787.01104-.0066.01546-.01987.01104-.0265a.091934.091934 0 01.0287-.0552 1.1468 1.1468 0 00.07728-.1104c.02208-.03974.04858-.07066.05962-.07066.0088 0 .01325-.0088.0044-.01987-.0066-.01104.0022-.03312.01766-.05079.04858-.04858.17002-.23405.17002-.25834a.024184.024184 0 01.02208-.02429c.01325 0 .02208-.01546.02208-.03312s.01104-.03312.02208-.03312c.01325 0 .02208-.01325.02208-.03091a.048492.048492 0 01.01766-.03974.41011.41011 0 00.07066-.09494c.0287-.04858.06182-.09936.07066-.1104.03312-.03975.30471-.45706.30471-.4659a2.2982 2.2982 0 01.17002-.24509.23011.23011 0 00.03974-.07287c.0066-.02429.02208-.04416.03312-.04416.0088 0 .02208-.01766.03091-.03974a.5111.5111 0 01.0817-.1369c.0066-.0066.07066-.10378.14352-.2186.07066-.11261.14794-.22522.16781-.2473.02208-.02429.03533-.04195.0287-.04195a.44815.44815 0 01.06624-.1104.55744.55744 0 00.07728-.13248.020059.020059 0 01.01766-.02208.31269.31269 0 00.07066-.09936.31267.31267 0 01.07066-.09936c.01104 0 .01766-.01325.01766-.0287a.1275.1275 0 01.04416-.07066.1275.1275 0 00.04416-.07066.027225.027225 0 01.02208-.02871.022126.022126 0 00.02208-.02208c0-.02429.10378-.1921.14794-.23847a.19728.19728 0 00.03974-.07066c.0066-.02429.02208-.04416.03091-.04416.01105 0 .03091-.0287.04637-.06624s.03533-.06624.04416-.06624c.0088 0 .02871-.02871.04416-.06624.01546-.03754.03533-.06624.04416-.06624.0088 0 .0287-.03091.04416-.06624.01546-.03754.03754-.06624.04858-.06624s.01325-.01105.0066-.02208c-.0066-.01325-.0066-.02208.0044-.02208a.42838.42838 0 00.08391-.1104c.03533-.06182.07287-.1104.0839-.1104.0088 0 .01325-.0088.0066-.01987-.0066-.0088.0066-.03533.03091-.05741a.13212.13212 0 00.04416-.06403.21749.21749 0 01.0552-.08611c.03091-.03312.05078-.05962.04637-.05962-.01104 0 .29146-.4659.34004-.5233a.1115.1115 0 00.02208-.05078.023745.023745 0 01.02208-.02208c.01325 0 .02208-.01546.02208-.03312s.01104-.03312.02208-.03312a.022126.022126 0 00.02208-.02208.55744.55744 0 01.07728-.13248.87438.87438 0 00.07728-.12144.2178.2178 0 01.04416-.05962.16667.16667 0 00.04416-.07729.027147.027147 0 01.02429-.02871c.01105 0 .01766-.0088.01105-.01766-.0066-.01105.0088-.03091.03091-.04858.02208-.01767.03754-.03754.03312-.04416-.0066-.0088.0088-.03312.03312-.0552a.14814.14814 0 00.04416-.05741 3.1156 3.1156 0 01.17223-.27821c.09715-.14352.27159-.4107.39082-.59175a4.1565 4.1565 0 01.24068-.34666c.01325-.0088.01546-.01767.0044-.01767-.01104 0-.0044-.01766.01325-.03974.03312-.03974.03533-.05741.0066-.12586-.09495-.22743-.1656-.41953-.1656-.44382 0-.01766-.0088-.03091-.02208-.03091-.01104 0-.01987-.0066-.01766-.01766.0066-.02871-.05741-.21418-.07949-.22964-.01325-.0088-.01546-.02208-.0066-.03091a.030961.030961 0 00-.0044-.03974 3.7643 3.7643 0 01-.14352-.41732c-.0044-.01546-.01325-.04416-.01987-.06624-.0088-.01987-.02208-.0552-.03091-.07728-.0066-.01987-.01546-.05299-.01987-.07066a2.7459 2.7459 0 00-.07949-.26717.49912.49912 0 01-.02429-.10378c-.0022-.0265-.0088-.04858-.01546-.04858-.0088 0-.01546-.01325-.01767-.02871a.37958.37958 0 00-.01325-.07066c-.0066-.02429-.03312-.12807-.0552-.23184-.02429-.10378-.04416-.18989-.04637-.19431-.0044-.0022-.0066-.01104-.0088-.02208-.01105-.04416-.04195-.19431-.04637-.21418a.22525.22525 0 00-.0088-.03312 1.0144 1.0144 0 01-.03091-.17664.93219.93219 0 00-.02429-.11261.11552.11552 0 01-.01104-.0552.068072.068072 0 00-.0022-.03091 1.1194 1.1194 0 01-.03091-.17664.35201.35201 0 00-.01325-.07728 1.1057 1.1057 0 01-.02429-.19431.11521.11521 0 00-.02429-.07287c-.01104-.0066-.0088-.02649.0044-.04195.04858-.05741-.01766-.05299-.06845.0066zm1.9122 5.5709c-.02429.03754-.05962.09053-.07728.11702-.01767.0265-.0552.08391-.0817.12586-.06182.09274-.07286.1104-.18327.26938a1.1752 1.1752 0 00-.08832.13911.10036.10036 0 01-.02429.03754c-.01104.01546-.13911.20535-.28484.42394-.14352.2186-.27159.40849-.28484.42394a.10036.10036 0 00-.02429.03754 1.1826 1.1826 0 01-.15898.22964.048492.048492 0 00-.01766.03974.027947.027947 0 01-.02429.03091.012177.012177 0 00-.01104.01987.018464.018464 0 01-.0022.02871c-.0265.01104-.16118.20976-.16118.23626a.074893.074893 0 01-.03754.04416c-.02208.01325-.03091.02429-.02208.02429.0088 0-.0022.02208-.0287.04858a.16667.16667 0 00-.04416.07728c0 .01546-.0066.02871-.01545.02871-.01105 0-.04637.05078-.08391.11261a1.3794 1.3794 0 01-.08832.13911 1.0554 1.0554 0 00-.12144.17885.10908.10908 0 01-.0265.04416c-.06403.07066-.0817.09494-.07287.10378.0044.0044-.01546.03754-.04416.07066a.27777.27777 0 00-.0552.07949.21362.21362 0 01-.04416.06624.17632.17632 0 00-.04416.0817c0 .01766-.0088.0265-.01987.01987-.01104-.0066-.0265.01104-.03312.04195-.0088.03091-.02429.0552-.03533.0552a.022126.022126 0 00-.02208.02208.50158.50158 0 01-.11482.17223.031149.031149 0 00-.01766.0265c0 .0265-.1369.22964-.15898.23847a.037176.037176 0 00-.01766.03091c0 .02429-.13469.22301-.15898.23405a.031826.031826 0 00-.01766.0287c0 .03091-.16119.26276-.18327.26276-.0088 0-.01325.0088-.0044.01987.0066.01104-.0022.03312-.01546.05078a2.4583 2.4583 0 00-.15015.21639c-.06624.10378-.12586.1921-.13248.19872a1.4327 1.4327 0 00-.1104.1656c-.03312.06403-1.0267 1.5478-1.0466 1.5611-.01325.0088-.01546.01766-.0044.01766.01104 0 .0022.02208-.02208.04858-.05299.05962-.15677.2208-.15898.24509 0 .01104-.02429.03754-.05078.06182-.0265.02208-.03974.04195-.03091.04195.01104 0-.0044.02429-.03312.0552-.0287.03091-.04195.0552-.03091.0552s.0088.0088-.0022.01766a1.0898 1.0898 0 00-.16339.22964c-.01766.03533-.03974.06182-.05078.06182a.020204.020204 0 00-.01766.02208.57352.57352 0 01-.07286.12586.96889.96889 0 00-.08832.14352c-.0088.02208-.02429.03974-.03753.03974-.01104 0-.02208.01546-.02208.03312s-.0088.03312-.02208.03312a.021784.021784 0 00-.02208.01987 2.0724 2.0724 0 01-.16781.26717c-.09053.1369-.16119.25172-.15677.25834.01104.0088 1.1062.02208 2.7402.0287.74852.0044.79268.0022.82801-.03754a.84207.84207 0 00.10598-.16119.35772.35772 0 01.0552-.07508c.01987-.02208.03312-.05078.02649-.06182-.0066-.0088-.0022-.01766.01105-.01766s.03975-.03312.05962-.07287a.39438.39438 0 01.05299-.0817 1.5405 1.5405 0 00.09053-.13911.47392.47392 0 01.09053-.12586c.01105 0 .01766-.01546.01766-.03312s.01104-.03312.02429-.03312a.012178.012178 0 00.01104-.01987.018464.018464 0 01.0022-.02871.47796.47796 0 00.11702-.17222.023745.023745 0 01.02208-.02208c.01325 0 .02208-.01546.02208-.03312 0-.01767.0088-.03312.01766-.03312.01104 0 .03091-.02208.04637-.05078a1.1951 1.1951 0 01.06845-.11482 1.2028 1.2028 0 00.06845-.11703c.01546-.02649.03533-.04858.04637-.04858.0088 0 .01767-.01325.01767-.0287a.15036.15036 0 01.03974-.07286.62506.62506 0 00.06845-.10157.65785.65785 0 01.07728-.1104c.0265-.0265.04637-.0552.04416-.06183a2.3419 2.3419 0 01.21859-.32679.034459.034459 0 00.01546-.0287 2.9247 2.9247 0 01.2208-.35108c.0066-.0066.04637-.06624.08832-.13248a.83981.83981 0 01.09936-.1369c.01104-.0088.01325-.01766.0044-.01766-.01104 0-.0044-.01546.01104-.03312.06845-.07507.07949-.09495.06845-.1082-.0088-.0066-.0022-.01325.01104-.01325a.028078.028078 0 00.0265-.03091.048494.048494 0 01.01766-.03975.9237.9237 0 00.11703-.16118.95027.95027 0 01.11261-.16119.036487.036487 0 00.01766-.0287.61326.61326 0 01.07728-.13028.72809.72809 0 00.07728-.12365.12432.12432 0 01.0287-.04195c.01325-.01546.09495-.1369.18106-.26938a2.2618 2.2618 0 01.17002-.24509.017424.017424 0 00.0044-.02871c-.0066-.01104.0044-.0265.02208-.03312.01987-.0066.03533-.02429.03533-.03533a.5186.5186 0 01.07728-.13027c.04195-.05962.07728-.11261.07728-.11482 0-.0088.36653-.56747.39303-.60059.0088-.01325.03754-.05741.06182-.09936a.31375.31375 0 01.07066-.09494.063964.063964 0 00.0265-.03974.2821.2821 0 01.0552-.09495.28484.28484 0 00.0552-.09715c0-.01546.0088-.0265.01766-.0265.01104 0 .03091-.02429.04416-.05299.01987-.04416.01105-.06624-.06403-.1656-.04637-.06182-.07728-.11261-.06845-.11261.0088 0 .0044-.0088-.0088-.01766-.0287-.01766-.22964-.31133-.22964-.33562a.14673.14673 0 00-.04416-.0552.12751.12751 0 01-.04416-.07066c0-.01546-.0088-.0287-.02208-.0287-.01104 0-.02208-.01325-.02208-.03091a.048493.048493 0 00-.01766-.03974 2.1377 2.1377 0 01-.20314-.31575.21782.21782 0 00-.04416-.05962.16668.16668 0 01-.04416-.07728c0-.01546-.0088-.02871-.02208-.02871a.021783.021783 0 01-.02208-.01987.42304.42304 0 00-.06624-.11923.53376.53376 0 01-.06624-.12365.022476.022476 0 00-.01987-.02429c-.01104 0-.02429-.01766-.03091-.03974a.94767.94767 0 00-.10378-.18106.93104.93104 0 01-.06403-.1104 1.1956 1.1956 0 00-.06624-.1104.21869.21869 0 01-.03974-.06624c-.01546-.03091-.07287-.13469-.12807-.23184a1.9126 1.9126 0 01-.11482-.21639c-.0066-.01987-.01987-.03754-.0287-.03754-.01767 0-.07507-.13028-.06845-.16119.0066-.03974-.03533-.0088-.07507.05299zm2.7976 4.2372a.24761.24761 0 00-.04637.07949.037594.037594 0 01-.01766.0287c-.03091.02208-.29367.41732-.29367.44382 0 .01104-.0066.02208-.01546.02208-.01105 0-.05299.05962-.09495.13248a.51926.51926 0 01-.09274.13248c-.01104 0-.01766.01325-.01766.03091a.047872.047872 0 01-.01546.03975c-.02429.0088-.13911.18768-.13911.21418 0 .01104-.01546.02429-.03312.03312a.052805.052805 0 00-.03312.04416c0 .01766-.0066.03533-.01766.03974a.69035.69035 0 00-.09274.12807c-.04195.06624-.0817.12586-.08832.13248a.88628.88628 0 00-.06624.09936 1.1047 1.1047 0 01-.07949.11702.17225.17225 0 00-.04195.07066c-.0066.02429-.02429.04416-.03754.04416s-.01987.0066-.01104.01325c.0066.0088.0022.02649-.01325.04195a.43131.43131 0 00-.05299.06845c-.01546.02429-.07287.1104-.12807.1921a1.0232 1.0232 0 00-.09936.17223.019467.019467 0 01-.01767.01987c-.01104 0-.03312.0265-.05078.05962a.41476.41476 0 01-.04416.07287c-.0066.0066-.1104.15898-.22964.34225-.11924.18106-.22522.33562-.23405.33783a.017762.017762 0 00-.0066.0287.012178.012178 0 01-.01104.01987c-.01325 0-.02429.01546-.02429.03312a.053168.053168 0 01-.03312.04637c-.01766.0088-.0265.02208-.01987.03312a.012178.012178 0 01-.01104.01987.024503.024503 0 00-.02429.02429.20951.20951 0 01-.03754.07507c-.04637.05961-.04637.05961-.26938.39745-.09715.14573-.18768.27821-.20093.29367-.01766.01987.01325.0265.14794.0287.43719.0044 1.9894.01766 2.6541.01987l.73528.0044.05299-.06183a.3742.3742 0 00.05299-.0817.18944.18944 0 01.04416-.06403.16668.16668 0 00.04416-.07728.027148.027148 0 01.02429-.02871c.01105 0 .01766-.0088.01105-.01766-.0066-.01104.0088-.03091.03091-.04858.02208-.01766.03754-.03754.03312-.04416-.0066-.0088.0088-.03312.03312-.0552a.13944.13944 0 00.04416-.06182.25975.25975 0 01.0552-.09274c.0287-.03974.04637-.07728.03974-.08611-.0088-.0066-.0044-.01325.0088-.01325.01325 0 .09495-.11482.18327-.25392.08832-.13911.18106-.2738.20314-.29808.02208-.02429.03533-.04416.03091-.04416-.01766 0 .25392-.40407.28263-.42394.01325-.0088.01546-.01766.0066-.01766-.01104 0 .0022-.0265.0265-.05741a.20429.20429 0 00.04637-.09053c0-.0265-.09936-.1391-.37978-.43057a.9944.9944 0 01-.10598-.11703.26792.26792 0 00-.04858-.05962c-.04858-.04858-.20314-.22522-.37316-.42394-.04195-.04637-.09495-.10598-.11923-.13248-.03533-.03754-.15015-.17002-.30913-.3577-.03312-.03974-.1369-.1656-.37537-.46148-.30912-.37978-.28042-.35549-.33783-.276z" fill="#000" stroke-width=".041486"/></svg>
