<?xml version="1.0" standalone="no"?>
<!DOCTYPE svg PUBLIC "-//W3C//DTD SVG 20010904//EN"
 "http://www.w3.org/TR/2001/REC-SVG-20010904/DTD/svg10.dtd">
<svg version="1.0" xmlns="http://www.w3.org/2000/svg"
 width="599.000000pt" height="599.000000pt" viewBox="0 0 599.000000 599.000000"
 preserveAspectRatio="xMidYMid meet">
<metadata>
Created by potrace 1.14, written by Peter Selinger 2001-2017
</metadata>
<g transform="translate(0.000000,599.000000) scale(0.100000,-0.100000)"
fill="#000000" stroke="none">
<path d="M3359 5488 c-41 -62 -76 -117 -79 -123 -14 -28 -145 -220 -152 -223
-4 -2 -8 -8 -8 -12 0 -7 -399 -618 -470 -720 -6 -8 -57 -87 -115 -175 -57 -88
-108 -164 -112 -170 -20 -25 -63 -96 -63 -104 0 -5 -7 -12 -16 -15 -8 -3 -13
-10 -10 -15 4 -5 2 -11 -2 -13 -5 -1 -38 -48 -74 -103 -35 -55 -131 -201 -213
-325 -81 -124 -179 -272 -217 -330 -82 -124 -54 -82 -243 -368 -85 -129 -188
-286 -229 -350 -42 -65 -80 -122 -85 -128 -5 -7 -30 -43 -54 -80 -24 -38 -136
-208 -248 -379 -113 -170 -250 -380 -306 -465 -56 -85 -105 -159 -110 -165 -5
-5 -20 -28 -33 -50 -13 -22 -27 -42 -30 -45 -4 -3 -9 -9 -11 -15 -2 -5 -40
-64 -83 -130 -139 -211 -382 -580 -388 -590 -5 -8 197 -11 658 -12 l664 0 22
36 c12 20 25 38 28 41 3 3 30 43 60 90 29 47 127 197 217 333 90 136 163 252
163 256 0 5 4 11 8 13 8 3 56 76 289 433 39 60 77 116 83 123 6 6 8 12 5 12
-3 0 2 8 11 18 14 16 247 369 324 492 19 30 37 57 40 60 13 12 100 151 100
159 0 5 3 11 8 13 4 2 55 75 112 163 58 88 108 162 113 163 4 2 7 8 7 13 0 5
50 84 110 175 61 91 110 170 110 175 0 5 5 9 10 9 6 0 10 5 10 10 0 6 5 16 11
23 6 7 62 91 125 187 62 96 118 182 124 190 6 8 31 47 55 85 50 78 44 68 124
187 33 48 61 91 63 95 1 4 38 61 81 126 l78 118 -25 67 c-84 219 -216 665
-261 882 -2 8 -8 35 -14 60 -15 69 -22 102 -27 135 -2 16 -7 39 -11 50 -3 11
-8 31 -10 45 -10 67 -14 88 -22 128 -5 23 -11 45 -13 48 -3 2 -38 -46 -79
-108z"/>
<path d="M4020 3309 c-58 -88 -112 -170 -120 -183 -8 -13 -31 -47 -51 -77 -20
-30 -52 -79 -72 -109 -20 -30 -54 -81 -77 -114 -22 -32 -40 -60 -40 -62 0 -8
-45 -69 -52 -72 -5 -2 -8 -9 -8 -16 0 -7 -9 -21 -20 -31 -11 -10 -20 -21 -20
-25 0 -4 -61 -98 -135 -210 -74 -112 -135 -205 -135 -206 0 -2 -29 -45 -65
-96 -36 -51 -65 -98 -65 -104 0 -7 -7 -15 -16 -18 -9 -4 -14 -9 -11 -12 3 -4
1 -11 -4 -18 -6 -6 -55 -78 -110 -161 -54 -82 -103 -157 -109 -165 -6 -8 -50
-76 -99 -150 -50 -74 -95 -140 -100 -147 -6 -7 -16 -24 -23 -38 -6 -14 -15
-25 -20 -25 -4 0 -8 -4 -8 -9 0 -6 -90 -145 -200 -310 -110 -165 -200 -305
-200 -310 0 -5 -4 -11 -8 -13 -8 -3 -162 -234 -162 -243 0 -3 299 -5 665 -5
625 0 666 1 672 17 4 10 84 135 178 278 94 143 211 322 260 398 50 76 96 145
103 152 6 8 12 16 12 19 0 6 294 456 309 473 6 7 11 14 11 17 0 8 63 100 73
107 5 3 8 8 6 10 -1 2 38 65 87 139 49 74 91 140 94 145 3 6 49 77 103 158
l98 148 -20 32 c-11 18 -28 41 -38 52 -10 11 -66 92 -124 180 -114 173 -119
181 -206 328 -60 102 -76 130 -132 232 -18 33 -38 66 -43 73 -6 6 -7 12 -3 12
5 0 1 8 -7 18 -8 9 -22 34 -32 54 -9 20 -20 39 -24 42 -4 2 -54 -67 -112 -155z"/>
<path d="M5119 1822 c-35 -53 -67 -101 -71 -107 -5 -5 -27 -39 -51 -75 -23
-36 -45 -66 -49 -68 -5 -2 -8 -8 -8 -13 0 -8 -106 -175 -120 -189 -14 -14
-160 -241 -160 -249 0 -5 -4 -11 -9 -13 -5 -1 -27 -32 -50 -68 -22 -36 -44
-70 -48 -75 -5 -6 -64 -96 -133 -200 -69 -105 -128 -191 -132 -193 -5 -2 -8
-10 -8 -18 0 -8 -4 -14 -10 -14 -5 0 -10 -4 -10 -10 0 -5 -20 -39 -45 -76 -25
-36 -45 -67 -45 -69 0 -3 299 -5 665 -5 l665 0 12 25 c6 14 14 25 18 25 4 0
12 11 18 25 7 14 17 31 22 38 17 19 210 317 210 322 0 3 5 11 11 18 21 24 179
269 179 278 0 5 5 9 10 9 22 0 7 18 -67 80 -193 162 -512 474 -690 673 l-41
47 -63 -98z"/>
</g>
</svg>
