<svg enable-background="new 0 0 421.2 842.2" viewBox="0 0 421.2 842.2" xmlns="http://www.w3.org/2000/svg" xmlns:xlink="http://www.w3.org/1999/xlink"><linearGradient id="a" gradientTransform="matrix(-343.9457 -596.4179 -596.4179 343.9457 472647.7812 -340718.9688)" gradientUnits="userSpaceOnUse" x1="-87.0285" x2="-86.0285" y1="841.9678" y2="841.9678"><stop offset="0" stop-color="#080808"/><stop offset="1" stop-color="#242424"/></linearGradient><g clip-rule="evenodd" fill-rule="evenodd"><path d="m.1.1h420.9v841.9h-420.9z" style="stroke:#000;stroke-width:.2736;stroke-linecap:round;stroke-linejoin:round;stroke-miterlimit:3.1571;fill:url(#a)"/><path d="m147 152.1-146.9-152h130z" fill="#242424"/><path d="m147 152.1-146.9-152v106.7z" fill="#252525"/><path d="m147 152.1v62.7l-146.9-80.5v-27.5z" fill="#222"/><path d="m.1 268.5 146.9-53.7-146.9-80.5z" fill="#242424"/><path d="m.1 268.5 146.9-53.7-47.9 206.3z" fill="#1f1f1f"/><path d="m.1 268.5v201l8.4 2.1 90.5-50.5z" fill="#1f1f1f"/><path d="m33.8 528.4-25.2-56.8 90.5-50.5z" fill="#1a1a1a"/><path d="m33.8 528.4 204.2 19-138.9-126.3z" fill="#181818"/><path d="m33.8 528.4 204.2 19-124.2 84.2z" fill="#161616"/><path d="m33.8 528.4h-33.7v189.4l113.7-86.3z" fill="#191919"/><path d="m135.9 732.6-102.1 109.4h-33.7v-124.2l113.7-86.3z" fill="#161616"/><path d="m135.9 732.6 137.9-14.7-35.8-170.5-124.2 84.2z" fill="#111"/><path d="m135.9 732.6 137.9-14.7-16.9 124.1h-121z" fill="#0e0e0e"/><path d="m421.1 799.9-147.3-82.1-16.9 124.2h164.2z" fill="#080808"/><path d="m421.1 799.9-147.3-82.1 147.3-128.4z" fill="#070707"/><path d="m135.9 732.6-102.1 109.4h102.1z" fill="#121212"/><path d="m286.4 395.8-48.4 151.6-138.9-126.3z" fill="#151515"/><path d="m286.4 395.8-48.4 151.6 160-126.3z" fill="#111"/><path d="m273.8 717.8-35.8-170.4 160-126.3 23.2 37.9v130.5z" fill="#0d0d0d"/><path d="m33.8 528.4-25.2-56.8-8.4-2.1v58.9z" fill="#1d1d1d"/><path d="m147 152.1 133.5-17.8-99.3-134.2h-51z" fill="#1e1e1e"/><path d="m147 152.1 133.5-17.8-133.5 80.5z" fill="#1b1b1b"/><path d="m290.6 303.2-10.1-168.9-133.5 80.5z" fill="#181818"/><path d="m290.6 303.2-191.5 117.9 47.9-206.3z" fill="#191919"/><path d="m290.6 303.2-191.5 117.9 187.3-25.3z" fill="#161616"/><path d="m290.6 303.2 107.3 117.9-111.6-25.3z" fill="#111"/><path d="m290.6 303.2 107.3 117.9 23.2-40.5v-65.8z" fill="#101010"/><path d="m421.1 459-23.2-37.9 23.2-40.5z" fill="#0c0c0c" fill-opacity=".95"/><path d="m325.9.1-45.4 134.2-99.3-134.2z" fill="#1c1c1c"/><path d="m325.9.1-45.4 134.2 140.6-24v-110.2z" fill="#151515"/><path d="m421.1 284.8-140.6-150.5 140.6-24z" fill="#111"/><path d="m421.1 284.8-140.6-150.5 10.1 168.9 130.5 11.6z" fill="#131313"/></g></svg>