<?xml version="1.0" encoding="UTF-8" standalone="no"?>
<svg
   enable-background="new 0 0 421.2 842.2"
   version="1.1"
   viewBox="0 0 421.2 842.2"
   id="svg77"
   sodipodi:docname="sidebar-background-light.svg"
   inkscape:version="1.2.2 (732a01da63, 2022-12-09)"
   xmlns:inkscape="http://www.inkscape.org/namespaces/inkscape"
   xmlns:sodipodi="http://sodipodi.sourceforge.net/DTD/sodipodi-0.dtd"
   xmlns="http://www.w3.org/2000/svg"
   xmlns:svg="http://www.w3.org/2000/svg">
  <defs
     id="defs81" />
  <sodipodi:namedview
     id="namedview79"
     pagecolor="#ffffff"
     bordercolor="#000000"
     borderopacity="0.25"
     inkscape:showpageshadow="2"
     inkscape:pageopacity="0.0"
     inkscape:pagecheckerboard="0"
     inkscape:deskcolor="#d1d1d1"
     showgrid="false"
     inkscape:zoom="0.92139633"
     inkscape:cx="20.078222"
     inkscape:cy="421.10001"
     inkscape:window-width="1920"
     inkscape:window-height="974"
     inkscape:window-x="-11"
     inkscape:window-y="-11"
     inkscape:window-maximized="1"
     inkscape:current-layer="svg77" />
  <linearGradient
     id="a"
     x1="-87.028"
     x2="-86.028"
     y1="841.97"
     y2="841.97"
     gradientTransform="matrix(-343.95 -596.42 -596.42 343.95 472648 -340719)"
     gradientUnits="userSpaceOnUse">
    <stop
       stop-color="#080808"
       offset="0"
       id="stop2" />
    <stop
       stop-color="#242424"
       offset="1"
       id="stop4" />
  </linearGradient>
  <rect
     x=".1"
     y=".1"
     width="421.1"
     height="842.1"
     fill="#e1e1e1"
     stroke-linecap="round"
     stroke-linejoin="round"
     stroke-width="7.5591"
     style="mix-blend-mode:luminosity;fill:#ffffff;fill-opacity:1"
     id="rect7" />
  <g
     clip-rule="evenodd"
     fill-rule="evenodd"
     style="mix-blend-mode:exclusion"
     id="g75">
    <path
       d="m0.1 0.1h420.9v841.9h-420.9z"
       fill="url(#a)"
       stroke="#000"
       stroke-linecap="round"
       stroke-linejoin="round"
       stroke-miterlimit="3.1571"
       stroke-width=".2736"
       id="path9" />
    <path
       d="m147 152.1-146.9-152h130z"
       fill="#242424"
       id="path11" />
    <path
       d="m147 152.1-146.9-152v106.7z"
       fill="#252525"
       id="path13" />
    <path
       d="m147 152.1v62.7l-146.9-80.5v-27.5z"
       fill="#222"
       id="path15" />
    <path
       d="m0.1 268.5 146.9-53.7-146.9-80.5z"
       fill="#242424"
       id="path17" />
    <path
       d="m0.1 268.5 146.9-53.7-47.9 206.3z"
       fill="#1f1f1f"
       id="path19" />
    <path
       d="m0.1 268.5v201l8.4 2.1 90.5-50.5z"
       fill="#1f1f1f"
       id="path21" />
    <path
       d="m33.8 528.4-25.2-56.8 90.5-50.5z"
       fill="#1a1a1a"
       id="path23" />
    <path
       d="m33.8 528.4 204.2 19-138.9-126.3z"
       fill="#181818"
       id="path25" />
    <path
       d="m33.8 528.4 204.2 19-124.2 84.2z"
       fill="#161616"
       id="path27" />
    <path
       d="m33.8 528.4h-33.7v189.4l113.7-86.3z"
       fill="#191919"
       id="path29" />
    <path
       d="m135.9 732.6-102.1 109.4h-33.7v-124.2l113.7-86.3z"
       fill="#161616"
       id="path31" />
    <path
       d="m135.9 732.6 137.9-14.7-35.8-170.5-124.2 84.2z"
       fill="#111"
       id="path33" />
    <path
       d="m135.9 732.6 137.9-14.7-16.9 124.1h-121z"
       fill="#0e0e0e"
       id="path35" />
    <path
       d="m421.1 799.9-147.3-82.1-16.9 124.2h164.2z"
       fill="#080808"
       id="path37" />
    <path
       d="m421.1 799.9-147.3-82.1 147.3-128.4z"
       fill="#070707"
       id="path39" />
    <path
       d="m135.9 732.6-102.1 109.4h102.1z"
       fill="#121212"
       id="path41" />
    <path
       d="m286.4 395.8-48.4 151.6-138.9-126.3z"
       fill="#151515"
       id="path43" />
    <path
       d="m286.4 395.8-48.4 151.6 160-126.3z"
       fill="#111"
       id="path45" />
    <path
       d="m273.8 717.8-35.8-170.4 160-126.3 23.2 37.9v130.5z"
       fill="#0d0d0d"
       id="path47" />
    <path
       d="m33.8 528.4-25.2-56.8-8.4-2.1v58.9z"
       fill="#1d1d1d"
       id="path49" />
    <path
       d="m147 152.1 133.5-17.8-99.3-134.2h-51z"
       fill="#1e1e1e"
       id="path51" />
    <path
       d="m147 152.1 133.5-17.8-133.5 80.5z"
       fill="#1b1b1b"
       id="path53" />
    <path
       d="m290.6 303.2-10.1-168.9-133.5 80.5z"
       fill="#181818"
       id="path55" />
    <path
       d="m290.6 303.2-191.5 117.9 47.9-206.3z"
       fill="#191919"
       id="path57" />
    <path
       d="m290.6 303.2-191.5 117.9 187.3-25.3z"
       fill="#161616"
       id="path59" />
    <path
       d="m290.6 303.2 107.3 117.9-111.6-25.3z"
       fill="#111"
       id="path61" />
    <path
       d="m290.6 303.2 107.3 117.9 23.2-40.5v-65.8z"
       fill="#101010"
       id="path63" />
    <path
       d="m421.1 459-23.2-37.9 23.2-40.5z"
       fill="#0c0c0c"
       fill-opacity=".95"
       id="path65" />
    <path
       d="m325.9 0.1-45.4 134.2-99.3-134.2z"
       fill="#1c1c1c"
       id="path67" />
    <path
       d="m325.9 0.1-45.4 134.2 140.6-24v-110.2z"
       fill="#151515"
       id="path69" />
    <path
       d="m421.1 284.8-140.6-150.5 140.6-24z"
       fill="#111"
       id="path71" />
    <path
       d="m421.1 284.8-140.6-150.5 10.1 168.9 130.5 11.6z"
       fill="#131313"
       id="path73" />
  </g>
</svg>
