<svg xmlns="http://www.w3.org/2000/svg" width="2099.71" height="1608.37" xmlns:v="https://vecta.io/nano"><path d="M173.32 1125.54l-3.52-.9-70.63-13.69-50.91-9.4c-4.87-.9-9.75-1.79-14.56-2.92-2.94-.69-5.85-1.67-8.64-2.82-13.29-5.5-21.18-15.46-24.14-29.48-1.74-8.25-.98-16.25 2.32-23.96l16.68-38.22 51.17-111.58 90.67-197.36 10.93-22.94c5.36-10.83 13.4-19 24.55-23.93 4.86-2.15 9.96-3.42 15.16-4.35l69.86-12.57c.31-.06.6-.22 1.32-.48.29-.91.81-2.06 1.02-3.27l5.25-29.75c4.93-29.17 10.75-58.13 19.38-86.49 9.84-32.33 22.17-63.68 36.65-94.18 14.14-29.78 29.92-58.68 47.9-86.34 22.19-34.14 47.13-66.14 75.04-95.81C520.65 180 580.02 134.63 646.1 97.99c42.61-23.63 87.22-42.72 133.52-57.9 36.96-12.12 74.53-21.85 112.81-28.73 22.2-4 44.56-6.91 67.06-8.68 14.67-1.15 29.34-2.11 44.05-2.29l39.33-.28c16.29.34 32.6.88 48.81 2.87l50.86 6.91c15.16 2.43 30.21 5.37 45.19 8.72 31.09 6.96 61.4 16.51 91.22 27.65 28.17 10.53 55.83 22.23 82.54 36.09 8.51 4.42 17.01 8.91 25.21 13.86 8.5 5.13 17.53 7.48 27.37 7.4 16.34-.13 32.58 1.24 48.78 3.26 20.5 2.56 40.69 6.66 60.54 12.35 40.39 11.56 78.28 28.68 113.55 51.53 19.38 12.55 37.4 26.84 54.13 42.77 31.81 30.29 57.39 65.23 77.78 104.04 14.13 26.89 24.67 55.12 31.13 84.83 4.42 20.34 7.44 40.88 8.35 61.7.79 17.93-.09 35.77-2.56 53.57-3.38 24.29-8.39 48.19-16.04 71.5-1.65 5.02-1.28 9.62 1.36 14.27 5.04 8.89 9.82 17.93 14.77 27.02 1.66.36 3.2.75 4.75 1.01l56.33 9.26 19.44 2.95c16.11 2.3 28.16 10.67 36.51 24.48a81.03 81.03 0 0 1 4.65 8.91l80.79 181.87 58.11 131.6 15.52 36.11c4.18 9.51 8.37 19.03 12.95 28.35 10.34 21.07 4.02 49.03-20.19 61.66-4.57 2.38-9.36 4.09-14.41 5.14l-52.1 10.81-57.63 12.63-24.33 5.42c-.45.1-.88.32-1.53.56-.14.85-.38 1.77-.43 2.69-.08 1.44-.02 2.88-.02 4.32l-.01 243.32c0 6.72-.36 13.43-1.79 20.03-1.88 8.68-5.67 16.29-12.7 21.99-4.4 3.56-9.37 6.2-14.81 7.69-6.01 1.65-12.08 3.1-18.18 4.34l-53.61 10.62-78.76 14.58-121.31 21.74-80.27 14.11-82.64 14.74-63.27 11.06-54.8 9.68-48.64 8.5-76.99 13.57-53.83 9.49-76 13.64-44.39 7.86c-10.25 1.69-20.56 3-30.98 3.2-7.88.15-15.66-.79-23.35-2.32l-78.51-15.88-57.77-11.77-60.14-12.43-75.14-15.38-71.39-14.76-65.78-13.39-46.97-9.64-48.87-9.89-47.49-9.63-56.36-11.49-63.9-13.14-107.53-22.25c-4.08-.85-8.02-2.11-11.82-3.84-12.14-5.53-18.67-15.15-20.42-28.13-1.41-10.46-2.19-20.97-1.96-31.56.23-10.71.04-21.44.05-32.15l.27-168.92.33-47.97c.02-2.74-.25-5.41-1.25-8.28zm187.88 277.15c.92.35 1.91.87 2.96 1.11l30.81 6.9 40.24 8.2 64.15 13.67 47.71 9.88 51.57 10.63 52.91 10.69 48.3 9.87 83.97 16.8 62.43 12.54 42.11 8.68 41.22 8.53 27.21 5.64 31.81 6.55c4.53.9 9.09 1.82 13.68 2.13 11.2.75 22.33-.19 33.36-2.27l23.47-4.4 26.38-4.73 29.67-5.5 24.96-4.29 24.42-4.56 30.13-5.22 25.41-4.65 32.08-5.61 27.3-4.73 18.86-3.1 22.11-3.81 13.68-2.26 25.94-4.52 33.53-5.72 30.57-5.45 19.8-3.28 25.85-4.69 19.29-3.55 30.15-5.58 26.35-4.7 17.87-3.18 19.79-3.29 20.69-3.67 20.24-3.58 26.43-4.67 25.44-4.51 18.34-3.3 20.22-3.6 17.37-3.27 24.93-4.61 24.93-4.75 28.65-5.48 23.48-4.38 15.95-3.08c1.39-.28 2.27-1.2 2.38-2.64.11-1.43.1-2.88.1-4.31v-207.3c0-1.28.03-2.56-.06-3.84-.15-2.18-1-2.85-3.14-2.43l-19.69 3.97-36.01 7.52-42.18 8.55-69.79 14.43-40.77 8.24-68.92 14.06-48.22 9.85-41.32 8.39-36.5 7.48-36.58 7.23-42.65 8.87-56.23 11.15-36.99 7.82-30 6.05-38.43 7.63c-4.55.92-9.11 1.73-13.77 1.29-2.69-.25-5.4-.57-8.04-1.14-6.54-1.42-12.27-4.37-17.13-9.07-4.68-4.52-8.29-9.78-11-15.6l-15.16-33.66-27.11-63.49-17.83-41.39-19.22-44.95-25.57-59.46-18.14-42.3-22.33-51.98c-2.98-6.89-5.62-13.96-10.11-20.09-.56-.77-.96-1.68-2.55-1.48-.65 1.16-1.5 2.48-2.16 3.89l-13.47 29.17-26.92 59.4-19.21 42.35-24.47 54.19-26.43 58.57-23.2 52.12c-2.82 6.26-5.62 12.58-9.11 18.47-7.84 13.23-20.17 18.5-35.11 18.36-3.33-.03-6.68-.56-9.99-1.09l-21.66-3.78-31.88-6.34-37.97-7.8-50.16-10-36.99-7.63-42.7-8.66-31.37-6.45-37.04-7.25-33.29-6.94-76-15.03-30.96-6.33-27.23-5.52-26.73-5.12-22.48-4.49c-6.42-1.21-12.87-2.27-19.31-3.32l-15.13-2.28-16.08-2.5c-1.2-.17-2.46.06-3.79.11-.4 1.8-.8 3.33-1.07 4.88-.14.78-.08 1.59-.09 2.39l-.18 12.95-.09 39.83v171.32c0 1.28-.04 2.56.02 3.84.05 1.08.23 2.15.35 3.27 1.12.36 2 .74 2.92.93l53.37 10.98c.14.03.32-.04.46-.11.13-.07.23-.19.34-.29.65-3.86.89-44.72.47-80.04-.01-1.24-.18-2.49-.25-3.51-1.36-1.17-2.64-.95-3.9-.74-1.42.23-2.82.55-4.24.79-4.08.68-8 0-11.68-1.75-5.84-2.77-10.89-9.49-8.07-17.89 1.47-4.37 3.89-8.03 7.07-11.25l19.64-19.72c4.22-4.14 8.6-8.11 13-12.06 3.25-2.92 6.99-5.06 11.22-6.24 7.47-2.09 14.28-.86 20.04 4.5 7.27 6.76 13.89 14.15 20.38 21.64 4.61 5.31 9.04 10.77 13.51 16.19l8.43 10.44c2.42 3.04 2.72 6.59 1.37 9.98-2.33 5.86-6.28 10.35-12.46 12.48-4.38 1.51-8.8 1.08-13.24.37-.72-.11-1.46-.09-2.2-.14-.22.76-.46 1.2-.46 1.65v86.38c0 .45.24.91.43 1.61zm589.45-627.72c3.51.87 6.55.36 9.55.37l70.06.06c6.84-.03 13.69-.67 20.53-1.04.48-.03.95-.13 1.42-.2l10.84-1.6 18.34-3.09c1.27-.22 1.68-1.38.95-2.59-.66-1.09-1.44-2.11-2.13-3.19-2.64-4.18-5.64-8.09-8.15-12.39-3.34-5.72-4.87-11.64-4.71-18.24.12-5.06 1.79-9.56 4.72-13.33 7.96-10.22 20.49-14.2 33.03-10.44 4.48 1.34 8.37 3.9 12.45 6.09 5.54 2.96 10.57 6.67 15.23 10.76 11.84 10.39 21.85 22.45 30.42 35.62 6.78 10.43 13.08 21.19 19.35 31.93l20.88 36.62c4.48 7.73 9.08 15.4 13.86 22.95 4.86 7.68 9.25 15.69 15.12 22.7 3.39 4.05 7.07 7.79 11.22 11.09 4.4 3.49 9.19 6.34 14.05 9.12 5.17 2.96 10.7 4.98 16.31 6.81 5.22 1.7 10.6 1.97 16.07 1.98 3.92.01 7.61-.61 11.23-1.97 7.07-2.66 12.84-6.98 17.15-13.24 4.05-5.88 6.54-12.4 8.14-19.28.86-3.71 1.85-7.5 1.86-11.26.02-8.6.76-17.21-.73-25.81-1.06-6.11-2.06-12.22-3.74-18.19-4.8-17.07-12.75-32.69-22.05-47.68-3.53-5.69-7.37-11.2-10.9-16.89-4.27-6.89-7.33-14.14-6.61-22.57.34-3.96 1.55-7.54 3.89-10.63 4.82-6.37 11.5-9.48 19.31-10.28 8.29-.84 15.88 1.21 22.65 6.02 4.94 3.51 9.43 7.47 13.43 12.16 4.66 5.47 9.25 10.97 13.59 16.7 1.82 2.41 3.89 4.65 5.85 6.95.88 1.03 2 1.47 3.38 1.51 9.27.25 18.51-.16 27.72-1.12.16-.02.31-.06.47-.08l13.72-1.66c4.43-.46 8.9-.58 13.32-1.17 5.83-.78 11.65-1.66 17.54-1.84a4.31 4.31 0 0 0 .95-.09c5-1.03 10.11-1.12 15.13-1.88 3.48-.52 6.96-.78 10.44-1.12 4.1-.41 8.17-1.16 12.27-1.68 3.47-.44 6.97-.64 10.43-1.13l17.91-2.73c6.77-.99 13.47-2.31 20.17-3.72 6.57-1.39 13.02-3.16 19.47-4.99 8.29-2.36 16.53-4.93 24.48-8.25 8.24-3.44 16.43-6.98 24.27-11.37 8.78-4.93 17.5-9.91 25.92-15.43 9.76-6.4 19.11-13.34 27.79-21.15 2.85-2.56 5.56-5.3 8.61-7.6 6.45-4.87 11.18-11.38 16.69-17.14 3.96-4.14 7.46-8.73 10.95-13.29 5.73-7.49 10.77-15.44 15.76-23.44 7.47-11.98 13.25-24.79 18.53-37.81 3.84-9.46 7.05-19.17 9.71-29.04 2.45-9.07 4.64-18.18 5.88-27.5l1.17-8.02c.77-5.03 1.55-10.06 1.66-15.16.05-2.24.04-4.48.03-6.72-.06-13.23.57-26.49-1.9-39.61-1.17-6.25-1.75-12.62-3.21-18.79-3.23-13.65-6.81-27.22-11.98-40.32-3.34-8.46-6.5-16.99-10.41-25.23-5.29-11.13-11.1-21.97-17.72-32.35-5.57-8.75-11.35-17.36-17.97-25.38-3.55-4.31-6.97-8.71-10.79-12.8-4.46-4.78-8.54-9.91-13.1-14.6-4.78-4.92-9.91-9.51-14.93-14.19-3.62-3.37-7.17-6.85-11.05-9.9-7.26-5.72-14.51-11.45-22.06-16.82-12.53-8.9-25.73-16.62-39.32-23.73-11.33-5.93-23.01-11.14-35.03-15.51-8.54-3.1-17.25-5.74-25.94-8.41-7.62-2.34-15.41-4.05-23.13-5.99-10.23-2.57-20.58-4.46-30.97-5.97-7.54-1.1-15.11-2.48-22.81-2.28-.95.03-1.91-.17-2.86-.27-1.9-.19-3.79-.54-5.69-.55-10.24-.05-20.47-.03-30.71 0-1.43 0-2.86.15-4.29.28l-6.18.63c-5.24.39-10.51.54-15.73 1.14-6 .69-11.95 1.84-17.95 2.63-10.77 1.41-21.37 3.69-31.91 6.15-11.01 2.57-21.98 5.4-32.79 8.7-17.74 5.4-34.97 12.16-51.64 20.34-4.44 2.18-9.08 4.01-13.38 6.43-9.19 5.16-18.3 10.45-27.28 15.95-9.67 5.92-19.1 12.22-28.21 18.97-8.08 5.98-16.12 12-23.62 18.7-5.11 4.57-10.42 8.93-15.4 13.63-6.37 6.02-12.63 12.18-18.71 18.51-3.43 3.58-7.03 7-10.36 10.67-3.21 3.54-6.09 7.38-9.26 10.96-5.3 5.97-10.15 12.29-14.97 18.64-3.09 4.07-6.07 8.22-9.01 12.4l-8.91 13.06c-2.36 3.6-4.51 7.34-6.84 10.97-7.25 11.31-13.79 23.02-19.9 34.96-4.44 8.67-8.24 17.66-12.49 26.42-6.28 12.95-11.45 26.37-16.24 39.91-6.81 19.25-13.4 38.59-18.02 58.52l-5.34 23.75-3.6 17.75c-.79 4.22-1.44 8.47-2.06 12.72l-2.22 16.07-2.53 15.07-2.7 18.46-1.96 16.13c-.51 5.55-.74 11.13-1.12 16.7-.1 1.43-.33 2.85-.48 4.28-.15 1.42-.38 2.85-.39 4.28l-.2 26.87.18 57.1c0 1.41.13 2.83.22 4.6zm677.04-.88c-1.69.55-2.93.85-4.09 1.33-15.81 6.56-32.02 11.91-48.54 16.37-14.01 3.79-28.16 6.96-42.41 9.7-10.82 2.08-21.62 4.2-32.56 5.6-7.9 1.01-15.74 2.46-23.64 3.53-6.47.87-12.98 1.45-19.47 2.18l-9.49 1.16-12.3 1.65c-3.96.47-7.94.77-11.9 1.21-3.01.34-6.01.77-9.01 1.18l-11.35 1.58-7.68 1.18c-1.58 2.72-1.42 5.33-1.52 7.86-.26 6.54-.03 13.07-.74 19.62-.71 6.49-.48 13.06-1.11 19.6-.7 7.33-1.66 14.6-3.43 21.72-5.77 23.27-17.06 43.3-35.21 59.23-16.87 14.8-36.55 23.41-58.76 25.78-9.83 1.05-19.83.72-29.64-1.02-17.2-3.05-33.17-9.24-47.88-18.77-13.97-9.05-25.73-20.5-36.53-33.01-15.23-17.63-27.66-37.18-39.12-57.38-5.52-9.74-10.94-19.52-16.93-28.99-1.3-2.05-2.75-2.94-5.08-2.64l-10.91 1.36-10.87 1.59c-5.36.79-10.74 1.43-16.06 2.42l-27.64 5.5c-1.68.34-3.38.71-4.85 1.7-.24 2.03.66 3.58 1.34 5.17l5.34 12.32 27.38 63.9 25.61 59.44 22.44 51.94 20.28 46.6 30.35 69.93 23.28 53.14 5.57 12.74c.85 1.9 1.51 2.25 3.33 1.89l29.51-5.91 32.34-6.75 36.58-7.38 46.33-9.51 52.08-10.56 45.87-9.47 42.17-8.55 42.69-8.76 35.12-7.17 36.03-7.53 37.49-7.92 39.32-8.08 37.02-7.42 51.6-10.67 55.28-11.08 58.59-12.22 54.68-11.56 58.54-12.5c3.25-.7 6.48-1.51 9.62-2.25.24-2.89.21-2.87-.63-4.84l-14.26-33.54-16.44-37.29-20.59-46.99-27.96-63.14-32.64-73.64-31.48-70.48c-1.04-2.32-2.21-4.63-3.63-6.74-4.2-6.28-10.38-9.03-17.7-8.43l-12.87.99c-.27.03-.51.34-1.08.75 0 1.02-.1 2.28.02 3.53l1.2 10.94c.84 6.97 1.8 13.94 1.75 20.99-.03 3.84-.1 7.68.02 11.52.22 7.4-.92 14.67-2.34 21.85-2.37 11.98-6.63 23.33-12.81 33.91-10.95 18.75-25.84 33.22-45.91 42-10.64 4.66-21.74 7.34-33.42 7.19-1.76-.02-3.52-.04-5.28 0-6.76.16-13.32-1.12-19.82-2.79-17.31-4.44-31.9-13.65-44.94-25.61-10.44-9.58-19.16-20.58-26.84-32.43l-14.04-22.32-5.4-8.44zM801.4 1173.38l2.16-4.47 22.1-48.95 29.27-64.65 29.6-65.55 25.94-57.21 29.96-66.44 7.62-17.07c.89-2.03.32-3-1.81-3.39l-15.04-2.7-18.34-3.26-19.31-3.28-19.26-3.56-19.81-3.36-44.34-7.94-20.22-3.6-18.83-3.25-19.79-3.25-26.35-4.65-20.29-3.48-21.7-3.82-20.25-3.53-13.19-2.29-20.27-3.29-25.87-4.55-25.95-4.27-27.35-4.94-48.56-8.13-25.85-4.64-25.93-4.28-28.75-5.1-24.06-4.15-31.04-5.59-25.45-4.24-30.57-5.57-33.93-6.11-16.93-3.15-26.33-4.75c-2.34-.42-2.91-.17-4.1 2.19-.79 1.57-1.52 3.17-2.25 4.77l-14.18 30.95-29.52 64.01-28.89 62.71-33.77 73.67-32.38 70.09c-.39.85-.66 1.76-1.09 2.96 1.14.49 2.07 1.1 3.08 1.3l27.22 5.24 48.34 9.85 42.7 8.25 32.33 6.55 39.93 7.96 21.57 4.29 32.39 6.18 39.38 7.97 51.66 10.16 37.45 7.48 45.57 8.97 26.27 5.24 32.85 6.21 38.93 7.71 39.45 7.81 21.56 4.27 28.18 5.31 27.64 5.51 39.02 7.63 37.5 7.42c.44.09.93-.08 1.88-.18zM354.44 671.36l12.78 2.27 36.36 6.17 61.35 10.84 37.29 6.24 44.85 7.71 42.08 7.07 25.07 4.01 22.24 3.36 20.75 3.56 33.08 5.52 40.17 6.85 26.43 4.54 19.38 3.16 27.45 4.17 29.81 4.63 37.06 5.11c2.66.36 5.34.9 8.26.47.21-.94.55-1.83.6-2.74l1.75-32.05 1.36-28.26 3.41-64.64c.04-.74-.19-1.5-.31-2.43-1.16 0-2.11-.1-3.02.02l-10.91 1.55-35.25 3.89-49.24 3.76c-9.56.67-19.14 1.16-28.71 1.54-6.55.26-13.11.28-19.67.24-20.78-.12-41.57.48-62.34-.75-3.83-.23-7.68-.16-11.5-.43l-43.99-3.21c-13.69-1.18-27.36-2.61-41.01-4.17-8.72-.99-17.4-2.35-26.08-3.65l-33.56-5.25c-13.2-2.37-26.34-5.1-39.49-7.79-20.81-4.27-41.43-9.37-61.97-14.82-17.92-4.75-35.68-10.05-53.37-15.58-.99-.31-2.06-.38-3.24-.59-.24.92-.46 1.51-.55 2.12l-4.74 31.76c-2.28 16.81-3.76 33.68-3.4 50.67.03 1.57-.35 3.21.82 5.1zm324.32-270.77c2.09.08 3.51.18 4.93.18 9.59.05 19.16-.33 28.74-.77l34.92-2.09 39.63-3.49c17.61-1.95 35.2-4.22 52.61-7.59l37.06-7.39c28.67-6.51 56.8-14.93 84.58-24.56 9.77-3.39 17.37-9.11 22.83-17.97 8.14-13.21 17.15-25.83 26.67-38.09 10.21-13.14 21.02-25.76 32.87-37.45 5.68-5.61 11.7-10.89 17.38-16.51 4.88-4.82 5.15-6.55-.09-11.26l-11.29-10.38c-11.57-10.78-24.5-19.49-39.15-25.54-17.38-7.18-35.55-9.97-54.27-9.47a313.22 313.22 0 0 0-11.47.52c-5.73.37-11.5.57-17.18 1.31-8.69 1.13-17.33 2.61-25.9 4.57-21.64 4.95-42.13 12.86-61.68 23.3-17.69 9.45-33.99 20.99-49.47 33.68-20.72 16.99-39.28 36.14-56 57.05-18.81 23.54-35.03 48.81-49.4 75.27-2.74 5.05-4.46 10.5-6.3 16.67zM560.61 565.86c5.23-28.93 11.9-56.99 20.05-84.71 8.16-27.75 18.35-54.75 29.69-81.2-.5-.64-.73-1.09-1.09-1.38l-109.03-85.55a12.25 12.25 0 0 0-1.6-1.05c-.26-.15-.61-.15-.91-.21-3.14 2.4-8.47 8.76-24 29.75-32.8 44.34-59.07 92.29-79.03 143.7-7.48 19.26-12.95 35.7-13.35 40.1 1.07.47 2.19 1.07 3.37 1.47 2.57.87 5.16 1.67 7.77 2.43l36.38 10.49a976.25 976.25 0 0 0 79 17.14l44.35 7.85c2.49.44 5.02.7 8.42 1.17zm376.91-140.74l-5.48 1.37-40.37 10.17c-15.58 3.53-31.25 6.64-46.93 9.71-8.61 1.69-17.3 3.06-25.99 4.3-8.84 1.26-17.73 2.21-26.6 3.26l-10.47 1.14-15.72 1.57c-7.01.52-14.06.6-21.05 1.3-11.64 1.16-23.32.99-34.97 1.21-14.7.27-29.41-.23-44.12-.47-3.51-.06-7.01-.42-10.52-.62-.92-.05-1.85 0-2.86 0-.56 1.22-1.09 2.19-1.47 3.22-5.65 15.46-11.18 30.95-15.88 46.74-5.84 19.62-10.33 39.52-13.05 59.81-.27 2.01-.84 4.09.32 6.38 1.47.14 3.03.37 4.61.44l19.15.76 36.88 1.17 69.1.07c8.94-.04 17.88-.51 26.82-.86l28.25-1.22c.64-.03 1.27-.12 1.91-.17l19.09-1.56 15.76-1.27c3.34-.3 6.67-.69 10-1.09l12.35-1.57 24.22-3.21c2.09-.27 3.58-1.18 4.11-3.37.3-1.24.74-2.44 1.12-3.66l25.48-80.88 14.97-47.55c.42-1.35.74-2.73 1.37-5.09zM542.96 268.3c.96 1.04 1.64 1.9 2.45 2.61.84.73 1.83 1.28 2.7 1.97l16.12 12.78 20.02 15.58 16.61 12.94 20.85 16.11 14.3 11.25c2.11 1.64 3.28 1.41 4.64-.83l8.63-14.38c7.75-13.06 16.28-25.59 25.28-37.81 5.96-8.1 12.05-16.1 18.68-23.67 5.88-6.72 11.55-13.65 17.66-20.17 7.1-7.57 14.47-14.89 22.26-21.8 6.81-6.05 13.68-11.98 20.72-17.76 8.41-6.89 17.17-13.27 26.18-19.31 10.88-7.3 21.97-14.27 33.64-20.28.81-.42 1.5-1.06 2.38-1.69-.4-1.08-.65-1.99-1.05-2.82l-19.94-41.48c-.35-.72-.75-1.41-1.17-2.09-.75-1.21-1.81-1.75-3.26-1.39l-5.09 1.24c-14.18 3.9-27.96 8.93-41.42 14.83l-15.76 7.01c-7.24 3.39-14.52 6.69-21.58 10.43-11.3 5.97-22.41 12.3-33.63 18.42-13.19 7.2-25.91 15.19-38.51 23.37-18.63 12.09-36.84 24.79-54.03 38.9-5.18 4.25-10.34 8.55-15.26 13.1-4.7 4.33-9.16 8.94-13.58 13.56-3.19 3.34-6.1 6.93-8.82 11.38zm533.02-195.45c-1.82-.24-3.71-.64-5.6-.71l-32.09-.97c-14.22-.15-28.44-.21-42.65.56l-26.33 1.21c-.48.02-.96.08-1.43.13l-24.75 2.59-30.83 4.18c-17.51 2.89-34.79 6.88-51.95 11.42-1.05.28-2.06.74-3.3 1.2.15 1.24.1 2.36.43 3.36 4.82 14.59 10.37 28.88 17.63 42.46.43.8 1.12 1.46 1.73 2.24l10.07-1.62 26.9-4.49c12.9-2.43 25.86-4.18 38.99-4.51 11.68-.29 23.34.07 34.9 1.93l15.59 2.59c2.13.4 4.11.18 6.14-.39 2.54-.72 4.56-2.25 6.5-3.94l6.86-6 14.29-12.06 21.25-18.67 17.09-15.42c1.47-1.32 2.22-2.72.56-5.11zm-8.34 85.01l48.57 37.42c1.34-.94 2.66-1.79 3.91-2.74 16.31-12.44 33.6-23.31 51.78-32.78 19.01-9.91 38.68-18.33 58.83-25.62l32.6-11.29c1.31-.45 2.73-.69 3.66-1.92-1-2.77-3.34-3.41-5.63-4.1l-41.71-12.71-52.33-15.47c-6.46-1.91-12.28-.84-17.56 3.39l-20.62 16.42-58.45 46.65c-.97.77-1.84 1.66-3.06 2.76zm618.96 579.03c.75 1.56 1.29 2.89 2.01 4.12l17.92 30.58c2.13 3.54 4.56 6.95 7.21 10.13 4.17 4.99 9.75 8.15 15.42 11.18 4.76 2.54 9.62 3.92 15.11 3.75 9.89-.31 16.92-5.04 21.85-13.25 2.48-4.12 3.98-8.68 5.3-13.31 2.06-7.25 3.57-14.54 3.41-22.12-.1-4.62-.28-9.22-.74-13.84-.56-5.56-1.4-11.09-2.45-16.53-2.36-12.21-5.25-24.34-9.94-35.91-2.09-5.17-4.7-10.14-7.16-15.15-.54-1.1-1.26-2.27-3.21-2.28-1.04 1.04-2.34 2.21-3.48 3.51l-10.32 11.94-11.93 13.11-8.9 10.03-9.39 10.86-12.58 13.82c-2.66 2.96-5.22 6.02-8.1 9.35z" fill="#010101"/><path d="M361.2 1402.69c-.19-.7-.43-1.15-.43-1.61v-86.38c0-.45.24-.9.46-1.65.74.04 1.48.02 2.2.14 4.44.71 8.86 1.14 13.24-.37 6.18-2.13 10.13-6.62 12.46-12.48 1.35-3.39 1.04-6.94-1.37-9.98l-8.43-10.44-13.51-16.19c-6.5-7.49-13.12-14.88-20.38-21.64-5.76-5.36-12.57-6.58-20.04-4.5-4.23 1.18-7.97 3.32-11.22 6.24-4.4 3.95-8.78 7.93-13 12.06l-19.64 19.72c-3.18 3.22-5.6 6.89-7.07 11.25-2.82 8.4 2.23 15.11 8.07 17.89 3.68 1.75 7.6 2.43 11.68 1.75 1.42-.24 2.82-.56 4.24-.79 1.26-.21 2.54-.43 3.9.74.08 1.02.24 2.26.25 3.51.42 35.32.18 76.18-.47 80.04-.11.1-.21.23-.34.29-.14.07-.32.14-.46.11l-53.37-10.98c-.92-.19-1.81-.57-2.92-.93-.13-1.13-.3-2.2-.35-3.27-.06-1.28-.02-2.56-.02-3.84v-171.32l.09-39.83.18-12.95c.01-.8-.05-1.62.09-2.39.28-1.55.67-3.08 1.07-4.88 1.33-.05 2.59-.28 3.79-.11l16.08 2.5 15.13 2.28 19.31 3.32 22.48 4.49 26.73 5.12 27.23 5.52 30.96 6.33 76 15.03 33.29 6.94 37.04 7.25 31.37 6.45 42.7 8.66 36.99 7.63 50.16 10 37.97 7.8 31.88 6.34c7.2 1.38 14.42 2.61 21.66 3.78 3.3.53 6.65 1.06 9.99 1.09 14.94.14 27.26-5.13 35.11-18.36 3.49-5.89 6.29-12.21 9.11-18.47l23.2-52.12 26.43-58.57 24.47-54.19 19.21-42.35 26.92-59.4 13.47-29.17c.66-1.41 1.51-2.73 2.16-3.89 1.59-.2 1.99.72 2.55 1.48 4.49 6.13 7.13 13.2 10.11 20.09l22.33 51.98 18.14 42.3 25.57 59.46 19.22 44.95 17.83 41.39 27.11 63.49c4.88 11.3 9.96 22.51 15.16 33.66 2.71 5.82 6.33 11.08 11 15.6 4.86 4.69 10.6 7.65 17.13 9.07 2.64.57 5.34.88 8.04 1.14 4.66.44 9.22-.37 13.77-1.29l38.43-7.63 30-6.05 36.99-7.82 56.23-11.15 42.65-8.87 36.58-7.23 36.5-7.48 41.32-8.39 48.22-9.85 68.92-14.06 40.77-8.24 69.79-14.43 42.18-8.55 36.01-7.52 19.69-3.97c2.14-.42 2.99.25 3.14 2.43.09 1.27.06 2.56.06 3.84v207.3c0 1.44 0 2.88-.1 4.31-.11 1.44-.99 2.37-2.38 2.64l-15.95 3.08-23.48 4.38-28.65 5.48-24.93 4.75-24.93 4.61-17.37 3.27-20.22 3.6-18.34 3.3-25.44 4.51-26.43 4.67-20.24 3.58-20.69 3.67-19.79 3.29-17.87 3.18-26.35 4.7-30.15 5.58-19.29 3.55-25.85 4.69-19.8 3.28-30.57 5.45-33.53 5.72-25.94 4.52-13.68 2.26-22.11 3.81-18.86 3.1-27.3 4.73-32.08 5.61-25.41 4.65-30.13 5.22-24.42 4.56-24.96 4.29-29.67 5.5-26.38 4.73-23.47 4.4c-11.03 2.09-22.16 3.03-33.36 2.27-4.59-.31-9.15-1.23-13.68-2.13l-31.81-6.55-27.21-5.64-41.22-8.53-42.11-8.68-62.43-12.54-83.97-16.8-48.3-9.87-52.91-10.69-51.57-10.63-47.71-9.88-64.15-13.67-40.24-8.2-30.81-6.9c-1.05-.24-2.03-.76-2.96-1.11zm369.93-17.35c-.02.11-.03.23-.05.34h-1.92c-12.58.14-22.03 7.53-24.94 19.67-.48 1.99-.58 4.12-.51 6.17.37 11.64 5.48 20.46 15.85 26.02 4.39 2.35 9.06 3.96 13.92 5l25.72 5.47 37.04 7.73 30.89 6.35 26.2 5.42 26.24 5.35 41.69 8.75 23.9 4.68c3.72.68 7.45 1.92 11.3.52.43-.16.95-.09 1.43-.13 6.83-.58 13.07-2.77 18.61-6.88 3.85-2.86 6.68-6.59 7.97-11.13 2.98-10.49.57-19.92-6.58-28.07-4.27-4.87-9.91-7.47-16.15-8.77l-25.32-5.07-36.62-7.37-31.8-6.6-36.54-7.35-41.23-8.75-49.65-9.99c-3.11-.62-6.29-.92-9.43-1.36zm243.95-117.08h.36v-3.36l.06-53.27-.06-36.47c-.33-14.85-9.92-21.89-21.53-24.34-4.17-.88-8.6-.83-12.82.53-8.24 2.65-13.33 8.55-16.3 16.39-1.46 3.88-2.23 7.95-2.22 12.17l-.04 45.59-.18 28.79-.66 29.2-.07 37.91.04 37.43c.04 5.28.65 10.52 2.72 15.45 3.09 7.33 8.27 12.41 16.1 14.52 8.07 2.18 15.49.51 22.41-3.87 5.65-3.57 9.52-8.57 11.06-15.08.76-3.23 1.12-6.63 1.13-9.96v-81.1-10.53zm749.57 130.04c7.73-4.8 82.14-58.5 84.73-61.12.05-.44.15-.91.15-1.39v-93.53c0-.92-.27-1.83-.43-2.83l-83.62-36.41c-.14-.06-.32-.03-.47-.02-.16.01-.31.05-.76.14l-83.51 59.97c-.21.83-.36 1.14-.36 1.44l-.07 93.05c0 .96.07 1.91.12 2.87 0 .15.09.3.15.45s.14.29.39.8l83.69 36.57z" fill="#b37d2a"/><path d="M950.65 774.97l-.22-4.6-.18-57.1.2-26.87c.02-1.43.24-2.85.39-4.28s.38-2.85.48-4.28l1.12-16.7c.5-5.39 1.23-10.76 1.96-16.13l2.7-18.46 2.53-15.07 2.22-16.07c.62-4.25 1.27-8.5 2.06-12.72l3.6-17.75 5.34-23.75c4.63-19.93 11.22-39.27 18.02-58.52 4.79-13.54 9.96-26.95 16.24-39.91 4.25-8.77 8.05-17.76 12.49-26.42 6.11-11.94 12.66-23.65 19.9-34.96l6.84-10.97c2.89-4.4 5.88-8.75 8.91-13.06 2.94-4.18 5.92-8.33 9.01-12.4 4.82-6.35 9.67-12.68 14.97-18.64 3.17-3.58 6.05-7.42 9.26-10.96 3.33-3.67 6.92-7.1 10.36-10.67 6.08-6.33 12.33-12.49 18.71-18.51 4.98-4.71 10.29-9.07 15.4-13.63 7.51-6.7 15.55-12.72 23.62-18.7 9.12-6.75 18.54-13.05 28.21-18.97 8.98-5.5 18.1-10.79 27.28-15.95 4.31-2.42 8.94-4.25 13.38-6.43 16.66-8.18 33.9-14.94 51.64-20.34 10.81-3.29 21.78-6.12 32.79-8.7 10.54-2.46 21.15-4.75 31.91-6.15 6-.78 11.94-1.94 17.95-2.63 5.22-.6 10.49-.75 15.73-1.14 2.06-.15 4.12-.44 6.18-.63 1.43-.13 2.86-.28 4.29-.28h30.71c1.9 0 3.79.36 5.69.55.95.1 1.91.29 2.86.27 7.7-.21 15.27 1.18 22.81 2.28 10.39 1.51 20.74 3.39 30.97 5.97 7.72 1.94 15.51 3.65 23.13 5.99 8.69 2.67 17.4 5.31 25.94 8.41 12.02 4.37 23.7 9.57 35.03 15.51 13.58 7.11 26.79 14.83 39.32 23.73 7.55 5.37 14.8 11.1 22.06 16.82 3.88 3.05 7.42 6.54 11.05 9.9 5.03 4.68 10.15 9.27 14.93 14.19 4.56 4.68 8.64 9.82 13.1 14.6 3.82 4.09 7.24 8.49 10.79 12.8 6.62 8.03 12.4 16.63 17.97 25.38 6.61 10.39 12.43 21.22 17.72 32.35 3.91 8.23 7.06 16.76 10.41 25.23 5.17 13.1 8.75 26.67 11.98 40.32 1.46 6.17 2.04 12.55 3.21 18.79 2.47 13.13 1.84 26.38 1.9 39.61l-.03 6.72c-.11 5.1-.89 10.13-1.66 15.16l-1.17 8.02c-1.24 9.32-3.43 18.44-5.88 27.5-2.67 9.87-5.87 19.58-9.71 29.04-5.28 13.03-11.06 25.83-18.53 37.81-4.99 8-10.04 15.95-15.76 23.44-3.49 4.56-6.99 9.16-10.95 13.29-5.51 5.75-10.24 12.27-16.69 17.14-3.05 2.3-5.76 5.04-8.61 7.6-8.68 7.82-18.03 14.76-27.79 21.15-8.42 5.52-17.14 10.5-25.92 15.43-7.83 4.4-16.03 7.94-24.27 11.37-7.95 3.32-16.19 5.89-24.48 8.25-6.44 1.83-12.9 3.61-19.47 4.99-6.69 1.41-13.4 2.73-20.17 3.72l-17.91 2.73c-3.46.49-6.96.69-10.43 1.13-4.09.51-8.16 1.27-12.27 1.68-3.48.35-6.97.6-10.44 1.12-5.02.76-10.13.85-15.13 1.88-.31.06-.64.08-.95.09-5.89.18-11.71 1.06-17.54 1.84-4.41.59-8.88.71-13.32 1.17-4.58.47-9.15 1.1-13.72 1.66-.16.02-.31.06-.47.08-9.22.97-18.45 1.38-27.72 1.12-1.38-.04-2.5-.48-3.38-1.51-1.97-2.3-4.03-4.54-5.85-6.95-4.33-5.73-8.92-11.23-13.59-16.7-4-4.68-8.48-8.64-13.43-12.16-6.77-4.81-14.36-6.87-22.65-6.02-7.81.8-14.49 3.91-19.31 10.28-2.34 3.09-3.55 6.67-3.89 10.63-.72 8.43 2.35 15.68 6.61 22.57 3.53 5.7 7.37 11.2 10.9 16.89 9.3 14.99 17.25 30.61 22.05 47.68 1.68 5.98 2.68 12.08 3.74 18.19 1.49 8.61.75 17.22.73 25.81-.01 3.76-1 7.55-1.86 11.26-1.59 6.88-4.09 13.4-8.14 19.28-4.31 6.27-10.09 10.58-17.15 13.24-3.62 1.36-7.32 1.98-11.23 1.97-5.46-.02-10.85-.28-16.07-1.98-5.61-1.83-11.14-3.85-16.31-6.81-4.86-2.78-9.65-5.63-14.05-9.12-4.15-3.29-7.83-7.03-11.22-11.09-5.86-7.02-10.26-15.02-15.12-22.7-4.78-7.55-9.39-15.22-13.86-22.95l-20.88-36.62c-6.28-10.75-12.57-21.51-19.35-31.93-8.56-13.17-18.58-25.23-30.42-35.62-4.66-4.09-9.69-7.8-15.23-10.76-4.08-2.18-7.98-4.74-12.45-6.09-12.54-3.76-25.06.22-33.03 10.44-2.94 3.77-4.6 8.27-4.72 13.33-.16 6.6 1.37 12.52 4.71 18.24 2.5 4.29 5.51 8.21 8.15 12.39.68 1.08 1.47 2.1 2.13 3.19.73 1.21.33 2.37-.95 2.59l-18.34 3.09c-3.61.59-7.23 1.07-10.84 1.6-.47.07-.95.17-1.42.2-6.84.37-13.68 1.01-20.53 1.04-23.35.1-46.71.01-70.06-.06-3 0-6.04.5-9.55-.37zm303-393.18v.04c-3.36 0-6.72-.09-10.07.04-1.41.05-2.79.62-4.2.84-12.74 2.01-23.36 8.16-32.69 16.8-5.58 5.17-9.62 11.5-13.13 18.15-5.06 9.61-7.11 20.07-7.92 30.78-.28 3.63.18 7.27.67 10.94 1.04 7.73 3.57 14.82 7.06 21.71 4.64 9.15 11.25 16.69 19.22 22.9 8.31 6.47 17.94 10.41 28.38 12 3.92.6 7.88 1.47 11.91.96 4.11-.53 8.25-.97 12.3-1.81 13.32-2.76 25.03-8.69 34.45-18.61 8.4-8.85 13.99-19.37 17.34-31.07.74-2.6 1.68-5.26 1.77-7.92.27-8.76.85-17.54-1.7-26.17-2.92-9.89-7.03-19.08-13.47-27.29-5.13-6.55-11.32-11.67-18.51-15.6-7.95-4.35-16.54-6.6-25.65-6.69-1.92-.02-3.84 0-5.76 0zm441.91 66.86c-.57-5.18-.84-9.81-1.63-14.35-.9-5.18-2.53-10.19-4.58-15.06-2.5-5.94-5.89-11.41-10.08-16.21-6.9-7.92-15.22-14.02-25.17-17.77-7.23-2.73-14.73-3.9-22.38-4.39-3.83-.25-7.61.45-11.41.81a55.74 55.74 0 0 0-15.27 3.64c-12.09 4.76-21.76 12.69-28.89 23.54-7.26 11.04-11.05 23.23-11.54 36.46-.09 2.37-.95 4.78-.67 7.08.29 2.37.69 4.71.73 7.11.03 1.28-.06 2.59.23 3.82 2.46 10.51 6.42 20.24 13.35 28.79 6.06 7.47 13.24 13.26 21.67 17.72 7.9 4.18 16.53 5.75 25.21 7.1 1.39.22 2.87.02 4.29-.18 2.84-.4 5.65-.95 8.48-1.41 12.67-2.05 24.2-6.52 34.31-14.73 6.48-5.26 11.32-11.67 15.18-18.85 3.17-5.91 5.32-12.26 6.14-19 .59-4.89 1.4-9.75 2.04-14.1zm-238.97 120.21c4.64.42 9.52-.37 14.33-1.51 11.77-2.79 21.89-8.57 30.49-17.09 7.4-7.34 12.84-15.8 15.56-25.94 1.76-6.56 2.46-13.14.63-19.79-1.8-6.56-5.49-11.31-12.28-13.49-6.32-2.03-14.54-.23-18.21 7.44l-5.25 11.28c-2.91 5.89-5.89 11.76-11.92 15.2-4.36 2.49-9 4.37-14.1 3.59-7.26-1.12-13.2-4.63-17.22-10.94-1.88-2.96-3.58-6.03-5.38-9.04l-5.69-9.41c-2.33-3.65-5.81-5.8-9.85-7.2-6.66-2.31-15.75-.44-19.13 9.45-2.63 7.69-2.39 15.29-.19 22.99 2.89 10.08 8.63 18.46 15.73 25.92 5.19 5.46 11.37 9.68 18.18 13.03 7.58 3.73 15.43 5.99 24.29 5.52z" fill="#070"/><path d="M1627.69 774.09l5.4 8.44 14.04 22.32c7.68 11.85 16.4 22.86 26.84 32.43 13.03 11.95 27.63 21.16 44.94 25.61 6.5 1.67 13.06 2.95 19.82 2.79 1.76-.04 3.52-.02 5.28 0 11.69.14 22.78-2.53 33.42-7.19 20.06-8.78 34.96-23.25 45.91-42 6.18-10.58 10.43-21.93 12.81-33.91 1.42-7.18 2.56-14.45 2.34-21.85-.11-3.84-.05-7.68-.02-11.52.05-7.05-.91-14.01-1.75-20.99l-1.2-10.94c-.12-1.24-.02-2.5-.02-3.53.57-.41.81-.72 1.08-.75 4.28-.41 8.58-.64 12.87-.99 7.32-.6 13.5 2.15 17.7 8.43 1.41 2.11 2.59 4.42 3.63 6.74l31.48 70.48 32.64 73.64 27.96 63.14 20.59 46.99 16.44 37.29 14.26 33.54c.84 1.97.87 1.96.63 4.84l-9.62 2.25-58.54 12.5-54.68 11.56-58.59 12.22-55.28 11.08-51.6 10.67-37.02 7.42-39.32 8.08-37.49 7.92-36.03 7.53-35.12 7.17-42.69 8.76-42.17 8.55-45.87 9.47-52.08 10.56-46.33 9.51-36.58 7.38-32.34 6.75-29.51 5.91c-1.81.36-2.48.01-3.33-1.89l-5.57-12.74-23.28-53.14-30.35-69.93-20.28-46.6-22.44-51.94-25.61-59.44-27.38-63.9-5.34-12.32c-.68-1.59-1.59-3.14-1.34-5.17 1.47-1 3.17-1.36 4.85-1.7l27.64-5.5c5.32-.99 10.7-1.62 16.06-2.42l10.87-1.59 10.91-1.36c2.32-.3 3.78.59 5.08 2.64 5.99 9.47 11.41 19.25 16.93 28.99 11.45 20.2 23.89 39.75 39.12 57.38 10.81 12.51 22.56 23.96 36.53 33.01 14.71 9.53 30.68 15.72 47.88 18.77 9.81 1.74 19.81 2.07 29.64 1.02 22.21-2.36 41.89-10.98 58.76-25.78 18.15-15.93 29.44-35.96 35.21-59.23 1.77-7.13 2.73-14.39 3.43-21.72.63-6.54.4-13.11 1.11-19.6.71-6.55.48-13.08.74-19.62.1-2.54-.06-5.14 1.52-7.86l7.68-1.18 11.35-1.58 9.01-1.18 11.9-1.21 12.3-1.65 9.49-1.16 19.47-2.18 23.64-3.53c10.94-1.4 21.74-3.52 32.56-5.6 14.25-2.74 28.4-5.91 42.41-9.7 16.52-4.47 32.73-9.82 48.54-16.37 1.16-.48 2.39-.78 4.09-1.33z" fill="#b37d2a"/><path d="M801.4 1173.38c-.94.1-1.44.27-1.88.18l-37.5-7.42-39.02-7.63-27.64-5.51-28.18-5.31-21.56-4.27-39.45-7.81-38.93-7.71-32.85-6.21-26.27-5.24-45.57-8.97-37.45-7.48-51.66-10.16-39.38-7.97-32.39-6.18-21.57-4.29-39.93-7.96-32.33-6.55-42.7-8.25-48.34-9.85-27.22-5.24c-1.01-.2-1.95-.81-3.08-1.3l1.09-2.96 32.38-70.09 33.77-73.67 28.89-62.71 29.52-64.01 14.18-30.95 2.25-4.77c1.19-2.36 1.76-2.61 4.1-2.19l26.33 4.75 16.93 3.15 33.93 6.11 30.57 5.57 25.45 4.24 31.04 5.59 24.06 4.15 28.75 5.1 25.93 4.28 25.85 4.64 48.56 8.13 27.35 4.94 25.95 4.27 25.87 4.55 20.27 3.29 13.19 2.29 20.25 3.53 21.7 3.82 20.29 3.48 26.35 4.65 19.79 3.25 18.83 3.25 20.22 3.6 44.34 7.94 19.81 3.36 19.26 3.56 19.31 3.28 18.34 3.26 15.04 2.7c2.13.39 2.7 1.36 1.81 3.39l-7.62 17.07-29.96 66.44-25.94 57.21-29.6 65.55-29.27 64.65-22.1 48.95-2.16 4.47z" fill="#b47d2a"/><path d="M354.44 671.36c-1.17-1.89-.79-3.53-.82-5.1-.36-16.99 1.12-33.86 3.4-50.67l4.74-31.76c.09-.61.31-1.2.55-2.12 1.18.21 2.24.28 3.24.59 17.69 5.53 35.45 10.83 53.37 15.58 20.54 5.45 41.15 10.55 61.97 14.82l39.49 7.79c11.14 2 22.36 3.57 33.56 5.25l26.08 3.65 41.01 4.17 43.99 3.21c3.83.26 7.67.2 11.5.43 20.77 1.23 41.56.63 62.34.75 6.56.04 13.12.02 19.67-.24l28.71-1.54 49.24-3.76c11.77-1.04 23.5-2.54 35.25-3.89 3.65-.42 7.27-1.06 10.91-1.55.91-.12 1.86-.02 3.02-.02.12.92.35 1.68.31 2.43l-3.41 64.64-1.36 28.26-1.75 32.05c-.05.91-.39 1.8-.6 2.74-2.92.43-5.6-.12-8.26-.47l-37.06-5.11-29.81-4.63-27.45-4.17-19.38-3.16-26.43-4.54-40.17-6.85-33.08-5.52-20.75-3.56-22.24-3.36-25.07-4.01-42.08-7.07-44.85-7.71-37.29-6.24-61.35-10.84-36.36-6.17-12.78-2.27z" fill="#fd0000"/><path d="M678.77 400.59c1.84-6.17 3.56-11.63 6.3-16.67 14.37-26.46 30.59-51.73 49.4-75.27 16.71-20.92 35.27-40.07 56-57.05 15.48-12.69 31.78-24.23 49.47-33.68 19.55-10.44 40.04-18.35 61.68-23.3 8.57-1.96 17.21-3.44 25.9-4.57 5.69-.74 11.45-.94 17.18-1.31 3.82-.25 7.65-.42 11.47-.52 18.73-.5 36.89 2.28 54.27 9.47 14.65 6.05 27.57 14.76 39.15 25.54l11.29 10.38c5.24 4.71 4.97 6.44.09 11.26-5.68 5.62-11.7 10.89-17.38 16.51-11.84 11.7-22.66 24.31-32.87 37.45-9.52 12.26-18.53 24.88-26.67 38.09-5.46 8.86-13.05 14.58-22.83 17.97-27.78 9.63-55.91 18.05-84.58 24.56-12.28 2.79-24.69 4.99-37.06 7.39-17.41 3.38-35 5.64-52.61 7.59-13.18 1.46-26.41 2.35-39.63 3.49-11.62 1-23.26 1.56-34.92 2.09-9.58.44-19.15.82-28.74.77-1.42 0-2.84-.1-4.93-.18z" fill="#fefe00"/><path d="M560.62 565.85l-8.42-1.17-44.35-7.85a976.25 976.25 0 0 1-79-17.14c-12.21-3.18-24.26-6.96-36.38-10.49-2.6-.76-5.2-1.56-7.77-2.43-1.18-.4-2.3-1-3.37-1.47.41-4.39 5.88-20.84 13.35-40.1 19.96-51.41 46.23-99.36 79.03-143.7 15.53-20.99 20.86-27.35 24-29.75.31.07.65.07.91.21a12.25 12.25 0 0 1 1.6 1.05l109.03 85.55c.36.28.59.73 1.09 1.38-11.34 26.45-21.53 53.45-29.69 81.2-8.15 27.71-14.81 55.78-20.05 84.71z" fill="#9300d2"/><path d="M937.53 425.11l-1.37 5.09-14.97 47.55-25.48 80.88-1.12 3.66c-.53 2.19-2.02 3.09-4.11 3.37l-24.22 3.21-12.35 1.57-10 1.09-15.76 1.27-19.09 1.56-1.91.17-28.25 1.22-26.82.86c-23.03.1-46.07.13-69.1-.07-12.3-.11-24.59-.75-36.88-1.17l-19.15-.76c-1.57-.07-3.14-.29-4.61-.44-1.16-2.29-.59-4.37-.32-6.38 2.71-20.29 7.2-40.2 13.05-59.81 4.7-15.78 10.24-31.28 15.88-46.74.38-1.03.91-2 1.47-3.22 1.01 0 1.94-.04 2.86 0 3.51.2 7.01.56 10.52.62l44.12.47c11.65-.22 23.33-.05 34.97-1.21 6.99-.7 14.04-.78 21.05-1.3 5.25-.39 10.48-1.02 15.72-1.57l10.47-1.14 26.6-3.26c8.69-1.24 17.37-2.61 25.99-4.3l46.93-9.71c13.53-3.07 26.92-6.75 40.37-10.17l5.48-1.37z" fill="#fd7e00"/><path d="M542.97 268.29c2.71-4.45 5.62-8.04 8.82-11.38 4.42-4.62 8.88-9.23 13.58-13.56 4.92-4.54 10.08-8.84 15.26-13.1 17.18-14.11 35.4-26.8 54.03-38.9 12.59-8.18 25.31-16.17 38.51-23.37l33.63-18.42c7.06-3.73 14.35-7.04 21.58-10.43 5.21-2.44 10.5-4.7 15.76-7.01 13.46-5.9 27.24-10.93 41.42-14.83 1.68-.46 3.4-.82 5.09-1.24 1.44-.36 2.5.17 3.26 1.39.42.68.83 1.37 1.17 2.09l19.94 41.48c.4.84.65 1.74 1.05 2.82-.88.63-1.57 1.27-2.38 1.69-11.67 6.01-22.77 12.98-33.64 20.28-9 6.04-17.77 12.42-26.18 19.31-7.04 5.77-13.91 11.71-20.72 17.76-7.79 6.92-15.16 14.23-22.26 21.8-6.11 6.51-11.77 13.44-17.66 20.17-6.63 7.57-12.71 15.57-18.68 23.67-9 12.22-17.53 24.76-25.28 37.81l-8.63 14.38c-1.36 2.24-2.53 2.47-4.64.83l-14.3-11.25-20.85-16.11-16.61-12.94-20.02-15.58-16.12-12.78c-.87-.69-1.87-1.24-2.7-1.97-.81-.71-1.49-1.57-2.45-2.61z" fill="#4b0181"/><path d="M1075.99 72.85c1.66 2.39.91 3.79-.56 5.11l-17.09 15.42-21.25 18.67-14.29 12.06-6.86 6c-1.94 1.69-3.96 3.22-6.5 3.94-2.03.58-4.01.79-6.14.39-5.18-.97-10.39-1.76-15.59-2.59-11.57-1.85-23.22-2.22-34.9-1.93-13.13.33-26.09 2.07-38.99 4.51-8.93 1.68-17.93 3.01-26.9 4.49l-10.07 1.62c-.61-.77-1.3-1.43-1.73-2.24-7.26-13.58-12.8-27.87-17.63-42.46-.33-1-.28-2.12-.43-3.36 1.25-.46 2.25-.92 3.3-1.2 17.15-4.54 34.44-8.53 51.95-11.42 10.23-1.69 20.53-2.92 30.83-4.18 8.23-1.01 16.5-1.74 24.75-2.59.48-.05.95-.11 1.43-.13l26.33-1.21c14.21-.77 28.43-.71 42.65-.56 10.7.11 21.39.59 32.09.97 1.9.07 3.78.47 5.6.71z" fill="#0101fc"/><path d="M1067.65 157.86l3.06-2.76 58.45-46.65 20.62-16.42c5.27-4.23 11.1-5.3 17.56-3.39l52.33 15.47 41.71 12.71c2.29.7 4.63 1.34 5.63 4.1-.93 1.23-2.35 1.47-3.66 1.92l-32.6 11.29c-20.15 7.29-39.82 15.72-58.83 25.62-18.18 9.47-35.47 20.35-51.78 32.78-1.25.95-2.57 1.81-3.91 2.74l-48.57-37.42z" fill="#01fc01"/><path d="M1686.61 736.89l8.1-9.35 12.58-13.82c3.19-3.57 6.24-7.26 9.39-10.86l8.9-10.03 11.93-13.11c3.5-3.93 6.85-7.99 10.32-11.94 1.14-1.3 2.44-2.47 3.48-3.51 1.95 0 2.67 1.17 3.21 2.28 2.46 5.02 5.07 9.98 7.16 15.15 4.68 11.57 7.58 23.7 9.94 35.91 1.05 5.44 1.89 10.96 2.45 16.53.47 4.62.65 9.22.74 13.84.16 7.58-1.35 14.87-3.41 22.12-1.32 4.64-2.82 9.19-5.3 13.31-4.94 8.2-11.96 12.93-21.85 13.25-5.49.17-10.34-1.2-15.11-3.75-5.67-3.03-11.25-6.19-15.42-11.18a80.14 80.14 0 0 1-7.21-10.13l-17.92-30.58c-.71-1.23-1.25-2.56-2.01-4.12z" fill="#017601"/><path d="M731.13 1385.33l9.43 1.36 49.65 9.99 41.23 8.75 36.54 7.35 31.8 6.6 36.62 7.37 25.32 5.07c6.24 1.3 11.88 3.9 16.15 8.77 7.15 8.15 9.56 17.58 6.58 28.07-1.29 4.54-4.11 8.27-7.97 11.13-5.53 4.11-11.77 6.3-18.61 6.88-.48.04-.99-.03-1.43.13-3.84 1.4-7.58.16-11.3-.52l-23.9-4.68-41.69-8.75-26.24-5.35-26.2-5.42-30.89-6.35-37.04-7.73-25.72-5.47c-4.86-1.04-9.53-2.65-13.92-5-10.37-5.56-15.48-14.38-15.85-26.02-.07-2.05.04-4.18.51-6.17 2.91-12.14 12.36-19.53 24.94-19.67h1.92c.02-.11.03-.23.05-.34zm243.95-117.07v10.53 81.1c0 3.33-.36 6.73-1.13 9.96-1.54 6.51-5.41 11.51-11.06 15.08-6.93 4.37-14.34 6.05-22.41 3.87-7.83-2.11-13.01-7.2-16.1-14.52-2.08-4.92-2.68-10.17-2.72-15.45l-.04-37.43.07-37.91.66-29.2.18-28.79.04-45.59a33.91 33.91 0 0 1 2.22-12.17c2.96-7.85 8.05-13.74 16.3-16.39 4.21-1.36 8.65-1.41 12.82-.53 11.61 2.45 21.2 9.49 21.53 24.34.27 12.15.07 24.31.06 36.47l-.06 53.27v3.36h-.36z" fill="#020101"/><path d="M1724.65 1398.3l-83.69-36.57-.39-.8c-.06-.15-.14-.3-.15-.45l-.12-2.87.07-93.05c0-.31.15-.62.36-1.44l83.51-59.97.76-.14c.16-.01.34-.04.47.02l83.62 36.41c.16.99.43 1.91.43 2.83v93.53c0 .47-.1.95-.15 1.39-2.59 2.62-77 56.31-84.73 61.12zm-79.22-40.52l79.48 34.75 79.51-57.08c.08-.98.21-1.77.21-2.56l-.01-86.8c0-.92-.28-1.84-.43-2.81l-6.22-2.84-53.13-23.22-17.58-7.64c-1.62-.72-3.06-.78-4.44.44-.36.32-.75.59-1.14.87l-66.62 47.78-9.63 7.04v92.06z" fill="#0a0702"/><path d="M1253.65 381.79h5.76c9.11.09 17.7 2.33 25.65 6.69 7.19 3.94 13.37 9.05 18.51 15.6 6.44 8.21 10.54 17.4 13.47 27.29 2.55 8.62 1.97 17.41 1.7 26.17-.08 2.66-1.02 5.32-1.77 7.92-3.35 11.7-8.94 22.22-17.34 31.07-9.42 9.92-21.13 15.85-34.45 18.61-4.05.84-8.19 1.28-12.3 1.81-4.02.52-7.99-.36-11.91-.96-10.44-1.59-20.08-5.53-28.38-12-7.97-6.21-14.58-13.75-19.22-22.9-3.49-6.89-6.03-13.98-7.06-21.71-.49-3.67-.94-7.31-.67-10.94.82-10.71 2.86-21.17 7.92-30.78 3.51-6.66 7.55-12.98 13.13-18.15 9.32-8.64 19.94-14.79 32.69-16.8 1.41-.22 2.79-.79 4.2-.84 3.35-.13 6.72-.04 10.07-.04v-.04zm441.9 66.86l-2.04 14.1c-.82 6.74-2.96 13.09-6.14 19-3.86 7.19-8.7 13.59-15.18 18.85-10.11 8.21-21.64 12.69-34.31 14.73l-8.48 1.41c-1.41.2-2.9.39-4.29.18-8.68-1.35-17.3-2.92-25.21-7.1-8.42-4.46-15.61-10.25-21.67-17.72-6.93-8.55-10.89-18.28-13.35-28.79-.29-1.22-.2-2.54-.23-3.82-.05-2.4-.44-4.74-.73-7.11-.28-2.3.58-4.71.67-7.08.49-13.23 4.28-25.42 11.54-36.46 7.13-10.85 16.8-18.77 28.89-23.54a55.74 55.74 0 0 1 15.27-3.64c3.8-.36 7.58-1.06 11.41-.81 7.65.49 15.15 1.66 22.38 4.39 9.95 3.76 18.27 9.85 25.17 17.77 4.19 4.81 7.57 10.27 10.08 16.21 2.05 4.87 3.68 9.88 4.58 15.06.79 4.54 1.07 9.17 1.63 14.35z" fill="#000100"/><path d="m1456.58,568.86c-8.86.48-16.71-1.79-24.29-5.52-6.81-3.35-12.99-7.57-18.18-13.03-7.1-7.46-12.84-15.84-15.73-25.92-2.21-7.7-2.45-15.3.19-22.99,3.38-9.89,12.47-11.76,19.13-9.45,4.03,1.4,7.51,3.55,9.85,7.2,1.97,3.09,3.81,6.26,5.69,9.41,1.8,3.01,3.49,6.09,5.38,9.04,4.02,6.31,9.96,9.82,17.22,10.94,5.11.79,9.74-1.1,14.1-3.59,6.03-3.43,9.02-9.31,11.92-15.2,1.83-3.72,3.46-7.54,5.25-11.28,3.67-7.67,11.89-9.47,18.21-7.44,6.79,2.18,10.48,6.93,12.28,13.49,1.82,6.65,1.13,13.23-.63,19.79-2.72,10.14-8.16,18.6-15.56,25.94-8.6,8.53-18.72,14.3-30.49,17.09-4.81,1.14-9.69,1.93-14.33,1.51Z" fill="#000200"/><path d="M1645.43 1357.78v-92.06l9.63-7.04 66.62-47.78 1.14-.87c1.38-1.22 2.81-1.16 4.44-.44l17.58 7.64 53.13 23.22 6.22 2.84c.15.97.43 1.89.43 2.81l.01 86.8c0 .79-.12 1.58-.21 2.56l-79.51 57.08-79.48-34.75zm152.31-109.54l-2.03-1.08-54.05-23.59-11.86-5.19c-5.79-2.59-4.83-2.19-9.01.81l-65.85 47.28c-1.02.73-1.96 1.59-2.79 2.27-.53 9.28-.32 80.43.29 84.5l15.22 6.47c.23.1.59-.11 1.11-.23.61-1.58.3-3.34.3-5.05l.03-73.41c0-1.73-.35-3.52.58-5.38l55.2-39.61 18.65 8.06 18.87 8.3c6.07 2.75 12.38 5.02 18.35 8.3v5.46 52.3l.02 22.55c0 .88-.35 1.96.79 2.52 3.08-1.33 10.52-6.5 16.17-11.26v-84.01zm-64.23 46.26l7.78-5.65 29.57-21.27c.84-.61 1.54-1.42 2.36-2.19-3.53-2.31-12.88-6.38-16.58-7.23l-4.56 3.19-24.49 17.66c-1.92 1.41-3.59 1.62-5.72.59-3.45-1.67-7-3.12-10.52-4.65l-18.28-7.96c-5.25 2.89-14.67 9.89-16.58 12.36 13.19 6.09 26.64 11.48 39.88 17.69v5.49l.02 73.36c0 1.72-.3 3.49.39 5.2 2.74 1.49 5.42 2.82 8.39 3.57l8.35-6.05v-84.13z" fill="#b17b29"/><path d="M1797.74 1248.24v84.01c-5.66 4.75-13.1 9.92-16.17 11.26-1.14-.56-.78-1.64-.79-2.52l-.02-22.55v-52.3-5.46c-5.97-3.28-12.28-5.55-18.35-8.3l-18.87-8.3-18.65-8.06-55.2 39.61c-.94 1.86-.58 3.65-.58 5.38l-.03 73.41c0 1.7.31 3.47-.3 5.05-.52.12-.88.33-1.11.23l-15.22-6.47c-.6-4.07-.82-75.21-.29-84.5.83-.68 1.77-1.54 2.79-2.27l65.85-47.28c4.19-3 3.23-3.4 9.01-.81l11.86 5.19 54.05 23.59c.58.25 1.13.6 2.03 1.08zm-64.22 46.26v84.13l-8.35 6.05c-2.97-.75-5.65-2.08-8.39-3.57-.68-1.71-.39-3.48-.39-5.2l-.02-73.36v-5.49c-13.23-6.21-26.68-11.6-39.88-17.69 1.92-2.48 11.33-9.47 16.58-12.36l18.28 7.96c3.51 1.53 7.07 2.98 10.52 4.65 2.13 1.03 3.81.82 5.72-.59l24.49-17.66 4.56-3.19c3.7.85 13.05 4.92 16.58 7.23-.82.77-1.51 1.58-2.36 2.19l-29.57 21.27-7.78 5.65z" fill="#040301"/></svg>