<?xml version="1.0" encoding="UTF-8"?>
<svg id="night_owl" data-name="night owl" xmlns="http://www.w3.org/2000/svg" viewBox="0 0 1872.59 1402.41">
  <defs>
    <style>
      .cls-1 {
        fill: #fff;
        stroke: #000;
        stroke-miterlimit: 10;
        stroke-width: 5px;
      }
    </style>
  </defs>
  <path class="cls-1" d="M683.11,1163.7c-9.63-13.04-9.93-27.25-9.63-41.46.19-8.92,1.27-17.82,1.96-26.73.04-.49.14-.99.28-1.47.7-2.49,2.71-5.69,1.83-7.29-1.27-2.3-4.55-3.62-7.14-5.06-29.2-16.22-54.48-37.5-78.63-60.33-14.31-13.52-27.98-27.66-39.8-43.33-10.61-14.06-20-29.05-29.64-43.83-3.53-5.42-6.03-11.49-9.4-17.03-.93-1.54-3.18-3-4.96-3.19-20.27-2.16-40.19-6.29-59.58-12.32-24.48-7.62-48.84-16.05-71.09-29.02-18.81-10.96-36.88-23.2-55.12-35.13-9.74-6.37-19.58-12.74-28.57-20.1-11.17-9.14-22.11-18.72-32.01-29.19-8.66-9.14-15.99-19.59-23.42-29.81-3.38-4.66-5.96-10.03-8.2-15.37-3.12-7.46-2.42-8.3,4.52-12.09,12.12-6.63,24.13-13.44,36.17-20.21,1.4-.79,2.69-1.77,4.63-3.06-7.65-2.42-14.86-3.93-21.37-6.93-12.52-5.77-25-11.79-36.86-18.79-21.17-12.49-38.78-29.31-53.81-48.61-12.02-15.42-20.89-32.45-22.15-52.6-.38-6.06,1.14-10.99,6.72-13.86,11.73-6.04,18.05-16.26,22.53-28.1,1.14-3.01.6-4.7-2.36-5.83-19.12-7.3-33.94-20.8-48.81-34.16-22.04-19.81-33.23-45.37-38.37-73.94-1.93-10.75-1.53-21.66,1.03-32.25,2.5-10.31,5.8-20.43,9-30.55.73-2.32,2.26-4.49,3.8-6.41,2.87-3.59,1.72-6-1.3-8.91-9.35-9.02-18.72-18.04-27.53-27.58-20.85-22.59-37.9-47.73-48.77-76.66-6.34-16.88-10.06-34.49-12.46-52.35-2.75-20.39-2.42-40.87-1.16-61.34.09-1.5.7-3.72,1.73-4.22,1.07-.51,3.18.32,4.45,1.16,12.65,8.3,25.03,17.03,37.86,25.04,18.22,11.38,36.69,22.37,55.18,33.31,26.8,15.85,53.66,31.6,80.6,47.21,18.58,10.77,37.01,21.89,56.11,31.67,18.8,9.63,38.29,17.95,57.62,26.51,18.24,8.08,35.01,18.5,50.86,30.49,16.55,12.51,31.52,26.69,44.07,43.26,4.92,6.5,9.39,13.34,13.91,20.13,1.73,2.6,3.45,4.78,6.92,5.02,23.92,1.64,47.82,3.44,71.74,5.01,9.3.61,18.64.74,27.96,1.11,2.64.11,4.86-.25,6.24-3.02,4.91-9.85,10.52-19.26,18.63-27.4-7.11-8.84-14.17-17.44-21.04-26.18-18.52-23.54-34-49.02-46.45-76.2-11.77-25.68-17.52-52.92-19.58-81.1-1.52-20.71-1.15-41.32,1.59-61.81,1.36-10.18,3.99-20.28,7.05-30.11,6.5-20.91,15.37-40.87,27.57-59.12,4.96-7.41,10.36-14.9,16.99-20.74,13.02-11.49,31.41-6.18,37.07,10.22,3.42,9.9,6.11,20.06,8.79,30.2,5.7,21.56,14.01,41.96,25.75,60.96,13.78,22.3,29.02,43.49,47.44,62.22,17.54,17.84,36.96,33.26,60.41,42.55,12.5,4.95,25.58,8.47,38.52,12.21,10.55,3.05,21.21,5.81,31.95,8.06,11.72,2.45,23.67,3.82,35.39,6.28,23.28,4.89,46.68,9.2,68.95,18.22,20.13,8.15,39.98,16.68,57.62,29.55,5.61,4.09,10.8,8.75,17.1,13.89.31-.61.64-1.62,1.26-2.41,11.14-14.04,26.59-21.91,42.37-29.16,32.14-14.76,66.24-22.98,100.62-30.61,28.26-6.27,56.46-13.15,84.16-21.51,21.11-6.38,39.89-17.97,57.31-31.84,25.87-20.6,46.54-45.47,64.34-73.14,13.44-20.89,23.9-43.07,31.69-66.55,2.25-6.77,3.54-13.85,5.25-20.8,1.78-7.21,4.38-13.86,10.29-18.94,7.29-6.27,18.56-7.62,27.03-2.94,9.34,5.15,15.25,13.57,20,22.5,7.18,13.49,14.14,27.22,19.67,41.45,9.88,25.41,15.37,51.82,16.9,79.25,1.59,28.41-3.17,55.73-10.81,82.72-7.95,28.06-20.44,54.24-36.34,78.58-10.54,16.13-22.64,31.24-34.05,46.8-1.08,1.48-2.09,3.03-3.32,4.38-2.32,2.54-1.5,4.35.5,6.85,5.81,7.27,11.43,14.72,16.66,22.41,2.03,2.98,4.02,4.57,7.64,4.27,23.72-1.95,47.45-3.75,71.16-5.79,9.78-.84,19.54-2.04,29.27-3.38,1.58-.22,3.85-1.73,4.25-3.1,3.35-11.25,10.37-20.25,18.22-28.34,10.31-10.61,21.05-20.96,32.62-30.15,14.46-11.48,30.05-21.5,46.83-29.43,12.95-6.12,25.77-12.54,38.93-18.15,27.19-11.6,52.47-26.77,78.25-41,19.96-11.02,39.81-22.27,59.57-33.66,29.57-17.05,59.11-34.15,88.48-51.55,13.17-7.8,25.86-16.4,38.79-24.62,1.12-.71,2.28-1.41,3.5-1.9,3.72-1.48,5.03-.84,5.15,3.16.58,18.62,2.03,37.29,1.22,55.85-1.35,31.01-10.23,60.36-24.48,87.85-11.92,23-28.92,42.24-47.68,59.93-5.92,5.59-12.03,10.99-17.85,16.67-.83.81-1.22,3.19-.64,4.14,9.56,15.67,13.47,33.08,14.17,50.98.39,9.97-1.11,20.4-3.83,30.04-6.34,22.46-17.64,42.47-34.63,58.71-9.73,9.31-20.07,18.04-30.63,26.4-6.47,5.12-13.77,9.23-20.92,13.39-3.16,1.84-3.74,3.75-2.48,6.92,4.5,11.24,12.76,19.05,23.11,24.61,13.8,7.41,15.36,9.76,12.99,25.22-1.41,9.2-5.61,17.35-10.5,25.17-15.3,24.43-34.33,45.4-57.97,61.99-16.55,11.62-34.31,21.1-53.3,28.07-6.07,2.23-12.48,3.51-18.74,5.21-1.56.42-3.12.8-4.92,2.21,1.97.98,3.95,1.91,5.9,2.94,12.49,6.6,24.9,13.36,37.48,19.78,10.41,5.31,11.72,6.53,5.36,16.45-8.69,13.54-18.42,26.52-28.77,38.85-16.36,19.5-37.24,33.53-59.02,46.4-11.44,6.76-22.22,14.65-33.3,22.02-16.27,10.82-33.35,20.24-51.54,27.31-17.68,6.87-35.47,13.64-53.67,18.89-18.34,5.29-37.04,9.7-56.27,10.86-1.15.07-2.33-.03-3.48-.19-2.69-.39-4.31.67-5.52,3.15-11.71,24.09-26.93,45.82-43.7,66.66-16.03,19.92-33.42,38.53-52.62,55.27-14.78,12.89-30.73,24.47-46.62,36.01-6.38,4.63-13.97,7.6-21.18,11.41,1.93,10.1,4.21,20.47,5.85,30.95,1.88,12.08,2.82,24.24-2.65,35.8-1.91,4.03-4.18,7.87-6.67,12.5,2.21.11,3.94.24,5.67.29,11.82.31,23.7-.06,35.44,1.03,21.05,1.95,36.93,12.77,47.18,31.13,3.94,7.04,7.06,14.76,9.13,22.56,1.52,5.75,4.48,9.17,9.54,11.05,9.67,3.6,19.36,7.17,29.2,10.23,11.28,3.5,22.78,6.29,34.11,9.65,21.11,6.26,26.74,20.24,26.04,41.01-.32,9.57-3.77,17.8-9.33,25.36-.57.77-.95,1.67-1.68,2.98,14.8,3.67,19.92,15.34,24.05,27.84,2.51,7.6,4.86,15.17,4.64,23.38-.27,10.33-6.07,18.98-16.05,22.18-11.08,3.55-22.44,2.86-33.65.89-23-4.05-45.4-10.45-67.42-18.2-6.89-2.43-13.67-5.21-20.59-7.55-1.44-.49-3.96-.4-4.85.52-10.22,10.54-23.09,13.53-37.02,13.04-15.79-.55-31.56-1.69-47.35-2.35-2.06-.09-4.4.83-6.22,1.93-5.94,3.6-11.26,8.65-17.61,11.05-17.42,6.6-35.44,9.74-53.62,2.76-6.16-2.37-11.98-5.74-17.7-9.09-3.45-2.02-5.95-2.28-9.46.22-4.26,3.04-9.06,5.72-14.03,7.32-13.73,4.43-27.85,7.18-42.3,4.52-13.73-2.53-26.08-7.83-34.56-19.85-1.1-1.57-3.34-2.6-5.27-3.24-2.01-.67-4.27-.79-6.42-.78-19.82.16-39.65.28-59.47.77-2.9.07-6.16,1.49-8.57,3.23-8.9,6.43-17.3,13.58-27.97,17.17-21.63,7.28-41.67,4.18-60.22-8.94-5.31-3.76-6.33-3.99-12.07-.31-24.83,15.89-50.82,16.24-77.39,5.37-4.96-2.03-9.36-5.71-13.57-9.18-2.98-2.45-5.78-3.33-9.57-2.7-18.67,3.08-37.51,2.98-56.34,2.4-8.64-.27-15.27-4.61-19.06-12.45-1.52-3.16-3.31-3.71-6.3-2.72-9.95,3.29-19.97,6.38-29.89,9.79-21.77,7.49-43.9,13.55-66.68,17.02-10.06,1.53-20.14,2.77-30.15-.73-8.38-2.94-13.48-8.76-14.56-17.38-1.6-12.74-2.3-25.53.18-38.32,1.51-7.8,5.78-13,13.33-15.3,3.82-1.16,7.76-1.93,11.68-2.72.99-.2,2.1.22,3.4,1.23-3.03,1.84-6.04,3.7-9.1,5.5-2.17,1.28-2.35,2.71-1.16,4.96,4.75,8.97,9.28,18.05,13.95,27.06,4.22,8.15,5.5,8.96,14.11,6.39,16.42-4.9,32.88-9.74,49.04-15.42,17.89-6.28,35.5-13.39,53.15-20.32,4.56-1.79,7.52-.85,10.9,2.78,6.46,6.93,13.5,13.32,20.55,19.67,1.26,1.14,3.77,1.54,5.57,1.3,4.94-.64,9.79-1.9,14.71-2.74,7.86-1.35,15.72-2.85,23.64-3.73,6.13-.68,11.66,1.5,16.97,4.75,7.52,4.6,15.27,8.84,23.11,12.86,13.2,6.77,25.58,4.57,37.72-3.36,7.46-4.88,15.44-9.02,23.44-13,5.43-2.7,10.88-.91,15.62,2.24,3.86,2.57,7.52,5.53,10.91,8.7,11.1,10.38,20.29,11.83,35.3,5.28,7.82-3.41,14.94-8.7,21.82-13.88,7.18-5.4,14.36-8.66,23.8-8.17,17.12.89,34.3.5,51.45.72,6.83.09,13.66.32,20.48.62,5.23.23,9.61,2.58,13.36,6.1,3.89,3.65,7.76,7.32,11.5,11.12,6.08,6.18,13.36,8.23,21.87,7.21,8.78-1.05,16.78-3.8,24.13-8.82,5.77-3.94,11.83-7.46,17.87-10.97,3.36-1.95,7-2.23,10.48-.14,6.84,4.1,13.63,8.29,20.47,12.4,2.85,1.71,5.66,3.52,8.65,4.96,6.53,3.14,13.04,3.8,20.27,1.4,9.95-3.29,19.17-7.9,27.48-14.01,10.14-7.45,20.78-8.8,32.63-5.54,11.42,3.14,23.02,5.11,35.01,4.59,6.37-.28,11.22-2.25,14.7-7.72,2.5-3.93,5.48-7.55,8.13-11.39,2.21-3.21,4.83-4.21,8.55-2.54,9.26,4.17,18.4,8.71,27.93,12.15,16.27,5.87,32.73,11.25,49.26,16.35,10.28,3.18,20.84,5.46,32.25,8.4v-42.92c-.87,0-2.43-.15-3.94.02-10.43,1.2-20.07-1.04-29.31-5.95-8.19-4.36-16.76-8.02-24.92-12.45-6.83-3.71-13.15-8.39-19.98-12.11-10.38-5.65-21-10.85-31.53-16.21-2.78-1.41-6.25-2.43-6.07-6.28.11-2.28,5.08-2.78,9.48-1.32,19.12,6.3,38.14,12.94,57.43,18.66,8.85,2.62,18.22,3.51,27.39,4.98,2.8.45,5.13-.64,6.6-3.43,2.96-5.6,2.34-7.68-3.82-9.26-16.92-4.35-33.89-8.53-50.87-12.67-10.66-2.6-21.36-5.05-32.05-7.53-4.82-1.12-6.59-2.85-6.21-8.08.73-10.16-.76-19.9-3.96-29.5-4.06-12.2-14.58-23.45-28.17-24.27-16.45-1-32.87-3.08-49.32-3.29-8.28-.11-16.67,2.6-24.89,4.53-6.27,1.47-7.04,1.34-10.63-4.06-5.92-8.93-12.69-17.07-21.78-23.09-3.31-2.19-6.34-4.91-9.09-7.78-4.47-4.65-7.08-10.12-5.17-16.79.42-1.44,1.21-3.16,2.37-3.85.63-.38,2.71.86,3.59,1.85,7.46,8.52,17.11,12.3,28.83,13.51,0-4.03.41-7.96-.12-11.77-.5-3.65-1.97-7.17-3.18-11.34,6.44.35,8.07,5.95,11.99,8.34,3.91,2.38,7.36,5.49,11.5,8.64.98-2,1.88-3.23,2.2-4.6,3.12-13.34,6.3-26.7.86-40.23-3.65-9.08-7.17-18.23-11.01-27.23-1.16-2.72-.84-4.06,1.71-5.64,19.8-12.26,40.2-23.72,59.03-37.34,14.9-10.77,28.08-23.99,41.58-36.6,18.3-17.1,34.38-36.32,48.44-56.93,11.79-17.28,21.69-35.88,32.07-54.1,3.82-6.71,3.39-6.34,11.01-6.74,11.94-.62,23.99-1.35,35.7-3.58,20.27-3.86,40.49-8.52,59.68-16.23,16.34-6.57,32.26-14.24,48.16-21.83,8.39-4.01,16.36-8.88,24.49-13.42.92-.51,1.62-1.42,3.27-2.9-38.69,1.88-74.39-7.01-109.55-18.78.07-.52.14-1.05.21-1.57,3.29.4,6.58.72,9.85,1.21,22.24,3.34,44.51,6.15,67.05,6.49,16.87.25,33.06-3.5,49.26-7.36,14.19-3.38,28.2-7.97,39.53-17.23,10.37-8.48,19.34-18.69,28.81-28.26,2.54-2.57,4.65-5.57,7.37-8.88-2.3-1.16-4.13-2.2-6.05-3.03-14.12-6.14-27.87-13.28-39.19-23.61-5.66-5.17-10.52-5.66-17.24-4.84-13.21,1.61-26.49,2.74-39.78,3.46-13.8.74-27.65.5-41.46,1.18-11.78.58-22.86,4.43-33.57,9.11-19.01,8.31-38.58,14.64-59.18,17.51-1.43.2-2.91.03-4.37.03-.12-.43-.23-.86-.35-1.29,2.03-.69,4.08-1.33,6.08-2.08,13.56-5.07,27.35-9.62,40.6-15.41,14.63-6.4,28.49-14.49,40.93-24.61,5.25-4.27,9.49-9.76,14.41-14.46,1.34-1.28,3.71-2.69,5.25-2.36,19.31,4.06,38.52.74,57.77-.32,26.9-1.48,52.68-8.18,77.55-17.98,29.21-11.52,56.55-26.49,77.23-50.92,7.8-9.22,14.01-19.79,20.85-29.81,1.73-2.53,1.68-4.55-1.53-6.48-13-7.8-22.22-18.91-27.66-33.08-1.36-3.54-3.66-3.09-6.46-2.14-13.56,4.6-27.08,9.35-40.74,13.62-26.32,8.24-53.43,12.88-80.78,15.46-17.99,1.7-34.12,8.13-50.28,15.32-23.14,10.29-47.48,16.39-72.58,19.5-1.69.21-3.43.03-5.13-.71,8.23-2.95,16.53-5.73,24.68-8.88,11.79-4.55,23.7-8.89,35.14-14.21,14.02-6.51,27.83-13.56,41.32-21.12,9.3-5.21,17.3-12.29,23.72-21.05,1.16-1.59,3.72-2.98,5.67-3.05,32.11-1.02,63.02-7.89,93.16-18.62,20.93-7.45,40.95-16.84,59.84-28.56,15.39-9.55,29.62-20.71,40.15-35.53,11.3-15.91,19.76-33.38,20.36-53.39.39-13.29-4.14-25.87-7.72-38.51-.86-3.05-2.54-3.62-5.14-1.7-19.84,14.62-41.91,25.38-64.18,35.44-29.98,13.54-61.34,23-93.92,28.4-12.38,2.05-25.14,3.67-35.9,11.3-.85.6-2.15.55-3.24.8-.38-.29-.77-.58-1.15-.86,1.08-1.74,1.83-3.86,3.3-5.14,5.54-4.77,11.71-8.85,16.89-13.96,6.25-6.15,11.99-12.87,17.42-19.76,2.56-3.24,5.16-5.29,9.26-5.91,24.85-3.77,48.58-11.11,71.5-21.51,23.27-10.55,45.95-22.18,66.91-36.71,22.06-15.29,42.84-32.29,60.85-52.36,15.97-17.8,26.94-38.41,32.46-61.67,3.6-15.19,6.27-30.61,9.31-45.93.24-1.22.03-2.53.03-4.66-3.7,1.96-6.78,3.45-9.72,5.19-17.59,10.44-34.99,21.22-52.75,31.37-27.46,15.68-55.17,30.93-82.74,46.4-13.78,7.73-27.24,16.09-41.31,23.24-21.51,10.92-43.42,21.05-65.17,31.48-19.26,9.23-38.1,19.23-55.01,32.36-24.45,18.98-43.16,42.49-53.82,71.79-5.11,14.05-9.65,28.33-13.87,42.68-6.4,21.74-15.87,41.95-27.97,61.09-7.02,11.1-15.84,20.54-24.78,29.97-12.76,13.46-26.95,25.28-41.84,36.28-1.1.82-2.44,1.32-4.69,2.52,0-2.85-.06-4.6,0-6.34,1.13-29.58-.83-58.97-6.48-88.02-5.2-26.7-15.43-51.55-28.53-75.34-9.55-17.35-21.41-32.89-34.84-47.33-2.38-2.56-4.82-5.06-7.29-7.53-2.09-2.09-1.98-3.93.17-5.96,4.36-4.11,8.56-8.38,12.91-12.49,18.12-17.12,31.74-37.64,44.24-58.95,12.01-20.47,21.84-41.95,28.15-64.9,8.03-29.2,10.94-58.79,7.25-89.03-3.07-25.14-9.64-49.29-18.78-72.8-2.29-5.89-5.1-11.57-7.78-17.3-.51-1.08-1.56-1.91-2.81-3.4-2.26,7.02-4.37,13.28-6.3,19.58-5.44,17.76-13.17,34.52-22.44,50.56-15.56,26.95-33.95,51.84-55.96,73.86-19.16,19.17-40.44,35.59-64.74,48.01-24.95,12.75-51.33,21.21-78.55,27.26-18.52,4.12-37.14,7.76-55.64,11.97-24.54,5.59-48.66,12.57-71.88,22.45-21.29,9.06-40.1,21.62-55.63,38.88-2.11,2.34-3.9,4.97-5.75,7.54-2.45,3.41-4.11,3.6-6.26,0-6.2-10.38-15.21-17.98-24.42-25.44-15.34-12.44-32.87-20.73-51.31-27.32-16.96-6.06-34.33-10.56-51.99-14.13-27.09-5.47-54.25-10.76-81.02-17.53-24.7-6.25-48.84-14.73-70.98-27.7-20.83-12.2-39.3-27.51-55.16-45.72-10.59-12.16-21.17-24.44-30.5-37.57-14.57-20.5-27.98-41.85-36.23-65.86-3.67-10.68-6.44-21.67-9.64-32.52-.36-1.21-.83-2.39-1.65-4.76-1.62,2.9-2.66,4.83-3.76,6.74-14.66,25.46-23.37,53.04-27.43,81.92-3.17,22.52-2.32,45.23,1.79,67.68,5.29,28.94,15.96,55.98,29.93,81.72,13.6,25.07,31.62,46.89,51.14,67.52,3.55,3.75,7.18,7.42,10.93,10.96,2.53,2.39,2.63,4.17.3,7.07-10.21,12.71-20.57,25.35-30.01,38.63-14.18,19.96-24.12,42.01-31.35,65.48-8.68,28.17-11.83,56.96-12.3,86.2-.19,11.63-.03,23.26-.03,35.7-1.53-.85-2.7-1.28-3.61-2.04-15.2-12.69-30.63-25.1-45.43-38.24-10.63-9.43-18.67-21.19-26.57-32.97-11.64-17.36-18.57-36.77-25.13-56.4-6.75-20.2-12.69-40.76-23.4-59.37-13.93-24.19-31.12-45.66-53.91-62.21-17.84-12.96-36.65-24.07-57.24-32.3-22.42-8.96-44.1-19.58-65.02-31.73-26.76-15.54-53.77-30.67-80.47-46.32-24.27-14.22-48.3-28.86-72.38-43.4-4.37-2.64-8.49-5.7-13.76-8.13,1.5,9.07,2.73,18.2,4.54,27.21,5.45,27.19,16.93,51.84,32.84,74.38,14.31,20.27,32.07,37.3,51.11,53.14,19.88,16.54,41.87,29.67,65.11,40.59,20.66,9.71,42.22,17.27,64.59,22.26,4.55,1.01,9.15,1.87,13.6,3.21,1.77.53,3.54,1.91,4.76,3.35,11,13.03,23.17,24.81,36.79,35.09,1.68,1.27,3.1,2.88,4.64,4.33-.12.4-.25.79-.37,1.19-1.46-.2-3.08-.05-4.35-.64-16.21-7.49-33.79-9.8-50.91-13.98-18.89-4.61-37.74-9.78-56-16.41-22.35-8.12-44.04-18.06-64.12-31.08-5.25-3.41-10.52-6.78-16.97-10.93-2.53,12.2-5.28,23.45-7.16,34.84-4.36,26.43,6.41,48.03,23.37,66.87,14.61,16.24,32.24,28.64,52.2,37.94,17.38,8.09,34.53,16.67,53.03,21.88,25.21,7.1,50.76,12.46,77.05,13.57,2.66.11,5.44.11,7.92.92,2.69.88,5.9,2.03,7.48,4.13,12.4,16.39,29.48,26.2,47.58,34.63,9.81,4.57,19.58,9.26,29.58,13.38,8.14,3.35,16.59,5.95,24.9,8.87,3.68,1.29,7.37,2.53,11.05,3.8-.08.33-.17.66-.25.99-2.9,0-5.85.37-8.69-.06-22.49-3.41-44.37-8.88-64.86-19.15-14.62-7.33-30.25-10.35-46.45-12.49-24.54-3.24-49.03-7.57-73.16-13.08-16.14-3.69-31.63-10.22-47.4-15.51-2.02-.68-3.97-1.56-5.28-2.08-4.12,7.49-7.44,14.98-12.09,21.53-3.68,5.18-8.73,9.5-13.67,13.61-2.43,2.03-3.1,3.52-1.74,6.21,9.44,18.64,21.43,35.34,37.81,48.5,28.2,22.65,60.45,36.57,95.66,44.25,18.29,3.99,36.71,6.8,55.39,7.07,11.63.17,23.29-.71,34.91-1.54,3.85-.28,6.68.38,9.32,3.27,16.88,18.43,36.8,32.75,59.75,42.59,11.59,4.97,23.65,8.86,35.49,13.27.72.27,1.34.82,1.93,2.19-1.14.08-2.32.37-3.42.19-20.21-3.22-39.38-9.6-57.82-18.49-10.04-4.84-20.7-8.34-32.02-8.64-9.99-.27-20-.26-30-.08-18.74.35-37.23-1.88-55.59-5.27-3.43-.63-5.51.3-8.42,2.24-10.37,6.9-21.21,13.09-31.98,19.38-3.58,2.09-7.41,3.81-11.24,5.44-3.01,1.28-3.9,2.89-1.88,5.69,18.42,25.42,39.28,46.77,72,54.07,32.31,7.21,64.29,7.82,96.69,2.59,7.53-1.22,15.1-2.14,22.74-2.84-16.06,9.32-34.07,12.56-51.92,15.26-18.02,2.73-36.37,3.25-54.9,4.76,3.6,2.06,7.5,4.23,11.35,6.5,25.5,15.01,52.5,26.83,80.35,36.56,22.19,7.74,44.92,13.7,68.67,14.28,3.47.09,6.95.17,10.42.05,2.67-.09,4.22.96,5.46,3.38,7.12,13.89,13.98,27.95,21.72,41.49,13.91,24.31,32.11,45.51,51.76,65.16,29.28,29.28,61.16,55.54,97.75,75.52,3.8,2.07,7.5,4.32,11.2,6.57,3.95,2.4,4.24,4.09,2.07,8.14-5.19,9.7-10.55,19.39-12.21,30.45-.55,3.69-.19,7.59.24,11.35.83,7.41,1.97,14.79,3.05,22.17.2,1.4.72,2.74,1.29,4.83,7.25-5.73,13.58-11.66,23.54-14.25-1.71,8.07-3.21,15.16-4.96,23.38,5.74-1.74,10.59-3.11,15.37-4.7,6.48-2.16,12.2-5.27,15.06-12.1.54-1.28,2.23-2.08,3.47-3.16,4.67,7.27,2.77,18.24-3.94,24.53-6.19,5.8-12.34,11.67-18.83,17.12-4.49,3.77-7.9,8.13-9.81,13.57-1.39,3.95-3.76,5-7.22,2.95-12.35-7.32-25.72-5.48-38.98-4.48-12.62.95-25.22,2.09-37.82,3.24-7.68.7-13.37,4.41-17.13,11.31-7.07,12.99-10.71,26.84-10.99,41.58-.11,5.89-.73,7.22-6.34,8.31-21.24,4.12-42.52,8.02-63.77,12.05-4.58.87-9.12,1.91-13.67,2.95-.74.17-2.03.87-1.99,1.13.64,3.52,1.06,7.2,2.49,10.4.49,1.09,3.83,1.68,5.61,1.31,18.9-4,37.73-8.27,56.6-12.39,10.39-2.27,20.79-4.5,31.24-6.46,2.95-.55,6.09-.08,9.14-.08.2.52.39,1.03.59,1.55-1.77,1.19-3.4,2.69-5.33,3.5-9.81,4.15-19.96,7.6-29.5,12.28-15.68,7.69-30.92,16.28-46.48,24.22-7.1,3.62-14.37,7.04-21.87,9.71-13.99,4.99-20.76,1.59-29.15-10.13-7.57-10.57-9.75-23.46-8.55-36.24,1.2-12.81,9.16-21.32,21.34-25.13,12.06-3.77,24.36-6.8,36.55-10.14,9.79-2.68,19.62-5.22,29.34-8.14,1.69-.51,3.36-2.43,4.18-4.11.99-2.03.93-4.53,1.54-6.78,4.68-17.41,13.74-31.84,28.24-42.9,9.4-7.17,20.38-8.68,31.42-9.97,9.41-1.1,18.93-1.33,28.4-1.98,1.27-.09,2.52-.39,4.96-.78h.06ZM424.19,421.43c1.79,4.74,4.25,9.35,5.25,14.25,5.43,26.63,15.87,51.05,31.3,73.36,3.6,5.21,7.65,10.13,11.49,15.18l1.68-.39c.62-33.81,10.29-65.22,24-95.22-24.48-2.39-49.31-4.81-73.71-7.19h0ZM1368.55,429.1c12.47,28.35,20.29,58.72,25.81,90.65,1.58-1.43,2.2-1.93,2.76-2.5,7.29-7.44,13.05-15.99,17.17-25.51,4.61-10.64,9.35-21.31,12.8-32.35,4.55-14.57,8.21-29.39,17.06-41.77-25.12,3.81-50.43,7.66-75.6,11.48h0Z"/>
  <path class="cls-1" d="M669.69,434.04c-6.52,4.71-12.3,8.86-18.05,13.05-20.66,15.07-35.71,34.59-43.9,58.73-7.03,20.72-8.98,42.27-5.4,64.05,5.47,33.23,21.4,60.44,46.94,82.38,15.43,13.25,32.68,22.97,52,28.92,23.16,7.14,46.59,6.82,70.1,1.46,20.33-4.63,38.37-14.04,55.2-26.04,2.14-1.53,4.09-3.33,6.78-5.54.74,2.18,1.55,3.89,1.91,5.7,3.15,15.6,8.86,30.05,19.45,42.17,2.92,3.35,6.21,6.42,9.62,9.28,2.63,2.2,1.95,3.28-.6,4.67-17.74,9.7-36.2,17.75-55.73,23-19.88,5.34-40.17,8.14-60.82,6.4-10.44-.88-20.91-1.85-31.25-3.52-15.35-2.48-29.96-7.61-44.14-13.98-17.88-8.03-34.31-18.42-49.61-30.57-15.24-12.11-27.66-26.83-38.97-42.64-18.85-26.34-30.02-55.54-33.46-87.65-2.43-22.6-.24-44.79,6.27-66.68,4.54-15.27,10.26-29.93,18.41-43.58,8.08-13.54,18.19-25.45,29.93-35.96,3.85-3.44,7.88-6.67,11.89-9.92,1.65-1.34,3.31-2.04,5.24-.06,11.13,11.44,25.34,17.5,40.06,22.64,2.04.71,4.06,1.5,6.07,2.29.45.18.83.54,2.05,1.37v.03Z"/>
  <path class="cls-1" d="M1197.37,433.13c1.27-.7,2.47-1.65,3.83-2.05,14.78-4.34,26.59-13.62,38.2-23.11,3-2.45,5.3-2.71,7.79-.34,9.39,8.93,19.46,17.31,27.75,27.18,14.93,17.77,25.35,38.38,32.05,60.54,7.15,23.64,9.65,47.74,6,72.55-3.23,21.89-9.96,42.39-19.87,61.99-6.8,13.44-15.45,25.58-25.21,37.06-17.26,20.31-37.48,36.98-60.86,49.54-20.94,11.24-43.24,18.77-66.89,22.55-16.03,2.56-32.01,4.05-48.21,4.01-14.69-.04-28.76-3.18-42.62-7.56-16.87-5.32-33.26-11.81-48.6-20.71-1.31-.76-2.21-2.22-3.3-3.35,1.07-.94,2.19-1.83,3.19-2.83,3.63-3.62,7.62-6.96,10.74-10.97,9.09-11.7,15.54-24.79,19.39-39.14,1.54-5.74,2.53-6.17,7.28-2.36,10.57,8.47,21.7,15.89,34.18,21.4,11.63,5.14,23.87,7.53,36.3,8.61,48.18,4.19,87.91-13.11,120.49-48.21,14.29-15.39,22.88-33.67,28.58-53.66,5.52-19.36,5.86-39.15,2.27-58.43-5.27-28.32-18.67-52.95-40.45-72.43-6.08-5.43-12.49-10.49-18.81-15.66-1.28-1.05-2.78-1.82-4.17-2.71.32-.64.64-1.28.96-1.93v.02Z"/>
  <path class="cls-1" d="M930.14,514.46c6.64-9.14,12.45-18.08,19.23-26.22,10.41-12.51,21.03-24.91,32.4-36.53,15.19-15.52,32.7-28.22,51.83-38.6,11.12-6.03,22.03-12.48,33.36-18.09,21.33-10.54,42.94-20.51,64.35-30.88,25.15-12.19,50.28-24.44,75.31-36.87,28.63-14.21,57.19-28.56,85.7-43.03,14.97-7.6,29.74-15.57,45.5-22.87-1.43,1.92-2.62,4.11-4.34,5.73-25.14,23.78-52.52,44.57-82.75,61.54-24.39,13.69-48.33,28.2-73.07,41.21-33.14,17.43-66.83,33.8-100.33,50.55-29.6,14.81-57.86,31.54-81.85,54.77-15.4,14.92-28.3,31.87-40.74,49.18-7.96,11.08-15.4,22.53-23.08,33.82-2.23,3.28-3.79,2.96-6.18-.66-12.55-19.01-24.46-38.5-37.99-56.8-21.88-29.6-49.27-53.22-82.33-69.78-22.76-11.4-45.95-21.96-68.65-33.48-25.66-13.02-51.24-26.26-76.39-40.23-21.08-11.71-41.69-24.3-62.13-37.1-10.99-6.87-21.51-14.58-31.69-22.63-13.94-11.02-27.37-22.71-40.98-34.15-1.06-.89-1.84-2.12-2.74-3.19.26-.44.51-.88.77-1.33,1.96.8,4.17,1.26,5.84,2.46,18.84,13.65,39.64,23.9,60.25,34.37,32.96,16.73,66.19,32.94,99.4,49.18,21.09,10.31,42.32,20.33,63.53,30.4,6.77,3.21,13.75,5.98,20.47,9.27,17.19,8.42,34.41,16.78,51.38,25.62,23.38,12.17,44.07,28.09,62.4,46.97,15.6,16.07,28.63,34.18,40.54,53.11.84,1.34,1.82,2.6,2.99,4.25h0Z"/>
  <path class="cls-1" d="M1039.43,537.27c0,7.36-.08,14.26.02,21.16.2,14.33,5.88,26.86,13.18,38.77,14.03,22.88,34.48,36.91,60.71,41.56,16.94,3,33.23-.54,49.04-7.82,27.65-12.73,43.81-34.38,49.6-63.47,5.17-25.97-1.58-49.92-17.13-71.19-3.69-5.05-8.34-9.64-13.3-13.45-10.29-7.88-20.65-15.83-33.49-19.44-1.89-.53-3.63-1.66-5.41-2.55-.27-.13-.42-.49-1.02-1.23,3.45-1.7,6.76-3.39,10.11-4.98,4.06-1.93,8.21-3.68,12.22-5.71,5.72-2.88,11.45-3.16,17.37-.75,14.93,6.08,27.68,15.36,38.41,27.22,10.71,11.83,19.01,25.27,23.72,40.68,5.54,18.13,7.37,36.43,3.27,55.2-7.57,34.58-26.31,61.21-55.61,80.96-21.54,14.52-45.05,22.16-70.91,21.51-20.67-.52-39.76-6.57-57.32-18.04-18.74-12.24-32.17-28.74-39.64-49.36-7.59-20.95-5.69-41.28,9.84-58.94,2.54-2.89,4.16-6.6,6.34-10.14h0Z"/>
  <path class="cls-1" d="M718,460.55c-7.96,3.98-15.03,7.27-21.87,10.99-25.44,13.82-41.04,35.18-46.48,63.44-3.04,15.8-.67,31.42,5.07,46.58,9.1,24.04,26.36,40.08,49.17,50.52,20.64,9.45,41.59,10.36,62.95,1.53,10.76-4.45,20.69-9.83,29.24-17.78,11.19-10.4,19.61-22.72,24.51-37.12,2.93-8.62,4.66-17.67,6.58-26.59.46-2.12-.37-4.56-.81-6.82-.3-1.52-.94-2.98-1.48-4.6.99-.11,1.49-.28,1.57-.16,6.76,9.85,14.37,19.35,16.77,31.4,1.01,5.1,1.11,10.61.43,15.77-3.44,26.14-16.33,46.59-37.34,62.53-18.13,13.76-38.55,20.85-60.81,23.05-6.88.68-13.99,0-20.91-.81-23.71-2.79-43.86-13.23-62.33-28.17-17.41-14.08-30.6-31.13-39.38-51.41-10.78-24.89-12.14-50.45-3.58-76.52,10.27-31.24,31.15-52.84,59.62-68.06,7.24-3.87,13.65-3.84,20.44.86,5.69,3.93,11.82,7.25,18.63,11.37h0Z"/>
  <path class="cls-1" d="M931.1,786.39c.76-6.35,1.76-12.68,2.25-19.05,3.33-43.21,3.45-86.49,2.99-129.79-.06-5.98-.43-11.99-1.17-17.93-.4-3.2.47-5.44,2.55-7.63,7.35-7.71,14.66-15.46,21.94-23.24,1.81-1.93,3.36-4.1,5.17-6.04.85-.91,2.03-1.53,3.05-2.28.77,1.14,1.81,2.18,2.27,3.43,4.04,11.09,7.45,22.44,12.12,33.25,3.13,7.25,8.09,13.7,12,20.64.85,1.51,1.42,3.78.95,5.34-2.33,7.62-5.38,15.03-7.58,22.68-10.17,35.35-24.71,68.86-41.89,101.32-4.04,7.64-7.42,15.63-11.16,23.44-1.2,2.5-2.57,4.91-4.42,8.42-1.99-2.94-3.66-4.77-4.62-6.93-8.98-20.21-18.17-40.34-26.63-60.76-5.85-14.13-11.21-28.52-15.77-43.11-3.91-12.51-6.36-25.47-9.49-38.23-.47-1.93-.85-3.97-1.76-5.7-1.82-3.48-1.24-6.56.36-9.97,4.4-9.33,8.78-18.69,12.66-28.25,2.68-6.6,4.62-13.52,6.7-20.35,1.38-4.51,2.92-5.22,6.44-1.76,9.13,8.99,17.98,18.27,27.05,27.31,2.16,2.15,4.76,3.85,7.15,5.76-1.7,1.49-4.17,2.73-5.02,4.67-.92,2.13-.39,4.91-.4,7.4-.08,21.99-.35,43.98-.16,65.96.24,27.96.83,55.92,1.36,83.87.05,2.52.78,5.03,1.19,7.55.61-.02,1.22-.04,1.83-.05l.04.03Z"/>
  <path class="cls-1" d="M875.5,1194.25c5.79-16.74,5.58-33.46,8.56-49.53.53-.06,1.06-.11,1.59-.17.82.9,1.95,1.67,2.4,2.73,4.91,11.65,10.24,23.16,11.58,35.99.94,8.97,1.07,9.56,10.03,9.7,15.97.24,31.96-.35,47.94-.56,2.73-.04,3.56-1.5,3.97-4.05,1.2-7.38,2.02-14.94,4.3-22.01,2.12-6.56,5.91-12.57,9-18.81.43-.87,1-1.67,2.04-3.37,4.28,16.88,8.16,32.18,12.35,48.71,1.63-2.53,2.6-4.17,3.7-5.71,1.26-1.77,3.44-2.8,4.26-.38,3.28,9.63,11.07,15.12,18.33,21.17.33.27.36.89.65,1.66-.71.54-1.37,1.43-2.19,1.63-19.37,4.81-38.54,10.94-58.18,13.96-24.11,3.69-48.55,3.05-72.41-3.4-10.92-2.95-21.76-6.2-32.57-9.53-1.73-.53-3.12-2.21-4.66-3.36,1.16-1.43,2.14-3.08,3.53-4.24,5.73-4.77,10.28-10.36,13.24-17.27.66-1.55,2.08-2.77,3.15-4.15,1.15,1.07,2.42,2.05,3.42,3.25,1.85,2.22,3.55,4.56,5.99,7.73h-.02Z"/>
  <path class="cls-1" d="M807.91,763.84c.46.98,1.08,1.92,1.35,2.95,4.8,18.82,11.51,36.98,21.89,53.38,9.86,15.58,20.39,30.84,31.77,45.35,16.45,20.97,34.89,40.24,54.25,58.59,3.02,2.86,6.13,5.63,9.14,8.5,3.61,3.45,4.32,3.59,7.74.11,15.77-15.99,31.98-31.59,47.1-48.18,20.11-22.07,37.64-46.19,52.03-72.41,7.17-13.06,11.18-27.4,14.46-41.9.47-2.07.98-4.13,1.46-6.2.51,0,1.02.01,1.53.02,0,1.92.12,3.84-.02,5.75-1.76,24.44-8.99,47.41-19.74,69.19-9.82,19.89-21.78,38.66-36.16,55.55-18.12,21.27-37.21,41.71-55.87,62.52-1.89,2.11-3.68,4.3-5.51,6.46-1.71,2.03-3.35,2.46-5.35.22-20.95-23.44-42.6-46.3-62.72-70.43-17.63-21.14-31.52-44.99-42.65-70.21-7.95-18.02-13.18-36.97-15.77-56.57-.1-.78-.01-1.59-.01-2.39.36-.11.73-.21,1.09-.32v.02Z"/>
  <path class="cls-1" d="M1114.44,1356.66c-.54-1.11-1.28-2.17-1.61-3.34-6.19-22.43-12.02-44.97-18.58-67.3-5.2-17.68-11.24-35.12-16.99-52.64-1.6-4.87-4.92-7.85-9.91-9.68-7.84-2.88-15.08-6.97-20.69-13.49-3.93-4.56-5.42-9.57-3.05-15.24,3.65-8.74,7.47-17.41,11.29-26.08.37-.84,1.24-1.45,2.34-2.68,1.48,1.68,3.04,2.93,3.93,4.56,4.34,7.92,11.57,12.71,18.68,17.65,5.73,3.98,11.87,7.5,17.07,12.08,4.02,3.55,7.46,8.1,10.13,12.78,12.18,21.37,17.53,44.62,19.24,69.07,1.08,15.36-1.24,30.16-4.08,45.03-1.43,7.51-2.96,15-4.57,22.47-.5,2.32-1.42,4.56-2.14,6.83-.35,0-.7-.01-1.05-.02h-.01Z"/>
  <path class="cls-1" d="M739.07,1303.85c.9-12.36,1.13-25.41,3.03-38.21,1.46-9.8,4.97-19.3,7.7-28.9,1.09-3.84,2.65-7.54,3.76-11.37,4.49-15.61,15.23-26.25,27.92-35.34,3.79-2.71,8.07-4.84,11.49-7.93,3.63-3.29,6.77-7.21,9.62-11.21,3.25-4.56,5.9-4.92,8.37.08,3.9,7.89,7.64,15.9,10.73,24.13,2.76,7.35,1.31,11.8-5.25,16.5-6.16,4.41-12.76,8.29-19.45,11.85-3.69,1.97-6.06,4.67-7.38,8.35-4.4,12.19-8.7,24.42-12.93,36.67-7.86,22.78-15.7,45.57-23.39,68.4-1.21,3.59-1.46,7.48-2.48,11.15-.42,1.51-1.7,2.78-2.59,4.16-1.09-1.1-2.84-2.05-3.15-3.34-1.67-6.94-3.41-13.91-4.32-20.98-1-7.74-1.12-15.59-1.66-24.03l-.02.02Z"/>
  <path class="cls-1" d="M1016.12,1265.92c-.69,1.55-1.67,3.04-2.01,4.66-2.4,11.39-4.27,22.92-7.17,34.18-1.42,5.5-4.35,10.72-7.22,15.71-2.49,4.34-5.55,3.96-8.38-.12-7.35-10.58-11.07-22.66-14.65-34.8-1.13-3.83-2.48-7.68-2.9-11.61-1.13-10.6,1.23-19.83,11.21-25.79,11.81-7.05,23.34-14.56,35.27-21.39,7.27-4.16,8.57-3.46,12.08,4.01,5.86,12.5,11.78,24.98,17.36,37.61,6.16,13.95,4.92,27.29-3.17,40.42-8.37,13.58-15.92,27.67-23.87,41.51-.62,1.08-1.56,1.97-3.24,4.06-.86-2.85-1.77-4.56-1.84-6.3-.64-16.49.02-32.89,2.06-49.33,1.13-9.14.08-18.55-.18-27.84-.05-1.64-1.07-3.26-1.64-4.89-.58-.03-1.15-.06-1.73-.08h.02Z"/>
  <path class="cls-1" d="M846.83,1268.03c-.58,3.25-1.76,6.53-1.63,9.75.48,11.95,1.6,23.88,2.08,35.84.52,12.95.6,25.92.8,38.89.02,1.4-.45,2.81-.7,4.21-.41.15-.82.3-1.24.45-1.1-1.63-2.62-3.12-3.22-4.92-3.95-11.78-10.33-22.27-16.87-32.71-4.14-6.62-8.11-13.38-11.66-20.33-5.06-9.88-3.19-19.81,1.1-29.38,6.13-13.65,12.49-27.21,18.87-40.74,2.5-5.29,2.91-5.14,7.66-2.14,8.71,5.5,17.61,10.71,26.34,16.17,3.66,2.29,7.2,4.8,10.63,7.43,10.91,8.33,14.45,19.25,11.73,32.65-2.67,13.14-8.41,24.79-15.93,35.71-.28.41-.55.91-.96,1.14-2.18,1.26-4.53,3.55-6.57,3.31-1.6-.19-3.52-3.33-4.13-5.49-2.76-9.76-4.95-19.67-7.65-29.45-1.88-6.82-4.26-13.51-6.42-20.25-.75-.04-1.49-.09-2.24-.13h.01Z"/>
  <path class="cls-1" d="M1179.12,1298.76c-4.83-.45-9-1.02-13.19-1.17-6.29-.22-12.6-.34-18.89-.11-2.98.11-4.08-.73-4.55-3.7-1.76-11.14-3.69-22.27-5.8-33.35-.59-3.08-.4-5.1,2.94-6.23,8.49-2.85,14.94-8.38,20.47-15.33,3.09-3.88,6.72-7.41,10.47-10.68,8.5-7.42,17.73-7.5,26.04.04,8.57,7.78,14.07,17.82,17.54,28.64,2.73,8.49,5.03,17.47,5.33,26.3.33,9.85-1.49,19.83-3.02,29.66-.81,5.2-2.87,10.23-4.65,15.24-.41,1.15-2.01,2.67-3,2.62-1.09-.05-2.5-1.52-3.08-2.71-6.49-13.27-13.16-26.46-19.11-39.97-3.26-7.41-5.17-15.41-7.85-23.08-.86-2.48-1.93-5.01-3.48-7.08-1.87-2.5-4.18-2.05-5.2.93-.74,2.16-1.07,4.55-1.14,6.84-.27,8.95,1.85,17.52,4.79,25.86.82,2.33,3.01,4.18,5.36,7.29h.02Z"/>
  <path class="cls-1" d="M648.68,1290.32c-1.26-13.65,1.4-27.5,6.59-40.82,3.79-9.72,10.7-17.31,19.22-23.08,8.55-5.8,16.42-4.81,24.01,2.47,3.71,3.56,7.11,7.5,10.21,11.61,4.63,6.15,10.2,10.3,18.07,11.22,4.43.52,5.61,2.23,3.87,5.44-6,11.08-6.43,23.3-7.6,35.36-.56,5.82-.76,5.93-6.57,5.69-7.64-.31-15.31-.17-22.96-.01-4.39.09-5.02-.63-3.8-4.85,2.52-8.77,4.91-17.58,7.32-26.39.22-.8.3-1.64.37-2.47.31-3.38-.04-6.54-4.03-7.48-4.07-.96-5.18,2.14-6.08,5.07-2.38,7.79-4.25,15.75-7.04,23.38-4.98,13.63-14.46,24.64-22.32,36.57-2.09,3.18-4.03,2.6-5.6-.98-4.21-9.64-3.88-19.82-3.67-30.74h0Z"/>
  <path class="cls-1" d="M1119.65,562.81c-20.69-.24-37.11-18.25-36.9-40.48.17-18.47,19.27-37.22,37.96-36.75,21.07.53,37.88,17.96,37.38,38.83-.51,21.53-17.4,38.65-38.44,38.4h0Z"/>
  <path class="cls-1" d="M779.05,524.4c1.31,18.29-17.53,38.43-37.25,38.22-21.02-.22-37.52-16.82-37.96-41.26-.32-17.9,17.54-35.02,36.55-35.53,24.58-.65,39.71,21.69,38.65,38.57h.01Z"/>
  <path class="cls-1" d="M1295.32,719.63c5.69,77.56-5.77,151.4-34.1,222.64-.44-.08-.88-.15-1.32-.23.31-1.37.48-2.79.95-4.11,13.83-38.88,16.18-78.78,9.77-119.23-2.52-15.91-6.48-31.6-10.17-47.3-1.4-5.97-3.82-11.7-5.88-17.5-1.28-3.62-.53-5.77,3.36-7.31,13.43-5.29,24.16-14.39,33.9-24.81.61-.65,1.57-.99,3.49-2.16h0Z"/>
  <path class="cls-1" d="M597.5,929.92c-25.75-46.27-42.62-176.06-27.48-207,2.63,2.11,5.34,3.97,7.68,6.21,7.78,7.46,16.23,13.84,26.78,16.81,3.36.94,3.59,2.79,2.55,5.63-2.18,5.94-4.18,11.94-6.32,17.89-7.14,19.87-10.78,40.49-12.71,61.41-1.88,20.43-2.21,40.94,1.02,61.27,1.66,10.48,4.49,20.79,6.81,31.16.5,2.22,1.11,4.42,1.66,6.63h.01Z"/>
  <path class="cls-1" d="M708.99,966.66c-7.27-13.55-14.89-26.93-21.71-40.7-10.83-21.86-14.32-45.3-15.17-69.56-.71-20.27,1.69-40.15,3.9-60.13.97-8.74,1.81-17.5,2.75-26.25.1-.92.54-1.8,1.51-2.7-2.76,33.84.87,67.26,6.68,100.38,5.82,33.2,13.4,66.07,23.67,98.26l-1.63.71h0Z"/>
  <path class="cls-1" d="M1179.22,766.23c1.17,7.85,2.77,15.66,3.43,23.55,1.57,18.9,3.11,37.81,3.92,56.75,1.19,27.83-3.39,54.84-15.05,80.19-6.66,14.47-15.03,28.14-22.67,42.16-.52.95-1.35,1.74-2.23,2.84,21.65-67.09,35.05-134.99,31.24-205.55.45.02.91.04,1.36.05h0Z"/>
  <path class="cls-1" d="M1007.44,1067.76c13.87-5.45,27.94-10.46,41.56-16.47,13.82-6.1,27.67-12.39,40.64-20.07,12.73-7.53,24.37-16.89,37-24.89-8.82,12.81-19.97,23.14-32.7,32.1-12.72,8.95-25.87,17.08-40.6,22.05-14.82,5-30.34,6.72-45.89,7.28h-.01Z"/>
  <path class="cls-1" d="M851.72,1068.16c-19-2.23-38-4.79-55.77-12.65-25.12-11.11-47.22-26.32-63.79-48.6l.72-1.47c1.5.71,3.31,1.09,4.46,2.17,21.2,19.71,46.24,33.01,72.94,43.42,11.15,4.35,22.57,8.03,33.84,12.09,2.75.99,5.38,2.31,8.06,3.48-.15.52-.3,1.04-.46,1.56Z"/>
  <path d="M1339.71,150.2c-4.16,23.84-69.08,75.64-94.62,75.78,18.34-10.45,35.06-21.72,50.37-34.86,15.24-13.08,31.59-24.98,44.25-40.92Z"/>
  <path d="M306.28,452.07c23.85,30.24,57.9,46.5,89.54,67.25-1.83-.19-3.82.03-5.45-.64-10.31-4.22-20.73-8.24-30.74-13.09-15.13-7.34-28.36-17.47-39.5-30.08-5.16-5.84-9.6-12.33-14.17-18.65-.77-1.06-.58-2.8-.83-4.23l1.15-.55h0Z"/>
  <path d="M1556.57,458.02c-3.96,20.83-68.31,64.91-88.15,60.4,31.64-17.22,60.97-36.24,88.15-60.4h0Z"/>
  <path d="M608.24,222.71c-20.91,2.09-83.62-47.93-82.41-65.14,25.25,24.48,51.48,47.7,82.41,65.14Z"/>
</svg>