<?xml version="1.0" encoding="UTF-8" standalone="no"?>
<!DOCTYPE svg PUBLIC "-//W3C//DTD SVG 1.1//EN" "http://www.w3.org/Graphics/SVG/1.1/DTD/svg11.dtd">
<svg width="100%" height="100%" viewBox="0 0 40 39" version="1.1" xmlns="http://www.w3.org/2000/svg" xmlns:xlink="http://www.w3.org/1999/xlink" xml:space="preserve" xmlns:serif="http://www.serif.com/" style="fill-rule:evenodd;clip-rule:evenodd;stroke-linejoin:round;stroke-miterlimit:2;">
    <g>
        <path fill="var(--color-logo, #326799)" d="M40,8.18l-8.02,-8.18l-31.98,0l0,30.612l7.84,7.98l32.16,-0l0,-30.412Zm-29.233,25.638l-6.183,-6.292l0,-18.258l4.085,4.165l0,12.415l3.945,4.025l12.175,-0l3.895,3.935l-17.917,-0l-0,0.01Zm0.489,-14.282c-0,-4.595 3.725,-8.32 8.32,-8.32c4.594,-0 8.319,3.725 8.319,8.32c0,4.594 -3.725,8.319 -8.319,8.319c-4.605,0 -8.32,-3.725 -8.32,-8.319Zm23.97,14.302l-4.494,-0l-5.843,-5.953c1.158,-0.729 2.157,-1.688 2.936,-2.816l3.346,3.375l-0.02,-15.69l-3.965,-4.045l-15.361,0l2.417,2.447c-1.158,0.749 -2.147,1.738 -2.896,2.886l-6.762,-6.871l0,-2.397l24.44,0l6.202,6.302l-0,22.762Zm-11.286,-14.302c0,2.417 -1.957,4.374 -4.374,4.374c-2.417,0 -4.375,-1.957 -4.375,-4.374c0,-2.417 1.958,-4.375 4.375,-4.375c2.417,0 4.374,1.958 4.374,4.375Z" />
    </g>
</svg>