<?xml version="1.0" encoding="UTF-8" standalone="no"?><!DOCTYPE svg PUBLIC "-//W3C//DTD SVG 1.1//EN"
        "http://www.w3.org/Graphics/SVG/1.1/DTD/svg11.dtd">
<svg width="100%" height="100%" viewBox="0 0 326 376" version="1.1" xmlns="http://www.w3.org/2000/svg"
     xmlns:xlink="http://www.w3.org/1999/xlink" xml:space="preserve" xmlns:serif="http://www.serif.com/"
     style="fill-rule:evenodd;clip-rule:evenodd;stroke-linejoin:round;stroke-miterlimit:2;">
    <g>
        <path fill="var(--color-logo, #ef0025)" d="M255.208,1.783c-4.3,1.9 -10,7.8 -11.6,11.8c-1.4,3.6 -1.1,13 0.5,16.1c0.8,1.5 3.5,4.6 6,7l4.6,4.3l0,7c0,4.3 -0.4,6.9 -1.1,6.9c-0.6,0 -3.5,-2.1 -6.5,-4.7l-5.5,-4.6l-5.5,5.4c-3,2.9 -5.3,5.6 -5.2,5.9c0.2,0.3 3.5,3.4 7.3,6.9c3.9,3.5 9.1,8.4 11.8,10.8l4.7,4.5l0,12.3c0,6.8 -0.4,12.6 -0.8,12.9c-0.5,0.3 -9.7,-7.4 -20.6,-17c-10.8,-9.6 -20,-17.4 -20.4,-17.4c-0.4,0 -3,2.3 -5.7,5c-3.8,3.8 -4.7,5.4 -4,6.5c0.6,0.8 11.6,10.7 24.5,22c12.9,11.4 24.3,21.5 25.3,22.7c1.5,1.7 1.7,4.2 1.7,18.3l0,16.3l-7.7,6.9c-15,13.5 -20.8,18.3 -22.2,18.3c-0.7,0 -5.3,-3.6 -10.1,-8c-4.8,-4.4 -9.2,-8 -9.7,-8c-0.5,0 -3.2,2.4 -6.1,5.3l-5.3,5.3l9.5,8.5l9.5,8.4l0.1,47.7c0,39.3 -0.2,47.8 -1.4,48.5c-0.7,0.4 -4.6,3.8 -8.7,7.5c-4,3.8 -7.5,6.8 -7.9,6.8c-0.3,0 -5.3,-4.7 -11,-10.5l-10.5,-10.5l-0.3,-61.3c-0.2,-42.7 0.1,-61.9 0.9,-63.7c0.6,-1.4 7.9,-8.5 16.2,-15.8c8.4,-7.3 17.9,-15.7 21.2,-18.7l6,-5.4l-5.5,-5.5l-5.5,-5.6l-15.3,13.5c-8.5,7.4 -15.8,13.5 -16.3,13.5c-1,0 -1,0 -1.3,-9.8c-0.1,-4 0.3,-8.1 0.9,-9.1c0.5,-0.9 5.8,-6.1 11.8,-11.5c5.9,-5.4 10.7,-10.2 10.7,-10.6c0,-1 -9.7,-10 -10.7,-10c-0.5,0 -3.2,2.1 -6.1,4.6c-2.9,2.6 -5.6,4.4 -5.9,4c-0.3,-0.3 -0.8,-6 -1.1,-12.6l-0.4,-12l4.5,-4.3c5.8,-5.4 8,-9.8 7.9,-16.2c-0.1,-6 -1.1,-9.1 -4.7,-13.4c-4.1,-4.8 -10,-7.4 -17,-7.5c-20.6,-0.3 -30.1,22.9 -14.9,36.3l4.4,3.9l0,34.9c0,19.2 -0.3,35.3 -0.7,35.7c-0.4,0.4 -8,-6.6 -16.9,-15.5l-16.2,-16.2l-5.6,4.8c-3.1,2.7 -5.6,5.1 -5.6,5.4c0,0.3 10.1,10.7 22.5,23.1l22.5,22.6l0,122l-11,10.8l-10.9,10.8l-2.8,-2.1c-1.5,-1.2 -5.8,-5.1 -9.5,-8.6l-6.8,-6.4l0,-46c0,-42.9 0.1,-46.2 1.8,-47.9c1,-0.9 5.5,-5 10,-9.1l8.3,-7.5l-5.3,-5.3c-2.9,-2.9 -5.6,-5.3 -6,-5.3c-0.9,0 -4,2.7 -13.2,11.2c-2.8,2.6 -5.7,4.8 -6.5,4.8c-1.4,0 -12.9,-9.5 -23.8,-19.7l-6.3,-5.9l0,-16.1c0,-18.6 -1.1,-16.1 13,-28.5c26.1,-22.6 39,-34.4 39,-35.3c0,-1.1 -9.1,-10.5 -10.2,-10.5c-0.3,0 -9.5,7.8 -20.4,17.4c-10.9,9.6 -20.2,17.2 -20.6,17c-1,-0.6 -1,-24.5 0,-26c0.5,-0.8 19,-17.6 23.1,-21.1c0.5,-0.4 -10,-11.3 -10.9,-11.3c-0.3,0 -2.7,2 -5.5,4.5c-2.7,2.4 -5.6,4.5 -6.2,4.5c-0.9,0 -1.3,-2 -1.3,-6.6c0,-6.5 0,-6.5 4.9,-11.3c7.1,-6.9 8.9,-14.6 5.2,-22.6c-3.9,-8.5 -10.4,-12.7 -20.1,-12.9c-15.3,-0.2 -25.3,11.6 -21.9,25.8c1,4 2.3,6.1 6.6,10.2c5.3,5.1 5.3,5.2 5.3,11.3c0,7.6 -1,7.8 -8.1,1.5l-5.2,-4.6l-11.2,11.2l3,2.8c1.7,1.5 7.2,6.5 12.3,11.1l9.2,8.4l0,11.8c0,12.6 -0.3,13.4 -4.6,10c-2,-1.6 -13.5,-11.6 -16.8,-14.6c-7.3,-6.8 -18.8,-16.5 -19.4,-16.5c-0.4,0 -3,2.3 -5.7,5c-3.7,3.8 -4.7,5.4 -4,6.5c0.6,0.7 11.4,10.4 24,21.5c12.7,11.1 23.8,21.1 24.8,22.2c1.5,1.8 1.7,4.5 1.7,23.7l0,21.6l20.5,17.9l20.5,17.8l0,88.7l4.7,4.3c2.6,2.4 7.5,6.8 10.8,9.8c3.3,3.1 10,9.1 14.8,13.5l8.8,7.8l4.2,-4.1c15.6,-15.1 27.3,-26.2 27.8,-26.2c0.6,0 5.7,4.8 21.6,20.3l10.1,10l39.2,-35.4l0,-88.5l20.5,-18l20.4,-17.9l0.1,-21.8l0,-21.9l2.8,-2.6c3.5,-3.4 42.4,-37.8 45.7,-40.4c1.4,-1.1 2.5,-2.5 2.5,-3.2c0,-0.6 -2.3,-3.4 -5,-6.1c-3.8,-3.7 -5.4,-4.7 -6.4,-4c-0.8,0.6 -9.4,8.1 -19.2,16.7c-9.8,8.7 -18.4,15.8 -19.1,15.8c-1,0 -1.3,-2.9 -1.3,-11.6l0,-11.7l4.8,-4.6c2.6,-2.5 8.1,-7.6 12.2,-11.3l7.5,-6.7l-5.7,-5.7l-5.6,-5.7l-5.8,5.1c-3.1,2.8 -6.1,4.9 -6.6,4.6c-0.4,-0.3 -0.8,-3.7 -0.8,-7.5l0,-7l4.4,-4c12.3,-11.2 9.2,-29 -6.1,-35.4c-4.8,-2 -13,-1.8 -17.8,0.4Zm15.2,14.8c3.7,4.9 -1.1,12.1 -7.2,10.9c-3.6,-0.8 -5.2,-2.2 -6,-5.8c-0.5,-2.1 -0.1,-3.3 2,-5.4c2.2,-2.2 3.2,-2.5 6.3,-2c2,0.3 4.3,1.3 4.9,2.3Zm-205.2,0.8c3,3 3.1,5.4 0.4,8.9c-3.8,4.9 -12.9,2 -12.9,-4.1c0,-3.2 4.3,-7.3 7.5,-7.3c1.4,0 3.7,1.1 5,2.5Zm100.9,26.6c1.3,0.7 3,2.5 3.7,4.1c1.7,4.1 -1.3,8.2 -6.4,8.6c-6.9,0.6 -10.2,-6.4 -5.2,-11.3c2.7,-2.8 4.2,-3 7.9,-1.4Z" />
        <path fill="var(--color-logo, #ef0025)" d="M239.708,313.183c-28,26.5 -43.5,40.7 -44.1,40.5c-0.5,-0.2 -7.9,-7.1 -16.5,-15.3c-8.6,-8.3 -15.9,-15.1 -16.4,-15.3c-0.4,-0.1 -7.8,6.6 -16.5,15c-8.7,8.4 -16.3,15.4 -16.9,15.6c-0.6,0.1 -2.4,-1 -4.1,-2.5c-2.6,-2.4 -15.5,-14.1 -29,-26.2c-2.2,-2 -7.4,-6.6 -11.5,-10.2l-7.5,-6.7l-19.4,14.1c-17.8,13 -21.5,16.5 -14.3,13.9c24.9,-9.2 28.5,-10.2 30.6,-8.8c2.2,1.5 19.5,16.8 35.6,31.6c5.2,4.8 11.1,10 13,11.6c1.9,1.6 4.1,3.5 4.8,4.1c0.7,0.7 1.9,1.3 2.5,1.3c0.7,0 8,-6.8 16.2,-15c8.2,-8.3 15.7,-15 16.5,-15c0.8,0 8.3,6.7 16.5,15c8.2,8.2 15.4,15 16,15c1,0 13.8,-11.4 30,-26.9c5,-4.7 13,-12.3 17.8,-16.9c4.7,-4.5 9.1,-8.2 9.6,-8.2c0.5,0 8.5,2.7 17.8,5.9c9.2,3.3 16.9,5.8 17.1,5.6c0.4,-0.3 -3.3,-3.1 -22.8,-17.2c-19.4,-14 -16.3,-13.3 -25,-5Z" />
    </g>
</svg>
