<?xml version="1.0" encoding="UTF-8" standalone="no"?>
<!DOCTYPE svg PUBLIC "-//W3C//DTD SVG 1.1//EN" "http://www.w3.org/Graphics/SVG/1.1/DTD/svg11.dtd">
	
<svg x="0px" y="0px" viewBox="0 0 595.28 567.48" version="1.1" xmlns="http://www.w3.org/2000/svg" xmlns:xlink="http://www.w3.org/1999/xlink" xml:space="preserve" xmlns:serif="http://www.serif.com/" style="fill-rule:evenodd;clip-rule:evenodd;stroke-linejoin:round;stroke-miterlimit:2;">

	<g>
		<path fill="var(--color-logo, #FF2800)" d="M462.88,425.4c-0.01-19.04,0.14-38.08-0.06-57.12c-0.19-18.3-8.73-31.31-24.69-40.48c-77.4-44.48-154.58-89.33-231.9-133.95
		c-9.27-5.35-14.12-12.51-13.71-23.6c0.52-13.97,0.03-27.97,0.12-41.96c0.12-17.9,7.93-22.46,23.33-13.55
		c57.79,33.43,115.54,66.92,173.3,100.4c19.48,11.29,38.91,22.66,58.43,33.87c10.7,6.14,15.63,3.72,15.04-8.43
		c-0.77-16.09-1.17-32.57-5.18-47.99c-2.03-7.82-10.44-15.72-17.98-20.12c-78.11-45.57-156.64-90.4-234.97-135.59
		c-3.41-1.97-5.94-5.44-8.89-8.21c3.6-2.54,6.85-6.15,10.85-7.48c138.26-46.02,281.78,16.06,341.2,144.87
		c45.4,98.4,32.64,192.96-32.29,279.81c-12.28,16.42-26.87,31.14-40.7,46.36c-2.04,2.25-5.83,2.9-8.81,4.29
		c-1.03-3.11-2.9-6.2-2.94-9.32C462.77,466.59,462.9,445.99,462.88,425.4z"/>
		<path fill="var(--color-logo, #FF2800)" d="M129.17,64.16c0.59,8.38,1.18,12.87,1.19,17.37c0.08,36.52,0.1,73.04,0.03,109.56
		c-0.04,20.39,8.28,35.44,26.33,45.79c76.43,43.81,152.57,88.14,229.02,131.91c10.25,5.87,15.56,13.26,15.34,25.06
		c-0.27,14.37,0.18,28.75-0.09,43.12c-0.31,16.59-7.9,20.92-22.4,12.64c-36.06-20.59-71.98-41.42-107.97-62.14
		c-41.7-24.02-83.39-48.05-125.12-72.02c-11.04-6.34-15.37-4.32-14.93,8.1c0.53,14.99,0.33,30.55,4.46,44.69
		c2.62,8.98,11.08,18.34,19.43,23.25c77.63,45.58,155.83,90.21,233.78,135.26c3.8,2.2,6.8,5.79,10.17,8.73
		c-3.94,2.55-7.56,5.98-11.86,7.52C250.35,591.87,92.08,519.95,40.61,384.22C1.85,281.98,19.85,188.28,89.44,104.35
		c8.91-10.75,18.75-20.74,28.33-30.91C120.27,70.78,123.45,68.77,129.17,64.16z"/>
	</g>
</svg>
