<svg xmlns="http://www.w3.org/2000/svg" version="1.0" viewBox="0 0 308.05 196.7">
    <path fill="var(--color-logo, #FF2300)" d="M44.03 18.08c3.57 0 6.61.52 9.12 1.56 2.51 1.04 4.55 2.41 6.12 4.12 1.57 1.71 2.72 3.65 3.44 5.84.72 2.19 1.08 4.45 1.08 6.8 0 2.29-.36 4.55-1.08 6.76-.72 2.21-1.87 4.17-3.44 5.88-1.57 1.71-3.61 3.08-6.12 4.12-2.51 1.04-5.55 1.56-9.12 1.56h-13.2V75.2H18.27V18.08h25.76zm-3.44 26.88c1.44 0 2.83-.11 4.16-.32 1.33-.21 2.51-.63 3.52-1.24 1.01-.61 1.83-1.48 2.44-2.6.61-1.12.92-2.59.92-4.4 0-1.81-.31-3.28-.92-4.4-.61-1.12-1.43-1.99-2.44-2.6-1.01-.61-2.19-1.03-3.52-1.24-1.33-.21-2.72-.32-4.16-.32h-9.76v17.12h9.76zm61.67-26.88c2.56 0 4.87.41 6.92 1.24 2.05.83 3.81 1.96 5.28 3.4s2.59 3.11 3.36 5c.77 1.89 1.16 3.93 1.16 6.12 0 3.36-.71 6.27-2.12 8.72-1.41 2.45-3.72 4.32-6.92 5.6v.16c1.55.43 2.83 1.08 3.84 1.96s1.84 1.92 2.48 3.12c.64 1.2 1.11 2.52 1.4 3.96.29 1.44.49 2.88.6 4.32.05.91.11 1.97.16 3.2.05 1.23.15 2.48.28 3.76.13 1.28.35 2.49.64 3.64.29 1.15.73 2.12 1.32 2.92H108.1c-.69-1.81-1.12-3.97-1.28-6.48-.16-2.51-.4-4.91-.72-7.2-.43-2.99-1.33-5.17-2.72-6.56-1.39-1.39-3.65-2.08-6.8-2.08H84.03V75.2H71.47V18.08h30.79zm-4.48 25.84c2.88 0 5.04-.64 6.48-1.92 1.44-1.28 2.16-3.36 2.16-6.24 0-2.77-.72-4.79-2.16-6.04-1.44-1.25-3.6-1.88-6.48-1.88H84.03v16.08h13.75zm73.28 26.92c-4.32 3.76-10.29 5.64-17.92 5.64-7.73 0-13.72-1.87-17.96-5.6-4.24-3.73-6.36-9.49-6.36-17.28V18.08h12.56V53.6c0 1.55.13 3.07.4 4.56.27 1.49.83 2.81 1.68 3.96s2.04 2.08 3.56 2.8c1.52.72 3.56 1.08 6.12 1.08 4.48 0 7.57-1 9.28-3 1.71-2 2.56-5.13 2.56-9.4V18.08h12.56V53.6c0 7.73-2.16 13.48-6.48 17.24zm26.72-9.72c.69 1.33 1.61 2.41 2.76 3.24 1.15.83 2.49 1.44 4.04 1.84 1.55.4 3.15.6 4.8.6 1.12 0 2.32-.09 3.6-.28 1.28-.19 2.48-.55 3.6-1.08a7.883 7.883 0 002.8-2.2c.75-.93 1.12-2.12 1.12-3.56 0-1.55-.49-2.8-1.48-3.76s-2.28-1.76-3.88-2.4c-1.6-.64-3.41-1.2-5.44-1.68a143.8 143.8 0 01-6.16-1.6c-2.13-.53-4.21-1.19-6.24-1.96-2.03-.77-3.84-1.77-5.44-3-1.6-1.23-2.89-2.76-3.88-4.6-.99-1.84-1.48-4.07-1.48-6.68 0-2.93.63-5.48 1.88-7.64 1.25-2.16 2.89-3.96 4.92-5.4 2.03-1.44 4.32-2.51 6.88-3.2 2.56-.69 5.12-1.04 7.68-1.04 2.99 0 5.85.33 8.6 1 2.75.67 5.19 1.75 7.32 3.24a16.36 16.36 0 015.08 5.72c1.25 2.32 1.88 5.13 1.88 8.44h-12.16c-.11-1.71-.47-3.12-1.08-4.24-.61-1.12-1.43-2-2.44-2.64-1.01-.64-2.17-1.09-3.48-1.36s-2.73-.4-4.28-.4c-1.01 0-2.03.11-3.04.32-1.01.21-1.93.59-2.76 1.12-.83.53-1.51 1.2-2.04 2s-.8 1.81-.8 3.04c0 1.12.21 2.03.64 2.72.43.69 1.27 1.33 2.52 1.92 1.25.59 2.99 1.17 5.2 1.76 2.21.59 5.11 1.33 8.68 2.24 1.07.21 2.55.6 4.44 1.16 1.89.56 3.77 1.45 5.64 2.68 1.87 1.23 3.48 2.87 4.84 4.92 1.36 2.05 2.04 4.68 2.04 7.88 0 2.61-.51 5.04-1.52 7.28s-2.52 4.17-4.52 5.8c-2 1.63-4.48 2.89-7.44 3.8-2.96.91-6.39 1.36-10.28 1.36-3.15 0-6.2-.39-9.16-1.16s-5.57-1.99-7.84-3.64c-2.27-1.65-4.07-3.76-5.4-6.32-1.33-2.56-1.97-5.6-1.92-9.12h12.16c0 1.92.35 3.55 1.04 4.88zm70.64-43.04l21.36 57.12h-13.04l-4.32-12.72h-21.36l-4.48 12.72h-12.64l21.6-57.12h12.88zm.72 35.04l-7.2-20.96h-.16l-7.44 20.96h14.8zm-105.02 53.2l-4.19 11.79h8.32l-4.05-11.79h-.08zm33.26-2.43h-7.74v9.04h7.74c1.62 0 2.83-.36 3.64-1.08.81-.72 1.21-1.89 1.21-3.51 0-1.56-.4-2.69-1.21-3.4-.81-.69-2.02-1.05-3.64-1.05zM18.08 81.87v64.67h271.33V81.87H18.08zm34.71 48.66c-.39-1.02-.63-2.23-.72-3.65-.09-1.41-.23-2.76-.41-4.05-.24-1.68-.75-2.91-1.53-3.69-.78-.78-2.06-1.17-3.83-1.17h-7.06v12.56h-7.06V98.4h17.33c1.44 0 2.74.23 3.89.7s2.14 1.1 2.97 1.91a8.49 8.49 0 011.89 2.81c.43 1.07.65 2.21.65 3.44 0 1.89-.4 3.53-1.19 4.91-.8 1.38-2.09 2.43-3.89 3.15v.09c.87.24 1.59.61 2.16 1.1.57.5 1.03 1.08 1.4 1.75.36.68.62 1.42.79 2.23.16.81.28 1.62.34 2.43.03.51.06 1.11.09 1.8s.08 1.4.16 2.12c.07.72.19 1.4.36 2.05.16.65.41 1.19.74 1.64h-7.08zm36.18 0H64.58V98.4h24.03v5.94H71.65v6.88h15.57v5.49H71.65v7.88h17.33v5.94zm28.85-5.44c-.57 1.26-1.42 2.35-2.54 3.26-1.12.92-2.52 1.63-4.19 2.14s-3.59.77-5.78.77c-1.77 0-3.49-.22-5.15-.65s-3.14-1.12-4.41-2.05c-1.28-.93-2.29-2.12-3.04-3.56s-1.11-3.15-1.08-5.13h6.84c0 1.08.19 2 .58 2.75.39.75.91 1.36 1.55 1.82.64.47 1.4.81 2.27 1.04.87.23 1.77.34 2.7.34.63 0 1.31-.05 2.03-.16.72-.1 1.4-.31 2.02-.61.63-.3 1.15-.71 1.57-1.24.42-.52.63-1.19.63-2 0-.87-.28-1.58-.83-2.12-.56-.54-1.28-.99-2.18-1.35-.9-.36-1.92-.68-3.06-.95-1.14-.27-2.29-.57-3.46-.9-1.2-.3-2.37-.67-3.51-1.1-1.14-.43-2.16-1-3.06-1.69-.9-.69-1.63-1.55-2.18-2.59-.56-1.04-.83-2.29-.83-3.76 0-1.65.35-3.08 1.06-4.3.7-1.21 1.63-2.23 2.77-3.04 1.14-.81 2.43-1.41 3.87-1.8 1.44-.39 2.88-.58 4.32-.58 1.68 0 3.29.19 4.84.56 1.54.38 2.92.98 4.12 1.82a9.24 9.24 0 012.86 3.22c.7 1.31 1.06 2.89 1.06 4.75h-6.84c-.06-.96-.26-1.75-.61-2.39-.35-.63-.8-1.12-1.37-1.48-.57-.36-1.22-.61-1.96-.77-.74-.15-1.54-.22-2.41-.22-.57 0-1.14.06-1.71.18-.57.12-1.09.33-1.55.63-.47.3-.85.68-1.15 1.12-.3.45-.45 1.02-.45 1.71 0 .63.12 1.14.36 1.53.24.39.71.75 1.42 1.08.7.33 1.68.66 2.93.99 1.24.33 2.87.75 4.88 1.26.6.12 1.43.34 2.5.65 1.06.31 2.12.82 3.17 1.51 1.05.69 1.96 1.61 2.72 2.77.77 1.16 1.15 2.63 1.15 4.43-.02 1.48-.3 2.85-.87 4.11zm29.34 5.44h-24.39V98.4h24.03v5.94h-16.96v6.88h15.57v5.49h-15.57v7.88h17.33v5.94zm25.38 0l-2.43-7.15H158.1l-2.52 7.15h-7.11l12.15-32.13h7.25l12.02 32.13h-7.35zm30.64 0c-.39-1.02-.63-2.23-.72-3.65-.09-1.41-.23-2.76-.41-4.05-.24-1.68-.75-2.91-1.53-3.69-.78-.78-2.05-1.17-3.82-1.17h-7.07v12.56h-7.07V98.4h17.33c1.44 0 2.74.23 3.89.7s2.14 1.1 2.97 1.91a8.49 8.49 0 011.89 2.81c.43 1.07.65 2.21.65 3.44 0 1.89-.4 3.53-1.19 4.91s-2.09 2.43-3.89 3.15v.09c.87.24 1.59.61 2.16 1.1.57.5 1.04 1.08 1.39 1.75.36.68.62 1.42.79 2.23.16.81.28 1.62.34 2.43.03.51.06 1.11.09 1.8s.08 1.4.16 2.12c.07.72.19 1.4.36 2.05.17.65.41 1.19.74 1.64h-7.06zm38.93-6.93c-.75 1.62-1.74 3-2.97 4.14-1.23 1.14-2.67 2.01-4.32 2.61-1.65.6-3.46.9-5.45.9-2.46 0-4.67-.43-6.64-1.28s-3.62-2.03-4.97-3.53c-1.35-1.5-2.38-3.26-3.1-5.29-.72-2.03-1.08-4.21-1.08-6.55 0-2.4.36-4.63 1.08-6.68.72-2.05 1.75-3.85 3.1-5.38 1.35-1.53 3.01-2.73 4.97-3.6s4.18-1.31 6.64-1.31c1.77 0 3.44.26 5.02.77 1.58.51 2.98 1.25 4.23 2.23 1.24.98 2.27 2.18 3.08 3.62s1.32 3.09 1.53 4.95h-6.84a5.81 5.81 0 00-.81-2.23c-.42-.67-.95-1.27-1.58-1.78-.63-.51-1.34-.91-2.14-1.19-.8-.29-1.63-.43-2.5-.43-1.59 0-2.94.31-4.05.92a7.66 7.66 0 00-2.7 2.48c-.69 1.04-1.19 2.21-1.51 3.53-.31 1.32-.47 2.69-.47 4.09 0 1.35.16 2.66.47 3.94.32 1.28.82 2.42 1.51 3.44a7.672 7.672 0 002.7 2.45c1.11.62 2.46.92 4.05.92 2.16 0 3.85-.66 5.06-1.98 1.21-1.32 1.96-3.06 2.23-5.22h6.84c-.17 2.03-.63 3.84-1.38 5.46zm33.25 6.93h-7.07v-13.86h-13v13.86h-7.06V98.4h7.06v12.33h13V98.4h7.07v32.13zM46.99 103.89h-7.74v9.04h7.74c1.62 0 2.83-.36 3.65-1.08.81-.72 1.21-1.89 1.21-3.51 0-1.56-.4-2.69-1.21-3.4-.82-.69-2.03-1.05-3.65-1.05zm-19.48 64.12c.88 1.11 1.31 2.54 1.31 4.3 0 1.82-.43 3.33-1.3 4.52-.86 1.2-2.07 1.79-3.62 1.79-.97 0-1.75-.19-2.34-.58-.35-.23-.73-.63-1.14-1.2v1.47H17.4V162.5h3.06v5.63c.39-.54.82-.96 1.29-1.25.55-.36 1.26-.54 2.12-.54 1.55 0 2.76.56 3.64 1.67zm-2.56 7.13c.44-.64.66-1.48.66-2.51 0-.83-.11-1.52-.33-2.06-.41-1.03-1.17-1.55-2.27-1.55-1.12 0-1.89.5-2.31 1.51-.22.54-.33 1.23-.33 2.08 0 1 .22 1.83.67 2.49.45.66 1.13.99 2.05.99.8.01 1.42-.31 1.86-.95zm6.46 5.42l.39.02c.3.01.59 0 .86-.03.27-.04.5-.12.69-.25.18-.12.35-.38.5-.76.15-.39.22-.62.2-.71l-4.3-12.22h3.41l2.56 8.64 2.42-8.64h3.25l-4.01 11.52c-.78 2.22-1.39 3.6-1.84 4.13-.45.53-1.35.8-2.71.8-.27 0-.49 0-.66-.01-.17 0-.41-.02-.74-.04v-2.45zm22.03-11.53v.56c.04 1.89.24 3.22.58 3.99.35.77 1.09 1.15 2.24 1.15 1.13 0 1.88-.42 2.25-1.26.22-.5.33-1.34.33-2.52v-17.12h5.11v17.03c0 2.08-.35 3.73-1.06 4.95-1.19 2.06-3.34 3.09-6.44 3.09s-5.19-.83-6.25-2.5c-1.06-1.67-1.59-3.94-1.59-6.81v-.56h4.83zm34.77 7.11c-1.85 1.9-4.52 2.86-8.02 2.86s-6.17-.95-8.02-2.86c-2.48-2.33-3.72-5.7-3.72-10.09 0-4.48 1.24-7.85 3.72-10.09 1.85-1.9 4.52-2.86 8.02-2.86s6.17.95 8.02 2.86c2.47 2.25 3.7 5.61 3.7 10.09 0 4.39-1.24 7.75-3.7 10.09zm-3.2-3.72c1.19-1.49 1.78-3.62 1.78-6.38 0-2.74-.6-4.87-1.78-6.37-1.19-1.5-2.8-2.25-4.82-2.25s-3.64.75-4.85 2.24c-1.21 1.49-1.81 3.62-1.81 6.38s.6 4.88 1.81 6.38c1.21 1.49 2.82 2.24 4.85 2.24s3.63-.75 4.82-2.24zm14.49-1.66c.16 1.12.47 1.95.93 2.51.85 1.01 2.3 1.51 4.36 1.51 1.23 0 2.23-.13 3-.4 1.46-.51 2.19-1.46 2.19-2.84 0-.81-.36-1.43-1.07-1.88-.71-.43-1.85-.81-3.4-1.15l-2.65-.58c-2.6-.58-4.39-1.2-5.37-1.88-1.65-1.13-2.47-2.89-2.47-5.3 0-2.19.81-4.01 2.42-5.46 1.61-1.45 3.98-2.17 7.11-2.17 2.61 0 4.84.68 6.68 2.05 1.84 1.37 2.81 3.35 2.9 5.95h-4.91c-.09-1.47-.75-2.52-1.97-3.14-.82-.41-1.83-.61-3.05-.61-1.35 0-2.43.27-3.23.8-.81.53-1.21 1.27-1.21 2.22 0 .87.4 1.53 1.19 1.96.51.29 1.59.63 3.25 1.01l4.29 1.01c1.88.44 3.29 1.04 4.23 1.78 1.46 1.15 2.19 2.82 2.19 5 0 2.24-.86 4.09-2.59 5.57s-4.17 2.22-7.32 2.22c-3.22 0-5.76-.73-7.6-2.18-1.85-1.46-2.77-3.46-2.77-6h4.87zm37.08-12.59h-12.95v5.2h11.89v4.25h-11.89v6.29h13.55v4.4h-18.54v-24.47h17.95v4.33zm4.59-4.3h17.45v4.3h-12.37v5.63h10.84v4.25h-10.84v10.26h-5.08v-24.44zm46.64 13.85c-1.43 1.2-3.48 1.79-6.14 1.79h-5.09v8.8h-5.08v-24.47H182c2.42 0 4.35.63 5.79 1.89s2.16 3.22 2.16 5.86c.01 2.89-.71 4.93-2.14 6.13zm-3.9-8.82c-.65-.54-1.55-.81-2.72-.81h-4.61v7.21h4.61c1.17 0 2.07-.29 2.72-.88.65-.59.97-1.52.97-2.79 0-1.28-.33-2.18-.97-2.73zm25.83-4.43c.9.39 1.67.96 2.29 1.71.52.62.93 1.31 1.23 2.06.3.75.45 1.61.45 2.57 0 1.16-.29 2.31-.88 3.43-.59 1.12-1.55 1.92-2.91 2.38 1.13.45 1.93 1.1 2.4 1.93.47.84.71 2.11.71 3.83v1.64c0 1.12.04 1.88.13 2.27.13.63.45 1.1.94 1.39v.61h-5.64c-.16-.54-.27-.98-.33-1.31-.13-.69-.21-1.39-.22-2.11l-.03-2.27c-.02-1.56-.29-2.6-.81-3.12s-1.49-.78-2.91-.78h-4.99v9.6h-5v-24.47h11.71c1.67.04 2.96.25 3.86.64zm-10.57 3.62v6.57h5.5c1.09 0 1.91-.13 2.46-.4.97-.46 1.45-1.38 1.45-2.76 0-1.48-.47-2.48-1.4-2.99-.53-.29-1.31-.43-2.37-.43h-5.64zm19.44-4.25h5.2v15.03c0 1.68.2 2.91.6 3.68.62 1.37 1.96 2.06 4.04 2.06 2.06 0 3.4-.69 4.02-2.06.4-.77.6-2 .6-3.68v-15.03h5.2v15.04c0 2.6-.4 4.63-1.21 6.08-1.5 2.66-4.37 3.98-8.6 3.98s-7.1-1.33-8.62-3.98c-.81-1.45-1.21-3.48-1.21-6.08v-15.04zm28.24 16.92c.16 1.12.47 1.95.93 2.51.85 1.01 2.3 1.51 4.36 1.51 1.23 0 2.23-.13 3-.4 1.46-.51 2.19-1.46 2.19-2.84 0-.81-.36-1.43-1.07-1.88-.71-.43-1.85-.81-3.4-1.15l-2.65-.58c-2.6-.58-4.39-1.2-5.37-1.88-1.65-1.13-2.47-2.89-2.47-5.3 0-2.19.81-4.01 2.42-5.46 1.61-1.45 3.98-2.17 7.11-2.17 2.61 0 4.84.68 6.68 2.05 1.84 1.37 2.81 3.35 2.9 5.95h-4.91c-.09-1.47-.75-2.52-1.97-3.14-.82-.41-1.83-.61-3.05-.61-1.35 0-2.43.27-3.23.8s-1.21 1.27-1.21 2.22c0 .87.4 1.53 1.19 1.96.51.29 1.59.63 3.25 1.01l4.29 1.01c1.88.44 3.29 1.04 4.23 1.78 1.46 1.15 2.19 2.82 2.19 5 0 2.24-.86 4.09-2.59 5.57s-4.17 2.22-7.32 2.22c-3.22 0-5.76-.73-7.6-2.18-1.85-1.46-2.77-3.46-2.77-6h4.87zm25.99-16.92h5.79l8.66 24.47h-5.54l-1.62-5.03h-9.01l-1.66 5.03h-5.35l8.73-24.47zm-.34 15.22h6.27l-3.09-9.63-3.18 9.63z" />
</svg>