<?xml version="1.0" encoding="UTF-8" standalone="no"?><!DOCTYPE svg PUBLIC "-//W3C//DTD SVG 1.1//EN" "http://www.w3.org/Graphics/SVG/1.1/DTD/svg11.dtd"><svg width="100%" height="100%" viewBox="0 0 179 84" version="1.1" xmlns="http://www.w3.org/2000/svg" xmlns:xlink="http://www.w3.org/1999/xlink" xml:space="preserve" xmlns:serif="http://www.serif.com/" style="fill-rule:evenodd;clip-rule:evenodd;stroke-linejoin:round;stroke-miterlimit:2;"><path d="M51.59,52.123c2.418,11.24 -1.993,20.755 -15.71,27.919c-3.993,0.498 -7.644,-0.441 -10.829,-2.44c-0.215,-1.916 0.263,-4.261 -1.058,-5.089c-3.223,1.839 -22.541,-9.103 -23.357,-16.994c-0.259,-2.497 -1.212,-5.444 -0.133,-4.606c2.754,2.141 16.972,18.372 21.713,7.321l-1.6,-5.496c3.423,1.309 6.094,1.132 8.237,0.297l1.524,-3.29c0.869,-2.882 0.717,-5.452 -0.666,-7.645c-2.812,-1.664 -5.52,-4.655 -8.141,-8.765c3.596,1.712 6.832,2.824 8.406,1.164c10.862,-12.439 24.749,-24.077 41.691,-34.499c4.023,0.939 6.088,3.084 8.237,5.221l43.962,0.048c3.005,0.013 2.78,4.981 0,5.009l-45.005,-0.017c-4.238,0.018 -3.965,5.933 -0.008,5.966l53.041,0c3.49,0.004 3.375,5.004 0.029,4.977l-44.087,0.04c-3.594,0.015 -3.545,5.004 0.01,5.014l61.968,-0.113c3.009,-0.019 2.787,5.135 -0.086,5.136l-78.872,0.018c-3.773,0.05 -3.905,5.929 -0.048,5.912l91.996,0.123c3.165,0.026 3.033,4.925 -0.008,4.872l-32.965,-0.074c-4.314,0.117 -4.04,6.057 -0.091,6.085l26.305,-0.183l-0.12,10.135c0.42,2.285 3.424,5.228 8.148,9.2c1.085,3.923 2.758,8.691 5.289,14.692l-15.622,0.192c-0.832,0.379 -0.209,-0.991 2.386,-4.733l-10.877,-10.368c-5.925,0.063 -12.244,0.214 -22.139,-12.767c1.633,3.324 3.448,6.266 3.16,7.246c-15.413,11.313 -28.044,10.556 -37.373,-0.642l0.368,22.497l-13.1,-0.205c1.074,-1.219 1.56,-4.553 1.258,-8.932c-2.533,-2.968 -4.588,-6.375 -7.495,-7.579c-9.992,-4.139 -16.446,-8.516 -18.338,-14.647c-0.11,-0.514 -0.235,-1.032 -0.374,-1.553c0.093,0.53 0.218,1.047 0.374,1.553Zm-17.754,-2.201l-2.891,4.282l2.868,-1.954l0.023,-2.328Zm68.092,-7.733c-3.278,0.009 -3.174,5.875 -0.033,5.977l17.971,0.015c3.77,-0.003 3.68,-5.99 -0.007,-5.987l-17.931,-0.005Z" style="fill:#f6cf3d;"/><path d="M167.885,37.291c-2.641,0.098 -2.806,4.898 0.02,4.92l8.939,0.028c2.54,-0.019 2.419,-5 -0.003,-4.961l-8.956,0.013Z" style="fill:#f6cf3d;"/><path d="M155.899,31.249l15.934,-0.013c2.857,-0.032 3.1,-4.973 0.047,-4.975l-15.956,0.021c-2.681,0.01 -2.686,4.939 -0.025,4.967Z" style="fill:#f6cf3d;"/><path d="M140.896,16.311c-2.645,0.022 -2.623,4.917 0.057,4.917l16.027,0.089c2.584,-0.019 2.818,-5.036 -0.023,-5.029l-16.061,0.023Z" style="fill:#f6cf3d;"/><path d="M164.817,16.265c-2.948,0.072 -2.505,4.871 -0.023,4.886l2.026,0.002c2.604,-0.067 2.374,-4.857 0.027,-4.874l-2.03,-0.014Z" style="fill:#f6cf3d;"/><path d="M166.943,47.284c-2.013,0.006 -2.007,3.923 0.017,3.936l3.913,0.059c2.016,-0.078 2.109,-3.982 -0.003,-4.013l-3.927,0.018Z" style="fill:#f6cf3d;"/></svg>