<?xml version="1.0" encoding="utf-8"?>
<!-- Generator: Adobe Illustrator 28.0.0, SVG Export Plug-In . SVG Version: 6.00 Build 0)  -->
<svg version="1.1" id="Title_x5F_Block_x5F_1" xmlns="http://www.w3.org/2000/svg" xmlns:xlink="http://www.w3.org/1999/xlink"
	 x="0px" y="0px" viewBox="0 0 48.33 46.65" style="enable-background:new 0 0 48.33 46.65;" xml:space="preserve">
<style type="text/css">
	.st0{fill:#326799;}
	.st1{fill:#FFFFFF;}
</style>
<g>
	<g id="LINE_00000112602005870069098340000004982466735197827505_">
		<polygon fill="var(--color-logo, #326799)" points="0.35,0.36 0.35,36.8 9.69,46.3 47.98,46.29 47.98,10.09 38.43,0.35 		"/>
	</g>
</g>
<g id="CIRCLE_00000069376942971437616230000007314134857363302586_">
	<circle class="st1" cx="23.66" cy="23.61" r="9.9"/>
</g>
<g>
	<g id="LINE_00000010273851397589190970000017974792002660671666_">
		<polygon class="st1" points="15.38,35.92 10.69,31.13 10.69,16.35 5.82,11.39 5.82,33.13 13.18,40.61 34.52,40.61 29.88,35.92 		
			"/>
	</g>
</g>
<g id="CIRCLE">
	<circle fill="var(--color-logo, #326799)" cx="23.66" cy="23.61" r="5.21"/>
</g>
<g>
	<g id="ARC_00000070824896212674021930000015994269423148645055_">
		<path class="st1" d="M17.31,13.64l-2.88-2.91h18.28l4.71,4.81l0.03,18.68l-3.98-4.02c-0.92,1.35-2.11,2.49-3.49,3.35l6.96,7.08
			h5.35V13.53l-7.38-7.5c0,0-29.09,0-29.09,0v2.85c0,0,8.04,8.19,8.04,8.19C14.76,15.7,15.94,14.53,17.31,13.64z"/>
	</g>
</g>
</svg>
