<?xml version="1.0" encoding="UTF-8"?>
<svg id="Rhino" xmlns="http://www.w3.org/2000/svg" viewBox="0 0 551.25 159.98">
  <defs>
    <style>
      .cls-1 {
        fill: #ffca2b;
      }
    </style>
  </defs>
  <path class="cls-1" d="M5.54,0h27.64C35.12,0,36.92,1.02,37.92,2.68l29.4,48.81c2.13,3.54,7.26,3.58,9.44.07L107.15,2.61C108.16.99,109.94,0,111.85,0h27.34C143.58,0,146.22,4.87,143.83,8.55l-53.23,81.85c-.58.9-.89,1.95-.89,3.02v58.12c0,3.06-2.48,5.53-5.53,5.53h-24.39c-3.06,0-5.53-2.48-5.53-5.53v-57.48c0-1.05-.3-2.08-.86-2.97L.87,8.5C-1.47,4.82,1.18,0,5.54,0Z"/>
  <path class="cls-1" d="M268.26,0h26.12c2.58,0,4.67,2.09,4.67,4.67v88.9c0,18.85-6.73,34.55-19.97,47.34-13.24,12.79-29.84,19.07-49.59,19.07s-36.35-6.28-49.59-19.07c-13.24-12.79-19.97-28.5-19.97-47.34V4.67C159.93,2.09,162.02,0,164.6,0h26.12c2.58,0,4.67,2.09,4.67,4.67v88.67c0,9.65,3.14,17.73,9.65,24.23,6.51,6.51,14.81,9.65,24.46,9.65s17.73-3.14,24.23-9.65c6.51-6.51,9.87-14.58,9.87-24.23V4.67C263.6,2.09,265.69,0,268.26,0Z"/>
  <path class="cls-1" d="M318.79,152.4V4.67C318.79,2.09,320.88,0,323.46,0h27.83c1.68,0,3.24.91,4.06,2.37l47.31,83.76c1.79,3.17,6.35,3.16,8.13,0L457.91,2.38C458.74.91,460.3,0,461.98,0h27.83c2.58,0,4.67,2.09,4.67,4.67v147.73c0,2.58-2.09,4.67-4.67,4.67h-25.89c-2.58,0-4.67-2.09-4.67-4.67v-67.9c0-4.82-6.42-6.48-8.75-2.26l-30.75,55.59c-.82,1.49-2.39,2.41-4.08,2.41h-18.05c-1.7,0-3.26-.92-4.08-2.41l-30.75-55.59c-2.33-4.22-8.75-2.56-8.75,2.26v67.9c0,2.58-2.09,4.67-4.67,4.67h-25.89c-2.58,0-4.67-2.09-4.67-4.67Z"/>
  <path class="cls-1" d="M515.57,59.31v93.09c0,2.58,2.09,4.67,4.67,4.67h26.34c2.58,0,4.67-2.09,4.67-4.67V59.31c0-1.52-1.23-2.75-2.75-2.75h-30.17c-1.52,0-2.75,1.23-2.75,2.75Z"/>
  <rect class="cls-1" x="515.57" y="37.51" width="35.68" height="7.58" rx="2.75" ry="2.75"/>
  <g>
    <path class="cls-1" d="M551.25,10.51v-5.84c0-2.58-2.09-4.67-4.67-4.67h-26.34c-2.58,0-4.67,2.09-4.67,4.67v5.84c0,1.52,1.23,2.75,2.75,2.75h30.17c1.52,0,2.75-1.23,2.75-2.75Z"/>
    <rect class="cls-1" x="515.57" y="20.46" width="35.68" height="7.58" rx="2.75" ry="2.75"/>
  </g>
</svg>