<?xml version="1.0" encoding="UTF-8" standalone="no"?>
<!DOCTYPE svg PUBLIC "-//W3C//DTD SVG 1.1//EN" "http://www.w3.org/Graphics/SVG/1.1/DTD/svg11.dtd">
<svg width="100%" height="100%" viewBox="0 0 272 130" version="1.1" xmlns="http://www.w3.org/2000/svg" xmlns:xlink="http://www.w3.org/1999/xlink" xml:space="preserve" xmlns:serif="http://www.serif.com/" style="fill-rule:evenodd;clip-rule:evenodd;stroke-linejoin:round;stroke-miterlimit:2;">
    <path fill="var(--color-logo, #fa6831)" d="M25.95,1.36c3.57,0 6.61,0.52 9.12,1.56c2.51,1.04 4.55,2.41 6.12,4.12c1.57,1.71 2.72,3.65 3.44,5.84c0.72,2.19 1.08,4.45 1.08,6.8c0,2.29 -0.36,4.55 -1.08,6.76c-0.72,2.21 -1.87,4.17 -3.44,5.88c-1.57,1.71 -3.61,3.08 -6.12,4.12c-2.51,1.04 -5.55,1.56 -9.12,1.56l-13.2,0l0,20.48l-12.56,0l0,-57.12l25.76,0Zm-3.44,26.88c1.44,0 2.83,-0.11 4.16,-0.32c1.33,-0.21 2.51,-0.63 3.52,-1.24c1.01,-0.61 1.83,-1.48 2.44,-2.6c0.61,-1.12 0.92,-2.59 0.92,-4.4c0,-1.81 -0.31,-3.28 -0.92,-4.4c-0.61,-1.12 -1.43,-1.99 -2.44,-2.6c-1.01,-0.61 -2.19,-1.03 -3.52,-1.24c-1.33,-0.21 -2.72,-0.32 -4.16,-0.32l-9.76,-0l0,17.12l9.76,-0Zm61.67,-26.88c2.56,-0 4.87,0.41 6.92,1.24c2.05,0.83 3.81,1.96 5.28,3.4c1.47,1.44 2.59,3.11 3.36,5c0.77,1.89 1.16,3.93 1.16,6.12c0,3.36 -0.71,6.27 -2.12,8.72c-1.41,2.45 -3.72,4.32 -6.92,5.6l0,0.16c1.55,0.43 2.83,1.08 3.84,1.96c1.01,0.88 1.84,1.92 2.48,3.12c0.64,1.2 1.11,2.52 1.4,3.96c0.29,1.44 0.49,2.88 0.6,4.32c0.05,0.91 0.11,1.97 0.16,3.2c0.05,1.23 0.15,2.48 0.28,3.76c0.13,1.28 0.35,2.49 0.64,3.64c0.29,1.15 0.73,2.12 1.32,2.92l-12.56,-0c-0.69,-1.81 -1.12,-3.97 -1.28,-6.48c-0.16,-2.51 -0.4,-4.91 -0.72,-7.2c-0.43,-2.99 -1.33,-5.17 -2.72,-6.56c-1.39,-1.39 -3.65,-2.08 -6.8,-2.08l-12.55,-0l0,22.32l-12.56,0l0,-57.12l30.79,0Zm-4.48,25.84c2.88,0 5.04,-0.64 6.48,-1.92c1.44,-1.28 2.16,-3.36 2.16,-6.24c0,-2.77 -0.72,-4.79 -2.16,-6.04c-1.44,-1.25 -3.6,-1.88 -6.48,-1.88l-13.75,0l0,16.08l13.75,-0Zm73.28,26.92c-4.32,3.76 -10.29,5.64 -17.92,5.64c-7.73,0 -13.72,-1.87 -17.96,-5.6c-4.24,-3.73 -6.36,-9.49 -6.36,-17.28l0,-35.52l12.56,0l0,35.52c0,1.55 0.13,3.07 0.4,4.56c0.27,1.49 0.83,2.81 1.68,3.96c0.85,1.15 2.04,2.08 3.56,2.8c1.52,0.72 3.56,1.08 6.12,1.08c4.48,0 7.57,-1 9.28,-3c1.71,-2 2.56,-5.13 2.56,-9.4l0,-35.52l12.56,0l0,35.52c0,7.73 -2.16,13.48 -6.48,17.24Zm26.72,-9.72c0.69,1.33 1.61,2.41 2.76,3.24c1.15,0.83 2.49,1.44 4.04,1.84c1.55,0.4 3.15,0.6 4.8,0.6c1.12,-0 2.32,-0.09 3.6,-0.28c1.28,-0.19 2.48,-0.55 3.6,-1.08c1.089,-0.51 2.047,-1.263 2.8,-2.2c0.75,-0.93 1.12,-2.12 1.12,-3.56c0,-1.55 -0.49,-2.8 -1.48,-3.76c-0.99,-0.96 -2.28,-1.76 -3.88,-2.4c-1.6,-0.64 -3.41,-1.2 -5.44,-1.68c-2.065,-0.488 -4.119,-1.021 -6.16,-1.6c-2.13,-0.53 -4.21,-1.19 -6.24,-1.96c-2.03,-0.77 -3.84,-1.77 -5.44,-3c-1.6,-1.23 -2.89,-2.76 -3.88,-4.6c-0.99,-1.84 -1.48,-4.07 -1.48,-6.68c0,-2.93 0.63,-5.48 1.88,-7.64c1.25,-2.16 2.89,-3.96 4.92,-5.4c2.03,-1.44 4.32,-2.51 6.88,-3.2c2.56,-0.69 5.12,-1.04 7.68,-1.04c2.99,0 5.85,0.33 8.6,1c2.75,0.67 5.19,1.75 7.32,3.24c2.121,1.478 3.863,3.439 5.08,5.72c1.25,2.32 1.88,5.13 1.88,8.44l-12.16,-0c-0.11,-1.71 -0.47,-3.12 -1.08,-4.24c-0.61,-1.12 -1.43,-2 -2.44,-2.64c-1.01,-0.64 -2.17,-1.09 -3.48,-1.36c-1.31,-0.27 -2.73,-0.4 -4.28,-0.4c-1.01,-0 -2.03,0.11 -3.04,0.32c-1.01,0.21 -1.93,0.59 -2.76,1.12c-0.83,0.53 -1.51,1.2 -2.04,2c-0.53,0.8 -0.8,1.81 -0.8,3.04c0,1.12 0.21,2.03 0.64,2.72c0.43,0.69 1.27,1.33 2.52,1.92c1.25,0.59 2.99,1.17 5.2,1.76c2.21,0.59 5.11,1.33 8.68,2.24c1.07,0.21 2.55,0.6 4.44,1.16c1.89,0.56 3.77,1.45 5.64,2.68c1.87,1.23 3.48,2.87 4.84,4.92c1.36,2.05 2.04,4.68 2.04,7.88c0,2.61 -0.51,5.04 -1.52,7.28c-1.01,2.24 -2.52,4.17 -4.52,5.8c-2,1.63 -4.48,2.89 -7.44,3.8c-2.96,0.91 -6.39,1.36 -10.28,1.36c-3.15,0 -6.2,-0.39 -9.16,-1.16c-2.96,-0.77 -5.57,-1.99 -7.84,-3.64c-2.27,-1.65 -4.07,-3.76 -5.4,-6.32c-1.33,-2.56 -1.97,-5.6 -1.92,-9.12l12.16,0c0,1.92 0.35,3.55 1.04,4.88Zm70.64,-43.04l21.36,57.12l-13.04,0l-4.32,-12.72l-21.36,0l-4.48,12.72l-12.64,0l21.6,-57.12l12.88,0Zm0.72,35.04l-7.2,-20.96l-0.16,0l-7.44,20.96l14.8,0Zm-105.02,53.2l-4.19,11.79l8.32,0l-4.05,-11.79l-0.08,0Zm33.26,-2.43l-7.74,0l0,9.04l7.74,0c1.62,0 2.83,-0.36 3.64,-1.08c0.81,-0.72 1.21,-1.89 1.21,-3.51c0,-1.56 -0.4,-2.69 -1.21,-3.4c-0.81,-0.69 -2.02,-1.05 -3.64,-1.05Zm-179.3,-22.02l0,64.67l271.33,0l0,-64.67l-271.33,0Zm34.71,48.66c-0.39,-1.02 -0.63,-2.23 -0.72,-3.65c-0.09,-1.41 -0.23,-2.76 -0.41,-4.05c-0.24,-1.68 -0.75,-2.91 -1.53,-3.69c-0.78,-0.78 -2.06,-1.17 -3.83,-1.17l-7.06,0l0,12.56l-7.06,0l0,-32.13l17.33,0c1.44,0 2.74,0.23 3.89,0.7c1.15,0.47 2.14,1.1 2.97,1.91c0.812,0.8 1.455,1.756 1.89,2.81c0.43,1.07 0.65,2.21 0.65,3.44c0,1.89 -0.4,3.53 -1.19,4.91c-0.8,1.38 -2.09,2.43 -3.89,3.15l0,0.09c0.87,0.24 1.59,0.61 2.16,1.1c0.57,0.5 1.03,1.08 1.4,1.75c0.36,0.68 0.62,1.42 0.79,2.23c0.16,0.81 0.28,1.62 0.34,2.43c0.03,0.51 0.06,1.11 0.09,1.8c0.03,0.69 0.08,1.4 0.16,2.12c0.07,0.72 0.19,1.4 0.36,2.05c0.16,0.65 0.41,1.19 0.74,1.64l-7.08,-0Zm36.19,-0l-24.4,-0l0,-32.13l24.03,0l0,5.94l-16.96,0l0,6.88l15.57,0l0,5.49l-15.57,0l0,7.88l17.33,0l0,5.94Zm28.84,-5.44c-0.57,1.26 -1.42,2.35 -2.54,3.26c-1.12,0.92 -2.52,1.63 -4.19,2.14c-1.67,0.51 -3.59,0.77 -5.78,0.77c-1.77,0 -3.49,-0.22 -5.15,-0.65c-1.66,-0.43 -3.14,-1.12 -4.41,-2.05c-1.28,-0.93 -2.29,-2.12 -3.04,-3.56c-0.75,-1.44 -1.11,-3.15 -1.08,-5.13l6.84,-0c0,1.08 0.19,2 0.58,2.75c0.39,0.75 0.91,1.36 1.55,1.82c0.64,0.47 1.4,0.81 2.27,1.04c0.87,0.23 1.77,0.34 2.7,0.34c0.63,-0 1.31,-0.05 2.03,-0.16c0.72,-0.1 1.4,-0.31 2.02,-0.61c0.63,-0.3 1.15,-0.71 1.57,-1.24c0.42,-0.52 0.63,-1.19 0.63,-2c0,-0.87 -0.28,-1.58 -0.83,-2.12c-0.56,-0.54 -1.28,-0.99 -2.18,-1.35c-0.9,-0.36 -1.92,-0.68 -3.06,-0.95c-1.14,-0.27 -2.29,-0.57 -3.46,-0.9c-1.2,-0.3 -2.37,-0.67 -3.51,-1.1c-1.14,-0.43 -2.16,-1 -3.06,-1.69c-0.9,-0.69 -1.63,-1.55 -2.18,-2.59c-0.56,-1.04 -0.83,-2.29 -0.83,-3.76c0,-1.65 0.35,-3.08 1.06,-4.3c0.7,-1.21 1.63,-2.23 2.77,-3.04c1.14,-0.81 2.43,-1.41 3.87,-1.8c1.44,-0.39 2.88,-0.58 4.32,-0.58c1.68,-0 3.29,0.19 4.84,0.56c1.54,0.38 2.92,0.98 4.12,1.82c1.194,0.833 2.174,1.936 2.86,3.22c0.7,1.31 1.06,2.89 1.06,4.75l-6.84,-0c-0.06,-0.96 -0.26,-1.75 -0.61,-2.39c-0.35,-0.63 -0.8,-1.12 -1.37,-1.48c-0.57,-0.36 -1.22,-0.61 -1.96,-0.77c-0.74,-0.15 -1.54,-0.22 -2.41,-0.22c-0.57,-0 -1.14,0.06 -1.71,0.18c-0.57,0.12 -1.09,0.33 -1.55,0.63c-0.47,0.3 -0.85,0.68 -1.15,1.12c-0.3,0.45 -0.45,1.02 -0.45,1.71c0,0.63 0.12,1.14 0.36,1.53c0.24,0.39 0.71,0.75 1.42,1.08c0.7,0.33 1.68,0.66 2.93,0.99c1.24,0.33 2.87,0.75 4.88,1.26c0.6,0.12 1.43,0.34 2.5,0.65c1.06,0.31 2.12,0.82 3.17,1.51c1.05,0.69 1.96,1.61 2.72,2.77c0.77,1.16 1.15,2.63 1.15,4.43c-0.02,1.48 -0.3,2.85 -0.87,4.11Zm29.35,5.44l-24.4,0l0,-32.13l24.03,0l0,5.94l-16.96,0l0,6.88l15.57,0l0,5.49l-15.57,0l0,7.88l17.33,0l0,5.94Zm25.37,0l-2.43,-7.15l-12.01,0l-2.52,7.15l-7.11,0l12.15,-32.13l7.25,0l12.02,32.13l-7.35,0Zm30.64,0c-0.39,-1.02 -0.63,-2.23 -0.72,-3.65c-0.09,-1.41 -0.23,-2.76 -0.41,-4.05c-0.24,-1.68 -0.75,-2.91 -1.53,-3.69c-0.78,-0.78 -2.05,-1.17 -3.82,-1.17l-7.07,0l0,12.56l-7.07,0l0,-32.13l17.33,0c1.44,0 2.74,0.23 3.89,0.7c1.15,0.47 2.14,1.1 2.97,1.91c0.812,0.8 1.455,1.756 1.89,2.81c0.43,1.07 0.65,2.21 0.65,3.44c0,1.89 -0.4,3.53 -1.19,4.91c-0.79,1.38 -2.09,2.43 -3.89,3.15l0,0.09c0.87,0.24 1.59,0.61 2.16,1.1c0.57,0.5 1.04,1.08 1.39,1.75c0.36,0.68 0.62,1.42 0.79,2.23c0.16,0.81 0.28,1.62 0.34,2.43c0.03,0.51 0.06,1.11 0.09,1.8c0.03,0.69 0.08,1.4 0.16,2.12c0.07,0.72 0.19,1.4 0.36,2.05c0.17,0.65 0.41,1.19 0.74,1.64l-7.06,0Zm38.93,-6.93c-0.75,1.62 -1.74,3 -2.97,4.14c-1.23,1.14 -2.67,2.01 -4.32,2.61c-1.65,0.6 -3.46,0.9 -5.45,0.9c-2.46,0 -4.67,-0.43 -6.64,-1.28c-1.97,-0.85 -3.62,-2.03 -4.97,-3.53c-1.35,-1.5 -2.38,-3.26 -3.1,-5.29c-0.72,-2.03 -1.08,-4.21 -1.08,-6.55c0,-2.4 0.36,-4.63 1.08,-6.68c0.72,-2.05 1.75,-3.85 3.1,-5.38c1.35,-1.53 3.01,-2.73 4.97,-3.6c1.96,-0.87 4.18,-1.31 6.64,-1.31c1.77,0 3.44,0.26 5.02,0.77c1.58,0.51 2.98,1.25 4.23,2.23c1.24,0.98 2.27,2.18 3.08,3.62c0.81,1.44 1.32,3.09 1.53,4.95l-6.84,0c-0.114,-0.791 -0.389,-1.55 -0.81,-2.23c-0.42,-0.67 -0.95,-1.27 -1.58,-1.78c-0.63,-0.51 -1.34,-0.91 -2.14,-1.19c-0.8,-0.29 -1.63,-0.43 -2.5,-0.43c-1.59,0 -2.94,0.31 -4.05,0.92c-1.087,0.596 -2.014,1.447 -2.7,2.48c-0.69,1.04 -1.19,2.21 -1.51,3.53c-0.31,1.32 -0.47,2.69 -0.47,4.09c0,1.35 0.16,2.66 0.47,3.94c0.32,1.28 0.82,2.42 1.51,3.44c0.69,1.022 1.616,1.862 2.7,2.45c1.11,0.62 2.46,0.92 4.05,0.92c2.16,0 3.85,-0.66 5.06,-1.98c1.21,-1.32 1.96,-3.06 2.23,-5.22l6.84,0c-0.17,2.03 -0.63,3.84 -1.38,5.46Zm33.25,6.93l-7.07,0l0,-13.86l-13,0l0,13.86l-7.06,0l0,-32.13l7.06,0l0,12.33l13,0l0,-12.33l7.07,0l0,32.13Zm-228.37,-26.64l-7.74,0l0,9.04l7.74,0c1.62,0 2.83,-0.36 3.65,-1.08c0.81,-0.72 1.21,-1.89 1.21,-3.51c0,-1.56 -0.4,-2.69 -1.21,-3.4c-0.82,-0.69 -2.03,-1.05 -3.65,-1.05Z" />
</svg>