<svg id="Ebene_1" data-name="Ebene 1" xmlns="http://www.w3.org/2000/svg" viewBox="0 0 385.66987 338.2562"><defs><style>.cls-1{fill:#e73d26;}</style></defs><title>logo</title><path class="cls-1" d="M222.75337,1.14007a21.79586,21.79586,0,0,0-2.34182,3.45951,17.14349,17.14349,0,0,1-2.12893,3.24662,18.41685,18.41685,0,0,0-2.12893,3.19339,16.64854,16.64854,0,0,1-1.916,2.87406,22.23421,22.23421,0,0,0-1.86282,2.76761,22.02646,22.02646,0,0,1-3.14017,4.5772,9.49513,9.49513,0,0,0-1.33058,2.02248,96.35724,96.35724,0,0,1-5.80133,8.83506,14.37578,14.37578,0,0,0-1.33058,2.12893,21.43049,21.43049,0,0,1-1.33058,2.12893c-.37257.31934-6.54646,9.527-6.97225,10.37854a60.28212,60.28212,0,0,1-3.99175,5.90778,21.40279,21.40279,0,0,0-1.5967,2.5015c-.58546,1.06446-1.22413,1.96926-1.437,1.96926-.26612,0-.42578.37256-.42578.79834s-.21289.79835-.53223.79835a.52508.52508,0,0,0-.53224.479c0,.37256-9.42052,14.84929-10.11242,15.488a18.32335,18.32335,0,0,0-2.0757,3.45951,5.16638,5.16638,0,0,1-1.33058,1.80959,2.22269,2.22269,0,0,0-.85158,1.22414,4.16658,4.16658,0,0,1-1.06446,1.59669,4.0175,4.0175,0,0,0-1.06447,1.86282c0,.37256-.21289.6919-.42578.6919-.479,0-2.12893,2.66117-2.12893,3.40629a1.00188,1.00188,0,0,1-.53223.79835c-.74512.479-4.36431,5.80133-4.36431,6.44a.48353.48353,0,0,1-.42578.53224c-.21289,0-.85158.90479-1.437,1.96926a21.40243,21.40243,0,0,1-1.5967,2.50149,29.11642,29.11642,0,0,0-2.34182,3.45951,31.44916,31.44916,0,0,1-2.34182,3.51274c-.53223.58546-2.92727,4.15141-5.42877,8.19638-2.23539,3.566-6.97225,10.485-7.2916,10.59142a.42.42,0,0,0-.10645.6919c.15966.26611.05323.479-.15966.479-.26612,0-.90481.85158-1.437,1.86282-.58546,1.01124-1.22413,1.86281-1.49024,1.86281s-.37257.21289-.15967.479a.68189.68189,0,0,1-.21289.85157c-.74512.42578-3.77885,5.003-3.77885,5.64167a.477.477,0,0,1-.479.479c-.26611,0-.6919.479-.85157,1.06446a4.75513,4.75513,0,0,1-.958,1.70315,35.78571,35.78571,0,0,0-2.50149,3.61918c-1.01124,1.5967-1.96926,3.03373-2.12893,3.1934s-1.1177,1.59669-2.12894,3.19339a19.02787,19.02787,0,0,1-2.23537,3.08694,1.00027,1.00027,0,0,0-.42579.90481,1.00025,1.00025,0,0,1-.42579.9048,16.6409,16.6409,0,0,0-2.23537,3.08694c-1.01124,1.5967-2.02249,3.14017-2.2886,3.45951-.21289.26612-2.12893,3.1934-4.25786,6.44-8.03672,12.3478-8.99473,13.78482-9.47375,13.9445a.82011.82011,0,0,0-.479.6919c0,.58546-4.63042,7.71737-5.961,9.20761a3.62456,3.62456,0,0,0-.958,1.75636A1.20128,1.20128,0,0,1,93.208,196.363c-.42579.21289-.69191.53224-.53224.74513.10645.21289-.21289.79834-.79835,1.33058a3.07335,3.07335,0,0,0-1.06446,1.70315.65437.65437,0,0,1-.58546.69189.29353.29353,0,0,0-.26612.479.44816.44816,0,0,1-.10644.6919c-.26612.05322-2.60794,3.40628-5.21588,7.3448s-4.89654,7.29159-5.10944,7.3448a.76717.76717,0,0,0-.42579.6919,14.78244,14.78244,0,0,1-1.86281,3.14017,13.43644,13.43644,0,0,0-1.86281,3.19339.52569.52569,0,0,1-.42579.53224c-.26612,0-.79835.63868-1.22414,1.437A11.09249,11.09249,0,0,1,72.717,227.4453c-.15967.15966-1.27735,1.80959-2.55472,3.72563-1.22413,1.916-2.60793,3.93852-2.9805,4.524-2.395,3.35306-4.5772,6.81257-4.5772,7.23835a.49145.49145,0,0,1-.53223.479c-.26612,0-.53224.37257-.53224.79835s-.21289.79835-.53223.79835c-.26611,0-.53223.37257-.53223.79835s-.2129.79835-.53223.79835c-.26612,0-.53224.31932-.53224.74513a1.154,1.154,0,0,1-.37256.958,11.52107,11.52107,0,0,0-2.82083,4.1514.53335.53335,0,0,1-.53223.53224c-.26612,0-.53224.37257-.53224.79835s-.21289.79834-.53223.79834a.57236.57236,0,0,0-.53223.53224c0,.58544-1.80959,3.35306-3.03373,4.68364a2.55908,2.55908,0,0,0-.6919,1.49024c0,.42578-.21289.74514-.42579.74514-.26611,0-.90479.85156-1.49025,1.86281-.53223,1.01126-1.17091,1.86282-1.38381,1.86282a.43471.43471,0,0,0-.42578.479,42.71364,42.71364,0,0,1-3.45951,5.64165,39.24326,39.24326,0,0,0-3.45952,5.64166.46923.46923,0,0,1-.42578.479c-.26612,0-.79835.63868-1.22414,1.437a7.47774,7.47774,0,0,1-1.06447,1.75636,33.19489,33.19489,0,0,0-3.6724,5.90777.49146.49146,0,0,1-.53223.479c-.26612,0-.85158.85155-1.27736,1.86281s-1.06447,1.86281-1.38381,1.86281-.479.21291-.31934.42578c.15968.26612-.37256,1.11768-1.17091,1.96927s-1.3838,1.64991-1.27736,1.70315a32.7331,32.7331,0,0,1-3.087,4.94976c-.31933.31932-3.35306,4.8433-3.72562,5.58844-.74513,1.54349-14.10417,21.2893-14.47673,21.449a.87955.87955,0,0,0-.42579.69189,36.48,36.48,0,0,1-2.92728,4.7901c-1.64992,2.395-2.874,4.47076-2.71438,4.57718.26611.26612,77.28017.90481,84.73143.74514.74512-.05321,1.3838-.58544,1.80958-1.64991.37257-.9048.85158-1.59669,1.1177-1.59669a.52508.52508,0,0,0,.479-.53224,11.5211,11.5211,0,0,1,2.82084-4.1514.99732.99732,0,0,0,.37256-.85156c0-.58545.479-1.27737,2.60793-3.83208.26612-.37257.37256-.79835.21289-.958-.21289-.15966-.05322-.31932.26612-.31932a.72768.72768,0,0,0,.63868-.79835,1.70485,1.70485,0,0,1,.85157-1.22413c.479-.26612.85158-.6919.85158-.958a27.78833,27.78833,0,0,1,3.087-5.003,15.99793,15.99793,0,0,0,1.27735-2.12893,21.42328,21.42328,0,0,1,1.33059-2.12893,25.061,25.061,0,0,0,2.71438-3.93854,62.00982,62.00982,0,0,1,3.45952-5.32232,37.11582,37.11582,0,0,0,3.45951-5.58845.76713.76713,0,0,1,.42579-.69189,16.21426,16.21426,0,0,0,2.7676-3.88529,2.49511,2.49511,0,0,1,.58546-.958c.26612-.37257,1.75637-2.55471,3.29984-4.89655,1.49026-2.34184,2.82084-4.36432,3.03373-4.524a12.56255,12.56255,0,0,0,1.01124-1.70315,11.02324,11.02324,0,0,1,1.75637-2.5015,5.32473,5.32473,0,0,0,.958-1.33058c0-.479,10.27209-15.967,10.80432-16.33955.26612-.15966.37257-.479.26612-.63868a2.216,2.216,0,0,1,.69189-1.33058,27.64269,27.64269,0,0,0,1.86282-2.66117c.53223-.958,1.17091-1.70315,1.437-1.70315.21289,0,.31934-.2129.10645-.479-.15966-.26612.05323-.79835.42578-1.22413,1.17092-1.17092,4.0982-5.64165,4.0982-6.22713a.58294.58294,0,0,1,.53223-.58544c.31935,0,.53224-.37257.53224-.79835s.26611-.79835.53223-.79835c.31934,0,.53223-.31932.53223-.74514a1.16887,1.16887,0,0,1,.42578-.958,9.8855,9.8855,0,0,0,1.70315-2.28859c.6919-1.17092,1.49025-2.395,1.70315-2.66117.79835-.958,7.34481-11.01722,7.34481-11.23011a55.39665,55.39665,0,0,1,4.09819-5.90778,5.5467,5.5467,0,0,0,.958-1.75636c.15966-.58546.53223-1.06447.79834-1.06447.21289,0,.53224-.42578.74513-.958a12.31978,12.31978,0,0,1,1.96926-3.29985c.15967-.15966,1.70315-2.5015,3.45952-5.2691,1.70315-2.71439,3.566-5.42878,4.045-5.961.53223-.58546.85157-1.01124.69189-1.01124a10.80225,10.80225,0,0,1,1.5967-2.66116,13.43662,13.43662,0,0,0,1.86281-3.1934.48352.48352,0,0,1,.42578-.53223,7.53712,7.53712,0,0,0,1.70315-2.395,7.53677,7.53677,0,0,1,1.70316-2.395c.26611,0,.42577-.31935.42577-.6919a3.07339,3.07339,0,0,1,1.06447-1.70315,3.07332,3.07332,0,0,0,1.06447-1.70315.65625.65625,0,0,1,.53223-.6919.53334.53334,0,0,0,.53223-.53223c0-.58546,2.5015-4.63043,3.566-5.7481a4.75526,4.75526,0,0,0,.958-1.70316c.15966-.58545.53223-1.06446.74512-1.06446.26612,0,.74512-.6919,1.11769-1.5967s.85158-1.5967,1.06447-1.5967.69189-.69189,1.06446-1.59669.85158-1.5967,1.06447-1.5967.69189-.74512,1.06446-1.5967c.37257-.9048.9048-1.5967,1.17092-1.5967s.31934-.26611.15966-.53223c-.15966-.31934-.15966-.53223.10646-.53223a10.32587,10.32587,0,0,0,2.02247-2.66117c.85158-1.49024,1.75637-2.66116,2.02248-2.66116.21289,0,.31934-.21289.15966-.479-.15966-.21289.15967-.85158.74513-1.38381a3.18475,3.18475,0,0,0,1.06446-1.54347,5.24247,5.24247,0,0,1,1.33058-2.07571c.74513-.79835,1.22413-1.437,1.1177-1.437-.26612,0,7.02547-11.23011,8.19637-12.61392a2.68768,2.68768,0,0,0,.53224-1.22413.57235.57235,0,0,1,.53223-.53223c.31934,0,.53223-.37257.53223-.79835s.26612-.79835.53223-.79835a.53334.53334,0,0,0,.53224-.53223,13.43662,13.43662,0,0,1,1.86281-3.1934,21.07639,21.07639,0,0,0,1.86282-2.92728,5.25,5.25,0,0,1,1.06446-1.437A4.0175,4.0175,0,0,0,223.871,127.013a.65436.65436,0,0,1,.58546-.69189c.26611,0,.42577-.21289.26611-.42578-.15966-.26612.21289-.74512.74512-1.17092s.90481-.9048.79835-1.06447c-.15966-.21288.21289-.79834.79835-1.33058a3.57089,3.57089,0,0,0,1.06447-1.3838,75.0986,75.0986,0,0,1,4.1514-6.70614c2.34182-3.45951,6.54646-9.89953,9.42053-14.26383a100.18919,100.18919,0,0,1,5.80133-8.356c.31934-.21289.37257-.42579.10645-.42579s-.10645-.42579.31935-.958c.79834-.958.85157-1.38381.15966-3.03373-2.28859-5.482-3.99175-10.11242-3.99175-10.69787,0-.42579-.21288-.74513-.53223-.74513-.26611,0-.479-.15967-.42578-.42578.15967-.69191-1.38381-5.16266-1.916-5.53522-.31934-.21289-.37257-.53223-.15966-.74512a.74629.74629,0,0,0-.10645-.958,90.7363,90.7363,0,0,1-3.45952-10.0592c-.10645-.37256-.31934-1.06446-.479-1.59669-.21289-.479-.53223-1.33059-.74512-1.86282-.15967-.479-.37257-1.27735-.479-1.70314a66.188,66.188,0,0,0-1.916-6.44,12.03088,12.03088,0,0,1-.58546-2.50149c-.05323-.63868-.21289-1.17091-.37257-1.17091-.21289,0-.37257-.31934-.42578-.6919a9.14943,9.14943,0,0,0-.31934-1.70315c-.15968-.58545-.79835-3.087-1.33058-5.58844-.58546-2.50149-1.06447-4.5772-1.1177-4.68365-.10645-.05322-.15966-.26611-.21289-.53223-.26611-1.06447-1.01123-4.68365-1.11769-5.16265a5.42962,5.42962,0,0,0-.21289-.79835,24.451,24.451,0,0,1-.74512-4.25786,22.46978,22.46978,0,0,0-.58546-2.71439,2.78453,2.78453,0,0,1-.26611-1.33058,1.64083,1.64083,0,0,0-.05323-.74513,26.9828,26.9828,0,0,1-.74512-4.25786,8.485,8.485,0,0,0-.31935-1.86281,26.65246,26.65246,0,0,1-.58546-4.68365,2.777,2.777,0,0,0-.58545-1.75637c-.26612-.15967-.21289-.63868.10645-1.01124,1.17092-1.3838-.42578-1.27736-1.64993.15967Zm46.09134,134.28228c-.58544.90481-1.437,2.18216-1.86281,2.82083s-1.33058,2.02248-1.96927,3.03373c-1.49024,2.23539-1.75636,2.66117-4.41752,6.49325a28.327,28.327,0,0,0-2.12893,3.35306,2.41916,2.41916,0,0,1-.58546.9048c-.26612.37257-3.35306,4.94975-6.8658,10.21887-3.45951,5.2691-6.54645,9.8463-6.8658,10.21887a2.419,2.419,0,0,0-.58546.9048,28.50488,28.50488,0,0,1-3.83208,5.53522,1.16887,1.16887,0,0,0-.42578.958.67364.67364,0,0,1-.58546.74512.29353.29353,0,0,0-.26611.479.44507.44507,0,0,1-.05323.6919c-.63868.26611-3.88529,5.05621-3.88529,5.69489a1.80525,1.80525,0,0,1-.9048,1.06447c-.53223.31934-.74512.58546-.53223.58546s-.05323.53223-.6919,1.17091a4.0175,4.0175,0,0,0-1.06447,1.86282c0,.37257-.15966.69189-.37256.69189-.26612,0-1.1177,1.22413-2.02248,2.71439a33.25021,33.25021,0,0,1-2.12893,3.35306,25.4406,25.4406,0,0,0-2.92728,4.31109,2.62932,2.62932,0,0,1-.63869,1.06446c-1.54347,1.70316-1.96926,2.2886-1.75636,2.5015.10645.10646-.37257.90481-1.06446,1.70316a6.69548,6.69548,0,0,0-1.33058,1.916,5.14925,5.14925,0,0,1-1.06447,1.59669,4.25,4.25,0,0,0-1.06447,1.96927c0,.42578-.21289.63869-.479.479s-.63869.26611-.79835,1.01124c-.21289.74512-.58546,1.33058-.85158,1.33058a.53334.53334,0,0,0-.53223.53223,12.09038,12.09038,0,0,1-2.76761,4.15141.75083.75083,0,0,0-.42578.63868c0,.63869-3.29985,5.53522-3.83209,5.74811a.89611.89611,0,0,0-.42577.74512c0,.58546-3.24663,5.37555-3.83209,5.64167a.76715.76715,0,0,0-.42578.6919c0,.74512-3.88529,6.33358-4.41752,6.33358-.21289,0-.31934.2129-.10645.479.15966.26612-.05323.79835-.37257,1.22413a59.2566,59.2566,0,0,0-3.61918,5.21587c-1.59669,2.5015-3.03373,4.63043-3.19339,4.79009a34.53391,34.53391,0,0,0-2.66117,3.99175c-.79834,1.54349-24.74881,37.30949-25.22782,37.62885-.31934.21291-.37257.42578-.10645.42578s.05323.53223-.53223,1.17092c-1.27736,1.437-3.77886,5.32232-3.83208,5.90777,0,.26611-.58546.9048-1.22413,1.49024-.63869.53223-.958,1.01126-.74513,1.01126.26612,0-.10645.58544-.79834,1.33058s-1.01124,1.33058-.74513,1.33058.21289.2129-.05322.42578a26.26785,26.26785,0,0,0-3.93852,5.53523c-.42578.85156-.958,1.49025-1.22413,1.49025a.487.487,0,0,0-.42578.53223,13.82428,13.82428,0,0,1-1.75636,3.03373,23.35441,23.35441,0,0,0-2.12893,3.45951c-.21289.53223-.58546.958-.9048.958-.26612,0-.53223.37257-.53223.79835s-.21289.79835-.53224.79835a.52509.52509,0,0,0-.53223.479,49.95428,49.95428,0,0,1-4.045,6.44c-2.18216,3.29984-3.88529,6.06746-3.77886,6.22712.26612.21291,26.66486.53224,66.05007.6919,18.04268.10645,19.10715.05321,19.95873-.9048a20.29768,20.29768,0,0,0,2.55471-3.88529,8.62257,8.62257,0,0,1,1.33058-1.80961c.479-.53223.79835-1.22413.63868-1.49024-.15966-.21291-.05322-.42578.26612-.42578s.958-.79835,1.437-1.75636a9.50635,9.50635,0,0,1,1.27736-1.96927,37.13287,37.13287,0,0,0,2.18216-3.35306,11.4235,11.4235,0,0,1,2.18215-3.03373c.26612,0,.42578-.37257.42578-.79835s.26612-.79835.58546-.79835a.29354.29354,0,0,0,.26612-.479.44507.44507,0,0,1,.05322-.6919,11.5209,11.5209,0,0,0,2.82083-4.15141.57236.57236,0,0,1,.53223-.53223c.31935,0,.53223-.37257.53223-.79835s.21289-.79835.42578-.79835c.26612,0,.74513-.53223,1.1177-1.22412a28.80662,28.80662,0,0,1,1.64992-2.76762,28.99342,28.99342,0,0,0,1.64992-2.82083c.37257-.63868.85158-1.17091,1.1177-1.17091.21289,0,.42578-.31933.42578-.6919a3.62436,3.62436,0,0,1,.958-1.75636,15.06668,15.06668,0,0,0,1.64992-2.44826,15.857,15.857,0,0,1,1.86282-2.66116c.63868-.63869,1.11769-1.33058,1.06446-1.49025a56.45117,56.45117,0,0,1,5.2691-7.877.83062.83062,0,0,0,.37257-.6919,70.49828,70.49828,0,0,1,5.32233-8.46251c.15966-.15966,1.11769-1.5967,2.12893-3.1934a20.243,20.243,0,0,1,2.395-3.29984c.26612-.21291.31935-.42578.10646-.42578-.26612,0-.10646-.37257.26611-.79835,1.64993-1.80961,1.916-2.2886,1.64993-2.608-.21289-.15967-.05323-.31933.26611-.31933a.67681.67681,0,0,0,.63869-.74514,1.16892,1.16892,0,0,1,.42578-.958,22.26523,22.26523,0,0,0,2.82083-3.88529,22.90565,22.90565,0,0,1,2.71437-3.8853.8795.8795,0,0,0,.42578-.69189,14.78215,14.78215,0,0,1,1.86281-3.14019,17.55024,17.55024,0,0,0,1.86282-2.98049,2.99675,2.99675,0,0,1,.69189-1.01125c.31933-.37257,2.2886-3.29985,4.36432-6.49325a54.5192,54.5192,0,0,1,4.09819-5.90778.42.42,0,0,0,.10646-.6919c-.15967-.26611.10645-.63868.53223-.79834.479-.15967.85156-.58546.85156-.85158a12.5006,12.5006,0,0,1,1.86281-3.14017c1.01126-1.437,1.86282-2.71439,1.86282-2.76762,0-.21289,8.835-13.67838,9.47373-14.47673.21291-.31934.9048-1.38381,1.49024-2.395a7.56269,7.56269,0,0,1,1.70316-2.28859,1.54181,1.54181,0,0,0,.63868-.958,6.79978,6.79978,0,0,1,1.33058-2.28859,6.86589,6.86589,0,0,0,1.33058-2.34183c0-.37256.21291-.63868.42578-.63868.26612,0,.74514-.58546,1.06447-1.27736.479-1.06446.26612-1.59669-1.54349-3.99174-1.11767-1.49024-1.86281-2.71439-1.64991-2.71439s.10646-.21289-.2129-.42578c-.6919-.42578-5.53523-7.50448-5.53523-8.08994a3.53682,3.53682,0,0,0-1.06447-1.33058,3.07348,3.07348,0,0,1-1.06446-1.70315c0-.37257-.21291-.6919-.53224-.6919-.26611,0-.53223-.31934-.53223-.74512a1.16889,1.16889,0,0,0-.42578-.958,51.52736,51.52736,0,0,1-4.89655-7.61092,5.25046,5.25046,0,0,0-1.06446-1.437,4.01762,4.01762,0,0,1-1.06447-1.86281c0-.37257-.2129-.6919-.53223-.6919a.52507.52507,0,0,1-.53223-.479,10.19716,10.19716,0,0,0-1.5967-2.87406,12.86588,12.86588,0,0,1-1.5967-2.9805.54178.54178,0,0,0-.479-.58546c-.26612,0-.58544-.42578-.74514-.958a22.843,22.843,0,0,0-2.5015-4.36432,22.44213,22.44213,0,0,1-1.54349-2.66116,28.81873,28.81873,0,0,0-1.59669-2.66116,5.27137,5.27137,0,0,1-.958-1.5967c-.37256-.74512-1.75636-3.24662-3.08694-5.58844a46.10149,46.10149,0,0,1-2.76761-5.21588c-.15967-.479-.479-.9048-.6919-.9048-.42578,0-1.8096-3.14017-1.64991-3.88529.15967-.958-.85156-.21289-1.8096,1.27735Zm67.43388,102.13544a5.96857,5.96857,0,0,0-1.11768,1.916.90619.90619,0,0,1-.42578.69189c-.74513.53223-7.07868,10.0592-7.07868,10.69788,0,.26612-.15967.53223-.37257.53223-.26612,0-1.27737,1.437-2.2886,3.1934a12.51648,12.51648,0,0,1-2.23538,3.19339c-.26611,0-.42578.31933-.42578.74514a1.15393,1.15393,0,0,1-.37257.958c-.58544.2129-3.35306,4.524-3.35306,5.16266,0,.26611-.37257.58544-.79835.79835a1.27283,1.27283,0,0,0-.79834,1.06446c0,.42578-.15967.85156-.42578.958a16.64041,16.64041,0,0,0-2.23539,3.087c-1.01125,1.59669-1.96926,3.03373-2.12893,3.19339a21.36317,21.36317,0,0,0-1.5967,2.39505,26.62768,26.62768,0,0,1-1.916,2.82083,4.15207,4.15207,0,0,0-1.01125,1.70315c-.15967.58544-.58545,1.06446-.90481,1.06446s-.479.15966-.26611.31933c.15966.2129.05321.63868-.31933,1.01125a10.39637,10.39637,0,0,0-1.27737,1.64991c-.37257.58544-1.75636,2.66116-3.08694,4.63043a24.66407,24.66407,0,0,0-2.395,4.15141.46924.46924,0,0,1-.42578.479c-.26612,0-.79835.63869-1.22413,1.437a9.99756,9.99756,0,0,1-1.06446,1.75636c-.15967.15966-2.66117,3.83208-5.53524,8.2496-2.87406,4.36432-5.42877,8.08994-5.64165,8.14315a.42814.42814,0,0,0-.15966.6919.29354.29354,0,0,1-.26612.479c-.31932,0-.58544.37257-.58544.79835a1.28158,1.28158,0,0,1-.79835,1.11768c-.42578.2129-.63868.53223-.479.79835a.29354.29354,0,0,1-.26612.479.59064.59064,0,0,0-.58544.58544,5.05,5.05,0,0,1-.9048,1.8096c-1.11768,1.437-1.11768,1.437-6.49325,9.58019-2.34183,3.51272-4.524,6.70612-4.8433,7.07869-.42578.479.31933.63868,3.566.69189,10.5382.10646,47.95415.42578,63.97437.479l17.72334.10645,1.27737-1.49024a9.01986,9.01986,0,0,0,1.27737-1.96927,4.5663,4.5663,0,0,1,1.06447-1.54349,4.01762,4.01762,0,0,0,1.06446-1.86281.65438.65438,0,0,1,.58544-.6919c.26612,0,.42578-.21291.26612-.42578-.15966-.26612.21291-.74514.74514-1.17092s.9048-.9048.79835-1.06446c-.15967-.21291.2129-.79835.79835-1.33058a3.36116,3.36116,0,0,0,1.06446-1.49025,6.261,6.261,0,0,1,1.33058-2.23538c.6919-.958,1.11768-1.86282.958-2.07572-.21291-.15967-.10646-.31933.2129-.31933s2.2886-2.76761,4.41753-6.12067,4.36431-6.5997,4.89654-7.18514.85156-1.06447.74514-1.06447c-.42578,0,6.12068-9.73985,6.81257-10.21887.31933-.21291.37257-.42578.15966-.42578-.26611,0,.05322-.63869.63869-1.38379a4.92436,4.92436,0,0,0,1.11768-2.18214c0-.63869-2.39505-3.35306-9.15441-10.37854a23.96945,23.96945,0,0,1-2.55471-2.82083,6.45811,6.45811,0,0,0-1.17092-1.437c-1.17092-1.17092-4.89655-5.42878-8.99474-10.21887-1.01126-1.11768-2.2886-2.55471-2.87407-3.1934-.85156-.9048-3.61918-4.0982-7.45126-8.62217-.79835-.958-3.29985-3.99175-9.048-11.12368-7.45126-9.1544-6.75936-8.56894-8.14316-6.6529Z"/></svg>